<svg width="146" height="147" viewBox="0 0 146 147" fill="none" xmlns="http://www.w3.org/2000/svg">
<mask id="mask0_3371_25367" style="mask-type:alpha" maskUnits="userSpaceOnUse" x="-25" y="-38" width="303" height="203">
<path d="M278 54H267.586H257.172H246.759H236.345H225.931H215.517V54C209.253 54 203.644 57.8842 201.442 63.7487L197.411 74.4788C195.774 78.8369 191.606 81.7234 186.951 81.7234H186.13C184.911 81.7234 183.709 81.4358 182.623 80.8838V80.8838C178.157 78.6155 172.744 81.1196 171.582 85.992L165.865 109.957C164.448 115.896 159.14 120.087 153.034 120.087V120.087H142.621H142.178C135.983 120.087 130.235 116.866 127 111.584V111.584C123.765 106.301 118.017 103.081 111.822 103.081H111.379H109.623C104.172 103.081 99.0372 100.519 95.7586 96.1637L93.6832 93.4066C91.7114 90.7872 88.6234 89.2466 85.3448 89.2466V89.2466C82.0662 89.2466 78.9782 90.7872 77.0064 93.4066L74.9222 96.1754C71.648 100.525 66.5252 103.089 61.081 103.104L59.3104 103.109H48.8965V103.109C42.6343 103.109 37.0306 106.998 34.8402 112.865L31.7116 121.244C29.5211 127.111 23.9174 131 17.6552 131V131H14.4329C9.81645 131 5.37695 129.224 2.03448 126.039V126.039C-1.30798 122.855 -5.74749 121.079 -10.364 121.079H-13.5862H-24" stroke="url(#paint0_linear_3371_25367)"/>
<path d="M277 1H266.586H256.172H245.759H235.345H224.931H214.517V1C208.253 1 202.644 4.88418 200.442 10.7487L196.411 21.4788C194.774 25.8369 190.606 28.7234 185.951 28.7234H185.13C183.911 28.7234 182.709 28.4358 181.623 27.8838V27.8838C177.157 25.6155 171.744 28.1196 170.582 32.992L164.865 56.9573C163.448 62.8964 158.14 67.0869 152.034 67.0869V67.0869H141.621H141.178C134.983 67.0869 129.235 63.8663 126 58.5838V58.5838C122.765 53.3014 117.017 50.0808 110.822 50.0808H110.379H108.623C103.172 50.0808 98.0372 47.5191 94.7586 43.1637L92.6832 40.4066C90.7114 37.7872 87.6234 36.2466 84.3448 36.2466V36.2466C81.0662 36.2466 77.9782 37.7872 76.0064 40.4066L73.9222 43.1754C70.648 47.525 65.5252 50.0895 60.081 50.1042L58.3104 50.109H47.8965V50.109C41.6343 50.109 36.0306 53.9983 33.8402 59.8649L30.7116 68.2441C28.5211 74.1107 22.9174 78 16.6552 78V78H13.4329C8.81645 78 4.37695 76.2238 1.03448 73.0395V73.0395C-2.30798 69.8552 -6.74749 68.079 -11.364 68.079H-14.5862H-25" stroke="url(#paint1_linear_3371_25367)"/>
<path d="M278 60H267.586H257.172H246.759H236.345H225.931H215.517V60C209.247 60 203.629 63.873 201.399 69.7328L197.447 80.1175C195.787 84.48 191.605 87.3634 186.937 87.3634H186.12C184.907 87.3634 183.711 87.0804 182.627 86.5369V86.5369C178.144 84.2897 172.737 86.7992 171.559 91.6734L165.895 115.106C164.459 121.045 159.144 125.229 153.034 125.229V125.229H142.621H142.084C135.942 125.229 130.238 122.054 127 116.836V116.836C123.762 111.618 118.058 108.443 111.916 108.443H111.379H109.552C104.141 108.443 99.0399 105.919 95.7586 101.616L93.7093 98.9291C91.7195 96.32 88.6261 94.7888 85.3448 94.7888V94.7888C82.0635 94.7888 78.9702 96.32 76.9803 98.9291L74.9223 101.628C71.6454 105.924 66.556 108.452 61.1524 108.466L59.3104 108.471H48.8965V108.471C42.6292 108.471 37.0157 112.349 34.7982 118.211L31.7536 126.26C29.536 132.122 23.9226 136 17.6552 136V136H14.3886C9.7975 136 5.3792 134.249 2.03448 131.104V131.104C-1.31024 127.959 -5.72854 126.208 -10.3197 126.208H-13.5862H-24" stroke="url(#paint2_linear_3371_25367)"/>
<path d="M277 7H266.586H256.172H245.759H235.345H224.931H214.517V7C208.247 7 202.629 10.873 200.399 16.7328L196.447 27.1175C194.787 31.48 190.605 34.3634 185.937 34.3634H185.12C183.907 34.3634 182.711 34.0804 181.627 33.5369V33.5369C177.144 31.2897 171.737 33.7992 170.559 38.6734L164.895 62.1063C163.459 68.045 158.144 72.2286 152.034 72.2286V72.2286H141.621H141.084C134.942 72.2286 129.238 69.0544 126 63.836V63.836C122.762 58.6176 117.058 55.4434 110.916 55.4434H110.379H108.552C103.141 55.4434 98.0399 52.9185 94.7586 48.6161L92.7093 45.9291C90.7195 43.32 87.6261 41.7888 84.3448 41.7888V41.7888C81.0635 41.7888 77.9702 43.32 75.9803 45.9291L73.9223 48.6276C70.6454 52.9243 65.556 55.4519 60.1524 55.4663L58.3104 55.4712H47.8965V55.4712C41.6292 55.4712 36.0157 59.3494 33.7982 65.2114L30.7536 73.2598C28.536 79.1218 22.9226 83 16.6552 83V83H13.3886C8.7975 83 4.3792 81.249 1.03448 78.1039V78.1039C-2.31024 74.9588 -6.72854 73.2078 -11.3197 73.2078H-14.5862H-25" stroke="url(#paint3_linear_3371_25367)"/>
<path d="M278 65H267.586H257.172H246.759H236.345H225.931H215.517V65C209.253 65 203.644 68.8842 201.442 74.7487L197.411 85.4788C195.774 89.8369 191.606 92.7234 186.951 92.7234H186.13C184.911 92.7234 183.709 92.4358 182.623 91.8838V91.8838C178.157 89.6155 172.744 92.1196 171.582 96.992L165.865 120.957C164.448 126.896 159.14 131.087 153.034 131.087V131.087H142.621H142.178C135.983 131.087 130.235 127.866 127 122.584V122.584C123.765 117.301 118.017 114.081 111.822 114.081H111.379H109.623C104.172 114.081 99.0372 111.519 95.7586 107.164L93.6832 104.407C91.7114 101.787 88.6234 100.247 85.3448 100.247V100.247C82.0662 100.247 78.9782 101.787 77.0064 104.407L74.9222 107.175C71.648 111.525 66.5252 114.089 61.081 114.104L59.3104 114.109H48.8965V114.109C42.6343 114.109 37.0306 117.998 34.8402 123.865L31.7116 132.244C29.5211 138.111 23.9174 142 17.6552 142V142H14.4329C9.81645 142 5.37695 140.224 2.03448 137.039V137.039C-1.30798 133.855 -5.74749 132.079 -10.364 132.079H-13.5862H-24" stroke="url(#paint4_linear_3371_25367)"/>
<path d="M277 12H266.586H256.172H245.759H235.345H224.931H214.517V12C208.253 12 202.644 15.8842 200.442 21.7487L196.411 32.4788C194.774 36.8369 190.606 39.7234 185.951 39.7234H185.13C183.911 39.7234 182.709 39.4358 181.623 38.8838V38.8838C177.157 36.6155 171.744 39.1196 170.582 43.992L164.865 67.9573C163.448 73.8964 158.14 78.0869 152.034 78.0869V78.0869H141.621H141.178C134.983 78.0869 129.235 74.8663 126 69.5838V69.5838C122.765 64.3014 117.017 61.0808 110.822 61.0808H110.379H108.623C103.172 61.0808 98.0372 58.5191 94.7586 54.1637L92.6832 51.4066C90.7114 48.7872 87.6234 47.2466 84.3448 47.2466V47.2466C81.0662 47.2466 77.9782 48.7872 76.0064 51.4066L73.9222 54.1754C70.648 58.525 65.5252 61.0895 60.081 61.1042L58.3104 61.109H47.8965V61.109C41.6343 61.109 36.0306 64.9983 33.8402 70.8649L30.7116 79.2441C28.5211 85.1107 22.9174 89 16.6552 89V89H13.4329C8.81645 89 4.37695 87.2238 1.03448 84.0395V84.0395C-2.30798 80.8552 -6.74749 79.079 -11.364 79.079H-14.5862H-25" stroke="url(#paint5_linear_3371_25367)"/>
<path d="M277 -37H266.586H256.172H245.759H235.345H224.931H214.517V-37C208.247 -37 202.629 -33.127 200.399 -27.2672L196.447 -16.8825C194.787 -12.52 190.605 -9.63664 185.937 -9.63664H185.12C183.907 -9.63664 182.711 -9.91962 181.627 -10.4631V-10.4631C177.144 -12.7103 171.737 -10.2008 170.559 -5.32656L164.895 18.1063C163.459 24.045 158.144 28.2286 152.034 28.2286V28.2286H141.621H141.084C134.942 28.2286 129.238 25.0544 126 19.836V19.836C122.762 14.6176 117.058 11.4434 110.916 11.4434H110.379H108.552C103.141 11.4434 98.0399 8.91853 94.7586 4.61611L92.7093 1.92906C90.7195 -0.680032 87.6261 -2.21117 84.3448 -2.21117V-2.21117C81.0635 -2.21117 77.9702 -0.680029 75.9803 1.92907L73.9223 4.62761C70.6454 8.92428 65.556 11.4519 60.1524 11.4663L58.3104 11.4712H47.8965V11.4712C41.6292 11.4712 36.0157 15.3494 33.7982 21.2114L30.7536 29.2598C28.536 35.1218 22.9226 39 16.6552 39V39H13.3886C8.7975 39 4.3792 37.249 1.03448 34.1039V34.1039C-2.31024 30.9588 -6.72854 29.2078 -11.3197 29.2078H-14.5862H-25" stroke="url(#paint6_linear_3371_25367)"/>
<path d="M278 71H267.586H257.172H246.759H236.345H225.931H215.517V71C209.247 71 203.629 74.873 201.399 80.7328L197.447 91.1175C195.787 95.48 191.605 98.3634 186.937 98.3634H186.12C184.907 98.3634 183.711 98.0804 182.627 97.5369V97.5369C178.144 95.2897 172.737 97.7992 171.559 102.673L165.895 126.106C164.459 132.045 159.144 136.229 153.034 136.229V136.229H142.621H142.084C135.942 136.229 130.238 133.054 127 127.836V127.836C123.762 122.618 118.058 119.443 111.916 119.443H111.379H109.552C104.141 119.443 99.0399 116.919 95.7586 112.616L93.7093 109.929C91.7195 107.32 88.6261 105.789 85.3448 105.789V105.789C82.0635 105.789 78.9702 107.32 76.9803 109.929L74.9223 112.628C71.6454 116.924 66.556 119.452 61.1524 119.466L59.3104 119.471H48.8965V119.471C42.6292 119.471 37.0157 123.349 34.7982 129.211L31.7536 137.26C29.536 143.122 23.9226 147 17.6552 147V147H14.3886C9.7975 147 5.3792 145.249 2.03448 142.104V142.104C-1.31024 138.959 -5.72854 137.208 -10.3197 137.208H-13.5862H-24" stroke="url(#paint7_linear_3371_25367)"/>
<path d="M277 18H266.586H256.172H245.759H235.345H224.931H214.517V18C208.247 18 202.629 21.873 200.399 27.7328L196.447 38.1175C194.787 42.48 190.605 45.3634 185.937 45.3634H185.12C183.907 45.3634 182.711 45.0804 181.627 44.5369V44.5369C177.144 42.2897 171.737 44.7992 170.559 49.6734L164.895 73.1063C163.459 79.045 158.144 83.2286 152.034 83.2286V83.2286H141.621H141.084C134.942 83.2286 129.238 80.0544 126 74.836V74.836C122.762 69.6176 117.058 66.4434 110.916 66.4434H110.379H108.552C103.141 66.4434 98.0399 63.9185 94.7586 59.6161L92.7093 56.9291C90.7195 54.32 87.6261 52.7888 84.3448 52.7888V52.7888C81.0635 52.7888 77.9702 54.32 75.9803 56.9291L73.9223 59.6276C70.6454 63.9243 65.556 66.4519 60.1524 66.4663L58.3104 66.4712H47.8965V66.4712C41.6292 66.4712 36.0157 70.3494 33.7982 76.2114L30.7536 84.2598C28.536 90.1218 22.9226 94 16.6552 94V94H13.3886C8.7975 94 4.3792 92.249 1.03448 89.1039V89.1039C-2.31024 85.9588 -6.72854 84.2078 -11.3197 84.2078H-14.5862H-25" stroke="url(#paint8_linear_3371_25367)"/>
<path d="M277 -32H266.586H256.172H245.759H235.345H224.931H214.517V-32C208.253 -32 202.644 -28.1158 200.442 -22.2513L196.411 -11.5212C194.774 -7.16308 190.606 -4.27659 185.951 -4.27659H185.13C183.911 -4.27659 182.709 -4.56425 181.623 -5.11617V-5.11617C177.157 -7.38449 171.744 -4.88045 170.582 -0.00795094L164.865 23.9573C163.448 29.8964 158.14 34.0869 152.034 34.0869V34.0869H141.621H141.178C134.983 34.0869 129.235 30.8663 126 25.5838V25.5838C122.765 20.3014 117.017 17.0808 110.822 17.0808H110.379H108.623C103.172 17.0808 98.0372 14.5191 94.7586 10.1637L92.6832 7.4066C90.7114 4.7872 87.6234 3.24658 84.3448 3.24658V3.24658C81.0662 3.24658 77.9782 4.7872 76.0064 7.4066L73.9222 10.1754C70.648 14.525 65.5252 17.0895 60.081 17.1042L58.3104 17.109H47.8965V17.109C41.6343 17.109 36.0306 20.9983 33.8402 26.8649L30.7116 35.2441C28.5211 41.1107 22.9174 45 16.6552 45V45H13.4329C8.81645 45 4.37695 43.2238 1.03448 40.0395V40.0395C-2.30798 36.8552 -6.74749 35.079 -11.364 35.079H-14.5862H-25" stroke="url(#paint9_linear_3371_25367)"/>
<path d="M278 76H267.586H257.172H246.759H236.345H225.931H215.517V76C209.253 76 203.644 79.8842 201.442 85.7487L197.411 96.4788C195.774 100.837 191.606 103.723 186.951 103.723H186.13C184.911 103.723 183.709 103.436 182.623 102.884V102.884C178.157 100.616 172.744 103.12 171.582 107.992L165.865 131.957C164.448 137.896 159.14 142.087 153.034 142.087V142.087H142.621H142.178C135.983 142.087 130.235 138.866 127 133.584V133.584C123.765 128.301 118.017 125.081 111.822 125.081H111.379H109.623C104.172 125.081 99.0372 122.519 95.7586 118.164L93.6832 115.407C91.7114 112.787 88.6234 111.247 85.3448 111.247V111.247C82.0662 111.247 78.9782 112.787 77.0064 115.407L74.9222 118.175C71.648 122.525 66.5252 125.089 61.081 125.104L59.3104 125.109H48.8965V125.109C42.6343 125.109 37.0306 128.998 34.8402 134.865L31.7116 143.244C29.5211 149.111 23.9174 153 17.6552 153V153H14.4329C9.81645 153 5.37695 151.224 2.03448 148.039V148.039C-1.30798 144.855 -5.74749 143.079 -10.364 143.079H-13.5862H-24" stroke="url(#paint10_linear_3371_25367)"/>
<path d="M277 23H266.586H256.172H245.759H235.345H224.931H214.517V23C208.253 23 202.644 26.8842 200.442 32.7487L196.411 43.4788C194.774 47.8369 190.606 50.7234 185.951 50.7234H185.13C183.911 50.7234 182.709 50.4358 181.623 49.8838V49.8838C177.157 47.6155 171.744 50.1196 170.582 54.992L164.865 78.9573C163.448 84.8964 158.14 89.0869 152.034 89.0869V89.0869H141.621H141.178C134.983 89.0869 129.235 85.8663 126 80.5838V80.5838C122.765 75.3014 117.017 72.0808 110.822 72.0808H110.379H108.623C103.172 72.0808 98.0372 69.5191 94.7586 65.1637L92.6832 62.4066C90.7114 59.7872 87.6234 58.2466 84.3448 58.2466V58.2466C81.0662 58.2466 77.9782 59.7872 76.0064 62.4066L73.9222 65.1754C70.648 69.525 65.5252 72.0895 60.081 72.1042L58.3104 72.109H47.8965V72.109C41.6343 72.109 36.0306 75.9983 33.8402 81.8649L30.7116 90.2441C28.5211 96.1107 22.9174 100 16.6552 100V100H13.4329C8.81645 100 4.37695 98.2238 1.03448 95.0395V95.0395C-2.30798 91.8552 -6.74749 90.079 -11.364 90.079H-14.5862H-25" stroke="url(#paint11_linear_3371_25367)"/>
<path d="M277 -26H266.586H256.172H245.759H235.345H224.931H214.517V-26C208.247 -26 202.629 -22.127 200.399 -16.2672L196.447 -5.88251C194.787 -1.52003 190.605 1.36336 185.937 1.36336H185.12C183.907 1.36336 182.711 1.08038 181.627 0.536932V0.536932C177.144 -1.71027 171.737 0.799238 170.559 5.67344L164.895 29.1063C163.459 35.045 158.144 39.2286 152.034 39.2286V39.2286H141.621H141.084C134.942 39.2286 129.238 36.0544 126 30.836V30.836C122.762 25.6176 117.058 22.4434 110.916 22.4434H110.379H108.552C103.141 22.4434 98.0399 19.9185 94.7586 15.6161L92.7093 12.9291C90.7195 10.32 87.6261 8.78883 84.3448 8.78883V8.78883C81.0635 8.78883 77.9702 10.32 75.9803 12.9291L73.9223 15.6276C70.6454 19.9243 65.556 22.4519 60.1524 22.4663L58.3104 22.4712H47.8965V22.4712C41.6292 22.4712 36.0157 26.3494 33.7982 32.2114L30.7536 40.2598C28.536 46.1218 22.9226 50 16.6552 50V50H13.3886C8.7975 50 4.3792 48.249 1.03448 45.1039V45.1039C-2.31024 41.9588 -6.72854 40.2078 -11.3197 40.2078H-14.5862H-25" stroke="url(#paint12_linear_3371_25367)"/>
<path d="M278 82H267.586H257.172H246.759H236.345H225.931H215.517V82C209.247 82 203.629 85.873 201.399 91.7328L197.447 102.117C195.787 106.48 191.605 109.363 186.937 109.363H186.12C184.907 109.363 183.711 109.08 182.627 108.537V108.537C178.144 106.29 172.737 108.799 171.559 113.673L165.895 137.106C164.459 143.045 159.144 147.229 153.034 147.229V147.229H142.621H142.084C135.942 147.229 130.238 144.054 127 138.836V138.836C123.762 133.618 118.058 130.443 111.916 130.443H111.379H109.552C104.141 130.443 99.0399 127.919 95.7586 123.616L93.7093 120.929C91.7195 118.32 88.6261 116.789 85.3448 116.789V116.789C82.0635 116.789 78.9702 118.32 76.9803 120.929L74.9223 123.628C71.6454 127.924 66.556 130.452 61.1524 130.466L59.3104 130.471H48.8965V130.471C42.6292 130.471 37.0157 134.349 34.7982 140.211L31.7536 148.26C29.536 154.122 23.9226 158 17.6552 158V158H14.3886C9.7975 158 5.3792 156.249 2.03448 153.104V153.104C-1.31024 149.959 -5.72854 148.208 -10.3197 148.208H-13.5862H-24" stroke="url(#paint13_linear_3371_25367)"/>
<path d="M277 29H266.586H256.172H245.759H235.345H224.931H214.517V29C208.247 29 202.629 32.873 200.399 38.7328L196.447 49.1175C194.787 53.48 190.605 56.3634 185.937 56.3634H185.12C183.907 56.3634 182.711 56.0804 181.627 55.5369V55.5369C177.144 53.2897 171.737 55.7992 170.559 60.6734L164.895 84.1063C163.459 90.045 158.144 94.2286 152.034 94.2286V94.2286H141.621H141.084C134.942 94.2286 129.238 91.0544 126 85.836V85.836C122.762 80.6176 117.058 77.4434 110.916 77.4434H110.379H108.552C103.141 77.4434 98.0399 74.9185 94.7586 70.6161L92.7093 67.9291C90.7195 65.32 87.6261 63.7888 84.3448 63.7888V63.7888C81.0635 63.7888 77.9702 65.32 75.9803 67.9291L73.9223 70.6276C70.6454 74.9243 65.556 77.4519 60.1524 77.4663L58.3104 77.4712H47.8965V77.4712C41.6292 77.4712 36.0157 81.3494 33.7982 87.2114L30.7536 95.2598C28.536 101.122 22.9226 105 16.6552 105V105H13.3886C8.7975 105 4.3792 103.249 1.03448 100.104V100.104C-2.31024 96.9588 -6.72854 95.2078 -11.3197 95.2078H-14.5862H-25" stroke="url(#paint14_linear_3371_25367)"/>
<path d="M277 -21H266.586H256.172H245.759H235.345H224.931H214.517V-21C208.253 -21 202.644 -17.1158 200.442 -11.2513L196.411 -0.521243C194.774 3.83692 190.606 6.72341 185.951 6.72341H185.13C183.911 6.72341 182.709 6.43575 181.623 5.88383V5.88383C177.157 3.61551 171.744 6.11955 170.582 10.992L164.865 34.9573C163.448 40.8964 158.14 45.0869 152.034 45.0869V45.0869H141.621H141.178C134.983 45.0869 129.235 41.8663 126 36.5838V36.5838C122.765 31.3014 117.017 28.0808 110.822 28.0808H110.379H108.623C103.172 28.0808 98.0372 25.5191 94.7586 21.1637L92.6832 18.4066C90.7114 15.7872 87.6234 14.2466 84.3448 14.2466V14.2466C81.0662 14.2466 77.9782 15.7872 76.0064 18.4066L73.9222 21.1754C70.648 25.525 65.5252 28.0895 60.081 28.1042L58.3104 28.109H47.8965V28.109C41.6343 28.109 36.0306 31.9983 33.8402 37.8649L30.7116 46.2441C28.5211 52.1107 22.9174 56 16.6552 56V56H13.4329C8.81645 56 4.37695 54.2238 1.03448 51.0395V51.0395C-2.30798 47.8552 -6.74749 46.079 -11.364 46.079H-14.5862H-25" stroke="url(#paint15_linear_3371_25367)"/>
<path d="M278 87H267.586H257.172H246.759H236.345H225.931H215.517V87C209.253 87 203.644 90.8842 201.442 96.7487L197.411 107.479C195.774 111.837 191.606 114.723 186.951 114.723H186.13C184.911 114.723 183.709 114.436 182.623 113.884V113.884C178.157 111.616 172.744 114.12 171.582 118.992L165.865 142.957C164.448 148.896 159.14 153.087 153.034 153.087V153.087H142.621H142.178C135.983 153.087 130.235 149.866 127 144.584V144.584C123.765 139.301 118.017 136.081 111.822 136.081H111.379H109.623C104.172 136.081 99.0372 133.519 95.7586 129.164L93.6832 126.407C91.7114 123.787 88.6234 122.247 85.3448 122.247V122.247C82.0662 122.247 78.9782 123.787 77.0064 126.407L74.9222 129.175C71.648 133.525 66.5252 136.089 61.081 136.104L59.3104 136.109H48.8965V136.109C42.6343 136.109 37.0306 139.998 34.8402 145.865L31.7116 154.244C29.5211 160.111 23.9174 164 17.6552 164V164H14.4329C9.81645 164 5.37695 162.224 2.03448 159.039V159.039C-1.30798 155.855 -5.74749 154.079 -10.364 154.079H-13.5862H-24" stroke="url(#paint16_linear_3371_25367)"/>
<path d="M277 34H266.586H256.172H245.759H235.345H224.931H214.517V34C208.253 34 202.644 37.8842 200.442 43.7487L196.411 54.4788C194.774 58.8369 190.606 61.7234 185.951 61.7234H185.13C183.911 61.7234 182.709 61.4358 181.623 60.8838V60.8838C177.157 58.6155 171.744 61.1196 170.582 65.992L164.865 89.9573C163.448 95.8964 158.14 100.087 152.034 100.087V100.087H141.621H141.178C134.983 100.087 129.235 96.8663 126 91.5838V91.5838C122.765 86.3014 117.017 83.0808 110.822 83.0808H110.379H108.623C103.172 83.0808 98.0372 80.5191 94.7586 76.1637L92.6832 73.4066C90.7114 70.7872 87.6234 69.2466 84.3448 69.2466V69.2466C81.0662 69.2466 77.9782 70.7872 76.0064 73.4066L73.9222 76.1754C70.648 80.525 65.5252 83.0895 60.081 83.1042L58.3104 83.109H47.8965V83.109C41.6343 83.109 36.0306 86.9983 33.8402 92.8649L30.7116 101.244C28.5211 107.111 22.9174 111 16.6552 111V111H13.4329C8.81645 111 4.37695 109.224 1.03448 106.039V106.039C-2.30798 102.855 -6.74749 101.079 -11.364 101.079H-14.5862H-25" stroke="url(#paint17_linear_3371_25367)"/>
<path d="M277 -15H266.586H256.172H245.759H235.345H224.931H214.517V-15C208.247 -15 202.629 -11.127 200.399 -5.26722L196.447 5.11749C194.787 9.47997 190.605 12.3634 185.937 12.3634H185.12C183.907 12.3634 182.711 12.0804 181.627 11.5369V11.5369C177.144 9.28973 171.737 11.7992 170.559 16.6734L164.895 40.1063C163.459 46.045 158.144 50.2286 152.034 50.2286V50.2286H141.621H141.084C134.942 50.2286 129.238 47.0544 126 41.836V41.836C122.762 36.6176 117.058 33.4434 110.916 33.4434H110.379H108.552C103.141 33.4434 98.0399 30.9185 94.7586 26.6161L92.7093 23.9291C90.7195 21.32 87.6261 19.7888 84.3448 19.7888V19.7888C81.0635 19.7888 77.9702 21.32 75.9803 23.9291L73.9223 26.6276C70.6454 30.9243 65.556 33.4519 60.1524 33.4663L58.3104 33.4712H47.8965V33.4712C41.6292 33.4712 36.0157 37.3494 33.7982 43.2114L30.7536 51.2598C28.536 57.1218 22.9226 61 16.6552 61V61H13.3886C8.7975 61 4.3792 59.249 1.03448 56.1039V56.1039C-2.31024 52.9588 -6.72854 51.2078 -11.3197 51.2078H-14.5862H-25" stroke="url(#paint18_linear_3371_25367)"/>
<path d="M277 40H266.586H256.172H245.759H235.345H224.931H214.517V40C208.247 40 202.629 43.873 200.399 49.7328L196.447 60.1175C194.787 64.48 190.605 67.3634 185.937 67.3634H185.12C183.907 67.3634 182.711 67.0804 181.627 66.5369V66.5369C177.144 64.2897 171.737 66.7992 170.559 71.6734L164.895 95.1063C163.459 101.045 158.144 105.229 152.034 105.229V105.229H141.621H141.084C134.942 105.229 129.238 102.054 126 96.836V96.836C122.762 91.6176 117.058 88.4434 110.916 88.4434H110.379H108.552C103.141 88.4434 98.0399 85.9185 94.7586 81.6161L92.7093 78.9291C90.7195 76.32 87.6261 74.7888 84.3448 74.7888V74.7888C81.0635 74.7888 77.9702 76.32 75.9803 78.9291L73.9223 81.6276C70.6454 85.9243 65.556 88.4519 60.1524 88.4663L58.3104 88.4712H47.8965V88.4712C41.6292 88.4712 36.0157 92.3494 33.7982 98.2114L30.7536 106.26C28.536 112.122 22.9226 116 16.6552 116V116H13.3886C8.7975 116 4.3792 114.249 1.03448 111.104V111.104C-2.31024 107.959 -6.72854 106.208 -11.3197 106.208H-14.5862H-25" stroke="url(#paint19_linear_3371_25367)"/>
<path d="M277 -10H266.586H256.172H245.759H235.345H224.931H214.517V-10C208.253 -10 202.644 -6.11582 200.442 -0.251292L196.411 10.4788C194.774 14.8369 190.606 17.7234 185.951 17.7234H185.13C183.911 17.7234 182.709 17.4358 181.623 16.8838V16.8838C177.157 14.6155 171.744 17.1196 170.582 21.992L164.865 45.9573C163.448 51.8964 158.14 56.0869 152.034 56.0869V56.0869H141.621H141.178C134.983 56.0869 129.235 52.8663 126 47.5838V47.5838C122.765 42.3014 117.017 39.0808 110.822 39.0808H110.379H108.623C103.172 39.0808 98.0372 36.5191 94.7586 32.1637L92.6832 29.4066C90.7114 26.7872 87.6234 25.2466 84.3448 25.2466V25.2466C81.0662 25.2466 77.9782 26.7872 76.0064 29.4066L73.9222 32.1754C70.648 36.525 65.5252 39.0895 60.081 39.1042L58.3104 39.109H47.8965V39.109C41.6343 39.109 36.0306 42.9983 33.8402 48.8649L30.7116 57.2441C28.5211 63.1107 22.9174 67 16.6552 67V67H13.4329C8.81645 67 4.37695 65.2238 1.03448 62.0395V62.0395C-2.30798 58.8552 -6.74749 57.079 -11.364 57.079H-14.5862H-25" stroke="url(#paint20_linear_3371_25367)"/>
<path d="M277 45H266.586H256.172H245.759H235.345H224.931H214.517V45C208.253 45 202.644 48.8842 200.442 54.7487L196.411 65.4788C194.774 69.8369 190.606 72.7234 185.951 72.7234H185.13C183.911 72.7234 182.709 72.4358 181.623 71.8838V71.8838C177.157 69.6155 171.744 72.1196 170.582 76.992L164.865 100.957C163.448 106.896 158.14 111.087 152.034 111.087V111.087H141.621H141.178C134.983 111.087 129.235 107.866 126 102.584V102.584C122.765 97.3014 117.017 94.0808 110.822 94.0808H110.379H108.623C103.172 94.0808 98.0372 91.5191 94.7586 87.1637L92.6832 84.4066C90.7114 81.7872 87.6234 80.2466 84.3448 80.2466V80.2466C81.0662 80.2466 77.9782 81.7872 76.0064 84.4066L73.9222 87.1754C70.648 91.525 65.5252 94.0895 60.081 94.1042L58.3104 94.109H47.8965V94.109C41.6343 94.109 36.0306 97.9983 33.8402 103.865L30.7116 112.244C28.5211 118.111 22.9174 122 16.6552 122V122H13.4329C8.81645 122 4.37695 120.224 1.03448 117.039V117.039C-2.30798 113.855 -6.74749 112.079 -11.364 112.079H-14.5862H-25" stroke="url(#paint21_linear_3371_25367)"/>
<path d="M277 -4H266.586H256.172H245.759H235.345H224.931H214.517V-4C208.247 -4 202.629 -0.12697 200.399 5.73278L196.447 16.1175C194.787 20.48 190.605 23.3634 185.937 23.3634H185.12C183.907 23.3634 182.711 23.0804 181.627 22.5369V22.5369C177.144 20.2897 171.737 22.7992 170.559 27.6734L164.895 51.1063C163.459 57.045 158.144 61.2286 152.034 61.2286V61.2286H141.621H141.084C134.942 61.2286 129.238 58.0544 126 52.836V52.836C122.762 47.6176 117.058 44.4434 110.916 44.4434H110.379H108.552C103.141 44.4434 98.0399 41.9185 94.7586 37.6161L92.7093 34.9291C90.7195 32.32 87.6261 30.7888 84.3448 30.7888V30.7888C81.0635 30.7888 77.9702 32.32 75.9803 34.9291L73.9223 37.6276C70.6454 41.9243 65.556 44.4519 60.1524 44.4663L58.3104 44.4712H47.8965V44.4712C41.6292 44.4712 36.0157 48.3494 33.7982 54.2114L30.7536 62.2598C28.536 68.1218 22.9226 72 16.6552 72V72H13.3886C8.7975 72 4.3792 70.249 1.03448 67.1039V67.1039C-2.31024 63.9588 -6.72854 62.2078 -11.3197 62.2078H-14.5862H-25" stroke="url(#paint22_linear_3371_25367)"/>
<path d="M277 51H266.586H256.172H245.759H235.345H224.931H214.517V51C208.247 51 202.629 54.873 200.399 60.7328L196.447 71.1175C194.787 75.48 190.605 78.3634 185.937 78.3634H185.12C183.907 78.3634 182.711 78.0804 181.627 77.5369V77.5369C177.144 75.2897 171.737 77.7992 170.559 82.6734L164.895 106.106C163.459 112.045 158.144 116.229 152.034 116.229V116.229H141.621H141.084C134.942 116.229 129.238 113.054 126 107.836V107.836C122.762 102.618 117.058 99.4434 110.916 99.4434H110.379H108.552C103.141 99.4434 98.0399 96.9185 94.7586 92.6161L92.7093 89.9291C90.7195 87.32 87.6261 85.7888 84.3448 85.7888V85.7888C81.0635 85.7888 77.9702 87.32 75.9803 89.9291L73.9223 92.6276C70.6454 96.9243 65.556 99.4519 60.1524 99.4663L58.3104 99.4712H47.8965V99.4712C41.6292 99.4712 36.0157 103.349 33.7982 109.211L30.7536 117.26C28.536 123.122 22.9226 127 16.6552 127V127H13.3886C8.7975 127 4.3792 125.249 1.03448 122.104V122.104C-2.31024 118.959 -6.72854 117.208 -11.3197 117.208H-14.5862H-25" stroke="url(#paint23_linear_3371_25367)"/>
</mask>
<g mask="url(#mask0_3371_25367)">
<ellipse cx="73.9733" cy="69.4047" rx="69.1067" ry="69.1731" fill="url(#paint24_linear_3371_25367)"/>
</g>
<path d="M57 80H135C138.314 80 141 82.6863 141 86V117H63C59.6863 117 57 114.314 57 111V80Z" fill="#150640"/>
<path d="M72.3026 105.5H69.4901L74.6108 90.9545H77.8636L82.9915 105.5H80.179L76.294 93.9375H76.1804L72.3026 105.5ZM72.3949 99.7969H80.0653V101.913H72.3949V99.7969ZM86.9073 105.5V90.9545H92.3619C93.4793 90.9545 94.4168 91.1629 95.1744 91.5795C95.9367 91.9962 96.512 92.5691 96.9002 93.2983C97.2932 94.0227 97.4897 94.8466 97.4897 95.7699C97.4897 96.7027 97.2932 97.5312 96.9002 98.2557C96.5072 98.9801 95.9272 99.5507 95.1602 99.9673C94.3931 100.379 93.4485 100.585 92.3263 100.585H88.7113V98.419H91.9712C92.6246 98.419 93.1597 98.3054 93.5763 98.0781C93.993 97.8509 94.3008 97.5384 94.4996 97.1406C94.7032 96.7429 94.805 96.286 94.805 95.7699C94.805 95.2538 94.7032 94.7992 94.4996 94.4062C94.3008 94.0133 93.9906 93.7079 93.5692 93.4901C93.1526 93.2675 92.6152 93.1562 91.957 93.1562H89.5423V105.5H86.9073ZM101.778 105.5V90.9545H107.233C108.35 90.9545 109.288 91.1629 110.045 91.5795C110.808 91.9962 111.383 92.5691 111.771 93.2983C112.164 94.0227 112.361 94.8466 112.361 95.7699C112.361 96.7027 112.164 97.5312 111.771 98.2557C111.378 98.9801 110.798 99.5507 110.031 99.9673C109.264 100.379 108.32 100.585 107.197 100.585H103.582V98.419H106.842C107.496 98.419 108.031 98.3054 108.447 98.0781C108.864 97.8509 109.172 97.5384 109.371 97.1406C109.574 96.7429 109.676 96.286 109.676 95.7699C109.676 95.2538 109.574 94.7992 109.371 94.4062C109.172 94.0133 108.862 93.7079 108.44 93.4901C108.024 93.2675 107.486 93.1562 106.828 93.1562H104.413V105.5H101.778ZM124.554 94.9531C124.488 94.3329 124.209 93.8499 123.716 93.5043C123.229 93.1586 122.594 92.9858 121.813 92.9858C121.264 92.9858 120.792 93.0687 120.4 93.2344C120.007 93.4001 119.706 93.625 119.498 93.9091C119.289 94.1932 119.183 94.5175 119.178 94.8821C119.178 95.1851 119.247 95.4479 119.384 95.6705C119.526 95.893 119.718 96.0824 119.959 96.2386C120.201 96.3902 120.468 96.518 120.762 96.6222C121.055 96.7263 121.351 96.8139 121.65 96.8849L123.013 97.2259C123.562 97.3537 124.09 97.5265 124.597 97.7443C125.108 97.9621 125.565 98.2367 125.968 98.5682C126.375 98.8996 126.697 99.2997 126.934 99.7685C127.17 100.237 127.289 100.786 127.289 101.416C127.289 102.268 127.071 103.019 126.635 103.668C126.2 104.312 125.57 104.816 124.746 105.18C123.927 105.54 122.935 105.72 121.77 105.72C120.639 105.72 119.656 105.545 118.823 105.195C117.994 104.844 117.346 104.333 116.877 103.661C116.413 102.988 116.162 102.169 116.124 101.203H118.716C118.754 101.71 118.91 102.131 119.185 102.467C119.46 102.804 119.817 103.054 120.257 103.22C120.703 103.386 121.2 103.469 121.749 103.469C122.322 103.469 122.824 103.384 123.255 103.213C123.69 103.038 124.031 102.796 124.277 102.489C124.524 102.176 124.649 101.812 124.654 101.395C124.649 101.016 124.538 100.704 124.32 100.457C124.102 100.206 123.797 99.9981 123.404 99.8324C123.016 99.6619 122.561 99.5104 122.04 99.3778L120.385 98.9517C119.187 98.6439 118.24 98.1776 117.544 97.5526C116.853 96.9228 116.507 96.0871 116.507 95.0455C116.507 94.1884 116.739 93.438 117.203 92.794C117.672 92.1501 118.309 91.6506 119.114 91.2955C119.919 90.9356 120.83 90.7557 121.848 90.7557C122.881 90.7557 123.785 90.9356 124.561 91.2955C125.343 91.6506 125.956 92.1454 126.401 92.7798C126.846 93.4096 127.076 94.134 127.09 94.9531H124.554Z" fill="url(#paint25_linear_3371_25367)"/>
<path d="M0 45C0 41.6863 2.68629 39 6 39H135C138.314 39 141 41.6863 141 45V70C141 73.3137 138.314 76 135 76H6C2.68629 76 0 73.3137 0 70V45Z" fill="#150640"/>
<path d="M7.30256 64.5H4.49006L9.6108 49.9545H12.8636L17.9915 64.5H15.179L11.294 52.9375H11.1804L7.30256 64.5ZM7.39489 58.7969H15.0653V60.9134H7.39489V58.7969ZM31.0763 49.9545H33.7113V59.4574C33.7113 60.4991 33.4651 61.4152 32.9727 62.206C32.485 62.9967 31.7984 63.6146 30.913 64.0597C30.0276 64.5 28.993 64.7202 27.8093 64.7202C26.6209 64.7202 25.5839 64.5 24.6985 64.0597C23.8131 63.6146 23.1265 62.9967 22.6388 62.206C22.1512 61.4152 21.9073 60.4991 21.9073 59.4574V49.9545H24.5423V59.2372C24.5423 59.8433 24.6748 60.383 24.94 60.8565C25.2099 61.33 25.5887 61.7017 26.0763 61.9716C26.564 62.2367 27.1417 62.3693 27.8093 62.3693C28.4769 62.3693 29.0546 62.2367 29.5423 61.9716C30.0347 61.7017 30.4135 61.33 30.6786 60.8565C30.9438 60.383 31.0763 59.8433 31.0763 59.2372V49.9545ZM37.9361 52.1634V49.9545H49.5412V52.1634H45.0455V64.5H42.4318V52.1634H37.9361ZM53.7784 64.5V49.9545H56.4134V56.1122H63.1534V49.9545H65.7955V64.5H63.1534V58.321H56.4134V64.5H53.7784ZM83.6584 57.2273C83.6584 58.7945 83.3648 60.1368 82.7777 61.2543C82.1953 62.367 81.3999 63.2192 80.3913 63.8111C79.3875 64.4029 78.2488 64.6989 76.9751 64.6989C75.7015 64.6989 74.5604 64.4029 73.5518 63.8111C72.5481 63.2145 71.7526 62.3598 71.1655 61.2472C70.5831 60.1297 70.2919 58.7898 70.2919 57.2273C70.2919 55.66 70.5831 54.3201 71.1655 53.2074C71.7526 52.09 72.5481 51.2353 73.5518 50.6435C74.5604 50.0516 75.7015 49.7557 76.9751 49.7557C78.2488 49.7557 79.3875 50.0516 80.3913 50.6435C81.3999 51.2353 82.1953 52.09 82.7777 53.2074C83.3648 54.3201 83.6584 55.66 83.6584 57.2273ZM81.0092 57.2273C81.0092 56.1241 80.8364 55.1937 80.4908 54.4361C80.1499 53.6738 79.6764 53.0985 79.0703 52.7102C78.4643 52.3172 77.7659 52.1207 76.9751 52.1207C76.1844 52.1207 75.486 52.3172 74.88 52.7102C74.2739 53.0985 73.7981 53.6738 73.4524 54.4361C73.1115 55.1937 72.9411 56.1241 72.9411 57.2273C72.9411 58.3305 73.1115 59.2633 73.4524 60.0256C73.7981 60.7831 74.2739 61.3584 74.88 61.7514C75.486 62.1397 76.1844 62.3338 76.9751 62.3338C77.7659 62.3338 78.4643 62.1397 79.0703 61.7514C79.6764 61.3584 80.1499 60.7831 80.4908 60.0256C80.8364 59.2633 81.0092 58.3305 81.0092 57.2273ZM88.1495 64.5V49.9545H93.604C94.7215 49.9545 95.659 50.1487 96.4165 50.5369C97.1789 50.9252 97.7541 51.4697 98.1424 52.1705C98.5354 52.8665 98.7319 53.6785 98.7319 54.6065C98.7319 55.5393 98.533 56.349 98.1353 57.0355C97.7423 57.7173 97.1623 58.2453 96.3952 58.6193C95.6282 58.9886 94.686 59.1733 93.5685 59.1733H89.6836V56.9858H93.2134C93.8668 56.9858 94.4019 56.8958 94.8185 56.7159C95.2352 56.5312 95.543 56.2637 95.7418 55.9134C95.9454 55.5582 96.0472 55.1226 96.0472 54.6065C96.0472 54.0904 95.9454 53.6501 95.7418 53.2855C95.5382 52.9162 95.2281 52.6368 94.8114 52.4474C94.3948 52.2533 93.8574 52.1562 93.1992 52.1562H90.7844V64.5H88.1495ZM95.6637 57.9091L99.2646 64.5H96.3242L92.7873 57.9091H95.6637ZM105.792 49.9545V64.5H103.157V49.9545H105.792ZM110.376 64.5V62.8594L117.833 52.1634H110.333V49.9545H121.1V51.5952L113.65 62.2912H121.143V64.5H110.376ZM125.692 64.5V49.9545H135.153V52.1634H128.327V56.1122H134.663V58.321H128.327V62.2912H135.21V64.5H125.692Z" fill="url(#paint26_linear_3371_25367)"/>
<defs>
<linearGradient id="paint0_linear_3371_25367" x1="269.074" y1="57.0345" x2="198.498" y2="218.085" gradientUnits="userSpaceOnUse">
<stop stop-color="#BD30FF"/>
<stop offset="1" stop-color="#7D00FF"/>
</linearGradient>
<linearGradient id="paint1_linear_3371_25367" x1="268.074" y1="4.03451" x2="197.498" y2="165.085" gradientUnits="userSpaceOnUse">
<stop stop-color="#BD30FF"/>
<stop offset="1" stop-color="#7D00FF"/>
</linearGradient>
<linearGradient id="paint2_linear_3371_25367" x1="269.074" y1="62.9951" x2="200.032" y2="222.617" gradientUnits="userSpaceOnUse">
<stop stop-color="#BD30FF"/>
<stop offset="1" stop-color="#7D00FF"/>
</linearGradient>
<linearGradient id="paint3_linear_3371_25367" x1="268.074" y1="9.9951" x2="199.032" y2="169.617" gradientUnits="userSpaceOnUse">
<stop stop-color="#BD30FF"/>
<stop offset="1" stop-color="#7D00FF"/>
</linearGradient>
<linearGradient id="paint4_linear_3371_25367" x1="269.074" y1="68.0345" x2="198.498" y2="229.085" gradientUnits="userSpaceOnUse">
<stop stop-color="#BD30FF"/>
<stop offset="1" stop-color="#7D00FF"/>
</linearGradient>
<linearGradient id="paint5_linear_3371_25367" x1="268.074" y1="15.0345" x2="197.498" y2="176.085" gradientUnits="userSpaceOnUse">
<stop stop-color="#BD30FF"/>
<stop offset="1" stop-color="#7D00FF"/>
</linearGradient>
<linearGradient id="paint6_linear_3371_25367" x1="268.074" y1="-34.0049" x2="199.032" y2="125.617" gradientUnits="userSpaceOnUse">
<stop stop-color="#BD30FF"/>
<stop offset="1" stop-color="#7D00FF"/>
</linearGradient>
<linearGradient id="paint7_linear_3371_25367" x1="269.074" y1="73.9951" x2="200.032" y2="233.617" gradientUnits="userSpaceOnUse">
<stop stop-color="#BD30FF"/>
<stop offset="1" stop-color="#7D00FF"/>
</linearGradient>
<linearGradient id="paint8_linear_3371_25367" x1="268.074" y1="20.9951" x2="199.032" y2="180.617" gradientUnits="userSpaceOnUse">
<stop stop-color="#BD30FF"/>
<stop offset="1" stop-color="#7D00FF"/>
</linearGradient>
<linearGradient id="paint9_linear_3371_25367" x1="268.074" y1="-28.9655" x2="197.498" y2="132.085" gradientUnits="userSpaceOnUse">
<stop stop-color="#BD30FF"/>
<stop offset="1" stop-color="#7D00FF"/>
</linearGradient>
<linearGradient id="paint10_linear_3371_25367" x1="269.074" y1="79.0345" x2="198.498" y2="240.085" gradientUnits="userSpaceOnUse">
<stop stop-color="#BD30FF"/>
<stop offset="1" stop-color="#7D00FF"/>
</linearGradient>
<linearGradient id="paint11_linear_3371_25367" x1="268.074" y1="26.0345" x2="197.498" y2="187.085" gradientUnits="userSpaceOnUse">
<stop stop-color="#BD30FF"/>
<stop offset="1" stop-color="#7D00FF"/>
</linearGradient>
<linearGradient id="paint12_linear_3371_25367" x1="268.074" y1="-23.0049" x2="199.032" y2="136.617" gradientUnits="userSpaceOnUse">
<stop stop-color="#BD30FF"/>
<stop offset="1" stop-color="#7D00FF"/>
</linearGradient>
<linearGradient id="paint13_linear_3371_25367" x1="269.074" y1="84.9951" x2="200.032" y2="244.617" gradientUnits="userSpaceOnUse">
<stop stop-color="#BD30FF"/>
<stop offset="1" stop-color="#7D00FF"/>
</linearGradient>
<linearGradient id="paint14_linear_3371_25367" x1="268.074" y1="31.9951" x2="199.032" y2="191.617" gradientUnits="userSpaceOnUse">
<stop stop-color="#BD30FF"/>
<stop offset="1" stop-color="#7D00FF"/>
</linearGradient>
<linearGradient id="paint15_linear_3371_25367" x1="268.074" y1="-17.9655" x2="197.498" y2="143.085" gradientUnits="userSpaceOnUse">
<stop stop-color="#BD30FF"/>
<stop offset="1" stop-color="#7D00FF"/>
</linearGradient>
<linearGradient id="paint16_linear_3371_25367" x1="269.074" y1="90.0345" x2="198.498" y2="251.085" gradientUnits="userSpaceOnUse">
<stop stop-color="#BD30FF"/>
<stop offset="1" stop-color="#7D00FF"/>
</linearGradient>
<linearGradient id="paint17_linear_3371_25367" x1="268.074" y1="37.0345" x2="197.498" y2="198.085" gradientUnits="userSpaceOnUse">
<stop stop-color="#BD30FF"/>
<stop offset="1" stop-color="#7D00FF"/>
</linearGradient>
<linearGradient id="paint18_linear_3371_25367" x1="268.074" y1="-12.0049" x2="199.032" y2="147.617" gradientUnits="userSpaceOnUse">
<stop stop-color="#BD30FF"/>
<stop offset="1" stop-color="#7D00FF"/>
</linearGradient>
<linearGradient id="paint19_linear_3371_25367" x1="268.074" y1="42.9951" x2="199.032" y2="202.617" gradientUnits="userSpaceOnUse">
<stop stop-color="#BD30FF"/>
<stop offset="1" stop-color="#7D00FF"/>
</linearGradient>
<linearGradient id="paint20_linear_3371_25367" x1="268.074" y1="-6.96549" x2="197.498" y2="154.085" gradientUnits="userSpaceOnUse">
<stop stop-color="#BD30FF"/>
<stop offset="1" stop-color="#7D00FF"/>
</linearGradient>
<linearGradient id="paint21_linear_3371_25367" x1="268.074" y1="48.0345" x2="197.498" y2="209.085" gradientUnits="userSpaceOnUse">
<stop stop-color="#BD30FF"/>
<stop offset="1" stop-color="#7D00FF"/>
</linearGradient>
<linearGradient id="paint22_linear_3371_25367" x1="268.074" y1="-1.0049" x2="199.032" y2="158.617" gradientUnits="userSpaceOnUse">
<stop stop-color="#BD30FF"/>
<stop offset="1" stop-color="#7D00FF"/>
</linearGradient>
<linearGradient id="paint23_linear_3371_25367" x1="268.074" y1="53.9951" x2="199.032" y2="213.617" gradientUnits="userSpaceOnUse">
<stop stop-color="#BD30FF"/>
<stop offset="1" stop-color="#7D00FF"/>
</linearGradient>
<linearGradient id="paint24_linear_3371_25367" x1="8.95157" y1="5.68368" x2="158.812" y2="92.7915" gradientUnits="userSpaceOnUse">
<stop stop-color="#BD30FF"/>
<stop offset="1" stop-color="#7D00FF"/>
</linearGradient>
<linearGradient id="paint25_linear_3371_25367" x1="70.7733" y1="85.6035" x2="104.846" y2="128.084" gradientUnits="userSpaceOnUse">
<stop stop-color="#BD30FF"/>
<stop offset="1" stop-color="#7D00FF"/>
</linearGradient>
<linearGradient id="paint26_linear_3371_25367" x1="7.93085" y1="44.6035" x2="30.2667" y2="106.332" gradientUnits="userSpaceOnUse">
<stop stop-color="#BD30FF"/>
<stop offset="1" stop-color="#7D00FF"/>
</linearGradient>
</defs>
</svg>
