<svg width="65" height="64" viewBox="0 0 65 64" fill="none" xmlns="http://www.w3.org/2000/svg">
<path d="M64.0762 33.9429C64.0762 50.1735 50.9845 63.331 34.835 63.331C18.6855 63.331 5.59375 50.1735 5.59375 33.9429C5.59375 17.7122 18.6855 4.55469 34.835 4.55469C50.9845 4.55469 64.0762 17.7122 64.0762 33.9429Z" fill="#E2E8F0"/>
<path d="M58.1075 30.7478C58.1075 46.5708 45.3446 59.3979 29.6006 59.3979C13.8567 59.3979 1.09375 46.5708 1.09375 30.7478C1.09375 14.9248 13.8567 2.09766 29.6006 2.09766C45.3446 2.09766 58.1075 14.9248 58.1075 30.7478Z" fill="white"/>
<path fill-rule="evenodd" clip-rule="evenodd" d="M29.2412 56.7058C43.7055 56.7058 55.4312 44.9213 55.4312 30.3843C55.4312 15.8473 43.7055 4.06268 29.2412 4.06268C14.7769 4.06268 3.05126 15.8473 3.05126 30.3843C3.05126 44.9213 14.7769 56.7058 29.2412 56.7058ZM29.2412 59.7724C45.3907 59.7724 58.4824 46.6149 58.4824 30.3843C58.4824 14.1536 45.3907 0.996094 29.2412 0.996094C13.0917 0.996094 0 14.1536 0 30.3843C0 46.6149 13.0917 59.7724 29.2412 59.7724Z" fill="#FAAD14"/>
<path d="M40.2076 23.6956C39.8347 19.7866 36.4777 18.4744 32.2377 18.0997V15.5957H28.9547V17.9568C28.0921 17.9568 27.21 17.9734 26.3328 17.9901V15.5938H23.0518V18.0967C22.3411 18.1104 17.9745 18.1065 17.9745 18.1065L17.9648 21.0155L20.7045 21.0312V40.097H17.9657L17.9414 42.965C18.7368 42.965 22.2768 42.9806 23.044 42.9855V45.4572H26.325V43.0442C27.2246 43.0638 28.097 43.0716 28.9479 43.0706V45.4582H32.2319V42.9973C37.7531 42.6812 41.6193 41.2849 42.0993 36.0754C42.4887 31.8797 40.5259 30.0088 37.3919 29.2476C39.2963 28.2691 40.487 26.5557 40.2095 23.6946L40.2076 23.6956ZM35.6073 35.4208C35.6073 39.5197 28.6257 39.051 26.3981 39.052V31.7858C28.6247 31.7858 35.6034 31.1468 35.6044 35.4208H35.6073ZM34.0836 25.1682C34.0836 28.8973 28.2576 28.4599 26.4029 28.4599V21.8688C28.2606 21.8698 34.0856 21.2788 34.0836 25.1682Z" fill="#FAAD14"/>
</svg>
