<svg width="293" height="147" viewBox="0 0 293 147" fill="none" xmlns="http://www.w3.org/2000/svg">
<path d="M32.8082 124.462L32.1579 124.399C32.3688 122.251 32.8574 120.061 33.332 117.945C34.4533 112.928 35.5149 108.19 33.3179 103.644C32.2246 101.265 30.4283 99.8761 27.6618 99.2644C25.18 98.716 22.2202 98.8777 19.3552 99.0359C16.7258 99.18 14.0085 99.3312 11.6638 98.927L11.7728 98.2836C14.0437 98.6738 16.7258 98.5262 19.3166 98.3856C25.2152 98.0622 31.3142 97.7247 33.9049 103.37C36.1969 108.116 35.0615 113.185 33.9647 118.089C33.4937 120.187 33.0086 122.356 32.8011 124.465L32.8082 124.462Z" fill="#7D01FE"/>
<path d="M37.6694 138.938C34.3088 128.54 37.0191 117.959 39.6415 107.729C39.8841 106.787 40.1231 105.845 40.3586 104.91C41.0371 102.077 41.0863 98.2241 39.1845 95.9145C38.0948 94.5893 36.4953 93.96 34.4354 94.0444C32.3227 94.1393 30.1573 94.308 28.0622 94.4733C18.8346 95.1974 9.29416 95.9462 1.23364 90.5432L1.59572 90.0018C9.46641 95.2747 18.8944 94.5365 28.0095 93.8229C30.1081 93.6577 32.2805 93.489 34.4037 93.3941C36.6852 93.3027 38.4604 94.0092 39.6872 95.4997C41.7401 97.9956 41.7085 102.077 40.9914 105.065C40.7558 106.007 40.5133 106.945 40.2707 107.891C37.6729 118.033 34.9838 128.519 38.2881 138.738L37.6694 138.938Z" fill="#7D01FE"/>
<path d="M46.7109 143.033C46.7109 143.033 45.3892 141.268 43.2589 138.407L43.2379 138.375C40.7561 134.136 39.7472 129.225 40.162 123.362C40.5241 118.212 41.9056 112.992 43.2414 107.944C43.7476 106.035 44.2221 104.232 44.651 102.428C44.7107 102.189 44.7705 101.95 44.8338 101.711C45.6212 98.6247 46.4367 95.4293 44.8338 92.4238C43.3398 89.7451 39.9616 89.6643 37.5501 89.8365H37.5396C34.9699 89.9209 32.2456 90.2162 29.6091 90.4974C20.2339 91.5063 10.5388 92.5468 3.61721 85.2175L3.60315 85.2034C1.32877 82.465 0.0140611 80.7144 0 80.6968L0.52026 80.3066C0.52026 80.3066 1.83849 82.0608 4.09529 84.7781C10.7954 91.8613 20.3218 90.8384 29.5353 89.8506C32.1823 89.5659 34.9172 89.2706 37.508 89.1862C40.0952 88.9999 43.7265 89.1054 45.4033 92.1109C47.1257 95.3485 46.2786 98.6634 45.4595 101.873C45.3997 102.108 45.34 102.347 45.2802 102.583C44.8514 104.39 44.3733 106.197 43.8671 108.112C41.1744 118.286 38.3938 128.803 43.7862 138.031C45.9095 140.882 47.2136 142.622 47.2277 142.639L46.7039 143.03L46.7109 143.033Z" fill="#7D01FE"/>
<path d="M54.7188 145.016L50.6903 139.641C49.4564 137.992 47.9167 135.943 46.2962 133.588L46.2821 133.566C42.8372 127.559 43.8918 120.194 44.7389 114.278C45.1467 111.431 46.1591 108.538 47.1399 105.747C49.0979 100.161 51.1227 94.3817 48.3351 88.7468C46.602 85.1788 42.2888 85.7623 38.4853 86.279C37.8736 86.3634 37.2971 86.4407 36.7276 86.504C35.2794 86.6306 33.7854 86.7993 32.3371 86.9645C24.2344 87.882 15.854 88.8346 9.29446 83.4879L9.27689 83.4738C7.20639 81.551 5.65615 79.5543 4.36957 77.8354L0.341064 72.4605L0.86484 72.0703L4.89334 77.4452C6.16235 79.1395 7.68798 81.1046 9.71629 82.9887C16.0649 88.1527 24.3012 87.2176 32.2668 86.3142C33.7151 86.149 35.2161 85.9802 36.6644 85.8537C37.2163 85.7939 37.7893 85.7166 38.3974 85.6322C42.4224 85.0874 46.9817 84.4687 48.9221 88.462C51.8292 94.3431 49.7587 100.249 47.755 105.965C46.7848 108.731 45.783 111.589 45.3858 114.373C44.5526 120.187 43.5156 127.425 46.8411 133.236C48.4511 135.574 49.9802 137.616 51.2106 139.254L55.2391 144.629L54.7188 145.019V145.016Z" fill="#7D01FE"/>
<path d="M61.9285 145.94L54.7925 136.417C53.3442 134.484 51.6991 132.29 50.1312 129.738C47.9658 126.096 47.2171 121.597 47.776 115.565C48.1381 111.814 49.3122 108.081 50.4511 104.474C52.497 97.9708 54.4304 91.8261 52.1314 85.4424C51.1436 82.6231 47.653 82.6618 44.5771 82.6969H44.2783C41.4661 82.7321 38.5027 83.0977 35.6413 83.4527C28.2346 84.3702 20.5713 85.3193 14.156 80.7776L14.1384 80.7635C11.7796 78.8477 10.0255 76.6753 8.6194 74.7981L1.4834 65.2753L2.00717 64.8851L9.14318 74.4079C10.5212 76.2499 12.2436 78.3837 14.5426 80.2503C20.7506 84.6374 28.2803 83.7058 35.5604 82.8024C38.443 82.4439 41.4204 82.0747 44.2713 82.0431H44.5701C47.7022 82.0044 51.6006 81.9587 52.7466 85.2209C55.1194 91.8085 53.063 98.3469 51.0733 104.667C49.9484 108.246 48.7814 111.944 48.4263 115.625C47.8815 121.509 48.6021 125.886 50.6902 129.397C52.2404 131.918 53.875 134.101 55.3163 136.024L62.4523 145.546L61.9285 145.937V145.94Z" fill="#7D01FE"/>
<path d="M68.5691 146.098L55.6083 128.803C49.0628 120.5 51.5973 110.58 54.044 100.987C54.8068 97.9953 55.5309 95.1655 55.9844 92.392C56.0617 91.8541 56.1566 91.2847 56.248 90.7363C56.7788 87.562 57.3272 84.2822 55.4747 81.579L55.4676 81.5685C54.1143 79.396 51.4497 79.3749 48.8765 79.3538C48.6937 79.3538 48.5109 79.3538 48.3316 79.3503C45.53 79.3574 42.5209 79.6913 39.6103 80.0112C31.3634 80.9216 22.8389 81.8672 16.3427 76.0811L16.3181 76.0565C15.1861 74.8227 14.2124 73.5642 13.4109 72.492L3.19556 58.8598L3.71933 58.4696L13.9347 72.1018C14.7256 73.1564 15.6818 74.3938 16.7891 75.603C23.0639 81.1818 31.4408 80.2537 39.5364 79.3609C42.4647 79.0375 45.4878 78.7035 48.3316 78.6965C48.5144 78.6965 48.6972 78.7 48.88 78.7035C51.5024 78.7246 54.4728 78.7492 56.016 81.2204C58.0162 84.1381 57.4186 87.7026 56.8913 90.8488C56.7964 91.4182 56.705 91.9596 56.6277 92.4974C56.1672 95.3061 55.443 98.1465 54.6767 101.156C52.2652 110.594 49.7729 120.356 56.125 128.413L69.0893 145.715L68.5656 146.105L68.5691 146.098Z" fill="#7D01FE"/>
<path d="M74.7523 145.649L58.6523 124.163L58.6453 124.153C53.0244 115.456 55.4886 105.743 57.872 96.3503C58.9898 91.9457 60.1463 87.3899 60.424 83.0415C60.5822 80.9218 59.9354 79.0904 58.5504 77.737C56.9439 76.1657 54.5078 75.4134 51.8679 75.67C49.8747 75.8352 47.8394 76.0953 45.681 76.3731C40.8264 76.9988 35.8031 77.6456 31.1383 77.1359C25.8092 76.5558 21.7666 74.51 18.7751 70.8857C17.8647 69.7327 17.0175 68.6043 16.2019 67.5146L5.36084 53.0457L5.88462 52.6555L16.7257 67.1244C17.5413 68.2141 18.3849 69.3355 19.2848 70.4779C25.7248 78.2854 35.8277 76.9847 45.6002 75.7262C47.762 75.4485 49.8079 75.1849 51.8116 75.0197C54.6379 74.7455 57.2638 75.5645 59.0074 77.2694C60.533 78.7599 61.2466 80.7707 61.0744 83.0837C60.7896 87.4883 59.6296 92.0723 58.5012 96.5085C56.153 105.764 53.7239 115.333 59.1867 123.787L75.2726 145.255L74.7523 145.645V145.649Z" fill="#7D01FE"/>
<path d="M80.5595 144.696L63.7108 122.209C56.4658 113.181 59.155 102.126 61.7598 91.436C62.614 87.9242 63.4225 84.6058 63.8865 81.3647C64.2732 78.6615 63.5315 76.2254 61.7914 74.5099C59.8897 72.6328 56.9509 71.7926 53.9278 72.2637L53.0911 72.3973C48.7568 73.0792 43.9866 73.828 39.3745 73.8315C32.6182 73.8315 26.1887 72.225 21.9177 66.4389L7.91284 47.7482L8.4331 47.358L22.4415 66.0522C29.3947 75.4696 42.4785 73.4132 52.9892 71.7575L53.8293 71.6239C57.0564 71.1212 60.2025 72.0281 62.2519 74.0494C64.1396 75.916 64.9517 78.549 64.5333 81.4631C64.0658 84.7323 63.2538 88.0648 62.396 91.5941C59.8299 102.133 57.1794 113.027 64.231 121.815L81.0868 144.309L80.5665 144.699L80.5595 144.696Z" fill="#7D01FE"/>
<path d="M86.0363 143.3L68.583 120.008C67.6339 118.743 66.5582 117.305 65.581 115.723L65.5669 115.702C61.3697 107.536 63.2222 98.5052 65.0115 89.7697C65.4333 87.7133 65.8306 85.7693 66.154 83.8289C66.2348 83.3438 66.3262 82.8517 66.4211 82.3279C67.2156 78.0041 68.1998 72.6187 64.3893 69.926C62.8601 68.8046 61.0498 68.882 59.134 68.9663C57.1303 69.0683 55.0879 69.2616 52.926 69.469C47.8253 69.9541 42.5524 70.4533 37.74 69.6905C32.2456 68.8187 28.175 66.3791 25.2854 62.2381L10.7849 42.8865L11.3087 42.4963L25.8162 61.8585C32.0453 70.8013 42.6298 69.7959 52.8662 68.8222C55.0352 68.6148 57.0846 68.4215 59.1023 68.3195C61.0498 68.2352 63.0605 68.1508 64.7689 69.4022C68.9134 72.334 67.887 77.9443 67.0609 82.4509C66.966 82.9712 66.8746 83.4633 66.7937 83.9414C66.4703 85.8924 66.052 87.9347 65.6478 89.9068C63.8831 98.5262 62.0552 107.441 66.1399 115.4C67.0996 116.953 68.1647 118.37 69.1033 119.625L86.5566 142.917L86.0328 143.307L86.0363 143.3Z" fill="#7D01FE"/>
<path d="M91.211 141.508L71.1845 114.781C64.5406 105.596 66.8326 94.7439 69.0472 84.2437C69.7116 81.0941 70.3408 78.1201 70.731 75.1954C71.1458 71.747 70.3162 68.4707 68.5621 66.6568C67.279 65.3281 65.553 64.7445 63.4228 64.9273C61.4542 65.0996 59.3943 65.3632 57.4011 65.6233C48.17 66.815 38.6225 68.0454 31.3459 61.3523L31.3248 61.3312C30.2738 60.1676 29.3317 58.9303 28.5337 57.8652L13.9629 38.4222L14.4832 38.032L29.054 57.475C29.8414 58.526 30.7694 59.7423 31.7994 60.8848C38.851 67.3599 48.2403 66.1506 57.3203 64.9801C59.3204 64.7234 61.3874 64.4563 63.37 64.284C65.7042 64.0872 67.6095 64.734 69.0331 66.2104C70.9455 68.193 71.8243 71.5853 71.3778 75.2833C70.9841 78.2361 70.3514 81.2206 69.6835 84.3844C67.497 94.7439 65.2366 105.455 71.7083 114.398L91.7312 141.121L91.2075 141.511L91.211 141.508Z" fill="#7D01FE"/>
<path d="M96.111 139.346L75.7083 112.116C74.8857 111.02 73.8347 109.536 73.0051 107.814L72.998 107.8C69.2648 98.9657 70.9908 89.6186 72.6606 80.5808C73.3882 76.6332 74.144 72.5484 74.4217 68.5902C74.5483 66.3897 73.8241 64.4914 72.3266 63.1064C70.5584 61.4718 67.8411 60.7231 65.0641 61.1027C63.5877 61.282 62.1077 61.4999 60.5399 61.7319C56.0896 62.3893 51.4881 63.0713 47.1151 62.7478C42.1199 62.3787 38.1968 60.716 35.128 57.6648L35.1175 57.6542C34.0875 56.5434 33.177 55.3552 32.2595 54.1319L17.4146 34.3234L17.9348 33.9332L32.7798 53.7417C33.7184 54.9967 34.5796 56.1216 35.5885 57.2078C42.2113 63.7848 51.4811 62.4139 60.445 61.0886C62.0163 60.8566 63.5033 60.6352 64.9797 60.4594C67.9431 60.0551 70.8572 60.8672 72.7695 62.6318C74.4147 64.154 75.2127 66.228 75.0756 68.6359C74.7979 72.6363 74.0386 76.7386 73.3074 80.7039C71.6552 89.6467 69.9503 98.8919 73.6027 107.543C74.4006 109.202 75.3814 110.591 76.2356 111.73L96.6382 138.959L96.1145 139.349L96.111 139.346Z" fill="#7D01FE"/>
<path d="M100.755 136.839L80.1094 109.287C79.1462 108 78.1303 106.615 77.255 105.075C73.7046 98.9411 74.4428 91.8367 75.1599 84.9644C75.2443 84.1699 75.3286 83.3473 75.4025 82.5529C75.6239 80.2574 76.1371 77.9197 76.6328 75.6594C77.7647 70.506 78.9353 65.1769 76.6398 60.1149C75.5044 57.5171 72.2246 57.3097 69.8518 57.3835C67.1802 57.4609 64.3399 57.8511 61.591 58.2307C58.4307 58.6666 55.2283 59.1095 52.1314 59.1095C47.3154 59.1095 42.7526 58.0374 39.0018 54.2092L38.9913 54.1987C37.9508 53.0281 37.0297 51.7978 36.1404 50.6131L21.1196 30.569L21.6434 30.1788L36.6642 50.2229C37.543 51.397 38.4534 52.6133 39.4764 53.7628C45.4066 59.8126 53.5902 58.6842 61.5031 57.5874C64.2696 57.2042 67.1275 56.8105 69.8343 56.7332C72.3934 56.6559 75.9438 56.8984 77.2374 59.8512C79.6208 65.1066 78.4256 70.5447 77.2691 75.8C76.7769 78.0428 76.2672 80.3593 76.0528 82.6162C75.9754 83.4141 75.8911 84.2367 75.8067 85.0346C75.1037 91.8015 74.3725 98.8005 77.821 104.752C78.6787 106.26 79.6805 107.624 80.6332 108.896L101.278 136.449L100.758 136.839H100.755Z" fill="#7D01FE"/>
<path d="M105.149 134.002L84.3912 106.299C83.4069 104.984 82.3875 103.627 81.4278 102.182L81.4173 102.161C76.0741 92.7858 78.0462 82.131 79.9549 71.8278C80.4541 69.1421 80.9673 66.3615 81.3224 63.7145C81.702 60.6316 80.8478 57.7702 78.9812 55.8649C77.3255 54.1741 75.0617 53.4218 72.4358 53.696C70.5551 53.9069 68.6498 54.2198 66.6321 54.5537C63.0711 55.1408 59.4574 55.7384 55.9843 55.7384C51.2598 55.7384 46.7954 54.6311 43.0797 50.8908L43.0692 50.8803C42.0252 49.7378 41.1077 48.5356 40.1832 47.3017L25.0815 27.1487L25.6018 26.7585L40.7034 46.9115C41.6174 48.1313 42.5208 49.3195 43.5438 50.4374C49.7482 56.6805 58.2763 55.2708 66.5196 53.9104C68.4565 53.5905 70.4567 53.2601 72.3584 53.0457C75.1496 52.7574 77.6665 53.5976 79.4417 55.4079C81.4489 57.4538 82.3664 60.5121 81.9622 63.7989C81.6036 66.467 81.0904 69.2546 80.5877 71.9473C78.7 82.131 76.749 92.6628 81.9692 101.831C82.9183 103.254 83.9272 104.604 84.9044 105.908L105.662 133.612L105.142 134.002H105.149Z" fill="#7D01FE"/>
<path d="M109.301 130.839L88.5394 103.131C87.5551 101.82 86.5533 100.481 85.5374 99.1169L85.5268 99.0993C79.7301 90.2057 81.3893 80.043 82.9923 70.2143C83.6813 65.9819 84.3984 61.6019 84.4933 57.4082C84.5179 55.3061 83.7692 53.4254 82.3842 52.1142C80.9991 50.803 79.0728 50.1562 76.9636 50.2933C74.8439 50.4374 72.675 50.7081 70.3795 50.9963C65.5214 51.6045 60.4981 52.2337 55.9599 51.5553C50.7889 50.7819 46.9994 48.3704 44.3665 44.1873L29.2825 24.0553L29.8027 23.6651L44.9043 43.8182L44.9114 43.8287C50.5639 52.8243 60.5965 51.5693 70.2987 50.3495C72.5027 50.0718 74.7806 49.7871 76.9214 49.643C79.2169 49.4953 81.3155 50.2019 82.8341 51.6432C84.3527 53.0809 85.1718 55.1338 85.1472 57.4223C85.0487 61.6652 84.3316 66.0663 83.6356 70.3233C82.0537 80.0255 80.4156 90.058 86.0682 98.7408C87.0806 100.101 88.0824 101.437 89.0632 102.745L109.824 130.452L109.304 130.842L109.301 130.839Z" fill="#7D01FE"/>
<path d="M113.209 127.355L92.6026 99.855C91.6253 98.5544 90.6165 97.208 89.6181 95.8195C83.1711 86.5779 84.8655 75.6208 86.5036 65.0222C86.9992 61.8163 87.5125 58.5014 87.7656 55.3552C88.0046 52.6414 87.2699 50.0823 85.7935 48.5075C84.6686 47.3052 83.1852 46.7147 81.3889 46.7569C78.7805 46.7744 75.9789 47.0592 73.2686 47.3334C70.3263 47.6322 67.3489 47.9345 64.4628 47.9345C58.4623 47.9345 52.8519 46.6303 48.7214 41.2836C46.9392 38.9213 45.2448 36.661 43.7508 34.6678L33.7183 21.2817L34.2385 20.8915L44.2711 34.2776C45.7651 36.2708 47.4595 38.5311 49.2382 40.8899C55.1298 48.518 64.3152 47.5865 73.2018 46.6865C75.9261 46.4088 78.7419 46.1241 81.3783 46.1065C83.3328 46.0608 85.0272 46.7393 86.2681 48.0645C87.8675 49.773 88.669 52.5184 88.4124 55.4114C88.1558 58.5787 87.6425 61.9042 87.1469 65.1241C85.5299 75.5926 83.8566 86.4197 90.1489 95.4434C91.1402 96.8214 92.1491 98.1677 93.1228 99.4648L113.729 126.965L113.206 127.355H113.209Z" fill="#7D01FE"/>
<path d="M116.869 123.534L96.5296 96.3924C95.5664 95.1094 94.5716 93.7806 93.5802 92.4167C90.4306 88.1843 88.803 83.1082 88.6026 76.8932C88.4269 71.4235 89.3444 65.7639 90.2337 60.2906C90.6239 57.8791 90.993 55.6012 91.2778 53.3374C91.7031 49.8292 90.87 46.5775 89.0526 44.6406C87.6816 43.1818 85.8291 42.5139 83.5441 42.6475C81.7724 42.7811 79.9234 42.9884 78.1341 43.1888C74.9177 43.5474 71.659 43.913 68.4918 43.913C62.9306 43.913 57.6436 42.7916 53.3023 38.5627L53.2741 38.5311C51.4708 36.2532 49.7975 34.021 48.3211 32.0489L38.4221 18.835L38.9459 18.4448L48.8449 31.6587C50.3143 33.6202 51.9805 35.8454 53.7733 38.1093C60.3644 44.5176 69.36 43.5122 78.0638 42.5385C79.8601 42.3381 81.7162 42.1307 83.5055 41.9936C85.9978 41.846 88.0226 42.5877 89.5307 44.1907C91.4816 46.2647 92.378 49.7132 91.9281 53.4112C91.6433 55.6891 91.2742 57.9705 90.8805 60.389C89.0913 71.4059 87.2422 82.7989 94.1075 92.0265C95.0988 93.3869 96.0937 94.7122 97.0533 95.9952L117.393 123.137L116.869 123.527V123.534Z" fill="#7D01FE"/>
<path d="M120.264 119.368L99.2535 91.3271C98.1708 89.8858 97.053 88.3918 96.0476 86.7221C93.5517 82.451 92.3355 77.4453 92.3319 71.4201C92.3284 66.1226 93.2283 60.7196 94.1036 55.4959C94.3392 54.0828 94.5852 52.6204 94.7997 51.2143C95.1231 48.9505 95.5906 43.3542 92.9049 40.3873C91.6605 39.0128 89.8748 38.3695 87.5969 38.4644C85.4033 38.5558 83.1465 38.7984 80.7526 39.055C76.0949 39.5542 71.2755 40.0709 66.8708 39.4276C61.844 38.6964 58.0862 36.5205 55.3864 32.7802L43.3748 16.7506L43.895 16.3604L55.9102 32.3936C61.7174 40.4365 71.3598 39.403 80.6859 38.4047C83.0868 38.1481 85.3576 37.9055 87.5723 37.8106C90.0541 37.7051 92.0121 38.4223 93.3936 39.9479C96.1601 43.0062 95.8718 48.3775 95.45 51.3092C95.232 52.7259 94.9895 54.1882 94.7505 55.6049C92.9858 66.1542 91.1649 77.0656 96.6135 86.3917C97.6013 88.0298 98.7087 89.5097 99.7808 90.9404L120.792 118.982L120.268 119.372L120.264 119.368Z" fill="#7D01FE"/>
<path d="M123.382 114.827L102.948 87.5587C101.897 86.1561 100.814 84.7113 99.7528 83.2032L99.7353 83.1786C94.4905 74.0108 96.0583 63.7919 97.5734 53.9105C98.2307 49.6148 98.9127 45.175 99.0217 40.8899C99.092 39.0268 98.4662 37.3887 97.2183 36.1548C95.7981 34.7522 93.6925 34.014 91.4392 34.1265C89.1191 34.2636 86.676 34.5835 84.3102 34.8929C75.7365 36.0142 66.8745 37.1707 60.4204 30.548L60.4029 30.5304C58.5468 28.3017 56.9333 26.1504 55.5096 24.2521L48.6091 15.0421L49.1294 14.6519L56.0299 23.8619C57.4465 25.7531 59.053 27.8939 60.895 30.1086C67.1206 36.4888 75.8173 35.3533 84.2259 34.2531C86.6022 33.9437 89.0594 33.6203 91.4041 33.4832C93.8437 33.3602 96.1286 34.1687 97.6788 35.7014C99.0638 37.0688 99.7528 38.8721 99.6755 40.9215C99.5665 45.2418 98.881 49.7062 98.2202 54.0194C96.7227 63.7849 95.1724 73.8842 100.298 82.8517C101.352 84.3457 102.431 85.7869 103.472 87.179L123.906 114.45L123.382 114.841V114.827Z" fill="#7D01FE"/>
<path d="M126.195 109.877L106.506 83.6004C105.493 82.247 104.446 80.855 103.43 79.3926C100.762 75.5188 99.5453 70.6994 99.6121 64.2278C99.6543 59.6438 100.403 55.2322 101.127 50.9611C101.95 46.1065 102.804 41.0867 102.611 35.8138C102.431 32.5798 99.7598 30.3019 96.2551 30.4003C93.8365 30.4917 91.3583 30.7483 88.7359 31.0225C83.4313 31.5709 77.9475 32.1404 73.0543 31.2369C67.4931 30.2105 63.4751 27.3807 60.7789 22.5753L54.1421 13.7203L54.6659 13.3301L61.3273 22.2203L61.3379 22.2378C67.1486 32.6009 78.0881 31.4689 88.6691 30.3722C91.1895 30.1121 93.7908 29.8414 96.234 29.7465C100.108 29.634 103.064 32.1755 103.265 35.7822C103.458 41.1289 102.6 46.1804 101.771 51.0666C101.05 55.3095 100.305 59.7001 100.262 64.2313C100.199 70.5623 101.377 75.2622 103.968 79.0165C104.976 80.4683 106.017 81.8568 107.026 83.2032L126.718 109.483L126.198 109.874L126.195 109.877Z" fill="#7D01FE"/>
<path d="M128.67 104.478L109.901 79.4348C108.942 78.1553 107.951 76.83 106.952 75.4837C103.078 69.9049 102.92 62.7935 103.138 57.9284C103.237 54.3077 103.936 50.6869 104.611 47.1892C105.659 41.7617 106.745 36.1478 105.525 30.569C104.825 27.6162 101.809 26.3894 96.3044 26.8323C94.7507 26.9483 93.1231 27.1206 91.5483 27.2858C86.9749 27.7674 82.2433 28.2665 77.8844 27.6549C72.9138 26.9624 69.1454 24.8919 66.3613 21.3204C65.0466 19.5733 63.9077 18.0511 62.9691 16.7997L60.0198 12.8626L60.54 12.4724L63.4894 16.4095C64.4279 17.661 65.5669 19.1831 66.8781 20.9231C72.8611 28.5934 82.3277 27.5986 91.4815 26.6319C93.0598 26.4667 94.6944 26.2945 96.2552 26.1749C98.7229 25.9781 100.667 26.0976 102.193 26.544C104.365 27.1803 105.701 28.481 106.161 30.4179C107.409 36.1337 106.312 41.8144 105.251 47.3052C104.579 50.7783 103.887 54.3709 103.788 57.946C103.574 62.7232 103.725 69.6905 107.483 75.097C108.474 76.4328 109.466 77.758 110.425 79.0376L110.432 79.0481L129.19 104.08L128.67 104.471V104.478Z" fill="#7D01FE"/>
<path d="M130.754 98.5579L111.965 73.4835C108.499 69.2933 106.71 64.1997 106.495 57.9144C106.305 52.3813 107.321 46.6092 108.305 41.027C108.829 38.0531 109.325 35.2479 109.645 32.4849C109.986 29.6375 109.216 26.8675 107.588 25.0817C106.242 23.6053 104.386 22.8566 102.221 22.9128C100.027 22.9972 97.7034 23.2186 95.4536 23.4366C86.0327 24.34 76.2884 25.2751 69.8765 17.2989C67.6091 14.2863 66.2944 12.5287 66.2944 12.5287L66.8147 12.1385C66.8147 12.1385 68.1294 13.8926 70.3897 16.8982C76.5766 24.5896 86.1417 23.6721 95.3903 22.7863C97.6471 22.5683 99.9848 22.3468 102.199 22.259C104.569 22.1957 106.594 23.0218 108.07 24.6388C109.824 26.5652 110.657 29.525 110.295 32.5587C109.972 35.3393 109.476 38.155 108.949 41.136C106.97 52.3532 104.927 63.9501 112.475 73.0722L112.485 73.0863L131.278 98.1677L130.754 98.5579Z" fill="#7D01FE"/>
<path d="M132.364 92.0019L115.065 68.9171C108.176 59.8512 109.975 48.9538 111.719 38.4151C112.362 34.5237 113.03 30.4987 113.216 26.6916C113.329 24.6387 112.668 22.6702 111.406 21.2957C110.253 20.0372 108.689 19.3412 106.889 19.285C104.059 19.176 101.106 19.3834 97.9848 19.6084C88.701 20.2657 79.0972 20.9477 73.0264 12.8204L73.5501 12.4302C79.4066 20.2727 88.8275 19.6048 97.9391 18.958C100.941 18.7436 104.049 18.5257 106.914 18.6346C108.889 18.6979 110.612 19.4642 111.888 20.8563C113.269 22.3608 113.99 24.4981 113.867 26.7268C113.677 30.569 113.009 34.6115 112.362 38.5205C110.64 48.9222 108.861 59.6754 115.586 68.5234L132.884 91.6082L132.361 91.9984L132.364 92.0019Z" fill="#7D01FE"/>
<path d="M133.366 84.6409L119.628 66.3088C118.605 64.9449 117.61 63.602 116.661 62.1783L116.64 62.1467C111.806 52.6344 113.821 42.1448 115.772 31.9997C116.229 29.6304 116.7 27.1803 117.058 24.8321C117.466 21.9777 116.703 19.408 114.907 17.6047C112.952 15.6432 110.003 14.7714 106.815 15.2178L106.727 15.2284C98.0371 16.3849 89.0521 17.5801 81.1111 13.3407L81.4169 12.7642C89.1751 16.9052 98.0547 15.724 106.639 14.5816L106.727 14.571C110.119 14.0965 113.269 15.035 115.371 17.1442C117.315 19.0952 118.144 21.8617 117.705 24.927C117.343 27.2928 116.872 29.75 116.415 32.1228C114.485 42.1554 112.492 52.5254 117.213 61.8338C118.148 63.2364 119.136 64.5652 120.148 65.9186L133.886 84.2507L133.362 84.6409H133.366Z" fill="#7D01FE"/>
<path d="M133.507 76.127L123.805 63.1803C122.852 61.9078 121.868 60.5931 120.922 59.1272C116.595 52.9122 117.034 45.1751 117.923 37.1286C118.198 34.9702 118.637 32.7873 119.062 30.6746C120.05 25.7813 121.07 20.7193 120.057 15.7101C119.548 13.056 117.013 11.7238 112.517 11.7448C110.211 11.7835 107.891 11.9593 105.645 12.1245C101.416 12.4409 97.0428 12.7678 92.719 12.1843L92.8069 11.5374C97.0639 12.1139 101.208 11.8046 105.599 11.4742C107.852 11.3054 110.183 11.1297 112.51 11.091C112.545 11.091 112.58 11.091 112.612 11.091C117.336 11.091 120.131 12.6412 120.694 15.5835C121.734 20.7193 120.697 25.8446 119.699 30.8011C119.277 32.8997 118.837 35.0722 118.567 37.2024C117.691 45.1153 117.256 52.7224 121.46 58.7616C122.398 60.2169 123.376 61.5246 124.321 62.7866L134.023 75.7333L133.5 76.1235L133.507 76.127Z" fill="#7D01FE"/>
<path d="M132.178 65.6514L126.88 58.5822C126.079 57.5136 125.228 56.3605 124.385 55.0423C119.284 46.4194 120.992 36.7524 122.648 27.4053C123.256 23.9779 123.882 20.4345 124.142 17.0457C124.318 14.0964 124.3 10.8308 121.861 9.49143C118.349 7.56858 114.201 7.75137 110.605 8.18727L110.527 7.54045C114.225 7.09402 118.5 6.90771 122.173 8.91844C125.179 10.5636 124.929 14.8065 124.792 17.0879C124.532 20.5118 123.899 24.0728 123.291 27.5142C121.657 36.7453 119.969 46.2928 124.94 54.6978C125.766 55.9879 126.61 57.1304 127.404 58.1885L132.702 65.2577L132.181 65.6479L132.178 65.6514Z" fill="#7D01FE"/>
<path d="M126.698 48.9997C123.298 40.3627 124.901 31.2722 126.451 22.4805C126.926 19.7913 127.415 17.0072 127.745 14.3145L128.392 14.3919C128.061 17.1021 127.569 19.8933 127.095 22.5895C125.559 31.2933 123.973 40.2924 127.306 48.7572L126.698 48.9962V48.9997Z" fill="#7D01FE"/>
<path d="M116.347 117.894L115.696 117.831C115.907 115.683 116.396 113.493 116.87 111.377C117.992 106.361 119.053 101.622 116.856 97.077C115.763 94.6971 113.967 93.3086 111.2 92.6969C108.718 92.1486 105.759 92.3103 102.894 92.4684C100.264 92.6126 97.5469 92.7637 95.2022 92.3595L95.3112 91.7162C97.5821 92.1064 100.264 91.9587 102.855 91.8181C108.754 91.4947 114.853 91.1572 117.443 96.8028C119.735 101.548 118.6 106.617 117.503 111.521C117.032 113.62 116.547 115.789 116.34 117.898L116.347 117.894ZM121.827 132.17C118.523 121.951 121.212 111.465 123.81 101.323C124.052 100.381 124.291 99.4392 124.53 98.4971C125.247 95.5092 125.279 91.4279 123.226 88.9321C121.999 87.4416 120.224 86.7315 117.943 86.8264C115.819 86.9213 113.647 87.0936 111.548 87.2588C102.433 87.9724 93.0052 88.7141 85.1345 83.4377L84.7724 83.979C92.833 89.3785 102.373 88.6298 111.601 87.9056C113.696 87.7404 115.861 87.5717 117.974 87.4768C120.038 87.3924 121.637 88.0216 122.723 89.3469C124.625 91.6599 124.576 95.5127 123.897 98.3425C123.662 99.2775 123.423 100.22 123.18 101.162C120.558 111.391 117.848 121.972 121.208 132.37L121.827 132.17ZM130.766 136.072C130.766 136.072 129.448 134.314 127.325 131.463C121.932 122.236 124.713 111.718 127.406 101.545C127.912 99.6326 128.39 97.8257 128.819 96.0154C128.879 95.7798 128.938 95.5443 128.998 95.3053C129.817 92.0958 130.664 88.7809 128.942 85.5434C127.265 82.5378 123.634 82.4323 121.047 82.6186C118.456 82.703 115.721 82.9983 113.074 83.283C103.86 84.2743 94.334 85.2973 87.6339 78.214C85.3771 75.4967 84.0729 73.7566 84.0588 73.7426L83.5386 74.1328C83.5386 74.1328 84.8673 75.901 87.1417 78.6394L87.1558 78.6534C94.0774 85.9828 103.772 84.9387 113.148 83.9334C115.784 83.6486 118.508 83.3569 121.078 83.2725H121.089C123.5 83.0967 126.878 83.1776 128.372 85.8562C129.972 88.8618 129.156 92.0572 128.372 95.1436C128.313 95.3826 128.253 95.6181 128.19 95.8607C127.764 97.664 127.286 99.4673 126.78 101.376C125.444 106.424 124.063 111.644 123.701 116.794C123.286 122.654 124.295 127.565 126.776 131.808L126.798 131.836C128.928 134.697 130.235 136.444 130.25 136.462L130.773 136.072H130.766ZM138.774 138.054L134.746 132.68C133.515 131.038 131.986 128.996 130.376 126.661C127.051 120.851 128.088 113.616 128.921 107.799C129.318 105.011 130.323 102.153 131.29 99.39C133.294 93.6742 135.364 87.7685 132.457 81.8875C130.517 77.8976 125.957 78.5128 121.932 79.0577C121.324 79.142 120.751 79.2194 120.199 79.2791C118.751 79.4057 117.25 79.5744 115.802 79.7396C107.836 80.6431 99.5998 81.5781 93.2513 76.4142C91.223 74.53 89.6973 72.565 88.4283 70.8706L84.3998 65.4958L83.876 65.886L87.9045 71.2608C89.1911 72.9798 90.7414 74.9764 92.8119 76.8993L92.8294 76.9134C99.3924 82.2566 107.769 81.3074 115.872 80.39C117.317 80.2247 118.814 80.056 120.263 79.9295C120.829 79.8662 121.409 79.7889 122.02 79.7045C125.824 79.1877 130.137 78.6042 131.87 82.1757C134.658 87.8107 132.633 93.5863 130.675 99.1756C129.694 101.97 128.682 104.86 128.274 107.707C127.427 113.623 126.372 120.991 129.817 126.995L129.831 127.02C131.452 129.372 132.988 131.425 134.225 133.07L138.254 138.445L138.774 138.054ZM145.987 138.979L138.851 129.456C137.41 127.533 135.776 125.354 134.225 122.83C132.137 119.318 131.417 114.942 131.961 109.057C132.316 105.377 133.48 101.678 134.608 98.0999C136.598 91.7794 138.655 85.2446 136.282 78.6534C135.139 75.3948 131.241 75.437 128.105 75.4721H127.806C124.956 75.5073 121.978 75.8764 119.096 76.2349C111.815 77.1383 104.286 78.0699 98.0777 73.6828C95.7788 71.8127 94.0598 69.6825 92.6783 67.8405L85.5423 58.3176L85.0185 58.7078L92.1545 68.2306C93.5606 70.1043 95.3147 72.2802 97.6735 74.1961L97.6911 74.2101C104.106 78.7519 111.766 77.8027 119.176 76.8817C122.041 76.5267 125.001 76.1611 127.813 76.1295H128.112C131.188 76.0908 134.675 76.0521 135.667 78.8714C137.966 85.2551 136.032 91.3998 133.986 97.9031C132.851 101.513 131.677 105.246 131.311 108.994C130.752 115.022 131.501 119.525 133.666 123.167C135.234 125.719 136.879 127.913 138.328 129.846L145.464 139.369L145.987 138.979ZM152.624 139.137L139.66 121.835C133.308 113.778 135.8 104.016 138.212 94.5776C138.981 91.5721 139.706 88.7282 140.163 85.9195C140.24 85.3817 140.331 84.8438 140.426 84.2708C140.954 81.1247 141.551 77.5602 139.551 74.6425C138.004 72.1713 135.034 72.1467 132.415 72.1256C132.232 72.1256 132.053 72.1256 131.867 72.122C129.023 72.1291 125.996 72.463 123.071 72.7864C114.972 73.6828 106.599 74.6073 100.324 69.0286C99.2167 67.8194 98.2605 66.582 97.4696 65.5274L87.2542 51.8952L86.7304 52.2854L96.9458 65.9176C97.7473 66.9862 98.721 68.2482 99.8529 69.4821L99.8776 69.5067C106.374 75.2893 114.898 74.3472 123.145 73.4332C126.056 73.1098 129.061 72.7794 131.867 72.7724C132.046 72.7724 132.229 72.7759 132.411 72.7759C134.985 72.797 137.649 72.8181 139.003 74.9905L139.01 75.0011C140.866 77.7043 140.314 80.984 139.783 84.1583C139.692 84.7067 139.597 85.2762 139.519 85.814C139.066 88.5876 138.345 91.4174 137.579 94.4089C135.129 104.002 132.598 113.922 139.143 122.225L152.104 139.52L152.628 139.13L152.624 139.137ZM158.808 138.691L142.722 117.223C137.262 108.765 139.692 99.1967 142.036 89.9445C143.161 85.5117 144.325 80.9243 144.609 76.5197C144.782 74.2066 144.068 72.1959 142.542 70.7054C140.799 69.0005 138.173 68.1814 135.347 68.4556C133.343 68.6208 131.301 68.8845 129.135 69.1622C119.366 70.4207 109.263 71.7213 102.82 63.9139C101.916 62.7714 101.076 61.6501 100.261 60.5603L89.4196 46.0915L88.8958 46.4817L99.7369 60.9505C100.552 62.0403 101.4 63.1687 102.31 64.3217C105.302 67.9459 109.344 69.9918 114.673 70.5718C119.338 71.078 124.361 70.4347 129.216 69.809C131.371 69.5313 133.406 69.2676 135.403 69.1059C138.043 68.8493 140.479 69.6016 142.085 71.1729C143.467 72.5263 144.117 74.3578 143.959 76.4775C143.678 80.8259 142.525 85.3817 141.407 89.7863C139.024 99.1791 136.559 108.892 142.18 117.589L142.187 117.599L158.287 139.084L158.808 138.694V138.691ZM164.615 137.738L147.759 115.244C140.707 106.456 143.361 95.5619 145.924 85.0231C146.782 81.4938 147.594 78.1613 148.061 74.8921C148.48 71.9779 147.668 69.345 145.78 67.4784C143.734 65.4571 140.584 64.5502 137.357 65.0528L136.517 65.1829C126.007 66.8386 112.923 68.895 105.97 59.4776L91.9612 40.7834L91.4409 41.1736L105.446 59.8643C109.717 65.6504 116.146 67.2569 122.903 67.2569C127.515 67.2569 132.285 66.5082 136.619 65.8262L137.456 65.6926C140.479 65.2216 143.418 66.0617 145.319 67.9389C147.056 69.6543 147.801 72.0904 147.415 74.7937C146.951 78.0312 146.142 81.3496 145.288 84.8649C142.687 95.5548 139.994 106.61 147.239 115.638L164.088 138.125L164.608 137.735L164.615 137.738ZM170.092 136.343L152.638 113.05C151.7 111.799 150.638 110.379 149.675 108.825C145.59 100.866 147.418 91.9517 149.183 83.3322C149.587 81.3602 150.005 79.3213 150.329 77.3668C150.41 76.8887 150.501 76.3966 150.596 75.8764C151.422 71.3698 152.448 65.7594 148.304 62.8277C146.592 61.5727 144.585 61.6606 142.637 61.745C140.616 61.8469 138.57 62.0438 136.401 62.2477C126.165 63.2214 115.584 64.2268 109.351 55.2839L94.8437 35.9218L94.3199 36.312L108.82 55.6635C111.706 59.8081 115.781 62.2441 121.275 63.1159C126.091 63.8787 131.364 63.3796 136.461 62.8945C138.623 62.6906 140.665 62.4972 142.669 62.3918C144.585 62.3109 146.395 62.2301 147.924 63.3514C151.735 66.0477 150.747 71.4295 149.956 75.7533C149.861 76.2771 149.77 76.7692 149.689 77.2543C149.366 79.1948 148.968 81.1387 148.546 83.1952C146.757 91.9306 144.905 100.961 149.102 109.127L149.116 109.148C150.093 110.73 151.169 112.165 152.118 113.434L169.571 136.726L170.095 136.336L170.092 136.343ZM175.27 134.55L155.247 107.827C148.775 98.8803 151.035 88.1693 153.222 77.8133C153.89 74.6495 154.519 71.6651 154.916 68.7122C155.359 65.0142 154.484 61.6219 152.571 59.6393C151.144 58.1629 149.239 57.5126 146.908 57.713C144.922 57.8852 142.855 58.1524 140.859 58.409C131.779 59.5796 122.389 60.7888 115.338 54.3137C114.308 53.1712 113.38 51.9549 112.592 50.9039L98.0215 31.4609L97.5012 31.8511L112.072 51.2941C112.87 52.3592 113.812 53.5931 114.863 54.7601L114.884 54.7812C122.161 61.4743 131.708 60.244 140.939 59.0523C142.933 58.7957 144.993 58.5285 146.961 58.3598C149.088 58.1805 150.817 58.7605 152.1 60.0893C153.851 61.9032 154.684 65.1759 154.269 68.6279C153.879 71.5526 153.25 74.5265 152.586 77.6762C150.371 88.1728 148.079 99.0279 154.723 108.213L174.749 134.94L175.273 134.55H175.27ZM180.17 132.388L159.767 105.159C158.913 104.02 157.932 102.631 157.134 100.972C153.482 92.3173 155.187 83.0721 156.839 74.1328C157.57 70.164 158.329 66.0652 158.607 62.0649C158.744 59.6604 157.95 57.5829 156.301 56.0608C154.389 54.2926 151.475 53.4806 148.511 53.8883C147.031 54.0676 145.548 54.2856 143.977 54.5176C135.013 55.8428 125.743 57.2138 119.12 50.6367C118.111 49.5505 117.25 48.4256 116.311 47.1707L101.466 27.3621L100.946 27.7523L115.791 47.5608C116.709 48.7842 117.616 49.9758 118.649 51.0832L118.66 51.0937C121.732 54.145 125.652 55.8077 130.647 56.1768C135.02 56.5002 139.621 55.8182 144.072 55.1609C145.639 54.9289 147.119 54.7109 148.596 54.5316C151.373 54.152 154.09 54.9007 155.858 56.5388C157.356 57.9239 158.08 59.8221 157.953 62.0192C157.676 65.9774 156.923 70.0621 156.192 74.0098C154.522 83.0475 152.796 92.3946 156.53 101.228L156.537 101.243C157.366 102.965 158.417 104.445 159.24 105.545L179.643 132.775L180.166 132.384L180.17 132.388ZM184.81 129.881L164.165 102.329C163.212 101.06 162.21 99.6923 161.353 98.1843C157.908 92.2329 158.635 85.234 159.338 78.4671C159.423 77.6727 159.507 76.8466 159.584 76.0486C159.799 73.7918 160.309 71.4752 160.801 69.2325C161.957 63.9737 163.152 58.539 160.769 53.2837C159.479 50.3274 155.925 50.0883 153.366 50.1622C150.659 50.2395 147.801 50.6332 145.035 51.0164C137.122 52.1096 128.938 53.2415 123.008 47.1917C121.989 46.0423 121.078 44.8295 120.196 43.6519L105.175 23.6078L104.651 23.998L119.672 44.0421C120.561 45.2302 121.482 46.4571 122.523 47.6312L122.533 47.6417C126.284 51.4734 130.844 52.542 135.663 52.542C138.76 52.542 141.962 52.0991 145.123 51.6632C147.872 51.2835 150.712 50.8898 153.384 50.816C155.753 50.7457 159.036 50.9496 160.171 53.5474C162.467 58.6093 161.296 63.9385 160.164 69.0919C159.669 71.3522 159.156 73.6899 158.934 75.9853C158.86 76.7798 158.772 77.6024 158.692 78.3968C157.978 85.2692 157.236 92.3735 160.787 98.5077C161.662 100.047 162.678 101.432 163.641 102.719L184.286 130.272L184.807 129.881H184.81ZM189.204 127.045L168.446 99.3408C167.469 98.0366 166.46 96.6903 165.511 95.2631C160.291 86.0988 162.242 75.567 164.13 65.3798C164.629 62.6836 165.146 59.8994 165.504 57.2314C165.908 53.9481 164.987 50.8898 162.984 48.8439C161.208 47.0336 158.695 46.1934 155.9 46.4817C153.999 46.6926 151.995 47.0265 150.062 47.3464C141.815 48.7103 133.29 50.1165 127.086 43.8733C126.063 42.7555 125.159 41.5673 124.245 40.3475L109.144 20.1945L108.624 20.5847L123.725 40.7377C124.65 41.9716 125.567 43.1773 126.611 44.3163L126.622 44.3268C130.337 48.067 134.798 49.1744 139.526 49.1744C142.999 49.1744 146.61 48.5768 150.174 47.9897C152.192 47.6558 154.097 47.3429 155.978 47.132C158.604 46.8613 160.868 47.6101 162.523 49.3009C164.39 51.2062 165.244 54.0676 164.864 57.1505C164.509 59.801 163.996 62.5781 163.497 65.2638C161.588 75.567 159.613 86.2218 164.959 95.597L164.97 95.6181C165.93 97.0629 166.949 98.4198 167.933 99.7345L188.691 127.438L189.211 127.048L189.204 127.045ZM193.356 123.884L172.594 96.1771C171.614 94.8694 170.615 93.5336 169.599 92.1732C163.947 83.494 165.585 73.4614 167.167 63.7557C167.859 59.4987 168.58 55.0976 168.678 50.8547C168.707 48.5662 167.884 46.5133 166.365 45.0756C164.847 43.6378 162.748 42.9277 160.453 43.0789C158.312 43.223 156.034 43.5077 153.83 43.7854C144.128 45.0017 134.095 46.2602 128.443 37.2611L128.436 37.2506L113.334 17.0975L112.814 17.4877L127.898 37.6197C130.531 41.8028 134.324 44.2143 139.491 44.9912C144.029 45.6731 149.053 45.0404 153.911 44.4323C156.206 44.144 158.375 43.8733 160.495 43.7292C162.604 43.5921 164.53 44.2389 165.915 45.5501C167.3 46.8613 168.049 48.742 168.025 50.8441C167.926 55.0378 167.213 59.4143 166.524 63.6502C164.921 73.4789 163.261 83.6416 169.058 92.5352L169.069 92.5528C170.085 93.9167 171.09 95.2561 172.071 96.5673L192.832 124.275L193.352 123.884H193.356ZM197.265 120.401L176.658 92.9008C175.684 91.6002 174.679 90.2573 173.684 88.8793C167.392 79.8556 169.065 69.0286 170.682 58.5601C171.181 55.3437 171.695 52.0182 171.948 48.851C172.204 45.9579 171.403 43.2089 169.803 41.5005C168.562 40.1753 166.868 39.4968 164.914 39.5425C162.277 39.5601 159.461 39.8483 156.737 40.1225C147.854 41.0224 138.665 41.954 132.773 34.3259C130.995 31.9671 129.3 29.7068 127.806 27.7136L117.774 14.3275L117.254 14.7177L127.286 28.1038C128.78 30.097 130.474 32.3608 132.257 34.7196C136.387 40.0663 141.998 41.3705 147.998 41.3705C150.884 41.3705 153.862 41.0681 156.804 40.7693C159.514 40.4952 162.316 40.2104 164.924 40.1928C166.72 40.1507 168.2 40.7412 169.329 41.9434C170.802 43.5183 171.54 46.0774 171.301 48.7912C171.048 51.9374 170.535 55.2523 170.039 58.4582C168.401 69.0532 166.706 80.0103 173.153 89.2555C174.152 90.644 175.161 91.9904 176.138 93.291L196.744 120.791L197.268 120.401H197.265ZM200.924 116.583L180.585 89.4418C179.625 88.1587 178.63 86.8335 177.639 85.473C170.774 76.2455 172.623 64.856 174.412 53.8356C174.806 51.4171 175.175 49.1357 175.459 46.8578C175.909 43.1562 175.013 39.7113 173.062 37.6372C171.554 36.0343 169.529 35.2926 167.037 35.4402C165.248 35.5738 163.391 35.7812 161.595 35.9851C152.891 36.9588 143.896 37.9642 137.305 31.5558C135.512 29.292 133.846 27.0668 132.376 25.1053L122.477 11.8914L121.953 12.2816L131.852 25.4955C133.329 27.464 135.002 29.6998 136.805 31.9777L136.834 32.0093C141.171 36.2382 146.462 37.3595 152.023 37.3595C155.194 37.3595 158.449 36.9939 161.665 36.6354C163.455 36.435 165.304 36.2276 167.075 36.094C169.36 35.9605 171.213 36.6319 172.584 38.0872C174.401 40.0206 175.234 43.2722 174.809 46.784C174.528 49.0478 174.159 51.3257 173.765 53.7372C172.876 59.2105 171.958 64.87 172.134 70.3398C172.334 76.5548 173.962 81.6344 177.112 85.8632C178.106 87.2272 179.101 88.5524 180.061 89.839L200.4 116.98L200.924 116.59V116.583ZM204.32 112.414L183.309 84.3728C182.237 82.9421 181.13 81.4656 180.142 79.824C174.693 70.498 176.518 59.5901 178.279 49.0373C178.514 47.6206 178.76 46.1583 178.978 44.7416C179.397 41.8099 179.688 36.4385 176.922 33.3802C175.544 31.8546 173.586 31.1375 171.1 31.243C168.886 31.3379 166.618 31.5804 164.214 31.837C154.888 32.8354 145.246 33.8689 139.438 25.8259L127.423 9.79278L126.903 10.183L138.915 26.2126C141.614 29.9529 145.372 32.1288 150.399 32.86C154.807 33.4998 159.623 32.9865 164.281 32.4874C166.671 32.2308 168.932 31.9882 171.125 31.8968C173.403 31.7984 175.189 32.4452 176.433 33.8197C179.119 36.7865 178.651 42.3829 178.328 44.6467C178.113 46.0528 177.867 47.5151 177.632 48.9283C176.76 54.152 175.857 59.5514 175.86 64.8525C175.864 70.8812 177.08 75.8834 179.576 80.158C180.585 81.8277 181.703 83.3217 182.782 84.763L203.792 112.804L204.316 112.414H204.32ZM207.438 107.872L187.004 80.6009C185.96 79.2088 184.88 77.7676 183.829 76.2736C178.704 67.3061 180.254 57.2068 181.752 47.4413C182.413 43.1281 183.098 38.6637 183.207 34.3434C183.284 32.2975 182.592 30.4907 181.21 29.1233C179.66 27.5941 177.375 26.7856 174.936 26.9051C172.591 27.0457 170.134 27.3656 167.757 27.675C159.349 28.7752 150.652 29.9107 144.427 23.5305C142.585 21.3158 140.978 19.175 139.561 17.2838L132.661 8.07381L132.141 8.464L139.041 17.674C140.465 19.5723 142.075 21.7236 143.934 23.9523L143.952 23.9699C150.406 30.5926 159.272 29.4361 167.842 28.3147C170.208 28.0054 172.654 27.6855 174.971 27.5484C177.224 27.4359 179.33 28.1776 180.75 29.5802C182.001 30.8141 182.624 32.4487 182.553 34.3153C182.444 38.6004 181.766 43.0402 181.105 47.3359C179.59 57.2173 178.022 67.4362 183.267 76.604L183.284 76.6286C184.346 78.1367 185.432 79.5815 186.48 80.984L206.914 108.252L207.438 107.862V107.872ZM210.25 102.926L190.558 76.6462C189.552 75.3034 188.508 73.9113 187.499 72.4595C184.912 68.7017 183.734 64.0053 183.794 57.6743C183.836 53.1431 184.582 48.756 185.302 44.5096C186.132 39.6234 186.989 34.5719 186.796 29.2252C186.596 25.6185 183.643 23.077 179.766 23.1895C177.323 23.2844 174.721 23.5516 172.201 23.8152C161.62 24.912 150.677 26.0439 144.87 15.6809L144.859 15.6633L138.198 6.77316L137.674 7.16336L144.311 16.0183C147.01 20.8202 151.025 23.6535 156.586 24.68C161.479 25.5834 166.963 25.0139 172.268 24.4655C174.89 24.1948 177.368 23.9382 179.787 23.8433C183.291 23.7449 185.963 26.0228 186.142 29.2568C186.336 34.5297 185.481 39.5495 184.659 44.4041C183.935 48.6717 183.182 53.0869 183.144 57.6708C183.081 64.1424 184.293 68.9618 186.961 72.8356C187.977 74.298 189.021 75.6936 190.037 77.0434L209.726 103.317L210.247 102.926H210.25ZM212.725 97.5269L193.967 72.4947L193.96 72.4841C193.001 71.2046 192.009 69.8793 191.018 68.5435C187.264 63.1335 187.113 56.1698 187.323 51.3925C187.422 47.8175 188.114 44.2249 188.786 40.7518C189.847 35.2609 190.944 29.5802 189.696 23.8644C189.236 21.9275 187.903 20.6268 185.728 19.9906C184.202 19.5441 182.258 19.4246 179.79 19.6215C178.229 19.7375 176.595 19.9097 175.016 20.0785C165.863 21.0416 156.396 22.0365 150.413 14.3697C149.102 12.6296 147.963 11.1075 147.024 9.85606L144.075 5.91895L143.555 6.30915L146.504 10.2463C147.443 11.4977 148.582 13.0198 149.896 14.7669C152.68 18.3349 156.449 20.4054 161.419 21.1014C165.778 21.7096 170.51 21.2104 175.083 20.7288C176.658 20.5636 178.286 20.3913 179.839 20.2753C185.341 19.8359 188.357 21.0592 189.06 24.0121C190.28 29.5908 189.194 35.2047 188.146 40.6323C187.471 44.1335 186.772 47.7507 186.673 51.3714C186.455 56.2365 186.613 63.3479 190.487 68.9267C191.486 70.273 192.477 71.5983 193.437 72.8778L212.205 97.9206L212.725 97.5304V97.5269ZM214.809 91.6037L196.017 66.5222L196.006 66.5117C188.459 57.3931 190.505 45.7927 192.48 34.5754C193.008 31.5945 193.503 28.7752 193.827 25.9982C194.189 22.9645 193.359 20.0046 191.602 18.0783C190.125 16.4577 188.097 15.6352 185.731 15.6984C183.516 15.7828 181.179 16.0078 178.922 16.2257C169.673 17.1116 160.108 18.0326 153.921 10.3376C151.661 7.3356 150.346 5.57797 150.346 5.57797L149.826 5.96817C149.826 5.96817 151.141 7.7258 153.408 10.7349C159.823 18.711 169.564 17.776 178.985 16.8725C181.235 16.6581 183.559 16.4331 185.752 16.3488C187.918 16.2925 189.777 17.0413 191.12 18.5177C192.748 20.307 193.517 23.0735 193.176 25.9208C192.853 28.6838 192.361 31.489 191.837 34.463C190.853 40.0452 189.837 45.8173 190.027 51.3503C190.241 57.6356 192.034 62.7292 195.496 66.9194L214.286 91.9939L214.809 91.6037ZM216.419 85.0512L199.121 61.9664C192.399 53.122 194.178 42.3653 195.897 31.9636C196.544 28.0546 197.212 24.0121 197.402 20.1699C197.521 17.9447 196.801 15.8039 195.423 14.2994C194.147 12.9073 192.428 12.141 190.449 12.0777C187.584 11.9687 184.476 12.1867 181.474 12.4011C172.362 13.0479 162.942 13.7158 157.085 5.87325L156.561 6.26345C162.632 14.3908 172.232 13.7088 181.52 13.0514C184.645 12.83 187.594 12.6191 190.424 12.728C192.224 12.7843 193.785 13.4803 194.941 14.7388C196.203 16.1132 196.864 18.0818 196.751 20.1347C196.562 23.9417 195.897 27.9667 195.254 31.8581C193.51 42.3969 191.707 53.2907 198.6 62.3601L215.899 85.4449L216.423 85.0547L216.419 85.0512ZM217.421 77.6867L203.684 59.3546C202.671 58.0047 201.683 56.6724 200.748 55.2698C196.027 45.9614 198.02 35.5878 199.95 25.5588C200.407 23.1824 200.878 20.7288 201.24 18.363C201.68 15.2977 200.85 12.5312 198.906 10.5802C196.804 8.47104 193.654 7.53246 190.262 8.00702L190.174 8.01757C181.587 9.16003 172.71 10.3412 164.952 6.20018L164.646 6.77668C172.591 11.0161 181.576 9.8209 190.262 8.66438L190.35 8.65383C193.538 8.21091 196.488 9.07918 198.442 11.0407C200.239 12.844 201.005 15.4137 200.594 18.2681C200.235 20.6198 199.764 23.07 199.307 25.4357C197.356 35.5808 195.338 46.0704 200.175 55.5827L200.196 55.6143C201.145 57.038 202.14 58.3809 203.163 59.7448L216.901 78.0769L217.425 77.6867H217.421ZM217.562 69.1727L207.86 56.226C206.914 54.964 205.937 53.6598 204.998 52.201C200.794 46.1618 201.23 38.5547 202.105 30.6419C202.376 28.5116 202.812 26.3427 203.237 24.2405C204.235 19.284 205.272 14.1552 204.232 9.02294C203.666 6.08417 200.875 4.53042 196.15 4.53042C196.115 4.53042 196.08 4.53042 196.048 4.53042C193.721 4.56909 191.391 4.74485 189.137 4.91358C184.75 5.2405 180.602 5.55336 176.345 4.97686L176.257 5.62367C180.581 6.20721 184.954 5.88028 189.183 5.56391C191.429 5.39517 193.749 5.22293 196.055 5.18426C200.551 5.16317 203.086 6.49546 203.596 9.14949C204.608 14.1587 203.589 19.2207 202.601 24.114C202.175 26.2232 201.736 28.4097 201.462 30.568C200.573 38.6145 200.133 46.3516 204.46 52.5666C205.406 54.0325 206.39 55.3472 207.343 56.6197L217.045 69.5664L217.569 69.1763L217.562 69.1727ZM216.233 58.6972L210.936 51.628C210.141 50.5699 209.297 49.4275 208.471 48.1374C203.501 39.7323 205.188 30.1849 206.823 20.9538C207.431 17.5123 208.064 13.9513 208.324 10.5275C208.457 8.24958 208.71 4.00664 205.705 2.35798C202.031 0.347247 197.753 0.530041 194.059 0.979996L194.136 1.6268C197.732 1.19091 201.88 1.00812 205.392 2.93097C207.832 4.26678 207.849 7.53246 207.673 10.4853C207.413 13.8705 206.788 17.4174 206.179 20.8448C204.524 30.1919 202.815 39.8589 207.916 48.4819C208.76 49.8001 209.61 50.9531 210.412 52.0252L215.709 59.0945L216.23 58.7043L216.233 58.6972Z" fill="url(#paint0_linear_2928_117182)"/>
<path d="M191.559 117.312L190.909 117.249C191.12 115.101 191.608 112.911 192.083 110.795C193.204 105.778 194.266 101.04 192.069 96.4946C190.976 94.1148 189.179 92.7263 186.413 92.1146C183.931 91.5662 180.971 91.7279 178.106 91.8861C175.477 92.0302 172.76 92.1814 170.415 91.7771L170.524 91.1338C172.795 91.524 175.477 91.3764 178.068 91.2358C183.966 90.9124 190.065 90.5749 192.656 96.2204C194.948 100.966 193.813 106.035 192.716 110.939C192.245 113.037 191.76 115.206 191.552 117.316L191.559 117.312ZM197.04 131.588C193.735 121.369 196.424 110.883 199.022 100.741C199.265 99.799 199.504 98.8569 199.743 97.9148C200.46 94.9268 200.492 90.8456 198.439 88.3497C197.212 86.8593 195.437 86.1492 193.155 86.2441C191.032 86.339 188.86 86.5113 186.761 86.6765C177.646 87.3901 168.218 88.1318 160.347 82.8554L159.985 83.3967C168.046 88.7962 177.586 88.0474 186.814 87.3233C188.909 87.1581 191.074 86.9893 193.187 86.8944C195.25 86.8101 196.85 87.4393 197.936 88.7645C199.838 91.0776 199.789 94.9303 199.11 97.7601C198.875 98.6952 198.635 99.6373 198.393 100.579C195.771 110.809 193.06 121.39 196.421 131.788L197.04 131.588ZM205.979 135.49C205.979 135.49 204.661 133.732 202.537 130.881C197.145 121.653 199.926 111.136 202.618 100.963C203.124 99.0502 203.603 97.2434 204.031 95.433C204.091 95.1975 204.151 94.962 204.211 94.7229C205.03 91.5135 205.877 88.1986 204.154 84.961C202.478 81.9555 198.846 81.85 196.259 82.0363C193.668 82.1207 190.934 82.416 188.287 82.7007C179.073 83.692 169.547 84.7149 162.847 77.6317C160.59 74.9144 159.286 73.1743 159.271 73.1602L158.751 73.5504C158.751 73.5504 160.08 75.3186 162.354 78.057L162.368 78.0711C169.29 85.4004 178.985 84.3564 188.36 83.351C190.997 83.0663 193.721 82.7745 196.291 82.6902H196.301C198.713 82.5144 202.091 82.5952 203.585 85.2739C205.184 88.2794 204.369 91.4748 203.585 94.5612C203.525 94.8003 203.465 95.0358 203.402 95.2783C202.977 97.0817 202.499 98.885 201.993 100.794C200.657 105.842 199.275 111.062 198.913 116.212C198.498 122.072 199.507 126.983 201.989 131.226L202.01 131.254C204.14 134.115 205.448 135.862 205.462 135.88L205.986 135.49H205.979ZM213.987 137.472L209.958 132.097C208.728 130.456 207.199 128.413 205.589 126.079C202.263 120.268 203.3 113.034 204.133 107.216C204.531 104.429 205.536 101.571 206.503 98.8077C208.506 93.0919 210.577 87.1862 207.67 81.3051C205.729 77.3153 201.17 77.9305 197.145 78.4753C196.537 78.5597 195.964 78.637 195.412 78.6968C193.964 78.8233 192.463 78.9921 191.014 79.1573C183.049 80.0607 174.812 80.9958 168.464 75.8319C166.436 73.9477 164.91 71.9826 163.641 70.2883L159.612 64.9134L159.089 65.3036L163.117 70.6785C164.404 72.3974 165.954 74.3941 168.025 76.317L168.042 76.331C174.605 81.6742 182.982 80.7251 191.085 79.8076C192.529 79.6424 194.027 79.4737 195.475 79.3471C196.041 79.2839 196.621 79.2065 197.233 79.1222C201.036 78.6054 205.35 78.0219 207.083 81.5934C209.87 87.2284 207.846 93.004 205.887 98.5932C204.907 101.388 203.894 104.277 203.487 107.125C202.639 113.041 201.585 120.409 205.03 126.413L205.044 126.438C206.664 128.789 208.201 130.842 209.438 132.487L213.466 137.862L213.987 137.472ZM221.2 138.397L214.064 128.874C212.623 126.951 210.988 124.771 209.438 122.248C207.35 118.736 206.629 114.359 207.174 108.475C207.529 104.794 208.693 101.096 209.821 97.5176C211.811 91.1971 213.867 84.6622 211.494 78.0711C210.352 74.8124 206.453 74.8546 203.318 74.8898H203.019C200.168 74.9249 197.191 75.294 194.308 75.6526C187.028 76.556 179.498 77.4876 173.29 73.1005C170.991 71.2304 169.272 69.1001 167.891 67.2581L160.755 57.7352L160.231 58.1254L167.367 67.6483C168.773 69.5219 170.527 71.6979 172.886 73.6137L172.904 73.6278C179.319 78.1695 186.979 77.2204 194.389 76.2994C197.254 75.9444 200.214 75.5788 203.026 75.5471H203.325C206.401 75.5085 209.888 75.4698 210.879 78.289C213.178 84.6728 211.245 90.8175 209.199 97.3207C208.063 100.931 206.889 104.664 206.524 108.411C205.965 114.44 206.714 118.943 208.879 122.585C210.447 125.137 212.092 127.331 213.54 129.264L220.676 138.787L221.2 138.397ZM227.837 138.555L214.873 121.253C208.52 113.196 211.013 103.434 213.424 93.9953C214.194 90.9897 214.918 88.1459 215.375 85.3372C215.453 84.7993 215.544 84.2615 215.639 83.6885C216.166 80.5423 216.764 76.9778 214.764 74.0602C213.217 71.5889 210.246 71.5643 207.628 71.5432C207.445 71.5432 207.265 71.5432 207.079 71.5397C204.235 71.5467 201.209 71.8807 198.284 72.2041C190.185 73.1005 181.811 74.025 175.537 68.4463C174.429 67.237 173.473 65.9996 172.682 64.9451L162.467 51.3128L161.943 51.703L172.158 65.3353C172.96 66.4039 173.934 67.6659 175.066 68.8997L175.09 68.9244C181.586 74.707 190.111 73.7649 198.358 72.8509C201.268 72.5275 204.274 72.1971 207.079 72.19C207.258 72.19 207.441 72.1936 207.624 72.1936C210.197 72.2146 212.862 72.2357 214.215 74.4082L214.222 74.4187C216.078 77.122 215.526 80.4017 214.996 83.576C214.904 84.1244 214.809 84.6938 214.732 85.2317C214.278 88.0052 213.558 90.835 212.791 93.8265C210.341 103.42 207.81 113.34 214.356 121.643L227.317 138.938L227.84 138.548L227.837 138.555ZM234.02 138.108L217.934 116.641C212.475 108.183 214.904 98.6143 217.249 89.3621C218.374 84.9294 219.537 80.342 219.822 75.9373C219.994 73.6243 219.281 71.6135 217.755 70.1231C216.011 68.4182 213.386 67.5991 210.559 67.8733C208.556 68.0385 206.513 68.3021 204.348 68.5798C194.579 69.8383 184.476 71.139 178.032 63.3316C177.129 62.1891 176.289 61.0677 175.473 59.978L164.632 45.5091L164.108 45.8993L174.95 60.3682C175.765 61.4579 176.612 62.5863 177.523 63.7393C180.514 67.3636 184.557 69.4095 189.886 69.9895C194.551 70.4957 199.574 69.8524 204.429 69.2267C206.584 68.949 208.619 68.6853 210.616 68.5236C213.256 68.267 215.692 69.0193 217.298 70.5906C218.68 71.944 219.33 73.7754 219.172 75.8951C218.89 80.2435 217.737 84.7993 216.62 89.2039C214.236 98.5968 211.772 108.309 217.393 117.006L217.4 117.017L233.5 138.502L234.02 138.112V138.108ZM239.827 137.156L222.972 114.662C215.92 105.873 218.574 94.9795 221.137 84.4408C221.994 80.9114 222.806 77.5789 223.274 74.3097C223.692 71.3956 222.88 68.7626 220.993 66.896C218.947 64.8748 215.797 63.9678 212.57 64.4705L211.73 64.6006C201.219 66.2563 188.135 68.3127 181.182 58.8953L167.174 40.2011L166.654 40.5913L180.658 59.282C184.929 65.0681 191.359 66.6746 198.115 66.6746C202.727 66.6746 207.497 65.9258 211.832 65.2439L212.668 65.1103C215.692 64.6392 218.63 65.4794 220.532 67.3565C222.269 69.072 223.014 71.5081 222.627 74.2113C222.163 77.4489 221.355 80.7673 220.5 84.2826C217.899 94.9725 215.206 106.028 222.451 115.055L239.3 137.542L239.82 137.152L239.827 137.156ZM245.304 135.76L227.851 112.468C226.912 111.217 225.851 109.796 224.888 108.243C220.803 100.284 222.631 91.3694 224.395 82.7499C224.8 80.7778 225.218 78.739 225.541 76.7845C225.622 76.3064 225.714 75.8143 225.809 75.294C226.635 70.7874 227.661 65.1771 223.517 62.2453C221.805 60.9904 219.797 61.0783 217.85 61.1626C215.829 61.2646 213.783 61.4614 211.614 61.6653C201.377 62.639 190.796 63.6444 184.564 54.7016L170.056 35.3395L169.533 35.7296L184.033 55.0812C186.919 59.2257 190.993 61.6618 196.488 62.5336C201.304 63.2964 206.576 62.7972 211.674 62.3121C213.836 62.1082 215.878 61.9149 217.882 61.8094C219.797 61.7286 221.608 61.6477 223.137 62.7691C226.947 65.4653 225.96 70.8472 225.169 75.171C225.074 75.6948 224.982 76.1869 224.902 76.672C224.578 78.6124 224.181 80.5564 223.759 82.6128C221.97 91.3483 220.117 100.379 224.315 108.545L224.329 108.566C225.306 110.148 226.382 111.582 227.331 112.851L244.784 136.143L245.308 135.753L245.304 135.76ZM250.482 133.967L230.459 107.244C223.988 98.298 226.248 87.5869 228.434 77.2309C229.102 74.0672 229.732 71.0827 230.129 68.1299C230.572 64.4318 229.696 61.0396 227.784 59.057C226.357 57.5806 224.452 56.9303 222.121 57.1306C220.135 57.3029 218.068 57.57 216.071 57.8266C206.991 58.9972 197.602 60.2065 190.55 53.7313C189.52 52.5889 188.592 51.3726 187.805 50.3215L173.234 30.8786L172.714 31.2688L187.285 50.7117C188.083 51.7769 189.025 53.0107 190.076 54.1778L190.097 54.1989C197.374 60.892 206.921 59.6616 216.152 58.4699C218.145 58.2133 220.205 57.9462 222.174 57.7774C224.3 57.5982 226.03 58.1782 227.313 59.5069C229.064 61.3208 229.897 64.5935 229.482 68.0455C229.092 70.9702 228.463 73.9442 227.798 77.0938C225.584 87.5904 223.292 98.4456 229.935 107.631L249.962 134.358L250.486 133.967H250.482ZM255.383 131.806L234.98 104.576C234.126 103.437 233.145 102.049 232.347 100.39C228.695 91.735 230.399 82.4898 232.052 73.5504C232.783 69.5817 233.542 65.4829 233.82 61.4825C233.957 59.0781 233.162 57.0006 231.514 55.4784C229.602 53.7103 226.687 52.8982 223.724 53.306C222.244 53.4853 220.761 53.7032 219.189 53.9352C210.225 55.2605 200.956 56.6315 194.333 50.0544C193.324 48.9682 192.463 47.8433 191.524 46.5883L176.679 26.7798L176.159 27.17L191.004 46.9785C191.921 48.2018 192.828 49.3935 193.862 50.5008L193.872 50.5114C196.945 53.5626 200.864 55.2253 205.859 55.5944C210.232 55.9178 214.834 55.2359 219.284 54.5785C220.852 54.3465 222.332 54.1286 223.808 53.9493C226.585 53.5696 229.303 54.3184 231.071 55.9565C232.568 57.3415 233.293 59.2398 233.166 61.4368C232.888 65.395 232.136 69.4798 231.405 73.4274C229.735 82.4652 228.009 91.8123 231.742 100.646L231.749 100.66C232.579 102.383 233.63 103.863 234.453 104.963L254.855 132.192L255.379 131.802L255.383 131.806ZM260.023 129.299L239.377 101.746C238.425 100.477 237.423 99.11 236.565 97.6019C233.12 91.6506 233.848 84.6517 234.551 77.8848C234.635 77.0903 234.72 76.2642 234.797 75.4663C235.012 73.2095 235.521 70.8929 236.013 68.6502C237.17 63.3913 238.365 57.9567 235.982 52.7014C234.692 49.745 231.138 49.506 228.579 49.5798C225.872 49.6572 223.014 50.0509 220.247 50.434C212.335 51.5273 204.151 52.6592 198.221 46.6094C197.201 45.4599 196.291 44.2471 195.408 43.0695L180.388 23.0255L179.864 23.4157L194.885 43.4597C195.774 44.6479 196.695 45.8747 197.736 47.0488L197.746 47.0594C201.497 50.891 206.056 51.9597 210.876 51.9597C213.973 51.9597 217.175 51.5167 220.335 51.0808C223.084 50.7012 225.925 50.3075 228.596 50.2337C230.965 50.1633 234.249 50.3672 235.384 52.965C237.68 58.027 236.509 63.3562 235.377 68.5096C234.881 70.7699 234.368 73.1075 234.147 75.403C234.073 76.1974 233.985 77.02 233.904 77.8145C233.191 84.6868 232.449 91.7912 235.999 97.9253C236.875 99.465 237.891 100.85 238.854 102.137L259.499 129.689L260.019 129.299H260.023ZM264.417 126.462L243.659 98.7585C242.682 97.4543 241.673 96.1079 240.724 94.6807C235.504 85.5164 237.455 74.9847 239.342 64.7974C239.841 62.1012 240.358 59.3171 240.717 56.649C241.121 53.3658 240.2 50.3075 238.196 48.2616C236.421 46.4512 233.908 45.6111 231.113 45.8993C229.211 46.1102 227.208 46.4442 225.274 46.7641C217.027 48.128 208.503 49.5341 202.298 43.291C201.275 42.1731 200.372 40.985 199.458 39.7652L184.356 19.6121L183.836 20.0023L198.938 40.1554C199.862 41.3892 200.78 42.595 201.824 43.7339L201.834 43.7445C205.55 47.4847 210.011 48.592 214.739 48.592C218.212 48.592 221.822 47.9944 225.387 47.4074C227.404 47.0734 229.31 46.7606 231.19 46.5496C233.816 46.279 236.08 47.0277 237.736 48.7186C239.602 50.6239 240.457 53.4853 240.077 56.5682C239.722 59.2187 239.209 61.9958 238.71 64.6814C236.801 74.9847 234.825 85.6395 240.172 95.0147L240.182 95.0358C241.142 96.4806 242.162 97.8375 243.146 99.1522L263.904 126.856L264.424 126.466L264.417 126.462ZM268.568 123.302L247.807 95.5947C246.826 94.287 245.828 92.9512 244.812 91.5908C239.16 82.9116 240.798 72.879 242.38 63.1734C243.072 58.9164 243.793 54.5153 243.891 50.2723C243.919 47.9839 243.097 45.931 241.578 44.4932C240.059 43.0555 237.961 42.3454 235.665 42.4965C233.525 42.6407 231.247 42.9254 229.043 43.2031C219.34 44.4194 209.308 45.6779 203.655 36.6788L203.648 36.6682L188.547 16.5152L188.026 16.9054L203.11 37.0373C205.743 41.2205 209.536 43.632 214.704 44.4089C219.242 45.0908 224.265 44.4581 229.123 43.8499C231.419 43.5617 233.588 43.291 235.708 43.1469C237.817 43.0098 239.743 43.6566 241.128 44.9678C242.513 46.279 243.262 48.1596 243.237 50.2618C243.139 54.4555 242.425 58.832 241.736 63.0679C240.133 72.8966 238.474 83.0593 244.271 91.9529L244.281 91.9705C245.297 93.3344 246.303 94.6737 247.283 95.9849L268.045 123.692L268.565 123.302H268.568ZM272.477 119.818L251.871 92.3185C250.897 91.0178 249.892 89.675 248.897 88.297C242.605 79.2733 244.278 68.4463 245.895 57.9778C246.394 54.7613 246.907 51.4359 247.16 48.2686C247.417 45.3755 246.615 42.6266 245.016 40.9182C243.775 39.5929 242.081 38.9145 240.126 38.9602C237.49 38.9778 234.674 39.266 231.95 39.5402C223.067 40.4401 213.878 41.3717 207.986 33.7435C206.207 31.3848 204.513 29.1245 203.019 27.1313L192.986 13.7451L192.466 14.1353L202.499 27.5215C203.993 29.5146 205.687 31.7785 207.469 34.1372C211.6 39.484 217.21 40.7881 223.211 40.7881C226.097 40.7881 229.074 40.4858 232.017 40.187C234.727 39.9128 237.528 39.6281 240.137 39.6105C241.933 39.5683 243.413 40.1589 244.541 41.3611C246.014 42.936 246.753 45.4951 246.513 48.2089C246.26 51.355 245.747 54.6699 245.252 57.8759C243.613 68.4709 241.919 79.428 248.366 88.6731C249.364 90.0617 250.373 91.408 251.35 92.7087L271.957 120.209L272.481 119.818H272.477ZM276.137 116.001L255.797 88.8595C254.838 87.5764 253.843 86.2511 252.852 84.8907C245.986 75.6631 247.835 64.2736 249.625 53.2533C250.018 50.8348 250.387 48.5534 250.672 46.2755C251.122 42.5739 250.226 39.1289 248.275 37.0549C246.767 35.4519 244.742 34.7102 242.249 34.8579C240.46 34.9914 238.604 35.1988 236.808 35.4027C228.104 36.3765 219.108 37.3818 212.517 30.9735C210.725 28.7097 209.058 26.4845 207.589 24.523L197.69 11.3091L197.166 11.6993L207.065 24.9132C208.542 26.8817 210.215 29.1174 212.018 31.3953L212.046 31.427C216.384 35.6558 221.675 36.7772 227.236 36.7772C230.407 36.7772 233.662 36.4116 236.878 36.0531C238.667 35.8527 240.516 35.6453 242.288 35.5117C244.573 35.3781 246.426 36.0495 247.797 37.5049C249.614 39.4383 250.447 42.6899 250.022 46.2016C249.741 48.4655 249.371 50.7434 248.978 53.1548C248.088 58.6281 247.171 64.2877 247.347 69.7575C247.547 75.9725 249.175 81.052 252.324 85.2809C253.319 86.6448 254.314 87.9701 255.274 89.2567L275.613 116.398L276.137 116.008V116.001ZM279.532 111.832L258.522 83.7904C257.45 82.3597 256.342 80.8833 255.354 79.2417C249.906 69.9157 251.73 59.0078 253.491 48.4549C253.727 47.0383 253.973 45.5759 254.191 44.1593C254.609 41.2275 254.901 35.8562 252.134 32.7979C250.756 31.2723 248.798 30.5552 246.313 30.6606C244.098 30.7555 241.831 30.9981 239.427 31.2547C230.101 32.253 220.458 33.2865 214.651 25.2436L202.636 9.21045L202.116 9.60064L214.127 25.6303C216.827 29.3705 220.585 31.5465 225.612 32.2777C230.02 32.9174 234.836 32.4042 239.493 31.905C241.884 31.6484 244.144 31.4059 246.338 31.3145C248.616 31.216 250.401 31.8628 251.646 33.2373C254.331 36.2042 253.864 41.8005 253.541 44.0644C253.326 45.4705 253.08 46.9328 252.844 48.346C251.973 53.5696 251.069 58.9691 251.073 64.2701C251.076 70.2988 252.293 75.301 254.788 79.5756C255.797 81.2454 256.915 82.7394 257.994 84.1806L279.005 112.222L279.529 111.832H279.532ZM282.65 107.29L262.216 80.0185C261.172 78.6265 260.093 77.1852 259.042 75.6912C253.917 66.7238 255.467 56.6244 256.964 46.859C257.625 42.5458 258.311 38.0814 258.42 33.7611C258.497 31.7152 257.805 29.9084 256.423 28.5409C254.873 27.0118 252.588 26.2033 250.148 26.3228C247.804 26.4634 245.346 26.7833 242.97 27.0926C234.562 28.1929 225.865 29.3283 219.639 22.9481C217.797 20.7335 216.191 18.5927 214.774 16.7015L207.874 7.49147L207.353 7.88167L214.254 17.0917C215.678 18.9899 217.288 21.1413 219.147 23.37L219.165 23.3875C225.619 30.0103 234.484 28.8538 243.054 27.7324C245.42 27.4231 247.867 27.1032 250.183 26.9661C252.437 26.8536 254.542 27.5953 255.963 28.9979C257.214 30.2318 257.836 31.8664 257.766 33.733C257.657 38.0181 256.978 42.4579 256.318 46.7535C254.802 56.635 253.235 66.8539 258.479 76.0217L258.497 76.0463C259.559 77.5543 260.645 78.9991 261.692 80.4017L282.127 107.67L282.65 107.279V107.29ZM285.463 102.344L265.77 76.0639C264.765 74.721 263.721 73.329 262.712 71.8772C260.125 68.1194 258.947 63.423 259.007 57.0919C259.049 52.5608 259.794 48.1737 260.515 43.9273C261.344 39.041 262.202 33.9896 262.009 28.6429C261.808 25.0362 258.856 22.4946 254.978 22.6071C252.535 22.702 249.934 22.9692 247.413 23.2329C236.832 24.3296 225.889 25.4615 220.082 15.0985L220.072 15.0809L213.41 6.19082L212.886 6.58102L219.523 15.436C222.223 20.2378 226.237 23.0712 231.799 24.0976C236.692 25.001 242.176 24.4316 247.48 23.8832C250.103 23.6125 252.581 23.3559 254.999 23.261C258.504 23.1625 261.176 25.4405 261.355 28.6745C261.548 33.9474 260.694 38.9672 259.872 43.8218C259.147 48.0893 258.395 52.5045 258.356 57.0884C258.293 63.56 259.506 68.3795 262.174 72.2533C263.19 73.7157 264.234 75.1112 265.25 76.4611L284.939 102.734L285.459 102.344H285.463ZM287.937 96.9446L269.18 71.9123L269.173 71.9018C268.213 70.6222 267.222 69.297 266.231 67.9612C262.476 62.5512 262.325 55.5874 262.536 50.8102C262.635 47.2351 263.327 43.6425 263.998 40.1694C265.06 34.6786 266.157 28.9979 264.909 23.2821C264.448 21.3452 263.116 20.0445 260.94 19.4082C259.415 18.9618 257.471 18.8423 255.003 19.0391C253.442 19.1551 251.807 19.3274 250.229 19.4961C241.075 20.4593 231.609 21.4541 225.626 13.7873C224.315 12.0473 223.176 10.5252 222.237 9.27372L219.288 5.33662L218.767 5.72681L221.717 9.66391C222.655 10.9153 223.794 12.4375 225.109 14.1846C227.893 17.7526 231.661 19.823 236.632 20.5191C240.991 21.1272 245.723 20.628 250.296 20.1465C251.871 19.9812 253.498 19.809 255.052 19.693C260.553 19.2536 263.57 20.4769 264.273 23.4297C265.492 29.0084 264.406 34.6223 263.359 40.0499C262.684 43.5511 261.984 47.1683 261.886 50.7891C261.668 55.6542 261.826 62.7656 265.7 68.3443C266.698 69.6907 267.689 71.0159 268.649 72.2955L287.417 97.3383L287.937 96.9481V96.9446ZM290.022 91.0213L271.229 65.9399L271.219 65.9293C263.672 56.8107 265.717 45.2103 267.693 33.9931C268.22 31.0122 268.716 28.1929 269.039 25.4158C269.401 22.3822 268.572 19.4223 266.814 17.4959C265.338 15.8754 263.309 15.0528 260.944 15.1161C258.729 15.2005 256.391 15.4254 254.135 15.6434C244.886 16.5292 235.321 17.4502 229.134 9.75531C226.874 6.75327 225.559 4.99563 225.559 4.99563L225.039 5.38583C225.039 5.38583 226.353 7.14346 228.621 10.1525C235.036 18.1287 244.777 17.1936 254.198 16.2902C256.448 16.0758 258.771 15.8508 260.965 15.7664C263.13 15.7102 264.99 16.4589 266.333 17.9353C267.96 19.7246 268.73 22.4911 268.389 25.3385C268.066 28.1015 267.573 30.9067 267.05 33.8806C266.065 39.4629 265.05 45.2349 265.239 50.768C265.454 57.0533 267.247 62.1469 270.709 66.3371L289.498 91.4115L290.022 91.0213ZM291.632 84.4689L274.333 61.3841C267.612 52.5397 269.391 41.7829 271.11 31.3813C271.757 27.4723 272.425 23.4297 272.614 19.5875C272.734 17.3624 272.013 15.2216 270.635 13.717C269.359 12.325 267.64 11.5586 265.661 11.4954C262.796 11.3864 259.689 11.6043 256.687 11.8188C247.575 12.4656 238.154 13.1335 232.298 5.29092L231.774 5.68111C237.845 13.8084 247.445 13.1265 256.732 12.4691C259.857 12.2476 262.807 12.0367 265.637 12.1457C267.436 12.2019 268.997 12.898 270.154 14.1564C271.416 15.5309 272.077 17.4995 271.964 19.5524C271.774 23.3594 271.11 27.3844 270.467 31.2758C268.723 41.8146 266.92 52.7084 273.813 61.7778L291.112 84.8626L291.636 84.4724L291.632 84.4689ZM292.634 77.1044L278.896 58.7722C277.884 57.4224 276.896 56.0901 275.961 54.6875C271.24 45.3791 273.233 35.0055 275.163 24.9764C275.62 22.6001 276.091 20.1465 276.453 17.7807C276.892 14.7154 276.063 11.9488 274.119 9.99786C272.017 7.8887 268.867 6.95013 265.475 7.42469L265.387 7.43523C256.799 8.5777 247.923 9.75883 240.165 5.61784L239.859 6.19434C247.804 10.4338 256.789 9.23857 265.475 8.08204L265.563 8.0715C268.751 7.62857 271.7 8.49684 273.655 10.4584C275.451 12.2617 276.218 14.8314 275.806 17.6858C275.448 20.0375 274.977 22.4876 274.52 24.8534C272.569 34.9985 270.551 45.488 275.388 55.0004L275.409 55.032C276.358 56.4557 277.353 57.7985 278.376 59.1624L292.114 77.4946L292.637 77.1044H292.634ZM292.774 68.5904L283.072 55.6437C282.127 54.3817 281.149 53.0775 280.211 51.6187C276.007 45.5794 276.443 37.9724 277.318 30.0595C277.588 27.9293 278.024 25.7603 278.45 23.6582C279.448 18.7017 280.485 13.5729 279.445 8.4406C278.879 5.50183 276.087 3.94808 271.363 3.94808C271.328 3.94808 271.293 3.94808 271.261 3.94808C268.934 3.98675 266.603 4.16252 264.35 4.33125C259.963 4.65817 255.815 4.97102 251.558 4.39452L251.47 5.04133C255.794 5.62487 260.167 5.29794 264.396 4.98157C266.642 4.81284 268.962 4.64059 271.268 4.60193C275.764 4.58083 278.299 5.91312 278.808 8.56715C279.821 13.5764 278.801 18.6384 277.813 23.5317C277.388 25.6408 276.949 27.8273 276.675 29.9857C275.785 38.0322 275.346 45.7693 279.673 51.9843C280.619 53.4501 281.603 54.7648 282.556 56.0374L292.258 68.9841L292.781 68.5939L292.774 68.5904ZM291.446 58.1149L286.148 51.0457C285.354 49.9876 284.51 48.8451 283.684 47.555C278.713 39.15 280.401 29.6025 282.035 20.3714C282.643 16.93 283.276 13.369 283.536 9.94514C283.67 7.66724 283.923 3.42431 280.917 1.77565C277.244 -0.23509 272.966 -0.0522953 269.271 0.397659L269.349 1.04447C272.945 0.608574 277.093 0.425783 280.605 2.34864C283.044 3.68444 283.062 6.95012 282.886 9.90295C282.626 13.2882 282 16.8351 281.392 20.2625C279.736 29.6096 278.028 39.2766 283.129 47.8995C283.972 49.2177 284.823 50.3707 285.624 51.4429L290.922 58.5121L291.442 58.1219L291.446 58.1149Z" fill="url(#paint1_linear_2928_117182)"/>
<path d="M132.329 47.6013C128.93 38.9642 130.533 29.8737 132.083 21.0821C132.558 18.3929 133.046 15.6123 133.377 12.9161L134.024 12.9934C133.693 15.7037 133.201 18.4948 132.726 21.191C131.19 29.8948 129.605 38.8939 132.937 47.3587L132.329 47.5978V47.6013Z" fill="url(#paint2_linear_2928_117182)"/>
<defs>
<linearGradient id="paint0_linear_2928_117182" x1="83.5386" y1="70.1043" x2="217.569" y2="70.1043" gradientUnits="userSpaceOnUse">
<stop stop-color="#EA00FF"/>
<stop offset="1" stop-color="#7D01FF"/>
</linearGradient>
<linearGradient id="paint1_linear_2928_117182" x1="158.751" y1="69.522" x2="292.781" y2="69.522" gradientUnits="userSpaceOnUse">
<stop stop-color="#EA00FF"/>
<stop offset="1" stop-color="#7D01FF"/>
</linearGradient>
<linearGradient id="paint2_linear_2928_117182" x1="130.318" y1="30.2604" x2="134.024" y2="30.2604" gradientUnits="userSpaceOnUse">
<stop stop-color="#BD30FF"/>
<stop offset="1" stop-color="#7D01FF"/>
</linearGradient>
</defs>
</svg>
