<svg width="150" height="135" viewBox="0 0 150 135" fill="none" xmlns="http://www.w3.org/2000/svg">
<mask id="mask0_3103_122797" style="mask-type:alpha" maskUnits="userSpaceOnUse" x="-1" y="0" width="152" height="136">
<path d="M37.3033 129.77L34.5 122C34.736 119.927 36.7722 109.879 37.3033 107.836C38.5583 102.995 39.7464 98.4211 37.2876 94.034C36.064 91.737 34.0537 90.3968 30.9576 89.8065C28.1801 89.2772 24.8676 89.4333 21.6612 89.5859C18.7185 89.725 15.6775 89.8709 13.0534 89.4808L13.1754 88.8598C15.7168 89.2365 18.7185 89.094 21.618 88.9582C28.2194 88.6461 35.0451 88.3204 37.9446 93.7694C40.5096 98.3498 39.2389 103.242 38.0114 107.975C37.4843 110.001 35.7321 119.964 35.5 122L37.3033 129.77ZM42.8504 127.905C39.1523 118.042 42.1619 107.921 45.0692 98.1327C45.3407 97.2234 45.6082 96.3141 45.8757 95.4048C46.6783 92.5208 46.7137 88.5816 44.4162 86.1727C43.0432 84.7341 41.0564 84.0487 38.5032 84.1403C36.127 84.2319 33.6957 84.3982 31.347 84.5576C21.1459 85.2464 10.5946 85.9623 1.78609 80.8695L1.38087 81.392C10.4018 86.6035 21.079 85.8809 31.4061 85.1819C33.7508 85.0225 36.1742 84.8596 38.5386 84.768C40.8479 84.6866 42.638 85.2939 43.8536 86.573C45.982 88.8056 45.9269 92.5242 45.1676 95.2555C44.904 96.158 44.6365 97.0673 44.365 97.9766C41.4302 107.85 38.397 118.063 42.158 128.099L42.8504 127.905ZM52.8549 131.672C52.8549 131.672 51.3796 129.975 49.0034 127.223C42.9684 118.317 46.0803 108.165 49.0938 98.3464C49.6604 96.5007 50.1954 94.7567 50.6754 93.0094C50.7422 92.782 50.8091 92.5547 50.876 92.324C51.7926 89.2263 52.7408 86.0268 50.813 82.9019C48.9365 80.0009 44.8725 79.8992 41.977 80.079C39.0776 80.1604 36.0168 80.4454 33.0545 80.7203C22.7431 81.6771 12.0817 82.6644 4.58325 75.8277C2.05754 73.205 0.597986 71.5255 0.582249 71.5119L0 71.8885C0 71.8885 1.4871 73.5951 4.03247 76.2382L4.04821 76.2518C11.7945 83.326 22.6448 82.3183 33.1371 81.3479C36.0877 81.0731 39.1366 80.7915 42.0124 80.7101H42.0242C44.723 80.5404 48.5037 80.6185 50.1757 83.2039C51.9657 86.1048 51.053 89.1889 50.1757 92.1679C50.1088 92.3986 50.042 92.626 49.9711 92.8601C49.4951 94.6006 48.9601 96.3412 48.3936 98.1836C46.8986 103.056 45.3525 108.094 44.9473 113.065C44.4831 118.721 45.6122 123.461 48.3896 127.556L48.4132 127.583C50.7973 130.345 52.2608 132.031 52.2765 132.048L52.8627 131.672H52.8549ZM61.8168 133.585L57.3083 128.397C55.9313 126.813 54.22 124.842 52.4182 122.589C48.6965 116.98 49.8571 109.998 50.7894 104.382C51.234 101.692 52.3592 98.9334 53.441 96.2666C55.6835 90.7497 58.0007 85.0496 54.7472 79.3733C52.5755 75.5223 47.473 76.1161 42.9684 76.642C42.2878 76.7234 41.6466 76.798 41.0289 76.8557C39.408 76.9779 37.7282 77.1407 36.1073 77.3002C27.1926 78.1722 17.975 79.0747 10.87 74.0905C8.59998 72.2719 6.89257 70.3753 5.47236 68.7399L0.963858 63.5521L0.377675 63.9287L4.88617 69.1165C6.32606 70.7756 8.061 72.7028 10.3782 74.5587L10.3979 74.5723C17.7429 79.7295 27.1179 78.8134 36.186 77.9279C37.8029 77.7684 39.4789 77.6056 41.0997 77.4834C41.7331 77.4223 42.3822 77.3477 43.0668 77.2663C47.3235 76.7675 52.1506 76.2043 54.0902 79.6515C57.2099 85.0903 54.9439 90.6649 52.7526 96.0596C51.6549 98.757 50.5219 101.546 50.0656 104.294C49.1174 110.004 47.9372 117.116 51.7926 122.911L51.8084 122.935C53.622 125.205 55.3412 127.186 56.726 128.774L61.2345 133.962L61.8168 133.585ZM69.8896 134.477L61.9033 125.286C60.2903 123.43 58.461 121.327 56.726 118.89C54.3892 115.501 53.5827 111.277 54.1925 105.597C54.5898 102.045 55.892 98.4753 57.1548 95.0214C59.3816 88.9209 61.683 82.6135 59.0275 76.2518C57.7489 73.1066 53.386 73.1473 49.8767 73.1812H49.5423C46.3518 73.2151 43.0196 73.5714 39.7936 73.9175C31.646 74.7894 23.2192 75.6886 16.2715 71.4542C13.6986 69.6492 11.7748 67.5931 10.2287 65.8152L2.24245 56.6238L1.65626 57.0004L9.64252 66.1918C11.2162 68.0002 13.1793 70.1004 15.8191 71.9496L15.8388 71.9632C23.0185 76.3468 31.591 75.4307 39.8841 74.5418C43.0904 74.1991 46.4029 73.8462 49.5502 73.8157H49.8846C53.3269 73.7784 57.2296 73.741 58.339 76.4621C60.9119 82.6237 58.7482 88.5545 56.4585 94.8314C55.1878 98.3159 53.8738 101.919 53.4646 105.536C52.8391 111.355 53.6771 115.701 56.1005 119.216C57.8551 121.679 59.6963 123.797 61.3171 125.663L69.3034 134.854L69.8896 134.477ZM77.3172 134.63L62.8082 117.93C55.6992 110.154 58.4885 100.732 61.1873 91.6217C62.0489 88.7207 62.8593 85.9759 63.3708 83.2649C63.4573 82.7458 63.5596 82.2267 63.6658 81.6737C64.2559 78.637 64.9247 75.1966 62.6862 72.3805C60.9552 69.9953 57.6309 69.9715 54.7 69.9512C54.4954 69.9512 54.2947 69.9512 54.0862 69.9478C50.9035 69.9546 47.5163 70.2769 44.2431 70.589C35.1789 71.4542 25.8078 72.3465 18.7854 66.962C17.5462 65.7948 16.4761 64.6005 15.5909 63.5827L4.15836 50.425L3.57218 50.8016L15.0047 63.9593C15.9017 64.9907 16.9915 66.2088 18.2582 67.3997L18.2858 67.4234C25.556 73.0048 35.0963 72.0955 44.3257 71.2133C47.5831 70.9012 50.9468 70.5822 54.0862 70.5755C54.2869 70.5755 54.4914 70.5788 54.696 70.5788C57.5758 70.5992 60.5579 70.6196 62.0725 72.7164L62.0804 72.7266C64.1576 75.3357 63.5399 78.5013 62.9459 81.5651C62.8436 82.0944 62.7374 82.644 62.6508 83.1631C62.1433 85.8401 61.3368 88.5714 60.4792 91.4588C57.7371 100.718 54.9045 110.293 62.2299 118.307L76.7349 135L77.3211 134.623L77.3172 134.63ZM84.2373 134.199L66.2348 113.479C60.1251 105.315 62.8436 96.0799 65.4676 87.1498C66.7265 82.8713 68.0287 78.4436 68.3474 74.1923C68.5402 71.9598 67.7415 70.019 66.0341 68.5804C64.0828 66.9349 61.144 66.1443 57.981 66.409C55.7386 66.5684 53.4528 66.8229 51.0294 67.0909C40.0965 68.3056 28.7899 69.561 21.5786 62.0253C20.5676 60.9226 19.6273 59.8403 18.7146 58.7885L6.58178 44.8233L5.99559 45.1999L18.1284 59.1651C19.0411 60.2169 19.9892 61.306 21.0082 62.4189C24.3561 65.917 28.8803 67.8917 34.8445 68.4515C40.065 68.9401 45.6869 68.3192 51.1199 67.7152C53.5315 67.4472 55.8094 67.1927 58.044 67.0366C60.9985 66.789 63.7248 67.515 65.5227 69.0317C67.0688 70.3379 67.7966 72.1057 67.6196 74.1516C67.3049 78.3486 66.0145 82.7458 64.7634 86.9971C62.0961 96.063 59.3383 105.438 65.6289 113.832L65.6368 113.842L83.6551 134.579L84.2373 134.203V134.199ZM90.7365 133.28L71.8724 111.569C63.9805 103.086 66.9508 92.5717 69.8188 82.3997C70.7787 78.9932 71.6875 75.7768 72.2107 72.6214C72.6789 69.8087 71.7701 67.2674 69.6575 65.4657C67.3678 63.5148 63.8428 62.6394 60.2313 63.1246L59.2911 63.2502C47.5281 64.8482 32.8853 66.8331 25.1036 57.7435L9.42614 39.7L8.84389 40.0766L24.5174 58.1167C29.2974 63.7014 36.4929 65.252 44.0542 65.252C49.2158 65.252 54.5544 64.5293 59.4052 63.8711L60.3415 63.7421C63.7248 63.2875 67.0137 64.0984 69.1421 65.9102C71.0855 67.5659 71.9196 69.9172 71.4868 72.5264C70.9675 75.6512 70.0627 78.8542 69.1067 82.2471C66.1954 92.5649 63.1819 103.236 71.2901 111.949L90.1463 133.653L90.7286 133.276L90.7365 133.28ZM96.8658 131.933L77.3329 109.451C76.2825 108.244 75.0944 106.873 74.0165 105.373C69.445 97.6916 71.4908 89.0872 73.4657 80.7677C73.9181 78.8643 74.3863 76.8964 74.7482 75.01C74.8387 74.5485 74.941 74.0735 75.0472 73.5714C75.9717 69.2217 77.1205 63.8066 72.4822 60.9769C70.5662 59.7656 68.3199 59.8505 66.1404 59.9319C63.8783 60.0303 61.5886 60.2203 59.1612 60.4171C47.7051 61.3569 35.8634 62.3273 28.8882 53.6957L12.6521 35.0076L12.0659 35.3842L28.2942 54.0622C31.5241 58.0624 36.0837 60.4137 42.2327 61.2551C47.6225 61.9914 53.5237 61.5096 59.2281 61.0414C61.6476 60.8446 63.9333 60.658 66.1758 60.5562C68.3199 60.4782 70.3459 60.4001 72.0573 61.4825C76.3219 64.0848 75.2164 69.2794 74.3312 73.4526C74.225 73.9582 74.1227 74.4332 74.0322 74.9014C73.6703 76.7743 73.2257 78.6506 72.7536 80.6354C70.7512 89.0668 68.6779 97.7832 73.3752 105.665L73.3909 105.685C74.4846 107.212 75.6885 108.596 76.7507 109.821L96.2836 132.303L96.8697 131.926L96.8658 131.933ZM102.661 130.202L80.252 104.41C73.0093 95.7746 75.539 85.4364 77.986 75.4409C78.7335 72.3873 79.4377 69.5067 79.8822 66.6566C80.3779 63.0873 79.3983 59.8131 77.2582 57.8995C75.6609 56.4745 73.5286 55.8468 70.9203 56.0402C68.6975 56.2065 66.3843 56.4643 64.1497 56.712C53.9879 57.8419 43.4799 59.009 35.588 52.7593C34.4353 51.6566 33.3967 50.4826 32.5155 49.4682L16.2086 30.702L15.6263 31.0786L31.9332 49.8448C32.8263 50.8728 33.8806 52.0637 35.0569 53.1902L35.0805 53.2105C43.2241 59.6706 53.9092 58.4831 64.2402 57.3329C66.4708 57.0853 68.7762 56.8274 70.9793 56.6645C73.3595 56.4915 75.2951 57.0513 76.731 58.3338C78.6902 60.0846 79.6226 63.2434 79.1584 66.5752C78.7217 69.3981 78.0175 72.2685 77.2739 75.3086C74.7954 85.4398 72.2304 95.9171 79.6659 104.783L102.079 130.579L102.665 130.202H102.661ZM108.145 128.116L85.3113 101.834C84.3553 100.735 83.2577 99.3948 82.3647 97.7934C78.2771 89.44 80.1852 80.5167 82.0342 71.8885C82.8525 68.0579 83.7023 64.1018 84.0131 60.2406C84.1665 57.9199 83.2774 55.9147 81.4323 54.4456C79.2921 52.7389 76.0307 51.9552 72.7143 52.3487C71.058 52.5218 69.3978 52.7321 67.6393 52.9561C57.6073 54.2352 47.233 55.5584 39.8211 49.2103C38.692 48.1619 37.7282 47.0762 36.6778 45.8649L20.064 26.7459L19.4817 27.1225L36.0955 46.2415C37.1223 47.4222 38.1373 48.5724 39.294 49.6412L39.3058 49.6514C42.7442 52.5964 47.1307 54.2013 52.7211 54.5575C57.6151 54.8697 62.7649 54.2115 67.7455 53.577C69.5001 53.353 71.1564 53.1427 72.8087 52.9696C75.9166 52.6032 78.9577 53.3259 80.9366 54.907C82.6125 56.2438 83.4229 58.076 83.2813 60.1965C82.9705 64.017 82.1286 67.9595 81.3103 71.7698C79.4416 80.4929 77.51 89.5147 81.688 98.0411L81.6959 98.0546C82.6243 99.7171 83.8006 101.146 84.7212 102.208L107.555 128.489L108.141 128.112L108.145 128.116ZM113.338 125.697L90.2329 99.103C89.1668 97.8782 88.0455 96.5583 87.0856 95.1028C83.2302 89.3586 84.0445 82.6033 84.8314 76.072C84.9258 75.3052 85.0202 74.5078 85.1067 73.7376C85.3467 71.5594 85.9172 69.3235 86.4679 67.1588C87.7623 62.083 89.0999 56.8376 86.4325 51.7652C84.9887 48.9117 81.0113 48.681 78.1473 48.7523C75.118 48.8269 71.9196 49.2069 68.8234 49.5767C59.9677 50.6319 50.8091 51.7244 44.1723 45.8853C43.0314 44.7758 42.0124 43.6052 41.025 42.4686L24.2145 23.1222L23.6283 23.4988L40.4388 42.8452C41.4341 43.992 42.4649 45.1761 43.6294 46.3094L43.6412 46.3195C47.8389 50.0178 52.9414 51.0493 58.3351 51.0493C61.801 51.0493 65.385 50.6217 68.9218 50.201C71.9983 49.8346 75.177 49.4546 78.167 49.3833C80.8186 49.3155 84.493 49.5123 85.7637 52.0196C88.3327 56.9054 87.0227 62.0491 85.7559 67.0231C85.2012 69.2047 84.6268 71.461 84.3789 73.6766C84.2963 74.4434 84.198 75.2373 84.1075 76.0041C83.3089 82.6372 82.4788 89.4943 86.4522 95.4149C87.4318 96.901 88.5688 98.2378 89.6467 99.4797L112.752 126.073L113.334 125.697H113.338ZM118.256 122.959L95.0246 96.2191C93.931 94.9603 92.8019 93.6608 91.7397 92.2833C85.8975 83.438 88.0809 73.2728 90.1936 63.4402C90.7522 60.8378 91.3305 58.1506 91.7318 55.5754C92.1842 52.4064 91.1535 49.4546 88.911 47.4799C86.9243 45.7326 84.1114 44.9217 80.9838 45.1999C78.8554 45.4035 76.613 45.7258 74.4492 46.0345C65.2198 47.351 55.6796 48.7082 48.7358 42.6824C47.591 41.6034 46.5799 40.4566 45.5571 39.2793L28.6561 19.8277L28.0739 20.2043L44.9748 39.6559C46.0095 40.8468 47.0363 42.0106 48.2047 43.1099L48.2165 43.12C52.3749 46.7301 57.3673 47.7989 62.6587 47.7989C66.5456 47.7989 70.5859 47.2221 74.5751 46.6554C76.8333 46.3331 78.9656 46.0311 81.0703 45.8276C84.0091 45.5663 86.5427 46.289 88.3957 47.921C90.4847 49.76 91.4407 52.5218 91.0158 55.4974C90.6184 58.0556 90.0441 60.736 89.4854 63.3282C87.3492 73.2728 85.1382 83.5567 91.122 92.6056L91.1338 92.626C92.2078 94.0205 93.3487 95.3301 94.4503 96.5991L117.681 123.339L118.263 122.962L118.256 122.959ZM122.902 119.908L99.6669 93.1654C98.5693 91.9033 97.452 90.614 96.315 89.3009C89.989 80.9238 91.8223 71.2405 93.5926 61.8726C94.3677 57.7638 95.1741 53.5159 95.2843 49.4207C95.3158 47.2119 94.3952 45.2304 92.6957 43.8427C90.9961 42.455 88.6474 41.7697 86.0785 41.9156C83.6826 42.0547 81.1333 42.3295 78.6666 42.5975C67.8084 43.7715 56.5805 44.9861 50.2544 36.3003L50.2465 36.2901L33.3456 16.8386L32.7633 17.2152L49.6446 36.6464C52.5913 40.6839 56.8362 43.0115 62.6193 43.7613C67.6983 44.4195 73.3201 43.8088 78.7571 43.2218C81.3261 42.9436 83.7534 42.6824 86.1257 42.5432C88.4862 42.4109 90.6421 43.0352 92.1921 44.3008C93.7421 45.5663 94.5801 47.3815 94.5526 49.4105C94.4424 53.4582 93.6438 57.6824 92.8727 61.7709C91.0787 71.2574 89.2218 81.0663 95.7092 89.6504L95.721 89.6674C96.8579 90.9838 97.9831 92.2765 99.0807 93.5421L122.316 120.285L122.898 119.908H122.902ZM127.277 116.546L104.215 90.0032C103.125 88.7479 102 87.4518 100.886 86.1217C93.8444 77.4122 95.7171 66.962 97.5267 56.8579C98.0854 53.7534 98.6598 50.5437 98.943 47.4867C99.2302 44.6943 98.3332 42.0411 96.5432 40.3921C95.1545 39.113 93.2582 38.4582 91.0709 38.5023C88.1203 38.5192 84.969 38.7975 81.9201 39.0621C71.9786 39.9307 61.6948 40.8298 55.1012 33.4672C53.1106 31.1906 51.2143 29.0089 49.5423 27.0851L38.3144 14.165L37.7321 14.5416L48.9601 27.4618C50.6321 29.3855 52.5283 31.5706 54.5229 33.8472C59.1455 39.0078 65.4244 40.2666 72.1399 40.2666C75.3698 40.2666 78.702 39.9748 81.9949 39.6864C85.0281 39.4218 88.1636 39.1469 91.0827 39.13C93.093 39.0893 94.7493 39.6593 96.0121 40.8196C97.6605 42.3397 98.4867 44.8097 98.2192 47.429C97.9359 50.4657 97.3615 53.6652 96.8068 56.7595C94.9735 66.9858 93.0773 77.5614 100.292 86.4848C101.41 87.825 102.539 89.1245 103.632 90.3799L126.694 116.923L127.28 116.546H127.277ZM131.372 112.861L108.609 86.6646C107.535 85.4262 106.422 84.1471 105.312 82.834C97.629 73.9276 99.6984 62.9346 101.701 52.2978C102.141 49.9635 102.555 47.7615 102.873 45.5629C103.377 41.9902 102.374 38.6651 100.19 36.6633C98.5024 35.1162 96.2364 34.4003 93.4471 34.5428C91.4446 34.6717 89.3674 34.8719 87.3571 35.0687C77.6162 36.0085 67.5488 36.9789 60.1723 30.7936C58.1659 28.6086 56.3011 26.4609 54.6567 24.5676L43.5782 11.8137L42.992 12.1903L54.0705 24.9442C55.7228 26.8443 57.5955 29.0021 59.6137 31.2007L59.6451 31.2313C64.4998 35.313 70.4207 36.3953 76.6445 36.3953C80.193 36.3953 83.836 36.0424 87.4357 35.6963C89.4382 35.5029 91.5075 35.3028 93.4903 35.1738C96.0475 35.0449 98.1208 35.693 99.6551 37.0976C101.689 38.9637 102.621 42.1022 102.145 45.4917C101.831 47.6767 101.418 49.8753 100.977 52.2028C99.9816 57.4856 98.9548 62.9482 99.1515 68.2276C99.3758 74.2262 101.197 79.129 104.722 83.2106C105.836 84.5271 106.949 85.8062 108.023 87.048L130.786 113.245L131.372 112.868V112.861ZM135.172 108.837L111.658 81.7721C110.458 80.3911 109.219 78.9661 108.113 77.3816C102.016 68.3802 104.057 57.852 106.028 47.6665C106.292 46.2992 106.567 44.8877 106.811 43.5204C107.279 40.6907 107.606 35.5063 104.51 32.5545C102.968 31.082 100.776 30.3898 97.9949 30.4916C95.5164 30.5832 92.9789 30.8173 90.288 31.065C79.8508 32.0286 69.0595 33.0261 62.5603 25.2632L49.1135 9.7881L48.5313 10.1647L61.9741 25.6364C64.9955 29.2464 69.2011 31.3466 74.8269 32.0524C79.7603 32.6699 85.15 32.1745 90.3627 31.6927C93.0379 31.445 95.5676 31.2109 98.0224 31.1227C100.572 31.0277 102.57 31.652 103.963 32.9786C106.969 35.8422 106.445 41.2438 106.083 43.4288C105.843 44.786 105.568 46.1974 105.304 47.5613C104.329 52.6032 103.318 57.8147 103.322 62.9312C103.326 68.7501 104.687 73.5782 107.48 77.7039C108.609 79.3156 109.86 80.7576 111.068 82.1487L134.582 109.214L135.168 108.837H135.172ZM138.662 104.454L115.793 78.1315C114.624 76.7879 113.417 75.3968 112.24 73.9548C106.504 65.2995 108.239 55.5517 109.915 46.1261C110.655 41.9631 111.422 37.6541 111.544 33.4842C111.631 31.5095 110.856 29.7655 109.309 28.4457C107.574 26.9698 105.017 26.1894 102.287 26.3048C99.663 26.4405 96.913 26.7493 94.2536 27.0478C84.8432 28.1098 75.1102 29.2057 68.1428 23.0476C66.0814 20.9101 64.2835 18.8438 62.698 17.0184L54.9753 8.12897L54.3931 8.50558L62.1158 17.395C63.7091 19.2272 65.5109 21.3036 67.5921 23.4547L67.6117 23.4717C74.8348 29.8639 84.7566 28.7477 94.348 27.6653C96.9956 27.3668 99.7338 27.058 102.326 26.9257C104.848 26.8171 107.205 27.533 108.794 28.8868C110.195 30.0777 110.891 31.6554 110.812 33.457C110.69 37.593 109.931 41.8782 109.191 46.0244C107.496 55.5618 105.741 65.425 111.611 74.2737L111.631 74.2975C112.819 75.753 114.034 77.1475 115.207 78.5013L138.076 104.82L138.662 104.443V104.454ZM141.809 99.6798L119.77 74.3144C118.645 73.0183 117.477 71.6748 116.348 70.2735C113.452 66.6465 112.134 62.1135 112.201 56.0029C112.248 51.6294 113.082 47.3951 113.889 43.2965C114.817 38.5803 115.777 33.7047 115.561 28.5441C115.336 25.063 112.032 22.6099 107.692 22.7185C104.958 22.8101 102.047 23.0679 99.2263 23.3224C87.3846 24.381 75.1377 25.4735 68.6385 15.4712L68.6267 15.4543L61.1716 6.87359L60.5854 7.2502L68.013 15.7969C71.0344 20.4317 75.5272 23.1663 81.7509 24.1571C87.2272 25.029 93.3645 24.4794 99.301 23.9501C102.236 23.6888 105.009 23.4412 107.716 23.3496C111.638 23.2546 114.628 25.4532 114.829 28.5746C115.045 33.664 114.089 38.5091 113.169 43.1947C112.358 47.3137 111.516 51.5752 111.473 55.9995C111.402 62.2459 112.76 66.8975 115.746 70.6365C116.883 72.048 118.051 73.395 119.188 74.6978L141.223 100.056L141.805 99.6798H141.809ZM144.579 94.4683L123.586 70.3074L123.578 70.2972C122.504 69.0622 121.395 67.7831 120.286 66.4938C116.084 61.2721 115.915 54.5507 116.151 49.9398C116.261 46.4892 117.036 43.0216 117.787 39.6694C118.976 34.3697 120.203 28.8868 118.806 23.3699C118.291 21.5004 116.8 20.245 114.365 19.6309C112.657 19.2 110.482 19.0847 107.72 19.2747C105.973 19.3866 104.144 19.5529 102.378 19.7158C92.1331 20.6454 81.5385 21.6056 74.8426 14.2057C73.3752 12.5262 72.1005 11.057 71.0501 9.84917L67.7494 6.04912L67.1672 6.42573L70.4679 10.2258C71.5183 11.4337 72.793 12.9028 74.2643 14.5891C77.3801 18.0329 81.5975 20.0313 87.1603 20.7031C92.0387 21.2901 97.334 20.8083 102.452 20.3434C104.215 20.184 106.036 20.0177 107.775 19.9058C113.932 19.4816 117.307 20.6624 118.094 23.5124C119.459 28.897 118.244 34.3154 117.071 39.5541C116.316 42.9334 115.533 46.4247 115.423 49.9194C115.179 54.6152 115.356 61.4791 119.692 66.8636C120.809 68.1631 121.918 69.4422 122.992 70.6772L143.997 94.8483L144.579 94.4717V94.4683ZM146.912 88.7513L125.88 64.5429L125.868 64.5327C117.422 55.7315 119.711 44.5349 121.922 33.7081C122.512 30.8309 123.067 28.1098 123.429 25.4294C123.834 22.5013 122.906 19.6445 120.939 17.7852C119.286 16.2211 117.016 15.4271 114.369 15.4882C111.89 15.5696 109.274 15.7868 106.748 15.9971C96.3977 16.8521 85.6929 17.7411 78.7689 10.314C76.2392 7.41646 74.7679 5.72 74.7679 5.72L74.1856 6.09662C74.1856 6.09662 75.657 7.79307 78.1945 10.6974C85.3743 18.3959 96.2757 17.4934 106.819 16.6214C109.337 16.4145 111.937 16.1973 114.392 16.1159C116.816 16.0616 118.897 16.7843 120.4 18.2093C122.221 19.9363 123.083 22.6065 122.701 25.3548C122.339 28.0216 121.788 30.7291 121.202 33.5995C120.101 38.9875 118.964 44.5586 119.176 49.8991C119.416 55.9656 121.423 60.8819 125.298 64.9263L146.326 89.1279L146.912 88.7513ZM148.714 82.4269L129.354 60.1456C121.832 51.6091 123.822 41.2268 125.746 31.1872C126.47 27.4143 127.218 23.5124 127.43 19.804C127.564 17.6563 126.757 15.59 125.215 14.1378C123.787 12.7942 121.863 12.0546 119.648 11.9935C116.442 11.8883 112.964 12.0987 109.604 12.3056C99.4073 12.9299 88.8638 13.5746 82.3096 6.00501L81.7234 6.38162C88.5176 14.226 99.2617 13.5678 109.656 12.9333C113.153 12.7196 116.454 12.516 119.621 12.6212C121.635 12.6755 123.382 13.3473 124.676 14.5619C126.088 15.8886 126.828 17.7886 126.702 19.77C126.49 23.4446 125.746 27.3294 125.026 31.0854C123.075 41.2573 121.057 51.7719 128.771 60.5257L148.131 82.8069L148.717 82.4303L148.714 82.4269ZM149.835 75.3187L134.46 57.6247C133.327 56.3218 132.222 55.0359 131.175 53.6822C125.892 44.6977 128.122 34.6853 130.282 25.0053C130.794 22.7117 131.321 20.3434 131.726 18.06C132.218 15.1014 131.289 12.4312 129.114 10.5481C126.761 8.51237 123.236 7.60646 119.44 8.06451L119.341 8.07468C109.73 9.17738 99.7967 10.3174 91.1141 6.32055L90.7719 6.87699C99.663 10.9688 109.719 9.81524 119.44 8.69898L119.538 8.6888C123.106 8.26129 126.407 9.09934 128.594 10.9926C130.605 12.7331 131.462 15.2134 131.002 17.9684C130.601 20.2383 130.074 22.6031 129.562 24.8865C127.379 34.6785 125.121 44.8029 130.534 53.9841L130.558 54.0147C131.62 55.3888 132.733 56.6849 133.878 58.0013L149.253 75.6954L149.839 75.3187H149.835ZM149.992 67.1011L139.134 54.605C138.076 53.387 136.982 52.1282 135.932 50.7201C131.226 44.8911 131.714 37.5489 132.694 29.9114C132.997 27.8553 133.485 25.7619 133.961 23.733C135.078 18.949 136.238 13.9987 135.074 9.04506C134.441 6.20858 131.317 4.70892 126.029 4.70892C125.99 4.70892 125.951 4.70892 125.915 4.70892C123.311 4.74624 120.703 4.91588 118.181 5.07874C113.271 5.39428 108.629 5.69625 103.865 5.13981L103.766 5.76411C108.605 6.32734 113.499 6.01179 118.232 5.70643C120.746 5.54357 123.342 5.37732 125.923 5.34C130.955 5.31964 133.791 6.60555 134.362 9.1672C135.495 14.0021 134.354 18.8879 133.249 23.6108C132.772 25.6466 132.281 27.7569 131.974 29.8402C130.979 37.6066 130.487 45.0744 135.33 51.073C136.388 52.4879 137.49 53.7568 138.556 54.985L149.414 67.4811L150 67.1045L149.992 67.1011ZM148.505 56.9902L142.576 50.1671C141.687 49.1458 140.743 48.0431 139.818 46.7979C134.256 38.6855 136.144 29.4704 137.973 20.5606C138.654 17.2389 139.362 13.8019 139.653 10.4972C139.803 8.29861 140.086 4.20337 136.722 2.6121C132.611 0.671355 127.823 0.847786 123.689 1.28208L123.775 1.90637C127.8 1.48565 132.442 1.30922 136.372 3.16514C139.102 4.45445 139.122 7.60646 138.925 10.4565C138.634 13.7239 137.934 17.1473 137.253 20.4554C135.4 29.4771 133.489 38.8076 139.197 47.1305C140.141 48.4028 141.093 49.5157 141.99 50.5505L147.919 57.3736L148.501 56.997L148.505 56.9902Z" fill="#7D00FF" stroke="#7D00FF" stroke-width="0.3"/>
</mask>
<g mask="url(#mask0_3103_122797)">
<circle cx="76" cy="63" r="71" fill="url(#paint0_linear_3103_122797)"/>
</g>
<defs>
<linearGradient id="paint0_linear_3103_122797" x1="9.19684" y1="-2.4039" x2="163.088" y2="87.133" gradientUnits="userSpaceOnUse">
<stop stop-color="#BD30FF"/>
<stop offset="1" stop-color="#7D00FF"/>
</linearGradient>
</defs>
</svg>
