<svg width="91" height="92" viewBox="0 0 91 92" fill="none" xmlns="http://www.w3.org/2000/svg">
<rect x="8.02734" y="8.75488" width="82.9712" height="82.9712" rx="6" fill="#FFF1B8"/>
<path fill-rule="evenodd" clip-rule="evenodd" d="M0.46875 10.0963C0.46875 4.86328 4.77111 0.621094 10.0783 0.621094H76.7049C82.0121 0.621094 86.3144 4.86328 86.3144 10.0963V75.791C86.3144 81.024 82.0121 85.2661 76.7049 85.2661H10.0783C4.77111 85.2661 0.46875 81.024 0.46875 75.791V10.0963ZM10.0783 4.41117C6.894 4.41117 4.31259 6.95648 4.31259 10.0963V75.791C4.31259 78.9308 6.894 81.4761 10.0783 81.4761H76.7049C79.8892 81.4761 82.4706 78.9308 82.4706 75.791V10.0963C82.4706 6.95648 79.8892 4.41117 76.7049 4.41117H10.0783Z" fill="url(#paint0_linear_8221_232457)"/>
<g clip-path="url(#clip0_8221_232457)">
<path d="M35.5705 59.8477C35.0158 59.8482 34.4799 59.6466 34.0632 59.2805L20.102 47.0645C19.8565 46.8495 19.6597 46.5845 19.5249 46.2873C19.3901 45.9901 19.3203 45.6675 19.3203 45.3412C19.3203 45.0148 19.3901 44.6922 19.5249 44.395C19.6597 44.0978 19.8565 43.8328 20.102 43.6178L34.0632 31.4018C34.5204 31.0017 35.1178 30.7997 35.724 30.8401C36.3301 30.8805 36.8954 31.16 37.2955 31.6172C37.6956 32.0744 37.8976 32.6718 37.8572 33.278C37.8168 33.8842 37.5373 34.4495 37.0801 34.8496L25.0877 45.3412L37.079 55.8328C37.43 56.1396 37.6789 56.5462 37.7927 56.9983C37.9064 57.4504 37.8795 57.9264 37.7156 58.3628C37.5516 58.7992 37.2584 59.1751 36.8751 59.4405C36.4918 59.7058 36.0367 59.8479 35.5705 59.8477ZM56.5123 59.8477C56.046 59.8481 55.5908 59.7062 55.2073 59.4409C54.8238 59.1757 54.5304 58.7997 54.3663 58.3633C54.2023 57.9268 54.1753 57.4507 54.289 56.9985C54.4027 56.5464 54.6517 56.1396 55.0027 55.8328L66.9952 45.3412L55.0038 34.8496C54.5466 34.4495 54.2671 33.8842 54.2267 33.278C54.1863 32.6718 54.3884 32.0744 54.7884 31.6172C55.1885 31.16 55.7538 30.8805 56.36 30.8401C56.9662 30.7997 57.5636 31.0017 58.0208 31.4018L71.9819 43.6178C72.2275 43.8328 72.4242 44.0978 72.5591 44.395C72.6939 44.6922 72.7636 45.0148 72.7636 45.3412C72.7636 45.6675 72.6939 45.9901 72.5591 46.2873C72.4242 46.5845 72.2275 46.8495 71.9819 47.0645L58.0208 59.2805C57.6038 59.647 57.0674 59.8487 56.5123 59.8477ZM40.806 65.0831C40.4493 65.083 40.0975 64.9997 39.7788 64.8396C39.46 64.6796 39.183 64.4473 38.9698 64.1613C38.7567 63.8752 38.6133 63.5434 38.5511 63.1922C38.4889 62.8409 38.5095 62.48 38.6115 62.1382L49.0823 27.2353C49.1612 26.9391 49.2987 26.6617 49.4867 26.4197C49.6747 26.1776 49.9094 25.9757 50.1769 25.826C50.4443 25.6763 50.7391 25.5818 51.0438 25.5481C51.3484 25.5144 51.6567 25.5421 51.9504 25.6297C52.2441 25.7174 52.5173 25.863 52.7537 26.0581C52.9901 26.2532 53.1849 26.4938 53.3266 26.7655C53.4683 27.0373 53.5541 27.3348 53.5788 27.6403C53.6035 27.9458 53.5666 28.2531 53.4703 28.5441L42.9994 63.4471C42.8586 63.9195 42.569 64.3339 42.1739 64.6286C41.7787 64.9234 41.299 65.0828 40.806 65.0831Z" fill="white"/>
<path d="M32.2424 57.4483C31.6877 57.4488 31.1518 57.2472 30.735 56.8811L16.7739 44.6651C16.5283 44.4501 16.3316 44.1851 16.1967 43.8879C16.0619 43.5907 15.9922 43.2681 15.9922 42.9417C15.9922 42.6154 16.0619 42.2928 16.1967 41.9956C16.3316 41.6984 16.5283 41.4334 16.7739 41.2184L30.735 29.0024C31.1922 28.6023 31.7896 28.4003 32.3958 28.4406C33.002 28.481 33.5673 28.7606 33.9674 29.2178C34.3675 29.675 34.5695 30.2724 34.5291 30.8786C34.4887 31.4848 34.2092 32.0501 33.752 32.4501L21.7595 42.9417L33.7509 53.4333C34.1018 53.7402 34.3508 54.1468 34.4646 54.5989C34.5783 55.0509 34.5514 55.527 34.3875 55.9634C34.2235 56.3997 33.9303 56.7757 33.547 57.041C33.1637 57.3064 32.7086 57.4485 32.2424 57.4483ZM53.1842 57.4483C52.7179 57.4487 52.2626 57.3068 51.8792 57.0415C51.4957 56.7763 51.2023 56.4003 51.0382 55.9639C50.8741 55.5274 50.8471 55.0513 50.9609 54.5991C51.0746 54.1469 51.3236 53.7402 51.6746 53.4333L63.667 42.9417L51.6757 32.4501C51.2185 32.0501 50.939 31.4848 50.8986 30.8786C50.8582 30.2724 51.0602 29.675 51.4603 29.2178C51.8604 28.7606 52.4257 28.481 53.0318 28.4406C53.638 28.4003 54.2354 28.6023 54.6926 29.0024L68.6538 41.2184C68.8994 41.4334 69.0961 41.6984 69.2309 41.9956C69.3657 42.2928 69.4355 42.6154 69.4355 42.9417C69.4355 43.2681 69.3657 43.5907 69.2309 43.8879C69.0961 44.1851 68.8994 44.4501 68.6538 44.6651L54.6926 56.8811C54.2757 57.2476 53.7393 57.4493 53.1842 57.4483ZM37.4779 62.6837C37.1212 62.6836 36.7694 62.6003 36.4506 62.4402C36.1318 62.2802 35.8549 62.0479 35.6417 61.7618C35.4286 61.4758 35.2852 61.144 35.223 60.7928C35.1607 60.4415 35.1814 60.0806 35.2833 59.7388L45.7542 24.8358C45.8331 24.5397 45.9706 24.2623 46.1586 24.0203C46.3466 23.7782 46.5813 23.5763 46.8488 23.4266C47.1162 23.2769 47.411 23.1824 47.7156 23.1487C48.0203 23.115 48.3286 23.1427 48.6223 23.2303C48.916 23.3179 49.1892 23.4636 49.4255 23.6587C49.6619 23.8538 49.8568 24.0944 49.9985 24.3661C50.1402 24.6379 50.226 24.9353 50.2506 25.2409C50.2753 25.5464 50.2384 25.8537 50.1422 26.1447L39.6713 61.0476C39.5304 61.5201 39.2409 61.9345 38.8457 62.2292C38.4506 62.524 37.9708 62.6834 37.4779 62.6837Z" fill="url(#paint1_linear_8221_232457)"/>
</g>
<defs>
<linearGradient id="paint0_linear_8221_232457" x1="3.00594" y1="3.95689" x2="95.3733" y2="58.4602" gradientUnits="userSpaceOnUse">
<stop stop-color="#BD30FF"/>
<stop offset="1" stop-color="#7D00FF"/>
</linearGradient>
<linearGradient id="paint1_linear_8221_232457" x1="17.5717" y1="24.6934" x2="65.4815" y2="62.3611" gradientUnits="userSpaceOnUse">
<stop stop-color="#BD30FF"/>
<stop offset="1" stop-color="#7D00FF"/>
</linearGradient>
<clipPath id="clip0_8221_232457">
<rect width="55.8447" height="55.8447" fill="white" transform="translate(14.7891 15.0195)"/>
</clipPath>
</defs>
</svg>
