<svg width="88" height="89" viewBox="0 0 88 89" fill="none" xmlns="http://www.w3.org/2000/svg">
<rect x="10.6489" y="26.5781" width="62" height="62" rx="6" fill="#E2E8F0"/>
<path fill-rule="evenodd" clip-rule="evenodd" d="M33 20.5H12.1807C8.21493 20.5 5 23.67 5 27.5803V76.6705C5 80.5808 8.21493 83.7508 12.1807 83.7508H61.9672C65.933 83.7508 69.1479 80.5808 69.1479 76.6705V44.6773C68.2192 45.1046 67.2605 45.4778 66.2756 45.7928V76.6705C66.2756 79.0167 64.3467 80.9186 61.9672 80.9186H12.1807C9.80125 80.9186 7.8723 79.0167 7.8723 76.6705V27.5803C7.8723 25.2341 9.80125 23.3321 12.1807 23.3321H33.0648C33.0218 22.727 33 22.1161 33 21.5V20.5Z" fill="url(#paint0_linear_6028_181401)"/>
<g filter="url(#filter0_dd_6028_181401)">
<circle cx="58.6489" cy="21" r="20" fill="#7D00FF"/>
<g clip-path="url(#clip0_6028_181401)">
<path d="M70.3158 14.3333H62.539V16.9254H70.3158V14.3333ZM57.353 16.9254H54.7607V19.519H57.353V16.9254ZM54.7607 29.8889H57.353V22.1111H54.7607V29.8889ZM59.9452 16.9254V19.519H62.539V16.9254H59.9452ZM59.9452 29.8889H62.539V22.1111H59.9452V29.8889ZM59.9452 14.3333H57.353V16.9254H59.9452V14.3333ZM46.9824 14.3333V16.9254H54.7607V14.3333H46.9824ZM70.3158 22.1111V19.519H62.539V22.1111H70.3158ZM57.353 19.519V22.1111H59.9452V19.519H57.353ZM46.9824 19.519V22.1111H54.7607V19.519H46.9824Z" fill="white"/>
</g>
</g>
<path d="M17.2057 49.3643V47.8182H25.3293V49.3643H22.1823V58H20.3528V49.3643H17.2057ZM27.9454 58V47.8182H31.8431C32.5789 47.8182 33.1904 47.9342 33.6776 48.1662C34.1681 48.3949 34.5344 48.7081 34.7763 49.1058C35.0216 49.5036 35.1442 49.9543 35.1442 50.4581C35.1442 50.8724 35.0647 51.227 34.9056 51.522C34.7465 51.8137 34.5327 52.0507 34.2643 52.233C33.9958 52.4152 33.6958 52.5462 33.3644 52.6257V52.7251C33.7257 52.745 34.072 52.8561 34.4035 53.0582C34.7382 53.2571 35.0117 53.5388 35.2238 53.9034C35.4359 54.268 35.542 54.7088 35.542 55.2259C35.542 55.7528 35.4144 56.2268 35.1592 56.6477C34.9039 57.0653 34.5195 57.3951 34.0057 57.6371C33.492 57.879 32.8457 58 32.0668 58H27.9454ZM29.7898 56.4588H31.7735C32.443 56.4588 32.9253 56.3312 33.2202 56.076C33.5185 55.8175 33.6677 55.486 33.6677 55.0817C33.6677 54.7801 33.5931 54.5083 33.444 54.2663C33.2948 54.0211 33.0827 53.8288 32.8076 53.6896C32.5325 53.5471 32.2044 53.4759 31.8232 53.4759H29.7898V56.4588ZM29.7898 52.1484H31.6144C31.9326 52.1484 32.2193 52.0904 32.4745 51.9744C32.7297 51.8551 32.9302 51.6877 33.0761 51.4723C33.2252 51.2536 33.2998 50.995 33.2998 50.6967C33.2998 50.3023 33.1606 49.9775 32.8822 49.7223C32.6071 49.4671 32.1977 49.3395 31.6542 49.3395H29.7898V52.1484ZM37.7491 49.3643V47.8182H45.8727V49.3643H42.7257V58H40.8961V49.3643H37.7491ZM56.7528 51.2536H54.8934C54.8404 50.9486 54.7426 50.6785 54.6001 50.4432C54.4575 50.2045 54.2802 50.0024 54.0681 49.8366C53.856 49.6709 53.614 49.5466 53.3422 49.4638C53.0738 49.3776 52.7838 49.3345 52.4722 49.3345C51.9187 49.3345 51.4282 49.4737 51.0006 49.7521C50.5731 50.0272 50.2383 50.4316 49.9964 50.9652C49.7544 51.4955 49.6334 52.1435 49.6334 52.9091C49.6334 53.688 49.7544 54.3442 49.9964 54.8778C50.2416 55.4081 50.5764 55.8092 51.0006 56.081C51.4282 56.3494 51.9171 56.4837 52.4672 56.4837C52.7722 56.4837 53.0572 56.4439 53.3224 56.3643C53.5908 56.2815 53.8311 56.1605 54.0432 56.0014C54.2587 55.8423 54.4393 55.6468 54.5851 55.4148C54.7343 55.1828 54.837 54.9176 54.8934 54.6193L56.7528 54.6293C56.6832 55.1132 56.5324 55.5672 56.3003 55.9915C56.0717 56.4157 55.7717 56.7902 55.4005 57.1151C55.0293 57.4366 54.5951 57.6884 54.0979 57.8707C53.6008 58.0497 53.0489 58.1392 52.4424 58.1392C51.5475 58.1392 50.7487 57.9321 50.0461 57.5178C49.3434 57.1035 48.7899 56.5052 48.3856 55.723C47.9812 54.9408 47.779 54.0028 47.779 52.9091C47.779 51.812 47.9829 50.8741 48.3905 50.0952C48.7982 49.313 49.3534 48.7147 50.056 48.3004C50.7587 47.8861 51.5541 47.679 52.4424 47.679C53.0092 47.679 53.5361 47.7585 54.0234 47.9176C54.5106 48.0767 54.9448 48.3104 55.3259 48.6186C55.7071 48.9235 56.0203 49.2981 56.2655 49.7422C56.5141 50.183 56.6765 50.6868 56.7528 51.2536Z" fill="url(#paint1_linear_6028_181401)"/>
<circle cx="74" cy="35" r="8" fill="#F55B5B"/>
<path fill-rule="evenodd" clip-rule="evenodd" d="M70.25 35C70.25 34.7929 70.4179 34.625 70.625 34.625H77.375C77.5821 34.625 77.75 34.7929 77.75 35C77.75 35.2071 77.5821 35.375 77.375 35.375H70.625C70.4179 35.375 70.25 35.2071 70.25 35Z" fill="white"/>
<defs>
<filter id="filter0_dd_6028_181401" x="33.6489" y="0" width="50" height="50" filterUnits="userSpaceOnUse" color-interpolation-filters="sRGB">
<feFlood flood-opacity="0" result="BackgroundImageFix"/>
<feColorMatrix in="SourceAlpha" type="matrix" values="0 0 0 0 0 0 0 0 0 0 0 0 0 0 0 0 0 0 127 0" result="hardAlpha"/>
<feMorphology radius="1" operator="erode" in="SourceAlpha" result="effect1_dropShadow_6028_181401"/>
<feOffset dy="2"/>
<feGaussianBlur stdDeviation="2"/>
<feColorMatrix type="matrix" values="0 0 0 0 0 0 0 0 0 0 0 0 0 0 0 0 0 0 0.06 0"/>
<feBlend mode="normal" in2="BackgroundImageFix" result="effect1_dropShadow_6028_181401"/>
<feColorMatrix in="SourceAlpha" type="matrix" values="0 0 0 0 0 0 0 0 0 0 0 0 0 0 0 0 0 0 127 0" result="hardAlpha"/>
<feMorphology radius="1" operator="erode" in="SourceAlpha" result="effect2_dropShadow_6028_181401"/>
<feOffset dy="4"/>
<feGaussianBlur stdDeviation="3"/>
<feColorMatrix type="matrix" values="0 0 0 0 0 0 0 0 0 0 0 0 0 0 0 0 0 0 0.1 0"/>
<feBlend mode="normal" in2="effect1_dropShadow_6028_181401" result="effect2_dropShadow_6028_181401"/>
<feBlend mode="normal" in="SourceGraphic" in2="effect2_dropShadow_6028_181401" result="shape"/>
</filter>
<linearGradient id="paint0_linear_6028_181401" x1="6.89591" y1="22.9927" x2="75.9171" y2="63.7201" gradientUnits="userSpaceOnUse">
<stop stop-color="#BD30FF"/>
<stop offset="1" stop-color="#7D00FF"/>
</linearGradient>
<linearGradient id="paint1_linear_6028_181401" x1="17.8607" y1="45.6305" x2="36.315" y2="73.1443" gradientUnits="userSpaceOnUse">
<stop stop-color="#BD30FF"/>
<stop offset="1" stop-color="#7D00FF"/>
</linearGradient>
<clipPath id="clip0_6028_181401">
<rect width="23.3333" height="15.5555" fill="white" transform="translate(46.9824 14.3333)"/>
</clipPath>
</defs>
</svg>
