<svg width="79" height="89" viewBox="0 0 79 89" fill="none" xmlns="http://www.w3.org/2000/svg">
<rect x="5.64893" y="26.5781" width="62" height="62" rx="6" fill="#E2E8F0"/>
<path fill-rule="evenodd" clip-rule="evenodd" d="M28 20.5H7.18074C3.21493 20.5 0 23.67 0 27.5803V76.6705C0 80.5808 3.21493 83.7508 7.18074 83.7508H56.9672C60.933 83.7508 64.1479 80.5808 64.1479 76.6705V44.6773C63.2192 45.1046 62.2605 45.4778 61.2756 45.7928V76.6705C61.2756 79.0167 59.3467 80.9186 56.9672 80.9186H7.18074C4.80125 80.9186 2.8723 79.0167 2.8723 76.6705V27.5803C2.8723 25.2341 4.80125 23.3321 7.18074 23.3321H28.0648C28.0218 22.727 28 22.1161 28 21.5V20.5Z" fill="url(#paint0_linear_6028_175987)"/>
<g filter="url(#filter0_dd_6028_175987)">
<circle cx="53.6489" cy="21" r="20" fill="#7D00FF"/>
<g clip-path="url(#clip0_6028_175987)">
<path d="M65.3158 14.3335H57.539V16.9256H65.3158V14.3335ZM52.353 16.9256H49.7607V19.5192H52.353V16.9256ZM49.7607 29.889H52.353V22.1113H49.7607V29.889ZM54.9452 16.9256V19.5192H57.539V16.9256H54.9452ZM54.9452 29.889H57.539V22.1113H54.9452V29.889ZM54.9452 14.3335H52.353V16.9256H54.9452V14.3335ZM41.9824 14.3335V16.9256H49.7607V14.3335H41.9824ZM65.3158 22.1113V19.5192H57.539V22.1113H65.3158ZM52.353 19.5192V22.1113H54.9452V19.5192H52.353ZM41.9824 19.5192V22.1113H49.7607V19.5192H41.9824Z" fill="white"/>
</g>
</g>
<path d="M12.2057 49.3643V47.8182H20.3293V49.3643H17.1823V58H15.3528V49.3643H12.2057ZM22.9454 58V47.8182H26.8431C27.5789 47.8182 28.1904 47.9342 28.6776 48.1662C29.1681 48.3949 29.5344 48.7081 29.7763 49.1058C30.0216 49.5036 30.1442 49.9543 30.1442 50.4581C30.1442 50.8724 30.0647 51.227 29.9056 51.522C29.7465 51.8137 29.5327 52.0507 29.2643 52.233C28.9958 52.4152 28.6958 52.5462 28.3644 52.6257V52.7251C28.7257 52.745 29.072 52.8561 29.4035 53.0582C29.7382 53.2571 30.0117 53.5388 30.2238 53.9034C30.4359 54.268 30.542 54.7088 30.542 55.2259C30.542 55.7528 30.4144 56.2268 30.1592 56.6477C29.9039 57.0653 29.5195 57.3951 29.0057 57.6371C28.492 57.879 27.8457 58 27.0668 58H22.9454ZM24.7898 56.4588H26.7735C27.443 56.4588 27.9253 56.3312 28.2202 56.076C28.5185 55.8175 28.6677 55.486 28.6677 55.0817C28.6677 54.7801 28.5931 54.5083 28.444 54.2663C28.2948 54.0211 28.0827 53.8288 27.8076 53.6896C27.5325 53.5471 27.2044 53.4759 26.8232 53.4759H24.7898V56.4588ZM24.7898 52.1484H26.6144C26.9326 52.1484 27.2193 52.0904 27.4745 51.9744C27.7297 51.8551 27.9302 51.6877 28.0761 51.4723C28.2252 51.2536 28.2998 50.995 28.2998 50.6967C28.2998 50.3023 28.1606 49.9775 27.8822 49.7223C27.6071 49.4671 27.1977 49.3395 26.6542 49.3395H24.7898V52.1484ZM32.7491 49.3643V47.8182H40.8727V49.3643H37.7257V58H35.8961V49.3643H32.7491ZM51.7528 51.2536H49.8934C49.8404 50.9486 49.7426 50.6785 49.6001 50.4432C49.4575 50.2045 49.2802 50.0024 49.0681 49.8366C48.856 49.6709 48.614 49.5466 48.3422 49.4638C48.0738 49.3776 47.7838 49.3345 47.4722 49.3345C46.9187 49.3345 46.4282 49.4737 46.0006 49.7521C45.5731 50.0272 45.2383 50.4316 44.9964 50.9652C44.7544 51.4955 44.6334 52.1435 44.6334 52.9091C44.6334 53.688 44.7544 54.3442 44.9964 54.8778C45.2416 55.4081 45.5764 55.8092 46.0006 56.081C46.4282 56.3494 46.9171 56.4837 47.4672 56.4837C47.7722 56.4837 48.0572 56.4439 48.3224 56.3643C48.5908 56.2815 48.8311 56.1605 49.0432 56.0014C49.2587 55.8423 49.4393 55.6468 49.5851 55.4148C49.7343 55.1828 49.837 54.9176 49.8934 54.6193L51.7528 54.6293C51.6832 55.1132 51.5324 55.5672 51.3003 55.9915C51.0717 56.4157 50.7717 56.7902 50.4005 57.1151C50.0293 57.4366 49.5951 57.6884 49.0979 57.8707C48.6008 58.0497 48.0489 58.1392 47.4424 58.1392C46.5475 58.1392 45.7487 57.9321 45.0461 57.5178C44.3434 57.1035 43.7899 56.5052 43.3856 55.723C42.9812 54.9408 42.779 54.0028 42.779 52.9091C42.779 51.812 42.9829 50.8741 43.3905 50.0952C43.7982 49.313 44.3534 48.7147 45.056 48.3004C45.7587 47.8861 46.5541 47.679 47.4424 47.679C48.0092 47.679 48.5361 47.7585 49.0234 47.9176C49.5106 48.0767 49.9448 48.3104 50.3259 48.6186C50.7071 48.9235 51.0203 49.2981 51.2655 49.7422C51.5141 50.183 51.6765 50.6868 51.7528 51.2536Z" fill="url(#paint1_linear_6028_175987)"/>
<circle cx="69" cy="35" r="8" fill="#48BB78"/>
<path fill-rule="evenodd" clip-rule="evenodd" d="M73 34.848L69 31L65 34.848L65.763 35.582L68.4605 32.987V39H69.5395V32.9869L72.237 35.582L73 34.848Z" fill="white"/>
<defs>
<filter id="filter0_dd_6028_175987" x="28.6489" y="0" width="50" height="50" filterUnits="userSpaceOnUse" color-interpolation-filters="sRGB">
<feFlood flood-opacity="0" result="BackgroundImageFix"/>
<feColorMatrix in="SourceAlpha" type="matrix" values="0 0 0 0 0 0 0 0 0 0 0 0 0 0 0 0 0 0 127 0" result="hardAlpha"/>
<feMorphology radius="1" operator="erode" in="SourceAlpha" result="effect1_dropShadow_6028_175987"/>
<feOffset dy="2"/>
<feGaussianBlur stdDeviation="2"/>
<feColorMatrix type="matrix" values="0 0 0 0 0 0 0 0 0 0 0 0 0 0 0 0 0 0 0.06 0"/>
<feBlend mode="normal" in2="BackgroundImageFix" result="effect1_dropShadow_6028_175987"/>
<feColorMatrix in="SourceAlpha" type="matrix" values="0 0 0 0 0 0 0 0 0 0 0 0 0 0 0 0 0 0 127 0" result="hardAlpha"/>
<feMorphology radius="1" operator="erode" in="SourceAlpha" result="effect2_dropShadow_6028_175987"/>
<feOffset dy="4"/>
<feGaussianBlur stdDeviation="3"/>
<feColorMatrix type="matrix" values="0 0 0 0 0 0 0 0 0 0 0 0 0 0 0 0 0 0 0.1 0"/>
<feBlend mode="normal" in2="effect1_dropShadow_6028_175987" result="effect2_dropShadow_6028_175987"/>
<feBlend mode="normal" in="SourceGraphic" in2="effect2_dropShadow_6028_175987" result="shape"/>
</filter>
<linearGradient id="paint0_linear_6028_175987" x1="1.89591" y1="22.9927" x2="70.9171" y2="63.7201" gradientUnits="userSpaceOnUse">
<stop stop-color="#BD30FF"/>
<stop offset="1" stop-color="#7D00FF"/>
</linearGradient>
<linearGradient id="paint1_linear_6028_175987" x1="12.8607" y1="45.6305" x2="31.315" y2="73.1443" gradientUnits="userSpaceOnUse">
<stop stop-color="#BD30FF"/>
<stop offset="1" stop-color="#7D00FF"/>
</linearGradient>
<clipPath id="clip0_6028_175987">
<rect width="23.3333" height="15.5555" fill="white" transform="translate(41.9824 14.3335)"/>
</clipPath>
</defs>
</svg>
