<svg width="197" height="172" viewBox="0 0 197 172" fill="none" xmlns="http://www.w3.org/2000/svg">
<rect x="70.374" y="141.812" width="62.0429" height="21.9342" rx="10.9671" fill="#E2E8F0"/>
<path d="M165.899 125.662H184.313V111.342C184.313 110.909 184.262 110.49 184.17 110.083H114.295C112.426 110.083 110.912 109.476 110.912 108.73C110.912 107.983 112.426 107.377 114.295 107.377H115.793L115.362 105.569H113.707C110.505 105.569 107.908 108.154 107.908 111.342V153.749C107.908 156.936 110.505 159.521 113.707 159.521H178.514C181.716 159.521 184.313 156.938 184.313 153.749V144.612H165.899C162.8 144.612 160.28 142.104 160.28 139.02V131.256C160.28 128.172 162.8 125.664 165.899 125.664V125.662Z" fill="#E2E8F0"/>
<path d="M165.899 128.155C164.18 128.155 162.786 129.543 162.786 131.254V139.017C162.786 140.728 164.18 142.116 165.899 142.116H184.313V128.155H165.899ZM169.122 138.834C166.855 138.834 165.016 137.005 165.016 134.747C165.016 132.489 166.855 130.66 169.122 130.66C171.388 130.66 173.227 132.489 173.227 134.747C173.227 137.005 171.388 138.834 169.122 138.834Z" fill="#E2E8F0"/>
<rect x="12.0318" y="38.5938" width="62.0429" height="21.9342" rx="10.9671" fill="#E2E8F0"/>
<line x1="196.224" y1="170.625" x2="196.224" y2="0.487549" stroke="black" stroke-opacity="0.04"/>
<line x1="171.849" y1="170.625" x2="171.849" y2="0.487549" stroke="black" stroke-opacity="0.04"/>
<line x1="184.036" y1="170.625" x2="184.036" y2="0.487549" stroke="black" stroke-opacity="0.04"/>
<line x1="147.474" y1="170.625" x2="147.474" y2="0.487549" stroke="black" stroke-opacity="0.04"/>
<line x1="159.661" y1="170.625" x2="159.661" y2="0.487549" stroke="black" stroke-opacity="0.04"/>
<line x1="123.099" y1="170.625" x2="123.099" y2="0.487549" stroke="black" stroke-opacity="0.04"/>
<line x1="135.286" y1="170.625" x2="135.286" y2="0.487549" stroke="black" stroke-opacity="0.04"/>
<line x1="98.7236" y1="170.625" x2="98.7237" y2="0.487549" stroke="black" stroke-opacity="0.04"/>
<line x1="110.911" y1="170.625" x2="110.911" y2="0.487549" stroke="black" stroke-opacity="0.04"/>
<line x1="74.3486" y1="170.625" x2="74.3487" y2="0.487549" stroke="black" stroke-opacity="0.04"/>
<line x1="86.5361" y1="170.625" x2="86.5362" y2="0.487549" stroke="black" stroke-opacity="0.04"/>
<line x1="196.724" y1="0.5" x2="1.72362" y2="0.499982" stroke="black" stroke-opacity="0.04"/>
<line x1="196.724" y1="24.875" x2="1.72362" y2="24.875" stroke="black" stroke-opacity="0.04"/>
<line x1="196.724" y1="49.25" x2="1.72362" y2="49.25" stroke="black" stroke-opacity="0.04"/>
<line x1="196.724" y1="73.625" x2="1.72362" y2="73.625" stroke="black" stroke-opacity="0.04"/>
<line x1="196.724" y1="98" x2="1.72362" y2="98" stroke="black" stroke-opacity="0.04"/>
<line x1="196.724" y1="122.375" x2="1.72362" y2="122.375" stroke="black" stroke-opacity="0.04"/>
<line x1="196.724" y1="110.188" x2="1.72362" y2="110.187" stroke="black" stroke-opacity="0.04"/>
<line x1="196.724" y1="85.8125" x2="1.72362" y2="85.8125" stroke="black" stroke-opacity="0.04"/>
<line x1="196.724" y1="61.4375" x2="1.72362" y2="61.4375" stroke="black" stroke-opacity="0.04"/>
<line x1="196.724" y1="37.0625" x2="1.72362" y2="37.0625" stroke="black" stroke-opacity="0.04"/>
<line x1="196.724" y1="12.6875" x2="1.72362" y2="12.6875" stroke="black" stroke-opacity="0.04"/>
<line x1="196.724" y1="134.562" x2="1.72362" y2="134.562" stroke="black" stroke-opacity="0.04"/>
<line x1="196.724" y1="158.938" x2="1.72362" y2="158.937" stroke="black" stroke-opacity="0.04"/>
<line x1="196.724" y1="146.75" x2="1.72362" y2="146.75" stroke="black" stroke-opacity="0.04"/>
<line x1="196.724" y1="171.125" x2="1.72362" y2="171.125" stroke="black" stroke-opacity="0.04"/>
<line x1="49.9736" y1="170.625" x2="49.9737" y2="0.487549" stroke="black" stroke-opacity="0.04"/>
<line x1="62.1611" y1="170.625" x2="62.1612" y2="0.487549" stroke="black" stroke-opacity="0.04"/>
<line x1="25.5986" y1="170.625" x2="25.5987" y2="0.487549" stroke="black" stroke-opacity="0.04"/>
<line x1="37.7861" y1="170.625" x2="37.7862" y2="0.487549" stroke="black" stroke-opacity="0.04"/>
<line x1="13.4111" y1="170.625" x2="13.4112" y2="0.487549" stroke="black" stroke-opacity="0.04"/>
<line x1="1.22363" y1="171.641" x2="1.22364" y2="0.487534" stroke="black" stroke-opacity="0.04"/>
<path d="M122.724 97.5L122.724 89.9578C122.724 86.6441 120.037 83.9578 116.724 83.9578L34.7236 83.9578C31.4099 83.9578 28.7236 81.2715 28.7236 77.9578L28.7236 52" stroke="#718096" stroke-linecap="round"/>
<path d="M121.815 97.7985C122.205 98.189 122.839 98.189 123.229 97.7985L127.825 93.2023C128.02 93.0071 128.02 92.6905 127.825 92.4952C127.63 92.3 127.313 92.3 127.118 92.4952L123.229 96.3842C122.839 96.7747 122.205 96.7747 121.815 96.3842L117.784 92.3536C117.589 92.1583 117.272 92.1583 117.077 92.3536C116.882 92.5488 116.882 92.8654 117.077 93.0607L121.815 97.7985Z" fill="#718096"/>
<path d="M135.724 93.5L135.724 81.0506C135.724 77.7369 133.037 75.0506 129.724 75.0506L43.7236 75.0506C40.4099 75.0506 37.7236 72.3643 37.7236 69.0506L37.7236 52" stroke="#718096" stroke-linecap="round"/>
<path d="M134.815 94.7985C135.205 95.189 135.839 95.189 136.229 94.7985L140.825 90.2023C141.02 90.0071 141.02 89.6905 140.825 89.4952C140.63 89.3 140.313 89.3 140.118 89.4952L136.229 93.3842C135.839 93.7747 135.205 93.7747 134.815 93.3842L130.784 89.3536C130.589 89.1583 130.272 89.1583 130.077 89.3536C129.882 89.5488 129.882 89.8654 130.077 90.0607L134.815 94.7985Z" fill="#718096"/>
<path d="M147.724 90L147.724 72.6667C147.724 69.353 145.037 66.6667 141.724 66.6667L52.7236 66.6667C49.4099 66.6667 46.7236 63.9804 46.7236 60.6667L46.7236 50" stroke="#718096" stroke-linecap="round"/>
<path d="M146.815 90.7985C147.205 91.189 147.839 91.189 148.229 90.7985L152.825 86.2023C153.02 86.0071 153.02 85.6905 152.825 85.4952C152.63 85.3 152.313 85.3 152.118 85.4952L148.229 89.3842C147.839 89.7747 147.205 89.7747 146.815 89.3842L142.784 85.3536C142.589 85.1583 142.272 85.1583 142.077 85.3536C141.882 85.5488 141.882 85.8654 142.077 86.0607L146.815 90.7985Z" fill="#718096"/>
<rect x="7.25879" y="33.9629" width="63.0429" height="22.9342" rx="11.4671" fill="#F6F7FA" stroke="url(#paint0_linear_7126_205188)"/>
<path d="M17.1774 48.1029V42.9195H18.2556V44.8683H18.2885C18.3358 44.7637 18.4041 44.6574 18.4935 44.5494C18.5846 44.4397 18.7027 44.3486 18.8478 44.2761C18.9946 44.2018 19.1769 44.1647 19.3945 44.1647C19.678 44.1647 19.9395 44.239 20.1791 44.3874C20.4187 44.5342 20.6102 44.7561 20.7536 45.0531C20.8971 45.3484 20.9688 45.7187 20.9688 46.1642C20.9688 46.5978 20.8987 46.9639 20.7587 47.2626C20.6203 47.5595 20.4314 47.7848 20.1918 47.9383C19.9539 48.0902 19.6873 48.1661 19.392 48.1661C19.1828 48.1661 19.0048 48.1315 18.858 48.0624C18.7129 47.9932 18.5939 47.9063 18.5011 47.8017C18.4083 47.6954 18.3374 47.5882 18.2885 47.4802H18.2404V48.1029H17.1774ZM18.2328 46.1591C18.2328 46.3903 18.2649 46.5919 18.329 46.764C18.3931 46.9361 18.4859 47.0702 18.6074 47.1664C18.7289 47.2609 18.8765 47.3081 19.0503 47.3081C19.2258 47.3081 19.3743 47.2601 19.4958 47.1639C19.6173 47.066 19.7092 46.931 19.7716 46.7589C19.8358 46.5851 19.8678 46.3852 19.8678 46.1591C19.8678 45.9347 19.8366 45.7373 19.7742 45.5669C19.7117 45.3964 19.6198 45.2631 19.4983 45.167C19.3768 45.0708 19.2275 45.0227 19.0503 45.0227C18.8748 45.0227 18.7264 45.0691 18.6049 45.1619C18.4851 45.2547 18.3931 45.3863 18.329 45.5567C18.2649 45.7272 18.2328 45.9279 18.2328 46.1591Z" fill="#4A5568"/>
<path d="M23.4447 48.1788C23.0465 48.1788 22.7039 48.0944 22.4171 47.9257C22.1319 47.7553 21.9126 47.5191 21.7591 47.217C21.6072 46.915 21.5313 46.5674 21.5313 46.1743C21.5313 45.7761 21.608 45.4268 21.7616 45.1265C21.9168 44.8245 22.137 44.5891 22.4222 44.4203C22.7073 44.2499 23.0465 44.1647 23.4396 44.1647C23.7787 44.1647 24.0757 44.2263 24.3305 44.3495C24.5853 44.4726 24.7869 44.6456 24.9354 44.8683C25.0839 45.091 25.1657 45.3526 25.1809 45.6529H24.1634C24.1348 45.4589 24.0588 45.3028 23.9357 45.1847C23.8142 45.0649 23.6547 45.005 23.4573 45.005C23.2903 45.005 23.1443 45.0505 23.0195 45.1417C22.8963 45.2311 22.8001 45.3619 22.7309 45.534C22.6618 45.7061 22.6272 45.9144 22.6272 46.1591C22.6272 46.4071 22.6609 46.618 22.7284 46.7918C22.7976 46.9656 22.8946 47.0981 23.0195 47.1892C23.1443 47.2803 23.2903 47.3259 23.4573 47.3259C23.5805 47.3259 23.691 47.3005 23.7889 47.2499C23.8884 47.1993 23.9702 47.1259 24.0344 47.0297C24.1002 46.9319 24.1432 46.8146 24.1634 46.6779H25.1809C25.164 46.9749 25.083 47.2364 24.9379 47.4625C24.7945 47.6869 24.5962 47.8624 24.3431 47.989C24.09 48.1155 23.7906 48.1788 23.4447 48.1788Z" fill="#4A5568"/>
<path d="M28.1161 42.9195V48.1029H27.0202V43.9597H26.9899L25.8029 44.7038V43.7319L27.086 42.9195H28.1161Z" fill="#4A5568"/>
<path d="M31.9271 49.5607V47.4802H31.8942C31.8436 47.5882 31.7719 47.6954 31.6791 47.8017C31.5879 47.9063 31.469 47.9932 31.3222 48.0624C31.1771 48.1315 30.9999 48.1661 30.7907 48.1661C30.4954 48.1661 30.228 48.0902 29.9884 47.9383C29.7505 47.7848 29.5615 47.5595 29.4215 47.2626C29.2831 46.9639 29.2139 46.5978 29.2139 46.1642C29.2139 45.7187 29.2856 45.3484 29.4291 45.0531C29.5725 44.7561 29.7631 44.5342 30.001 44.3874C30.2406 44.239 30.503 44.1647 30.7882 44.1647C31.0058 44.1647 31.1872 44.2018 31.3323 44.2761C31.4791 44.3486 31.5972 44.4397 31.6867 44.5494C31.7778 44.6574 31.8469 44.7637 31.8942 44.8683H31.9397V44.2153H33.0027V49.5607H31.9271ZM31.1324 47.3081C31.3062 47.3081 31.453 47.2609 31.5728 47.1664C31.6942 47.0702 31.787 46.9361 31.8512 46.764C31.917 46.5919 31.9499 46.3903 31.9499 46.1591C31.9499 45.9279 31.9178 45.7272 31.8537 45.5567C31.7896 45.3863 31.6968 45.2547 31.5753 45.1619C31.4538 45.0691 31.3062 45.0227 31.1324 45.0227C30.9552 45.0227 30.8059 45.0708 30.6844 45.167C30.5629 45.2631 30.471 45.3964 30.4085 45.5669C30.3461 45.7373 30.3149 45.9347 30.3149 46.1591C30.3149 46.3852 30.3461 46.5851 30.4085 46.7589C30.4726 46.931 30.5646 47.066 30.6844 47.1639C30.8059 47.2601 30.9552 47.3081 31.1324 47.3081Z" fill="#4A5568"/>
<path d="M34.7693 44.2153L35.4831 45.5745L36.2145 44.2153H37.3205L36.1942 46.1591L37.3509 48.1029H36.2499L35.4831 46.7589L34.7288 48.1029H33.6152L34.7693 46.1591L33.6557 44.2153H34.7693Z" fill="#4A5568"/>
<path d="M38.591 48.1687C38.424 48.1687 38.2806 48.1096 38.1608 47.9915C38.0427 47.8717 37.9836 47.7283 37.9836 47.5612C37.9836 47.3959 38.0427 47.2541 38.1608 47.136C38.2806 47.0179 38.424 46.9589 38.591 46.9589C38.753 46.9589 38.8948 47.0179 39.0162 47.136C39.1377 47.2541 39.1985 47.3959 39.1985 47.5612C39.1985 47.6726 39.1698 47.7747 39.1124 47.8675C39.0567 47.9586 38.9833 48.032 38.8922 48.0877C38.8011 48.1417 38.7007 48.1687 38.591 48.1687Z" fill="#4A5568"/>
<path d="M40.7139 48.1687C40.5468 48.1687 40.4034 48.1096 40.2836 47.9915C40.1655 47.8717 40.1064 47.7283 40.1064 47.5612C40.1064 47.3959 40.1655 47.2541 40.2836 47.136C40.4034 47.0179 40.5468 46.9589 40.7139 46.9589C40.8758 46.9589 41.0176 47.0179 41.1391 47.136C41.2605 47.2541 41.3213 47.3959 41.3213 47.5612C41.3213 47.6726 41.2926 47.7747 41.2352 47.8675C41.1796 47.9586 41.1062 48.032 41.015 48.0877C40.9239 48.1417 40.8235 48.1687 40.7139 48.1687Z" fill="#4A5568"/>
<path d="M42.8367 48.1687C42.6696 48.1687 42.5262 48.1096 42.4064 47.9915C42.2883 47.8717 42.2293 47.7283 42.2293 47.5612C42.2293 47.3959 42.2883 47.2541 42.4064 47.136C42.5262 47.0179 42.6696 46.9589 42.8367 46.9589C42.9987 46.9589 43.1404 47.0179 43.2619 47.136C43.3834 47.2541 43.4441 47.3959 43.4441 47.5612C43.4441 47.6726 43.4154 47.7747 43.3581 47.8675C43.3024 47.9586 43.229 48.032 43.1379 48.0877C43.0468 48.1417 42.9464 48.1687 42.8367 48.1687Z" fill="#4A5568"/>
<path d="M46.1427 48.2167C45.7074 48.2151 45.3328 48.1079 45.019 47.8953C44.7068 47.6827 44.4664 47.3748 44.2977 46.9715C44.1306 46.5683 44.048 46.0832 44.0496 45.5162C44.0496 44.951 44.1332 44.4693 44.3002 44.0711C44.4689 43.6729 44.7094 43.37 45.0215 43.1625C45.3354 42.9532 45.7091 42.8486 46.1427 42.8486C46.5764 42.8486 46.9492 42.9532 47.2614 43.1625C47.5752 43.3717 47.8165 43.6754 47.9852 44.0736C48.154 44.4701 48.2375 44.951 48.2358 45.5162C48.2358 46.0849 48.1514 46.5708 47.9827 46.9741C47.8157 47.3773 47.5761 47.6853 47.2639 47.8978C46.9518 48.1104 46.578 48.2167 46.1427 48.2167ZM46.1427 47.3081C46.4397 47.3081 46.6768 47.1588 46.8539 46.8602C47.0311 46.5615 47.1188 46.1135 47.1171 45.5162C47.1171 45.1231 47.0766 44.7958 46.9957 44.5342C46.9163 44.2727 46.8033 44.0761 46.6565 43.9445C46.5114 43.8129 46.3401 43.7471 46.1427 43.7471C45.8475 43.7471 45.6112 43.8948 45.4341 44.19C45.2569 44.4853 45.1675 44.9274 45.1658 45.5162C45.1658 45.9144 45.2054 46.2468 45.2847 46.5134C45.3657 46.7783 45.4796 46.9774 45.6264 47.1107C45.7732 47.2423 45.9453 47.3081 46.1427 47.3081Z" fill="#4A5568"/>
<path d="M49.7942 48.1029L48.7363 44.2153H49.8271L50.4295 46.8273H50.4649L51.0926 44.2153H52.1632L52.801 46.8121H52.8339L53.4261 44.2153H54.5144L53.459 48.1029H52.3176L51.6494 45.658H51.6013L50.9332 48.1029H49.7942Z" fill="#4A5568"/>
<path d="M56.1678 42.9195V48.1029H55.0896V42.9195H56.1678Z" fill="#4A5568"/>
<path d="M58.1096 45.8554V48.1029H57.0314V42.9195H58.0793V44.9012H58.1248C58.2125 44.6718 58.3543 44.4921 58.55 44.3621C58.7457 44.2305 58.9912 44.1647 59.2865 44.1647C59.5565 44.1647 59.7919 44.2238 59.9926 44.3419C60.1951 44.4583 60.352 44.6262 60.4634 44.8455C60.5764 45.0632 60.6321 45.3239 60.6304 45.6276V48.1029H59.5523V45.82C59.5539 45.5804 59.4932 45.3939 59.37 45.2606C59.2485 45.1273 59.0781 45.0607 58.8588 45.0607C58.712 45.0607 58.5821 45.0919 58.469 45.1543C58.3577 45.2167 58.2699 45.3079 58.2058 45.4277C58.1434 45.5458 58.1113 45.6883 58.1096 45.8554Z" fill="#4A5568"/>
<path d="M157.899 126.763C157.899 125.33 159.068 124.164 160.513 124.164H178.427V137.125H160.513C159.068 137.125 157.899 135.959 157.899 134.526V126.763ZM159.129 130.256C159.129 132.792 161.195 134.842 163.735 134.842C166.275 134.842 168.341 132.792 168.341 130.256C168.341 127.719 166.275 125.669 163.735 125.669C161.195 125.669 159.129 127.719 159.129 130.256Z" fill="url(#paint1_linear_7126_205188)" stroke="url(#paint2_linear_7126_205188)"/>
<path d="M160.513 120.67H160.013V120.692C156.873 120.946 154.394 123.57 154.394 126.764V134.527C154.394 137.89 157.14 140.62 160.513 140.62H178.427V149.256C178.427 152.167 176.057 154.529 173.128 154.529H108.322C105.393 154.529 103.022 152.166 103.022 149.256V106.85C103.022 103.94 105.393 101.577 108.322 101.577V101.577L108.329 101.577L178.285 100.567V101.249L108.909 102.384C108.908 102.384 108.906 102.384 108.905 102.384C107.925 102.385 107.015 102.543 106.331 102.817C105.99 102.953 105.681 103.128 105.448 103.348C105.215 103.569 105.026 103.869 105.026 104.238C105.026 104.606 105.215 104.907 105.448 105.127C105.681 105.347 105.99 105.522 106.331 105.658C107.016 105.932 107.927 106.091 108.909 106.091H178.37C178.407 106.34 178.427 106.593 178.427 106.85V120.67H160.513Z" fill="url(#paint3_linear_7126_205188)" stroke="url(#paint4_linear_7126_205188)"/>
<circle cx="163.89" cy="130.239" r="4.27308" fill="#FCF9FF"/>
<path d="M147.175 122.491C146.869 119.308 144.122 118.24 140.653 117.935V115.896H137.966V117.819C137.261 117.819 136.539 117.832 135.821 117.846V115.895H133.136V117.932C132.555 117.944 128.981 117.94 128.981 117.94L128.973 120.309L131.215 120.322V135.845H128.974L128.954 138.18C129.605 138.18 132.502 138.193 133.13 138.197V140.209H135.815V138.245C136.551 138.261 137.265 138.267 137.961 138.266V140.21H140.648V138.207C145.166 137.949 148.33 136.812 148.723 132.571C149.041 129.155 147.435 127.631 144.871 127.012C146.429 126.215 147.403 124.82 147.176 122.49L147.175 122.491ZM143.41 132.038C143.41 135.375 137.697 134.994 135.874 134.994V129.078C137.696 129.078 143.407 128.558 143.408 132.038H143.41ZM142.163 123.69C142.163 126.726 137.396 126.37 135.878 126.37V121.004C137.398 121.004 142.165 120.523 142.163 123.69Z" fill="#FCF9FF"/>
<rect width="12.8071" height="1.60089" rx="0.800443" transform="matrix(-1 0 0 1 63.5314 100)" fill="#718096"/>
<rect width="15.2084" height="1.60089" rx="0.800443" transform="matrix(-1 0 0 1 65.9321 104.003)" fill="#718096"/>
<rect width="13.6075" height="1.60089" rx="0.800443" transform="matrix(-1 0 0 1 64.3317 108.004)" fill="#718096"/>
<rect width="13.6075" height="1.60089" rx="0.800443" transform="matrix(-1 0 0 1 64.3317 112.008)" fill="#718096"/>
<path fill-rule="evenodd" clip-rule="evenodd" d="M51.3252 117.01C51.1042 117.01 50.925 117.189 50.925 117.41V124.417C50.925 125.08 51.4625 125.617 52.1257 125.617H87.3656L85.5019 127.481C85.3456 127.637 85.3456 127.891 85.5019 128.047C85.6582 128.203 85.9116 128.203 86.0679 128.047L88.6149 125.5C88.7711 125.344 88.7711 125.09 88.6149 124.934L86.0679 122.387C85.9116 122.231 85.6582 122.231 85.5019 122.387C85.3456 122.543 85.3456 122.797 85.5019 122.953L87.3656 124.817H52.1257C51.9046 124.817 51.7254 124.638 51.7254 124.417V117.41C51.7254 117.189 51.5462 117.01 51.3252 117.01Z" fill="#718096"/>
<path fill-rule="evenodd" clip-rule="evenodd" d="M118.02 11L126.022 11C137.438 11 146.656 20.9059 146.656 33.0779C146.656 45.2499 137.438 55.1558 126.022 55.1558L118.316 55.1558L118.316 54.491L126.022 54.491C137.031 54.491 145.992 44.9254 145.992 33.0779C145.992 21.2304 137.031 11.6648 126.022 11.6648L118.02 11.6648L118.02 11Z" fill="url(#paint5_linear_7126_205188)"/>
<path d="M141.293 32.9989C141.293 45.1416 131.648 54.9852 119.751 54.9852C107.854 54.9852 98.2095 45.1416 98.2095 32.9989C98.2095 20.8563 107.854 11.0127 119.751 11.0127C131.648 11.0127 141.293 20.8563 141.293 32.9989Z" fill="white"/>
<path fill-rule="evenodd" clip-rule="evenodd" d="M119.751 54.3204C131.27 54.3204 140.629 44.7863 140.629 32.9989C140.629 21.2116 131.27 11.6775 119.751 11.6775C108.232 11.6775 98.8731 21.2116 98.8731 32.9989C98.8731 44.7863 108.232 54.3204 119.751 54.3204ZM119.751 54.9852C131.648 54.9852 141.293 45.1416 141.293 32.9989C141.293 20.8563 131.648 11.0127 119.751 11.0127C107.854 11.0127 98.2095 20.8563 98.2095 32.9989C98.2095 45.1416 107.854 54.9852 119.751 54.9852Z" fill="url(#paint6_linear_7126_205188)"/>
<path d="M128.227 27.4741C127.924 24.3127 125.195 23.2516 121.749 22.9485V20.9235H119.081V22.8329C118.38 22.8329 117.663 22.8464 116.95 22.8598V20.9219H114.283V22.9461C113.705 22.9572 110.156 22.954 110.156 22.954L110.148 25.3066L112.375 25.3193V40.7384H110.149L110.129 43.0578C110.776 43.0578 113.653 43.0705 114.277 43.0744V45.0733H116.943V43.1219C117.675 43.1377 118.384 43.1441 119.075 43.1433V45.0741H121.744V43.0839C126.232 42.8283 129.374 41.6991 129.765 37.486C130.081 34.0928 128.486 32.5798 125.939 31.9641C127.486 31.1728 128.454 29.7872 128.229 27.4733L128.227 27.4741ZM124.488 36.9566C124.488 40.2715 118.813 39.8925 117.003 39.8933V34.0168C118.813 34.0168 124.485 33.5001 124.486 36.9566H124.488ZM123.25 28.6651C123.25 31.6808 118.514 31.3271 117.007 31.3271V25.9967C118.517 25.9975 123.251 25.5195 123.25 28.6651Z" fill="url(#paint7_linear_7126_205188)"/>
<path fill-rule="evenodd" clip-rule="evenodd" d="M157.702 30L164.589 30C174.414 30 182.346 38.5249 182.346 49C182.346 59.4751 174.414 68 164.589 68L157.957 68L157.957 67.4279L164.589 67.4279C174.063 67.4279 181.775 59.1958 181.775 49C181.775 38.8042 174.063 30.5721 164.589 30.5721L157.702 30.5721L157.702 30Z" fill="url(#paint8_linear_7126_205188)"/>
<path d="M177.731 48.9319C177.731 59.3817 169.431 67.853 159.192 67.853C148.954 67.853 140.654 59.3817 140.654 48.9319C140.654 38.482 148.954 30.0107 159.192 30.0107C169.431 30.0107 177.731 38.482 177.731 48.9319Z" fill="white"/>
<path fill-rule="evenodd" clip-rule="evenodd" d="M159.192 67.2809C169.106 67.2809 177.16 59.0759 177.16 48.9319C177.16 38.7878 169.106 30.5828 159.192 30.5828C149.279 30.5828 141.225 38.7878 141.225 48.9319C141.225 59.0759 149.279 67.2809 159.192 67.2809ZM159.192 67.853C169.431 67.853 177.731 59.3817 177.731 48.9319C177.731 38.482 169.431 30.0107 159.192 30.0107C148.954 30.0107 140.654 38.482 140.654 48.9319C140.654 59.3817 148.954 67.853 159.192 67.853Z" fill="url(#paint9_linear_7126_205188)"/>
<path d="M166.486 44.1769C166.226 41.4562 163.877 40.543 160.912 40.2822V38.5394H158.615V40.1827C158.012 40.1827 157.395 40.1943 156.781 40.2059V38.5381H154.486V40.2801C153.989 40.2896 150.935 40.2869 150.935 40.2869L150.928 42.3116L152.844 42.3225V55.592H150.929L150.912 57.588C151.468 57.588 153.944 57.5989 154.481 57.6023V59.3226H156.776V57.6432C157.405 57.6568 158.015 57.6623 158.61 57.6616V59.3232H160.907V57.6105C164.77 57.3905 167.474 56.4187 167.81 52.793C168.082 49.8728 166.709 48.5707 164.517 48.0409C165.849 47.3599 166.682 46.1675 166.488 44.1762L166.486 44.1769ZM163.269 52.3374C163.269 55.1902 158.385 54.864 156.827 54.8647V49.8075C158.384 49.8075 163.266 49.3628 163.267 52.3374H163.269ZM162.203 45.2018C162.203 47.7971 158.128 47.4927 156.83 47.4927V42.9054C158.13 42.9061 162.204 42.4948 162.203 45.2018Z" fill="url(#paint10_linear_7126_205188)"/>
<rect x="65.601" y="137.181" width="63.0429" height="22.9342" rx="11.4671" fill="#F6F7FA" stroke="url(#paint11_linear_7126_205188)"/>
<path d="M75.5197 151.321V146.137H76.5979V148.086H76.6308C76.678 147.981 76.7463 147.875 76.8358 147.767C76.9269 147.658 77.045 147.566 77.1901 147.494C77.3369 147.42 77.5191 147.382 77.7368 147.382C78.0202 147.382 78.2818 147.457 78.5214 147.605C78.761 147.752 78.9525 147.974 79.0959 148.271C79.2393 148.566 79.311 148.936 79.311 149.382C79.311 149.816 79.241 150.182 79.101 150.48C78.9626 150.777 78.7736 151.003 78.534 151.156C78.2961 151.308 78.0295 151.384 77.7343 151.384C77.525 151.384 77.347 151.349 77.2002 151.28C77.0551 151.211 76.9362 151.124 76.8434 151.019C76.7506 150.913 76.6797 150.806 76.6308 150.698H76.5827V151.321H75.5197ZM76.5751 149.377C76.5751 149.608 76.6071 149.81 76.6713 149.982C76.7354 150.154 76.8282 150.288 76.9497 150.384C77.0711 150.479 77.2188 150.526 77.3926 150.526C77.5681 150.526 77.7165 150.478 77.838 150.382C77.9595 150.284 78.0515 150.149 78.1139 149.977C78.178 149.803 78.2101 149.603 78.2101 149.377C78.2101 149.152 78.1789 148.955 78.1164 148.785C78.054 148.614 77.962 148.481 77.8406 148.385C77.7191 148.289 77.5697 148.24 77.3926 148.24C77.2171 148.24 77.0686 148.287 76.9471 148.38C76.8273 148.472 76.7354 148.604 76.6713 148.775C76.6071 148.945 76.5751 149.146 76.5751 149.377Z" fill="#4A5568"/>
<path d="M81.7869 151.397C81.3887 151.397 81.0462 151.312 80.7594 151.143C80.4742 150.973 80.2549 150.737 80.1013 150.435C79.9495 150.133 79.8735 149.785 79.8735 149.392C79.8735 148.994 79.9503 148.645 80.1038 148.344C80.2591 148.042 80.4793 147.807 80.7644 147.638C81.0496 147.468 81.3887 147.382 81.7819 147.382C82.121 147.382 82.418 147.444 82.6727 147.567C82.9275 147.69 83.1292 147.863 83.2776 148.086C83.4261 148.309 83.5079 148.57 83.5231 148.871H82.5057C82.477 148.677 82.4011 148.521 82.2779 148.402C82.1564 148.283 81.997 148.223 81.7996 148.223C81.6325 148.223 81.4866 148.268 81.3617 148.359C81.2385 148.449 81.1424 148.58 81.0732 148.752C81.004 148.924 80.9694 149.132 80.9694 149.377C80.9694 149.625 81.0032 149.836 81.0707 150.01C81.1398 150.183 81.2369 150.316 81.3617 150.407C81.4866 150.498 81.6325 150.544 81.7996 150.544C81.9227 150.544 82.0333 150.518 82.1311 150.468C82.2307 150.417 82.3125 150.344 82.3766 150.248C82.4424 150.15 82.4855 150.032 82.5057 149.896H83.5231C83.5063 150.193 83.4253 150.454 83.2802 150.68C83.1367 150.905 82.9385 151.08 82.6854 151.207C82.4323 151.333 82.1328 151.397 81.7869 151.397Z" fill="#4A5568"/>
<path d="M86.4584 146.137V151.321H85.3625V147.177H85.3321L84.1451 147.922V146.95L85.4283 146.137H86.4584Z" fill="#4A5568"/>
<path d="M90.2693 152.778V150.698H90.2364C90.1858 150.806 90.1141 150.913 90.0213 151.019C89.9302 151.124 89.8112 151.211 89.6645 151.28C89.5193 151.349 89.3422 151.384 89.133 151.384C88.8377 151.384 88.5702 151.308 88.3306 151.156C88.0927 151.003 87.9038 150.777 87.7637 150.48C87.6254 150.182 87.5562 149.816 87.5562 149.382C87.5562 148.936 87.6279 148.566 87.7713 148.271C87.9147 147.974 88.1054 147.752 88.3433 147.605C88.5829 147.457 88.8453 147.382 89.1304 147.382C89.3481 147.382 89.5295 147.42 89.6746 147.494C89.8214 147.566 89.9395 147.658 90.0289 147.767C90.12 147.875 90.1892 147.981 90.2364 148.086H90.282V147.433H91.345V152.778H90.2693ZM89.4746 150.526C89.6484 150.526 89.7952 150.479 89.915 150.384C90.0365 150.288 90.1293 150.154 90.1934 149.982C90.2592 149.81 90.2921 149.608 90.2921 149.377C90.2921 149.146 90.2601 148.945 90.1959 148.775C90.1318 148.604 90.039 148.472 89.9175 148.38C89.7961 148.287 89.6484 148.24 89.4746 148.24C89.2975 148.24 89.1481 148.289 89.0267 148.385C88.9052 148.481 88.8132 148.614 88.7508 148.785C88.6884 148.955 88.6571 149.152 88.6571 149.377C88.6571 149.603 88.6884 149.803 88.7508 149.977C88.8149 150.149 88.9069 150.284 89.0267 150.382C89.1481 150.478 89.2975 150.526 89.4746 150.526Z" fill="#4A5568"/>
<path d="M93.1116 147.433L93.8253 148.792L94.5568 147.433H95.6628L94.5365 149.377L95.6931 151.321H94.5922L93.8253 149.977L93.0711 151.321H91.9575L93.1116 149.377L91.998 147.433H93.1116Z" fill="#4A5568"/>
<path d="M96.9333 151.386C96.7663 151.386 96.6228 151.327 96.503 151.209C96.3849 151.089 96.3259 150.946 96.3259 150.779C96.3259 150.614 96.3849 150.472 96.503 150.354C96.6228 150.236 96.7663 150.177 96.9333 150.177C97.0953 150.177 97.237 150.236 97.3585 150.354C97.48 150.472 97.5407 150.614 97.5407 150.779C97.5407 150.89 97.512 150.992 97.4547 151.085C97.399 151.176 97.3256 151.25 97.2345 151.305C97.1434 151.359 97.043 151.386 96.9333 151.386Z" fill="#4A5568"/>
<path d="M99.0561 151.386C98.8891 151.386 98.7457 151.327 98.6259 151.209C98.5078 151.089 98.4487 150.946 98.4487 150.779C98.4487 150.614 98.5078 150.472 98.6259 150.354C98.7457 150.236 98.8891 150.177 99.0561 150.177C99.2181 150.177 99.3598 150.236 99.4813 150.354C99.6028 150.472 99.6635 150.614 99.6635 150.779C99.6635 150.89 99.6349 150.992 99.5775 151.085C99.5218 151.176 99.4484 151.25 99.3573 151.305C99.2662 151.359 99.1658 151.386 99.0561 151.386Z" fill="#4A5568"/>
<path d="M101.179 151.386C101.012 151.386 100.868 151.327 100.749 151.209C100.631 151.089 100.572 150.946 100.572 150.779C100.572 150.614 100.631 150.472 100.749 150.354C100.868 150.236 101.012 150.177 101.179 150.177C101.341 150.177 101.483 150.236 101.604 150.354C101.726 150.472 101.786 150.614 101.786 150.779C101.786 150.89 101.758 150.992 101.7 151.085C101.645 151.176 101.571 151.25 101.48 151.305C101.389 151.359 101.289 151.386 101.179 151.386Z" fill="#4A5568"/>
<path d="M104.485 151.435C104.05 151.433 103.675 151.326 103.361 151.113C103.049 150.9 102.809 150.593 102.64 150.189C102.473 149.786 102.39 149.301 102.392 148.734C102.392 148.169 102.475 147.687 102.642 147.289C102.811 146.891 103.052 146.588 103.364 146.38C103.678 146.171 104.051 146.066 104.485 146.066C104.919 146.066 105.292 146.171 105.604 146.38C105.917 146.589 106.159 146.893 106.328 147.291C106.496 147.688 106.58 148.169 106.578 148.734C106.578 149.303 106.494 149.789 106.325 150.192C106.158 150.595 105.918 150.903 105.606 151.116C105.294 151.328 104.92 151.435 104.485 151.435ZM104.485 150.526C104.782 150.526 105.019 150.377 105.196 150.078C105.373 149.779 105.461 149.331 105.459 148.734C105.459 148.341 105.419 148.014 105.338 147.752C105.259 147.49 105.146 147.294 104.999 147.162C104.854 147.031 104.682 146.965 104.485 146.965C104.19 146.965 103.953 147.113 103.776 147.408C103.599 147.703 103.51 148.145 103.508 148.734C103.508 149.132 103.548 149.465 103.627 149.731C103.708 149.996 103.822 150.195 103.969 150.329C104.115 150.46 104.288 150.526 104.485 150.526Z" fill="#4A5568"/>
<path d="M108.136 151.321L107.079 147.433H108.169L108.772 150.045H108.807L109.435 147.433H110.505L111.143 150.03H111.176L111.768 147.433H112.857L111.801 151.321H110.66L109.992 148.876H109.944L109.275 151.321H108.136Z" fill="#4A5568"/>
<path d="M114.51 146.137V151.321H113.432V146.137H114.51Z" fill="#4A5568"/>
<path d="M116.452 149.073V151.321H115.374V146.137H116.422V148.119H116.467C116.555 147.89 116.697 147.71 116.892 147.58C117.088 147.448 117.333 147.382 117.629 147.382C117.899 147.382 118.134 147.442 118.335 147.56C118.537 147.676 118.694 147.844 118.806 148.063C118.919 148.281 118.974 148.542 118.973 148.845V151.321H117.895V149.038C117.896 148.798 117.835 148.612 117.712 148.478C117.591 148.345 117.42 148.278 117.201 148.278C117.054 148.278 116.924 148.31 116.811 148.372C116.7 148.435 116.612 148.526 116.548 148.645C116.486 148.764 116.454 148.906 116.452 149.073Z" fill="#4A5568"/>
<defs>
<linearGradient id="paint0_linear_7126_205188" x1="9.59248" y1="35.3273" x2="33.8616" y2="75.2675" gradientUnits="userSpaceOnUse">
<stop stop-color="#BD30FF"/>
<stop offset="1" stop-color="#7D00FF"/>
</linearGradient>
<linearGradient id="paint1_linear_7126_205188" x1="158.036" y1="124.214" x2="175.337" y2="139.737" gradientUnits="userSpaceOnUse">
<stop stop-color="#BD30FF"/>
<stop offset="1" stop-color="#7D00FF"/>
</linearGradient>
<linearGradient id="paint2_linear_7126_205188" x1="158.036" y1="124.214" x2="175.337" y2="139.737" gradientUnits="userSpaceOnUse">
<stop stop-color="#BD30FF"/>
<stop offset="1" stop-color="#7D00FF"/>
</linearGradient>
<linearGradient id="paint3_linear_7126_205188" x1="104.78" y1="102.226" x2="171.79" y2="156.416" gradientUnits="userSpaceOnUse">
<stop stop-color="#BD30FF"/>
<stop offset="1" stop-color="#7D00FF"/>
</linearGradient>
<linearGradient id="paint4_linear_7126_205188" x1="104.78" y1="102.226" x2="171.79" y2="156.416" gradientUnits="userSpaceOnUse">
<stop stop-color="#BD30FF"/>
<stop offset="1" stop-color="#7D00FF"/>
</linearGradient>
<linearGradient id="paint5_linear_7126_205188" x1="118.02" y1="11" x2="158.643" y2="32.3658" gradientUnits="userSpaceOnUse">
<stop stop-color="#7D00FF"/>
<stop offset="1" stop-color="#9D21FF"/>
</linearGradient>
<linearGradient id="paint6_linear_7126_205188" x1="98.2095" y1="11.0127" x2="146.036" y2="49.0164" gradientUnits="userSpaceOnUse">
<stop stop-color="#7D00FF"/>
<stop offset="1" stop-color="#9D21FF"/>
</linearGradient>
<linearGradient id="paint7_linear_7126_205188" x1="110.711" y1="21.8737" x2="134.016" y2="32.9198" gradientUnits="userSpaceOnUse">
<stop stop-color="#BD30FF"/>
<stop offset="1" stop-color="#7D00FF"/>
</linearGradient>
<linearGradient id="paint8_linear_7126_205188" x1="157.702" y1="30" x2="192.662" y2="48.3872" gradientUnits="userSpaceOnUse">
<stop stop-color="#7D00FF"/>
<stop offset="1" stop-color="#9D21FF"/>
</linearGradient>
<linearGradient id="paint9_linear_7126_205188" x1="140.654" y1="30.0107" x2="181.813" y2="62.7163" gradientUnits="userSpaceOnUse">
<stop stop-color="#7D00FF"/>
<stop offset="1" stop-color="#9D21FF"/>
</linearGradient>
<linearGradient id="paint10_linear_7126_205188" x1="151.412" y1="39.3572" x2="171.468" y2="48.8633" gradientUnits="userSpaceOnUse">
<stop stop-color="#BD30FF"/>
<stop offset="1" stop-color="#7D00FF"/>
</linearGradient>
<linearGradient id="paint11_linear_7126_205188" x1="67.9347" y1="138.545" x2="92.2038" y2="178.485" gradientUnits="userSpaceOnUse">
<stop stop-color="#BD30FF"/>
<stop offset="1" stop-color="#7D00FF"/>
</linearGradient>
</defs>
</svg>
