<svg width="191" height="167" viewBox="0 0 191 167" fill="none" xmlns="http://www.w3.org/2000/svg">
<g style="mix-blend-mode:multiply">
<path d="M89.8464 40.1828C89.8464 60.0037 73.7784 76.0717 53.9575 76.0717C34.1366 76.0717 18.0686 60.0037 18.0686 40.1828C18.0686 20.3619 34.1366 4.29395 53.9575 4.29395C73.7784 4.29395 89.8464 20.3619 89.8464 40.1828Z" fill="#E2E8F0"/>
</g>
<path d="M82.0037 35.3611C82.0037 54.8905 66.172 70.7222 46.6426 70.7222C27.1132 70.7222 11.2815 54.8905 11.2815 35.3611C11.2815 15.8317 27.1132 0 46.6426 0C66.172 0 82.0037 15.8317 82.0037 35.3611Z" fill="white"/>
<path fill-rule="evenodd" clip-rule="evenodd" d="M46.7652 67.2648C64.3174 67.2648 78.5463 53.0359 78.5463 35.4837C78.5463 17.9315 64.3174 3.70265 46.7652 3.70265C29.213 3.70265 14.9841 17.9315 14.9841 35.4837C14.9841 53.0359 29.213 67.2648 46.7652 67.2648ZM46.7652 70.9674C66.3623 70.9674 82.249 55.0808 82.249 35.4837C82.249 15.8866 66.3623 0 46.7652 0C27.1681 0 11.2815 15.8866 11.2815 35.4837C11.2815 55.0808 27.1681 70.9674 46.7652 70.9674Z" fill="#FAAD14"/>
<path d="M60.0749 27.4073C59.6224 22.6875 55.5488 21.1032 50.4036 20.6507V17.6274H46.4198V20.4782C45.373 20.4782 44.3026 20.4983 43.2382 20.5183V17.625H39.2567V20.6471C38.3942 20.6637 33.0955 20.6589 33.0955 20.6589L33.0837 24.1714L36.4082 24.1903V47.2106H33.0848L33.0553 50.6734C34.0205 50.6734 38.3163 50.6923 39.2472 50.6982V53.6826H43.2287V50.7691C44.3204 50.7928 45.3789 50.8022 46.4115 50.801V53.6837H50.3965V50.7124C57.0965 50.3308 61.788 48.6449 62.3704 42.3549C62.843 37.2889 60.4612 35.03 56.6582 34.1108C58.9691 32.9294 60.414 30.8607 60.0773 27.4061L60.0749 27.4073ZM54.4926 41.5645C54.4926 46.5136 46.0205 45.9477 43.3173 45.9489V37.1755C46.0193 37.1755 54.4879 36.404 54.489 41.5645H54.4926ZM52.6436 29.1854C52.6436 33.6879 45.5739 33.1598 43.3232 33.1598V25.2016C45.5774 25.2028 52.646 24.4892 52.6436 29.1854Z" fill="#FAAD14"/>
<g opacity="0.4">
<mask id="mask0_7126_207627" style="mask-type:alpha" maskUnits="userSpaceOnUse" x="21" y="53" width="149" height="87">
<rect x="22.3351" y="54.333" width="146.778" height="84.5" fill="#E2E8F0" stroke="url(#paint0_linear_7126_207627)"/>
</mask>
<g mask="url(#mask0_7126_207627)">
<path d="M212.244 214.572C204.389 196.971 188.386 169.31 136.514 182.338C70.5027 198.918 87.1487 242.527 36.6434 222.409M200.371 209.492C192.517 191.891 176.514 164.23 124.641 177.258C58.6301 193.838 75.276 237.447 24.7707 217.329M189.446 204.197C181.592 186.595 165.588 158.935 113.716 171.963C47.7048 188.543 64.3508 232.152 13.8455 212.034M179.741 198.664C171.887 181.063 155.884 153.402 104.011 166.431C38.0001 183.01 54.646 226.619 4.14074 206.501M171.564 192.894C163.709 175.292 147.706 147.632 95.8338 160.66C29.8226 177.239 46.4686 220.849 -4.03672 200.731M165.245 186.899C157.39 169.297 141.387 141.637 89.5149 154.665C23.5037 171.244 40.1497 214.853 -10.3556 194.735M161.002 180.745C153.147 163.144 137.144 135.483 85.2719 148.511C19.2607 165.091 35.9067 208.7 -14.5986 188.582M158.859 174.506C151.004 156.905 135.001 129.244 83.1287 142.272C17.1176 158.852 33.7635 202.461 -16.7418 182.343M158.591 168.263C150.737 150.662 134.734 123.001 82.8614 136.03C16.8502 152.609 33.4961 196.218 -17.0092 176.1M159.807 162.05C151.953 144.448 135.949 116.788 84.0772 129.816C18.066 146.396 34.712 190.005 -15.7933 169.887M162.071 155.889C154.216 138.287 138.213 110.627 86.3407 123.655C20.3296 140.234 36.9755 183.844 -13.5298 163.726M164.975 149.761C157.121 132.159 141.118 104.499 89.2453 117.527C23.2342 134.107 39.8801 177.716 -10.6252 157.598M168.194 143.661C160.34 126.06 144.336 98.3994 92.464 111.428C26.4529 128.007 43.0988 171.616 -7.40646 151.498M171.463 137.563C163.608 119.961 147.605 92.3008 95.7329 105.329C29.7217 121.908 46.3677 165.518 -4.13761 145.4M174.59 131.455C166.735 113.853 150.732 86.1926 98.8599 99.2208C32.8487 115.8 49.4946 159.409 -1.01063 139.291M177.435 125.327C169.581 107.725 153.577 80.065 101.705 93.0932C35.6939 109.673 52.3398 153.282 1.83455 133.164M179.891 119.178C172.036 101.577 156.033 73.9164 104.161 86.9446C38.1498 103.524 54.7957 147.133 4.29047 127.015M181.888 113C174.033 95.398 158.03 67.7377 106.158 80.7659C40.1465 97.3452 56.7924 140.955 6.28716 120.836M183.408 106.764C175.553 89.1624 159.55 61.5021 107.677 74.5303C41.6663 91.1096 58.3122 134.719 7.80697 114.601M184.593 100.551C176.738 82.9489 160.735 55.2886 108.863 68.3168C42.8516 84.8961 59.4976 128.505 8.99228 108.387M185.508 94.3301C177.653 76.7285 161.65 49.0682 109.778 62.0964C43.7665 78.6757 60.4124 122.285 9.90713 102.167M186.107 88.1015C178.253 70.4998 162.25 42.8395 110.377 55.8677C44.3661 72.447 61.0121 116.056 10.5068 95.9383M186.344 81.8602C178.489 64.2585 162.486 36.5982 110.613 49.6264C44.6023 66.2057 61.2483 109.815 10.743 89.6969M186.16 75.6166C178.305 58.0149 162.302 30.3546 110.429 43.3828C44.4182 59.9621 61.0641 103.571 10.5589 83.4533M185.475 69.3706C177.62 51.7689 161.617 24.1086 109.745 37.1368C43.7334 53.7161 60.3793 97.3254 9.87401 77.2073M184.18 63.1201C176.325 45.5185 160.322 17.8581 108.45 30.8864C42.4388 47.4657 59.0847 91.075 8.57944 70.9569M182.123 56.8821C174.269 39.2805 158.266 11.6202 106.393 24.6484C40.3822 41.2277 57.0281 84.837 6.52283 64.7189M179.094 50.6697C171.239 33.068 155.236 5.40773 103.364 18.4359C37.3525 35.0152 53.9984 78.6245 3.49313 58.5064M174.768 44.5179C166.913 26.9162 150.91 -0.744089 99.0377 12.2841C33.0265 28.8634 49.6725 72.4727 -0.832816 52.3546M168.968 38.527C161.114 20.9254 145.11 -6.73493 93.2382 6.29327C27.227 22.8726 43.873 66.4819 -6.63231 46.3638" stroke="url(#paint1_linear_7126_207627)"/>
</g>
</g>
<path d="M180.169 125.083C180.169 147.527 161.974 165.722 139.53 165.722C117.086 165.722 98.8909 147.527 98.8909 125.083C98.8909 102.639 117.086 84.4443 139.53 84.4443C161.974 84.4443 180.169 102.639 180.169 125.083Z" fill="white"/>
<path d="M180.745 131.038C180.745 150.859 164.677 166.927 144.856 166.927C125.035 166.927 108.967 150.859 108.967 131.038C108.967 111.217 125.035 95.1494 144.856 95.1494C164.677 95.1494 180.745 111.217 180.745 131.038Z" fill="#E2E8F0"/>
<path d="M173.837 124.554C173.837 143.209 158.714 158.332 140.059 158.332C121.404 158.332 106.281 143.209 106.281 124.554C106.281 105.899 121.404 90.7764 140.059 90.7764C158.714 90.7764 173.837 105.899 173.837 124.554Z" fill="white"/>
<path fill-rule="evenodd" clip-rule="evenodd" d="M190.724 89.0762V89.5909L190.717 97.3127V99.7906H171.341C170.642 98.9119 169.906 98.0628 169.138 97.2456V83.7498C169.138 83.7498 166.509 82.1712 165.173 81.2514V93.554C164.837 93.2805 164.497 93.0122 164.152 92.7494V80.5513C162.8 79.595 161.446 78.5677 160.09 77.4695V90.0205C159.761 89.8277 159.43 89.6394 159.097 89.4556V76.6458L159.083 76.6389C159.083 76.6389 156.418 74.3464 154.971 72.9737V87.4799C154.638 87.343 154.303 87.2104 153.965 87.0822L153.957 72.0127C152.484 70.5851 151.006 69.0704 149.524 67.4689V85.6817C149.197 85.599 148.868 85.5202 148.538 85.4455V66.3775C147.186 64.8767 145.834 63.3094 144.482 61.6758C144.4 61.773 144.306 61.8606 144.203 61.9367V84.7094C143.38 84.6152 142.55 84.5456 141.713 84.5013V62.0877C141.593 62.0168 141.483 61.9315 141.385 61.8337C139.986 63.5634 138.588 65.2244 137.189 66.7962V84.5099C136.852 84.529 136.517 84.5523 136.182 84.5795V67.9219C134.709 69.5509 133.231 71.093 131.749 72.5481V85.1877C131.404 85.2547 131.06 85.326 130.718 85.4017L130.693 73.5228C129.274 74.8749 126.588 77.2018 126.588 77.2018V86.5476C126.263 86.657 125.939 86.7704 125.617 86.8878V78.0392C124.265 79.1374 122.91 80.1601 121.554 81.1073V88.6254C121.218 88.7913 120.885 88.9618 120.554 89.1367V81.7868C119.211 82.6882 117.869 83.5165 116.526 84.2715H116.582V91.5379C116.245 91.7689 115.912 92.0048 115.582 92.2456V84.8C114.226 85.5276 112.869 86.1796 111.513 86.7562V95.645C111.171 95.97 110.836 96.3008 110.506 96.6374V87.168C109.088 87.7351 107.641 88.2277 106.17 88.6437V97.3127H109.859C109.113 98.1093 108.399 98.9359 107.718 99.7906H49.4543V114.719H52.0274C53.132 114.719 54.0274 115.615 54.0274 116.719V117.277C54.0274 118.381 53.132 119.277 52.0274 119.277H44.336C43.2314 119.277 42.336 118.381 42.336 117.277V116.719C42.336 115.615 43.2314 114.719 44.336 114.719H46.916V99.7906L0.723633 99.9004V90.0096V89.0762C12.4431 89.0762 24.4212 83.187 36.4832 71.5529L36.5951 71.4499C38.3712 69.7477 40.1473 67.9173 41.9234 65.9589L42.266 65.5813C43.5853 64.1171 44.9045 62.5841 46.2238 60.9826C46.1376 60.7633 46.0903 60.5312 46.0839 60.2962C46.0839 59.7337 46.3116 59.1942 46.7168 58.7965C47.122 58.3987 47.6716 58.1753 48.2446 58.1753C48.8177 58.1753 49.3672 58.3987 49.7724 58.7965C50.1776 59.1942 50.4053 59.7337 50.4053 60.2962C50.4031 60.5298 50.363 60.7615 50.2864 60.9826C51.7409 62.7535 53.193 64.4374 54.6427 66.0344L54.8945 66.302C68.7256 81.4367 82.5358 89.0762 95.9194 89.0762H96.2271C107.709 88.9938 119.253 83.3037 130.721 72.1226L130.875 71.9784C132.665 70.2556 134.406 68.3955 136.161 66.4119L136.441 66.0961C137.881 64.4625 139.329 62.726 140.769 60.914C140.702 60.7147 140.666 60.5062 140.664 60.2962C140.648 60.008 140.691 59.7195 140.792 59.4483C140.893 59.1771 141.049 58.929 141.251 58.7192C141.453 58.5093 141.696 58.3421 141.966 58.2279C142.236 58.1136 142.527 58.0547 142.822 58.0547C143.116 58.0547 143.407 58.1136 143.677 58.2279C143.947 58.3421 144.19 58.5093 144.392 58.7192C144.594 58.929 144.75 59.1771 144.851 59.4483C144.952 59.7195 144.995 60.008 144.979 60.2962C144.978 60.4205 144.966 60.5445 144.944 60.6669C146.366 62.3874 147.776 64.0347 149.174 65.6088L149.517 65.9863C151.298 67.9356 153.076 69.766 154.852 71.4774L154.957 71.5803C163.404 79.7139 171.858 85.0334 180.186 87.4906L180.543 87.6004C182.059 88.031 183.6 88.3725 185.158 88.6231L185.528 88.6712C187.247 88.9319 188.984 89.0673 190.724 89.0762ZM1.72356 97.402H5.91905V89.6939C4.52874 89.8933 3.12796 90.0148 1.72356 90.0577V97.402ZM6.92597 97.402H10.9047V88.6437C9.59513 89.0087 8.26709 89.3066 6.92597 89.536V97.402ZM11.9116 97.402H16.247V86.7768C14.7972 87.3671 13.3521 87.891 11.9116 88.3486V97.402ZM17.2539 97.402H21.3235V84.2715C19.9576 85.0402 18.6011 85.7266 17.2539 86.3306V97.402ZM22.3234 97.402H26.2952V81.2514C24.9456 82.1712 23.5961 83.0086 22.2535 83.7842H22.3234V97.402ZM27.2951 97.402H31.3577V77.4695C30.0012 78.5677 28.6516 79.5972 27.2951 80.5513V97.402ZM32.3647 97.402H36.4832L36.4553 73.0354C35.0078 74.4082 32.3647 76.687 32.3647 76.687V97.402ZM37.4902 97.402H41.9234V67.4689C40.4503 69.0704 38.9726 70.5851 37.4902 72.0127V97.402ZM42.9303 66.3775V97.402L46.923 97.3127V61.971L46.8111 61.8818C45.5199 63.4467 44.2263 64.9453 42.9303 66.3775ZM49.4543 97.3127H53.8666L53.9015 66.6658C52.503 65.1466 51.1045 63.5451 49.706 61.8612C49.6286 61.9371 49.5444 62.006 49.4543 62.0671V97.3127ZM54.8945 97.3127H59.3067L59.3277 72.3079C57.8453 70.8894 56.3676 69.3862 54.8945 67.7984V97.3127ZM64.4322 97.3127V76.8792L64.4532 76.8723C64.4532 76.8723 61.859 74.6622 60.3067 73.2345V97.3127H64.4322ZM65.4601 97.3127H69.5158V80.7504C68.1662 79.8032 66.8097 78.7873 65.4601 77.696V97.3127ZM74.4874 97.3127V83.9146V83.9077C74.4874 83.9077 72.0471 82.4457 70.5227 81.4436V97.3127H74.4874ZM75.4944 97.3127H79.564V86.4679C78.2074 85.8776 76.8509 85.205 75.4944 84.4637V97.3127ZM80.5709 97.3127H84.9062V88.431C83.4356 87.9906 81.9887 87.4774 80.5709 86.8935V97.3127ZM85.9132 97.3127H89.8919V89.5909C88.5516 89.3659 87.2237 89.075 85.9132 88.7192V97.3127ZM90.9268 97.3127H94.9684L94.9964 90.092C93.6347 90.057 92.276 89.947 90.9268 89.7625V97.3127ZM95.9684 97.3127H100.164L100.157 89.8312C98.8548 89.9841 97.5453 90.0689 96.2341 90.0851H95.9684V97.3127ZM101.171 97.3127H105.15V88.9183C103.837 89.2443 102.51 89.5054 101.171 89.7008V97.3127ZM170.131 97.3127H174.2V86.3718C172.844 85.7449 171.487 85.0585 170.131 84.3127V97.3127ZM175.207 97.3127H179.543V88.3486C178.095 87.9024 176.655 87.3808 175.207 86.7768V97.3127ZM180.55 97.3127H184.528V89.536C183.187 89.3073 181.859 89.0095 180.55 88.6437V97.3127ZM185.528 97.3127H189.724V90.0577C188.319 90.0151 186.918 89.8937 185.528 89.6939V97.3127Z" fill="#718096"/>
<path fill-rule="evenodd" clip-rule="evenodd" d="M139.242 157.151C157.112 157.151 171.599 142.664 171.599 124.794C171.599 106.923 157.112 92.4359 139.242 92.4359C121.371 92.4359 106.884 106.923 106.884 124.794C106.884 142.664 121.371 157.151 139.242 157.151ZM139.242 160.921C159.194 160.921 175.369 144.746 175.369 124.794C175.369 104.841 159.194 88.666 139.242 88.666C119.289 88.666 103.114 104.841 103.114 124.794C103.114 144.746 119.289 160.921 139.242 160.921Z" fill="url(#paint2_linear_7126_207627)"/>
<path d="M131.835 121.787H126.45V127.172H131.835V121.787Z" fill="url(#paint3_linear_7126_207627)"/>
<path d="M126.45 116.402H121.064V121.787L126.45 121.787L126.45 116.402Z" fill="url(#paint4_linear_7126_207627)"/>
<path d="M121.064 121.787L115.679 121.787V127.172H121.064L121.064 121.787Z" fill="url(#paint5_linear_7126_207627)"/>
<path d="M126.45 127.172H121.064L121.064 132.557H126.45L126.45 127.172Z" fill="url(#paint6_linear_7126_207627)"/>
<path d="M156.819 117.581C156.446 113.634 153.085 112.308 148.84 111.93V109.401H145.554V111.786C144.69 111.786 143.807 111.803 142.929 111.819V109.399H139.644V111.927C138.932 111.941 134.561 111.937 134.561 111.937L134.551 114.875L137.294 114.89V134.144H134.552L134.528 137.04C135.324 137.04 138.868 137.056 139.636 137.061V139.557H142.921V137.12C143.822 137.14 144.695 137.148 145.547 137.147V139.558H148.834V137.073C154.362 136.754 158.233 135.344 158.713 130.083C159.103 125.846 157.138 123.957 154 123.188C155.907 122.2 157.099 120.469 156.821 117.58L156.819 117.581ZM152.214 129.422C152.214 133.561 145.224 133.088 142.994 133.089V125.751C145.223 125.751 152.21 125.106 152.211 129.422H152.214ZM150.688 119.068C150.688 122.834 144.856 122.392 142.999 122.392V115.736C144.859 115.737 150.69 115.14 150.688 119.068Z" fill="url(#paint7_linear_7126_207627)"/>
<defs>
<linearGradient id="paint0_linear_7126_207627" x1="26.2027" y1="57.2025" x2="132.786" y2="164.384" gradientUnits="userSpaceOnUse">
<stop stop-color="#BD30FF"/>
<stop offset="1" stop-color="#7D00FF"/>
</linearGradient>
<linearGradient id="paint1_linear_7126_207627" x1="-10.2335" y1="11.7719" x2="235.667" y2="157.746" gradientUnits="userSpaceOnUse">
<stop stop-color="#BD30FF"/>
<stop offset="1" stop-color="#7D00FF"/>
</linearGradient>
<linearGradient id="paint2_linear_7126_207627" x1="105.249" y1="91.5135" x2="183.556" y2="137.074" gradientUnits="userSpaceOnUse">
<stop stop-color="#BD30FF"/>
<stop offset="1" stop-color="#7D00FF"/>
</linearGradient>
<linearGradient id="paint3_linear_7126_207627" x1="116.952" y1="110.588" x2="153.914" y2="141.31" gradientUnits="userSpaceOnUse">
<stop stop-color="#BD30FF"/>
<stop offset="1" stop-color="#7D00FF"/>
</linearGradient>
<linearGradient id="paint4_linear_7126_207627" x1="116.952" y1="110.588" x2="153.914" y2="141.31" gradientUnits="userSpaceOnUse">
<stop stop-color="#BD30FF"/>
<stop offset="1" stop-color="#7D00FF"/>
</linearGradient>
<linearGradient id="paint5_linear_7126_207627" x1="116.952" y1="110.588" x2="153.914" y2="141.31" gradientUnits="userSpaceOnUse">
<stop stop-color="#BD30FF"/>
<stop offset="1" stop-color="#7D00FF"/>
</linearGradient>
<linearGradient id="paint6_linear_7126_207627" x1="116.952" y1="110.588" x2="153.914" y2="141.31" gradientUnits="userSpaceOnUse">
<stop stop-color="#BD30FF"/>
<stop offset="1" stop-color="#7D00FF"/>
</linearGradient>
<linearGradient id="paint7_linear_7126_207627" x1="116.952" y1="110.588" x2="153.914" y2="141.31" gradientUnits="userSpaceOnUse">
<stop stop-color="#BD30FF"/>
<stop offset="1" stop-color="#7D00FF"/>
</linearGradient>
</defs>
</svg>
