<svg width="431" height="104" viewBox="0 0 431 104" fill="none" xmlns="http://www.w3.org/2000/svg">
<path d="M14.5938 15.5996C14.5938 14.0592 14.5768 12.6458 14.543 11.3594C14.526 10.0729 14.5007 8.95573 14.4668 8.00781C14.4499 7.04297 14.4245 6.28125 14.3906 5.72266C14.3737 5.16406 14.3652 4.83398 14.3652 4.73242C14.0267 4.49544 13.6374 4.36849 13.1973 4.35156C12.7741 4.33464 12.3509 4.32617 11.9277 4.32617C11.3353 4.32617 10.6243 4.47005 9.79492 4.75781C8.96549 5.02865 8.16146 5.42643 7.38281 5.95117C6.60417 6.45898 5.94401 7.09375 5.40234 7.85547C4.86068 8.60026 4.58984 9.43815 4.58984 10.3691C4.58984 10.9108 4.65755 11.3424 4.79297 11.6641C4.94531 11.9857 5.11458 12.2311 5.30078 12.4004C5.50391 12.5527 5.69857 12.6543 5.88477 12.7051C6.08789 12.7389 6.23177 12.7559 6.31641 12.7559C6.73958 12.7559 7.08659 12.6882 7.35742 12.5527C7.62826 12.4004 7.8737 12.248 8.09375 12.0957C8.3138 11.9264 8.51693 11.7741 8.70312 11.6387C8.90625 11.4863 9.13477 11.4102 9.38867 11.4102C9.5918 11.4102 9.80339 11.4609 10.0234 11.5625C10.2604 11.6471 10.472 11.791 10.6582 11.9941C10.8613 12.1973 11.0306 12.4681 11.166 12.8066C11.3014 13.1283 11.3691 13.526 11.3691 14C11.3691 14.6771 11.2337 15.2611 10.9629 15.752C10.709 16.2428 10.3704 16.6576 9.94727 16.9961C9.54102 17.3177 9.06706 17.5632 8.52539 17.7324C8.00065 17.8848 7.47591 17.9609 6.95117 17.9609C6.13867 17.9609 5.40234 17.8255 4.74219 17.5547C4.09896 17.2669 3.54883 16.8776 3.0918 16.3867C2.63477 15.8958 2.28776 15.3203 2.05078 14.6602C1.8138 14 1.69531 13.2975 1.69531 12.5527C1.69531 10.7923 2.05924 9.26042 2.78711 7.95703C3.5319 6.63672 4.51367 5.53646 5.73242 4.65625C6.9681 3.77604 8.38151 3.12435 9.97266 2.70117C11.5807 2.26107 13.2396 2.04102 14.9492 2.04102C16.4896 2.04102 17.7591 2.14258 18.7578 2.3457C19.7565 2.54883 20.569 2.81966 21.1953 3.1582C21.8216 3.49674 22.3125 3.90299 22.668 4.37695C23.0234 4.83398 23.3281 5.31641 23.582 5.82422C24.6146 7.92318 25.6133 9.98828 26.5781 12.0195C27.5599 14.0508 28.4993 16.0312 29.3965 17.9609C30.3105 19.8906 31.1908 21.7526 32.0371 23.5469C32.9004 25.3242 33.7383 27.0085 34.5508 28.5996V24.9688V17.123C34.5508 15.7181 34.5846 14.347 34.6523 13.0098C34.737 11.6556 34.8978 10.3861 35.1348 9.20117C35.3887 7.99935 35.7611 6.89909 36.252 5.90039C36.7428 4.90169 37.3945 4.03841 38.207 3.31055C39.0365 2.58268 40.0605 2.01562 41.2793 1.60938C42.498 1.20312 43.9622 1 45.6719 1C46.5352 1 47.3307 1.06771 48.0586 1.20312C48.7865 1.32161 49.4128 1.49935 49.9375 1.73633C50.4792 1.97331 50.9023 2.26953 51.207 2.625C51.5117 2.96354 51.6641 3.3444 51.6641 3.76758C51.6641 4.03841 51.6217 4.32617 51.5371 4.63086C51.4694 4.91862 51.3594 5.18099 51.207 5.41797C51.0547 5.65495 50.86 5.85807 50.623 6.02734C50.403 6.17969 50.1406 6.25586 49.8359 6.25586C49.582 6.25586 49.3451 6.07812 49.125 5.72266C48.9219 5.36719 48.6595 4.97786 48.3379 4.55469C48.0332 4.11458 47.6185 3.7168 47.0938 3.36133C46.5859 3.00586 45.8919 2.82812 45.0117 2.82812C43.6406 2.82812 42.498 3.07357 41.584 3.56445C40.6868 4.03841 39.959 4.71549 39.4004 5.5957C38.8418 6.47591 38.4271 7.55078 38.1562 8.82031C37.9023 10.0729 37.7415 11.4694 37.6738 13.0098C37.64 14.0762 37.6061 15.1172 37.5723 16.1328C37.5553 17.1315 37.5384 18.1471 37.5215 19.1797C37.5215 20.2122 37.5215 21.2871 37.5215 22.4043C37.5215 23.5046 37.5215 24.6895 37.5215 25.959C37.5215 27.7533 37.5299 29.3613 37.5469 30.7832C37.5638 32.2051 37.5892 33.373 37.623 34.2871C38.3848 35.5905 39.138 36.7669 39.8828 37.8164C40.6276 38.849 41.3555 39.7207 42.0664 40.4316C42.7943 41.1595 43.5221 41.7181 44.25 42.1074C44.9779 42.4967 45.7142 42.6914 46.459 42.6914C46.696 42.6914 46.9245 42.6576 47.1445 42.5898C47.3646 42.5221 47.5592 42.446 47.7285 42.3613C47.9147 42.2767 48.1009 42.1667 48.2871 42.0312L49.0996 43.0215C48.8626 43.1908 48.5241 43.3939 48.084 43.6309C47.6608 43.8678 47.1361 44.0964 46.5098 44.3164C45.9004 44.5365 45.1979 44.7227 44.4023 44.875C43.6068 45.0273 42.735 45.1035 41.7871 45.1035C40.416 45.1035 39.0957 44.765 37.8262 44.0879C36.5736 43.4277 35.3633 42.5137 34.1953 41.3457C33.0273 40.1777 31.9102 38.8151 30.8438 37.2578C29.7773 35.6836 28.7448 33.9993 27.7461 32.2051C26.7643 30.4108 25.8164 28.5404 24.9023 26.5938C23.9883 24.6471 23.0996 22.7259 22.2363 20.8301C21.39 18.9173 20.569 17.0723 19.7734 15.2949C18.9948 13.5007 18.2331 11.8587 17.4883 10.3691C17.4883 11.3509 17.4967 12.3665 17.5137 13.416C17.5306 14.4655 17.5391 15.5234 17.5391 16.5898V24.4609C17.5391 25.8659 17.5052 27.237 17.4375 28.5742C17.3698 29.9115 17.209 31.181 16.9551 32.3828C16.7012 33.5677 16.3288 34.668 15.8379 35.6836C15.3639 36.6823 14.7122 37.5456 13.8828 38.2734C13.0534 39.0013 12.0293 39.5684 10.8105 39.9746C9.5918 40.3809 8.1276 40.584 6.41797 40.584C5.55469 40.584 4.75911 40.5163 4.03125 40.3809C3.30339 40.2624 2.66862 40.0846 2.12695 39.8477C1.60221 39.6107 1.19596 39.3229 0.908203 38.9844C0.603516 38.6458 0.451172 38.2565 0.451172 37.8164C0.451172 37.5456 0.49349 37.2663 0.578125 36.9785C0.645833 36.6738 0.755859 36.403 0.908203 36.166C1.06055 35.929 1.24674 35.7344 1.4668 35.582C1.68685 35.4128 1.94922 35.3281 2.25391 35.3281C2.42318 35.3281 2.57552 35.4128 2.71094 35.582C2.86328 35.7513 3.01562 35.9629 3.16797 36.2168C3.33724 36.4707 3.52344 36.75 3.72656 37.0547C3.94661 37.3424 4.20052 37.6133 4.48828 37.8672C4.79297 38.1211 5.1569 38.3327 5.58008 38.502C6.00326 38.6712 6.51107 38.7559 7.10352 38.7559C8.47461 38.7559 9.60872 38.5189 10.5059 38.0449C11.4199 37.554 12.1562 36.8685 12.7148 35.9883C13.2734 35.0911 13.6797 34.0163 13.9336 32.7637C14.1875 31.5111 14.3483 30.1061 14.416 28.5488C14.4668 27.4824 14.5007 26.4499 14.5176 25.4512C14.5345 24.4525 14.5514 23.4368 14.5684 22.4043C14.5853 21.3717 14.5938 20.2969 14.5938 19.1797C14.5938 18.0625 14.5938 16.8691 14.5938 15.5996ZM45.9512 27C45.9512 24.7826 46.2728 22.8444 46.916 21.1855C47.5592 19.5098 48.4141 18.1133 49.4805 16.9961C50.5638 15.8789 51.8164 15.041 53.2383 14.4824C54.6602 13.9238 56.1497 13.6445 57.707 13.6445C59.2643 13.6445 60.7539 13.9069 62.1758 14.4316C63.5977 14.9395 64.8418 15.7266 65.9082 16.793C66.9915 17.8594 67.8548 19.2135 68.498 20.8555C69.1413 22.4805 69.4629 24.4102 69.4629 26.6445C69.4629 28.862 69.1413 30.8255 68.498 32.5352C67.8548 34.2448 66.9915 35.6836 65.9082 36.8516C64.8418 38.0195 63.5977 38.9082 62.1758 39.5176C60.7539 40.11 59.2643 40.4062 57.707 40.4062C56.1497 40.4062 54.6602 40.127 53.2383 39.5684C51.8164 38.9928 50.5638 38.1465 49.4805 37.0293C48.4141 35.9121 47.5592 34.5156 46.916 32.8398C46.2728 31.1641 45.9512 29.2174 45.9512 27ZM61.5664 26.7461C61.5664 25.3919 61.5156 24.0885 61.4141 22.8359C61.3294 21.5664 61.1517 20.4408 60.8809 19.459C60.61 18.4772 60.2207 17.6986 59.7129 17.123C59.2051 16.5306 58.5365 16.2344 57.707 16.2344C56.8776 16.2344 56.209 16.5475 55.7012 17.1738C55.1934 17.7832 54.804 18.5957 54.5332 19.6113C54.2624 20.61 54.0846 21.7526 54 23.0391C53.9154 24.3255 53.873 25.6458 53.873 27C53.873 28.3542 53.9154 29.6829 54 30.9863C54.0846 32.2728 54.2624 33.4238 54.5332 34.4395C54.804 35.4551 55.1934 36.276 55.7012 36.9023C56.209 37.5117 56.8776 37.8164 57.707 37.8164C58.5365 37.8164 59.2051 37.4948 59.7129 36.8516C60.2207 36.2083 60.61 35.362 60.8809 34.3125C61.1517 33.263 61.3294 32.0781 61.4141 30.7578C61.5156 29.4375 61.5664 28.1003 61.5664 26.7461ZM100.262 27.3555C100.262 25.8828 100.186 24.5033 100.033 23.2168C99.8809 21.9134 99.6354 20.7793 99.2969 19.8145C98.9583 18.8327 98.5267 18.0625 98.002 17.5039C97.4772 16.9284 96.8424 16.6406 96.0977 16.6406C95.5221 16.6406 95.0312 16.7845 94.625 17.0723C94.2357 17.3431 93.9141 17.6562 93.6602 18.0117C93.4062 18.3672 93.2201 18.7227 93.1016 19.0781C92.9831 19.4167 92.9238 19.6452 92.9238 19.7637V27.3555C92.9238 31.0456 93.2285 33.7285 93.8379 35.4043C94.4642 37.0801 95.3783 37.918 96.5801 37.918C97.8496 37.918 98.7806 37.0632 99.373 35.3535C99.9655 33.6439 100.262 30.9779 100.262 27.3555ZM85.1289 4.96094C85.1289 4.47005 85.0104 4.04688 84.7734 3.69141C84.5534 3.31901 84.1725 3.13281 83.6309 3.13281C83.3431 3.13281 83.0892 3.18359 82.8691 3.28516C82.666 3.36979 82.446 3.50521 82.209 3.69141L81.7012 3.08203C82.0905 2.76042 82.5221 2.44727 82.9961 2.14258C83.487 1.82096 84.0117 1.54167 84.5703 1.30469C85.1289 1.06771 85.7298 0.873047 86.373 0.720703C87.0163 0.568359 87.6934 0.492188 88.4043 0.492188C89.3861 0.492188 90.1732 0.644531 90.7656 0.949219C91.375 1.23698 91.832 1.60091 92.1367 2.04102C92.4583 2.46419 92.6699 2.92969 92.7715 3.4375C92.873 3.92839 92.9238 4.38542 92.9238 4.80859V16.1328C93.127 15.9466 93.3893 15.7181 93.7109 15.4473C94.0326 15.1595 94.4388 14.8802 94.9297 14.6094C95.4206 14.3385 96.0046 14.11 96.6816 13.9238C97.3757 13.7376 98.1882 13.6445 99.1191 13.6445C100.202 13.6445 101.286 13.8984 102.369 14.4062C103.452 14.8971 104.426 15.6758 105.289 16.7422C106.152 17.8086 106.855 19.1797 107.396 20.8555C107.938 22.5312 108.209 24.5456 108.209 26.8984C108.209 28.7435 107.955 30.487 107.447 32.1289C106.956 33.7708 106.22 35.2096 105.238 36.4453C104.257 37.6641 103.029 38.6289 101.557 39.3398C100.084 40.0508 98.3743 40.4062 96.4277 40.4062C94.3118 40.4062 92.526 40.0677 91.0703 39.3906C89.6315 38.6966 88.472 37.7741 87.5918 36.623C86.7116 35.4551 86.0768 34.1009 85.6875 32.5605C85.3151 31.0202 85.1289 29.3952 85.1289 27.6855V4.96094ZM121.234 19.002C121.878 18.0202 122.563 17.1315 123.291 16.3359C123.596 15.9974 123.926 15.6673 124.281 15.3457C124.637 15.0241 125.001 14.7363 125.373 14.4824C125.762 14.2285 126.16 14.0254 126.566 13.873C126.973 13.7207 127.379 13.6445 127.785 13.6445C128.648 13.6445 129.326 13.9069 129.816 14.4316C130.307 14.9395 130.553 15.6589 130.553 16.5898C130.553 17.1654 130.502 17.724 130.4 18.2656C130.316 18.7904 130.138 19.4336 129.867 20.1953H129.156C129.055 19.6706 128.818 19.2389 128.445 18.9004C128.073 18.5449 127.531 18.3672 126.82 18.3672C126.296 18.3672 125.779 18.4688 125.271 18.6719C124.764 18.8581 124.264 19.0951 123.773 19.3828C123.299 19.6706 122.842 19.9837 122.402 20.3223C121.979 20.6608 121.59 20.9824 121.234 21.2871V37.7656C121.234 37.9857 121.201 38.248 121.133 38.5527C121.065 38.8574 120.896 39.1452 120.625 39.416C120.371 39.6868 119.982 39.9154 119.457 40.1016C118.949 40.3047 118.247 40.4062 117.35 40.4062C116.452 40.4062 115.742 40.2962 115.217 40.0762C114.709 39.873 114.32 39.6276 114.049 39.3398C113.778 39.0521 113.609 38.7559 113.541 38.4512C113.473 38.1465 113.439 37.901 113.439 37.7148V18.1133C113.439 17.6224 113.321 17.1992 113.084 16.8438C112.864 16.4714 112.483 16.2852 111.941 16.2852C111.654 16.2852 111.408 16.3359 111.205 16.4375C111.002 16.5391 110.782 16.6829 110.545 16.8691L110.012 16.2344C110.401 15.9128 110.833 15.5996 111.307 15.2949C111.798 14.9733 112.322 14.694 112.881 14.457C113.439 14.2201 114.04 14.0254 114.684 13.873C115.327 13.7207 116.004 13.6445 116.715 13.6445C117.443 13.6445 118.061 13.7461 118.568 13.9492C119.093 14.1354 119.516 14.3893 119.838 14.7109C120.176 15.0156 120.439 15.3626 120.625 15.752C120.811 16.1413 120.947 16.5391 121.031 16.9453C121.133 17.3346 121.192 17.7155 121.209 18.0879C121.226 18.4434 121.234 18.748 121.234 19.002ZM141.902 37.7148C141.902 37.9349 141.86 38.2057 141.775 38.5273C141.708 38.832 141.53 39.1283 141.242 39.416C140.971 39.6868 140.574 39.9154 140.049 40.1016C139.524 40.3047 138.813 40.4062 137.916 40.4062C137.019 40.4062 136.316 40.2962 135.809 40.0762C135.301 39.873 134.92 39.6276 134.666 39.3398C134.412 39.0521 134.251 38.7559 134.184 38.4512C134.133 38.1465 134.107 37.901 134.107 37.7148V18.1133C134.107 17.6224 133.989 17.1992 133.752 16.8438C133.532 16.4714 133.151 16.2852 132.609 16.2852C132.322 16.2852 132.076 16.3359 131.873 16.4375C131.67 16.5391 131.45 16.6829 131.213 16.8691L130.68 16.2344C131.069 15.9128 131.501 15.5996 131.975 15.2949C132.465 14.9733 132.99 14.694 133.549 14.457C134.107 14.2201 134.708 14.0254 135.352 13.873C135.995 13.7207 136.672 13.6445 137.383 13.6445C138.483 13.6445 139.338 13.7969 139.947 14.1016C140.557 14.3893 141.005 14.7533 141.293 15.1934C141.581 15.6165 141.75 16.0736 141.801 16.5645C141.868 17.0553 141.902 17.487 141.902 17.8594V37.7148ZM133.32 7.85547C133.32 7.38151 133.422 6.93294 133.625 6.50977C133.845 6.06966 134.141 5.6888 134.514 5.36719C134.903 5.04557 135.343 4.79167 135.834 4.60547C136.342 4.41927 136.892 4.32617 137.484 4.32617C138.06 4.32617 138.593 4.41927 139.084 4.60547C139.592 4.79167 140.032 5.04557 140.404 5.36719C140.777 5.6888 141.064 6.06966 141.268 6.50977C141.488 6.93294 141.598 7.38151 141.598 7.85547C141.598 8.34635 141.488 8.80339 141.268 9.22656C141.064 9.64974 140.777 10.0221 140.404 10.3438C140.032 10.6484 139.592 10.8939 139.084 11.0801C138.593 11.2663 138.06 11.3594 137.484 11.3594C136.892 11.3594 136.342 11.2663 135.834 11.0801C135.343 10.8939 134.903 10.6484 134.514 10.3438C134.141 10.0221 133.845 9.64974 133.625 9.22656C133.422 8.80339 133.32 8.34635 133.32 7.85547ZM162.418 26.2129C162.418 26.0267 162.418 25.6543 162.418 25.0957C162.418 24.5202 162.401 23.8685 162.367 23.1406C162.333 22.3958 162.274 21.6087 162.189 20.7793C162.105 19.9499 161.969 19.1797 161.783 18.4688C161.377 17.944 160.92 17.4785 160.412 17.0723C159.921 16.6491 159.286 16.4375 158.508 16.4375C157.188 16.4375 156.214 17.3008 155.588 19.0273C154.979 20.7539 154.674 23.4284 154.674 27.0508C154.674 28.6419 154.742 30.0977 154.877 31.418C155.029 32.7383 155.249 33.8724 155.537 34.8203C155.842 35.7682 156.223 36.5046 156.68 37.0293C157.154 37.554 157.712 37.8164 158.355 37.8164C161.064 37.8164 162.418 33.9486 162.418 26.2129ZM162.113 15.041C161.792 13.3483 161.343 11.7741 160.768 10.3184C160.192 8.8457 159.498 7.57617 158.686 6.50977C157.89 5.44336 156.976 4.60547 155.943 3.99609C154.928 3.38672 153.827 3.08203 152.643 3.08203C151.965 3.08203 151.348 3.16667 150.789 3.33594C150.247 3.50521 149.773 3.70833 149.367 3.94531C148.961 4.16536 148.622 4.38542 148.352 4.60547C148.098 4.80859 147.911 4.96094 147.793 5.0625L147.133 4.17383C147.539 3.64909 148.03 3.1582 148.605 2.70117C149.198 2.24414 149.841 1.85482 150.535 1.5332C151.229 1.21159 151.957 0.957682 152.719 0.771484C153.497 0.585286 154.268 0.492188 155.029 0.492188C157.535 0.492188 159.735 1.04232 161.631 2.14258C163.527 3.22591 165.109 4.76628 166.379 6.76367C167.648 8.76107 168.605 11.1732 169.248 14C169.891 16.8268 170.213 19.9668 170.213 23.4199C170.213 26.2129 169.925 28.6673 169.35 30.7832C168.791 32.8991 167.987 34.6764 166.938 36.1152C165.888 37.5371 164.61 38.612 163.104 39.3398C161.614 40.0508 159.93 40.4062 158.051 40.4062C156.747 40.4062 155.419 40.1777 154.064 39.7207C152.727 39.2467 151.508 38.485 150.408 37.4355C149.325 36.3861 148.436 35.015 147.742 33.3223C147.048 31.6126 146.701 29.5221 146.701 27.0508C146.701 24.918 146.997 23.0221 147.59 21.3633C148.199 19.7044 149.012 18.3079 150.027 17.1738C151.043 16.0228 152.219 15.151 153.557 14.5586C154.894 13.9492 156.307 13.6445 157.797 13.6445C158.372 13.6445 158.889 13.6953 159.346 13.7969C159.803 13.8815 160.201 13.9915 160.539 14.127C160.878 14.2624 161.174 14.4147 161.428 14.584C161.682 14.7363 161.91 14.8887 162.113 15.041ZM173.996 24.0293C173.996 22.3027 174.292 20.7962 174.885 19.5098C175.494 18.2064 176.307 17.123 177.322 16.2598C178.338 15.3796 179.514 14.7279 180.852 14.3047C182.189 13.8646 183.594 13.6445 185.066 13.6445C186.539 13.6445 187.936 13.8392 189.256 14.2285C190.576 14.6178 191.744 15.2188 192.76 16.0312C193.081 15.5404 193.344 15.0241 193.547 14.4824C193.75 13.9408 193.852 13.3991 193.852 12.8574C193.852 12.1465 193.657 11.5794 193.268 11.1562C192.895 10.7331 192.413 10.5215 191.82 10.5215V9.78516C192.193 9.66667 192.523 9.5651 192.811 9.48047C193.098 9.37891 193.361 9.30273 193.598 9.25195C193.835 9.20117 194.072 9.16732 194.309 9.15039C194.546 9.11654 194.808 9.09961 195.096 9.09961C195.891 9.09961 196.501 9.34505 196.924 9.83594C197.347 10.3268 197.559 11.0039 197.559 11.8672C197.559 12.375 197.44 12.8828 197.203 13.3906C196.966 13.8815 196.67 14.3555 196.314 14.8125C195.959 15.2695 195.561 15.7012 195.121 16.1074C194.698 16.5137 194.292 16.8691 193.902 17.1738C194.613 17.9863 195.163 18.9342 195.553 20.0176C195.942 21.1009 196.137 22.3366 196.137 23.7246C196.137 25.4681 195.832 27.0085 195.223 28.3457C194.63 29.6829 193.826 30.8086 192.811 31.7227C191.795 32.6367 190.618 33.3307 189.281 33.8047C187.944 34.2617 186.539 34.4902 185.066 34.4902C184.203 34.4902 183.357 34.4141 182.527 34.2617C181.698 34.1094 180.919 33.8893 180.191 33.6016C179.921 33.8047 179.684 34.0586 179.48 34.3633C179.294 34.668 179.201 35.0065 179.201 35.3789C179.201 36.0052 179.472 36.4707 180.014 36.7754C180.555 37.0801 181.275 37.3001 182.172 37.4355C183.069 37.571 184.085 37.6556 185.219 37.6895C186.353 37.7233 187.512 37.7826 188.697 37.8672C189.899 37.9349 191.067 38.0788 192.201 38.2988C193.335 38.502 194.351 38.849 195.248 39.3398C196.145 39.8138 196.865 40.4655 197.406 41.2949C197.948 42.1243 198.219 43.1992 198.219 44.5195C198.219 45.4844 198.016 46.3477 197.609 47.1094C197.203 47.888 196.653 48.5651 195.959 49.1406C195.282 49.7331 194.486 50.2324 193.572 50.6387C192.675 51.0618 191.719 51.4004 190.703 51.6543C189.704 51.9251 188.68 52.1198 187.631 52.2383C186.598 52.3568 185.608 52.416 184.66 52.416C182.934 52.416 181.376 52.3229 179.988 52.1367C178.617 51.9674 177.449 51.6966 176.484 51.3242C175.52 50.9518 174.775 50.4694 174.25 49.877C173.725 49.2845 173.463 48.5736 173.463 47.7441C173.463 47.1517 173.598 46.6016 173.869 46.0938C174.14 45.6029 174.495 45.1458 174.936 44.7227C175.393 44.3164 175.9 43.944 176.459 43.6055C177.018 43.2839 177.585 42.9792 178.16 42.6914C177.314 42.3359 176.603 41.7943 176.027 41.0664C175.469 40.3555 175.189 39.4076 175.189 38.2227C175.189 37.5964 175.299 37.0208 175.52 36.4961C175.74 35.9544 176.019 35.4635 176.357 35.0234C176.713 34.5664 177.094 34.1602 177.5 33.8047C177.923 33.4323 178.329 33.1191 178.719 32.8652C178.025 32.459 177.382 31.9681 176.789 31.3926C176.214 30.8001 175.714 30.14 175.291 29.4121C174.885 28.6673 174.563 27.8464 174.326 26.9492C174.106 26.0521 173.996 25.0788 173.996 24.0293ZM188.494 23.8262C188.494 22.8444 188.443 21.888 188.342 20.957C188.24 20.026 188.062 19.1966 187.809 18.4688C187.555 17.7409 187.208 17.1569 186.768 16.7168C186.327 16.2598 185.76 16.0312 185.066 16.0312C184.372 16.0312 183.805 16.2682 183.365 16.7422C182.925 17.1992 182.578 17.8086 182.324 18.5703C182.07 19.3151 181.893 20.1699 181.791 21.1348C181.689 22.0827 181.639 23.0475 181.639 24.0293C181.639 25.028 181.689 26.0098 181.791 26.9746C181.893 27.9395 182.07 28.8027 182.324 29.5645C182.578 30.3262 182.925 30.944 183.365 31.418C183.805 31.875 184.372 32.1035 185.066 32.1035C185.76 32.1035 186.327 31.8581 186.768 31.3672C187.208 30.8763 187.555 30.2415 187.809 29.4629C188.062 28.6673 188.24 27.7786 188.342 26.7969C188.443 25.8151 188.494 24.8249 188.494 23.8262ZM192.354 46.5508C192.354 46.0091 192.142 45.5605 191.719 45.2051C191.296 44.8665 190.737 44.5872 190.043 44.3672C189.366 44.1641 188.587 44.0033 187.707 43.8848C186.844 43.7832 185.964 43.6986 185.066 43.6309C184.169 43.5801 183.298 43.5293 182.451 43.4785C181.605 43.4277 180.868 43.36 180.242 43.2754C179.887 43.5293 179.54 43.8001 179.201 44.0879C178.88 44.3926 178.592 44.7057 178.338 45.0273C178.101 45.3659 177.906 45.7129 177.754 46.0684C177.602 46.4408 177.525 46.8132 177.525 47.1855C177.525 47.8288 177.712 48.362 178.084 48.7852C178.456 49.2253 178.956 49.5723 179.582 49.8262C180.225 50.0801 180.962 50.2578 181.791 50.3594C182.637 50.4609 183.526 50.5117 184.457 50.5117C185.693 50.5117 186.801 50.4017 187.783 50.1816C188.765 49.9785 189.594 49.6908 190.271 49.3184C190.949 48.9629 191.465 48.5482 191.82 48.0742C192.176 47.6003 192.354 47.0924 192.354 46.5508ZM208.146 28.3457C208.146 28.8874 208.223 29.4798 208.375 30.123C208.544 30.7493 208.781 31.3841 209.086 32.0273C209.391 32.6706 209.763 33.2884 210.203 33.8809C210.66 34.4564 211.176 34.9727 211.752 35.4297C212.344 35.8867 212.996 36.2507 213.707 36.5215C214.418 36.7923 215.197 36.9277 216.043 36.9277C216.635 36.9277 217.186 36.86 217.693 36.7246C218.201 36.5892 218.675 36.403 219.115 36.166C219.555 35.929 219.979 35.6582 220.385 35.3535C220.791 35.0319 221.197 34.6934 221.604 34.3379L222.238 34.9473C221.849 35.472 221.35 36.0475 220.74 36.6738C220.131 37.3001 219.395 37.8926 218.531 38.4512C217.668 38.9928 216.661 39.4499 215.51 39.8223C214.359 40.1777 213.047 40.3555 211.574 40.3555C210.102 40.3555 208.663 40.0931 207.258 39.5684C205.87 39.0267 204.634 38.2227 203.551 37.1562C202.467 36.0898 201.596 34.7611 200.936 33.1699C200.292 31.5788 199.971 29.7168 199.971 27.584C199.971 26.0436 200.165 24.6302 200.555 23.3438C200.944 22.0573 201.469 20.8978 202.129 19.8652C202.806 18.8327 203.585 17.9271 204.465 17.1484C205.362 16.3698 206.301 15.7266 207.283 15.2188C208.265 14.694 209.264 14.3047 210.279 14.0508C211.312 13.7799 212.302 13.6445 213.25 13.6445C214.503 13.6445 215.594 13.7799 216.525 14.0508C217.456 14.3216 218.227 14.6855 218.836 15.1426C219.462 15.5996 219.928 16.1328 220.232 16.7422C220.537 17.3346 220.689 17.9609 220.689 18.6211C220.689 19.4167 220.461 20.1361 220.004 20.7793C219.547 21.4056 218.938 21.9557 218.176 22.4297L208.146 28.3457ZM213.25 23.1914C213.47 23.056 213.648 22.929 213.783 22.8105C213.936 22.6751 214.054 22.5228 214.139 22.3535C214.223 22.1673 214.283 21.9473 214.316 21.6934C214.367 21.4225 214.393 21.0924 214.393 20.7031C214.393 20.2799 214.342 19.8145 214.24 19.3066C214.156 18.7819 214.003 18.291 213.783 17.834C213.563 17.377 213.284 16.9961 212.945 16.6914C212.607 16.3867 212.201 16.2344 211.727 16.2344C211.117 16.2344 210.592 16.4206 210.152 16.793C209.729 17.1484 209.374 17.6139 209.086 18.1895C208.815 18.765 208.595 19.4251 208.426 20.1699C208.273 20.8978 208.155 21.6341 208.07 22.3789C207.986 23.1237 207.935 23.8431 207.918 24.5371C207.901 25.2142 207.893 25.7897 207.893 26.2637L213.25 23.1914ZM249.914 2.24414C249.44 2.24414 248.992 2.3457 248.568 2.54883C248.145 2.75195 247.773 3.08203 247.451 3.53906C247.146 3.97917 246.901 4.54622 246.715 5.24023C246.529 5.93424 246.436 6.77214 246.436 7.75391V14H251.996V15.8281H246.436V35.8359C246.436 38.138 246.131 40.2624 245.521 42.209C244.929 44.1556 244.023 45.8314 242.805 47.2363C241.586 48.6582 240.062 49.7669 238.234 50.5625C236.406 51.3581 234.273 51.7559 231.836 51.7559C230.973 51.7559 230.143 51.6797 229.348 51.5273C228.552 51.3919 227.85 51.1973 227.24 50.9434C226.631 50.6895 226.148 50.3848 225.793 50.0293C225.421 49.6908 225.234 49.3099 225.234 48.8867C225.234 48.582 225.277 48.2689 225.361 47.9473C225.446 47.6426 225.573 47.3633 225.742 47.1094C225.911 46.8555 226.123 46.6439 226.377 46.4746C226.614 46.3223 226.893 46.2461 227.215 46.2461C227.401 46.2461 227.57 46.3392 227.723 46.5254C227.858 46.7116 228.002 46.9401 228.154 47.2109C228.307 47.4818 228.484 47.778 228.688 48.0996C228.874 48.4382 229.119 48.7428 229.424 49.0137C229.729 49.2845 230.109 49.513 230.566 49.6992C231.007 49.8854 231.548 49.9785 232.191 49.9785C233.055 49.9785 233.816 49.8008 234.477 49.4453C235.137 49.1068 235.704 48.6328 236.178 48.0234C236.652 47.4141 237.049 46.6947 237.371 45.8652C237.693 45.0358 237.947 44.1471 238.133 43.1992C238.319 42.2513 238.446 41.2611 238.514 40.2285C238.598 39.196 238.641 38.1634 238.641 37.1309V15.8281H233.969V14H238.641V11.0293C238.641 9.53971 238.818 8.24479 239.174 7.14453C239.546 6.02734 240.029 5.07943 240.621 4.30078C241.23 3.52214 241.916 2.88737 242.678 2.39648C243.439 1.9056 244.21 1.51628 244.988 1.22852C245.784 0.940755 246.554 0.746094 247.299 0.644531C248.044 0.542969 248.695 0.492188 249.254 0.492188C250.456 0.492188 251.522 0.585286 252.453 0.771484C253.384 0.940755 254.163 1.17773 254.789 1.48242C255.415 1.77018 255.889 2.10872 256.211 2.49805C256.533 2.88737 256.693 3.28516 256.693 3.69141C256.693 3.99609 256.643 4.30924 256.541 4.63086C256.456 4.93555 256.329 5.22331 256.16 5.49414C255.991 5.74805 255.779 5.95964 255.525 6.12891C255.288 6.28125 255.018 6.35742 254.713 6.35742C254.527 6.35742 254.357 6.25586 254.205 6.05273C254.053 5.84961 253.892 5.5957 253.723 5.29102C253.553 4.98633 253.367 4.65625 253.164 4.30078C252.961 3.94531 252.707 3.61523 252.402 3.31055C252.115 3.00586 251.768 2.75195 251.361 2.54883C250.955 2.3457 250.473 2.24414 249.914 2.24414ZM260.35 28.3457C260.35 28.8874 260.426 29.4798 260.578 30.123C260.747 30.7493 260.984 31.3841 261.289 32.0273C261.594 32.6706 261.966 33.2884 262.406 33.8809C262.863 34.4564 263.38 34.9727 263.955 35.4297C264.548 35.8867 265.199 36.2507 265.91 36.5215C266.621 36.7923 267.4 36.9277 268.246 36.9277C268.839 36.9277 269.389 36.86 269.896 36.7246C270.404 36.5892 270.878 36.403 271.318 36.166C271.758 35.929 272.182 35.6582 272.588 35.3535C272.994 35.0319 273.4 34.6934 273.807 34.3379L274.441 34.9473C274.052 35.472 273.553 36.0475 272.943 36.6738C272.334 37.3001 271.598 37.8926 270.734 38.4512C269.871 38.9928 268.864 39.4499 267.713 39.8223C266.562 40.1777 265.25 40.3555 263.777 40.3555C262.305 40.3555 260.866 40.0931 259.461 39.5684C258.073 39.0267 256.837 38.2227 255.754 37.1562C254.671 36.0898 253.799 34.7611 253.139 33.1699C252.495 31.5788 252.174 29.7168 252.174 27.584C252.174 26.0436 252.368 24.6302 252.758 23.3438C253.147 22.0573 253.672 20.8978 254.332 19.8652C255.009 18.8327 255.788 17.9271 256.668 17.1484C257.565 16.3698 258.505 15.7266 259.486 15.2188C260.468 14.694 261.467 14.3047 262.482 14.0508C263.515 13.7799 264.505 13.6445 265.453 13.6445C266.706 13.6445 267.798 13.7799 268.729 14.0508C269.66 14.3216 270.43 14.6855 271.039 15.1426C271.665 15.5996 272.131 16.1328 272.436 16.7422C272.74 17.3346 272.893 17.9609 272.893 18.6211C272.893 19.4167 272.664 20.1361 272.207 20.7793C271.75 21.4056 271.141 21.9557 270.379 22.4297L260.35 28.3457ZM265.453 23.1914C265.673 23.056 265.851 22.929 265.986 22.8105C266.139 22.6751 266.257 22.5228 266.342 22.3535C266.426 22.1673 266.486 21.9473 266.52 21.6934C266.57 21.4225 266.596 21.0924 266.596 20.7031C266.596 20.2799 266.545 19.8145 266.443 19.3066C266.359 18.7819 266.206 18.291 265.986 17.834C265.766 17.377 265.487 16.9961 265.148 16.6914C264.81 16.3867 264.404 16.2344 263.93 16.2344C263.32 16.2344 262.796 16.4206 262.355 16.793C261.932 17.1484 261.577 17.6139 261.289 18.1895C261.018 18.765 260.798 19.4251 260.629 20.1699C260.477 20.8978 260.358 21.6341 260.273 22.3789C260.189 23.1237 260.138 23.8431 260.121 24.5371C260.104 25.2142 260.096 25.7897 260.096 26.2637L265.453 23.1914ZM283.912 28.3457C283.912 28.8874 283.988 29.4798 284.141 30.123C284.31 30.7493 284.547 31.3841 284.852 32.0273C285.156 32.6706 285.529 33.2884 285.969 33.8809C286.426 34.4564 286.942 34.9727 287.518 35.4297C288.11 35.8867 288.762 36.2507 289.473 36.5215C290.184 36.7923 290.962 36.9277 291.809 36.9277C292.401 36.9277 292.951 36.86 293.459 36.7246C293.967 36.5892 294.441 36.403 294.881 36.166C295.321 35.929 295.744 35.6582 296.15 35.3535C296.557 35.0319 296.963 34.6934 297.369 34.3379L298.004 34.9473C297.615 35.472 297.115 36.0475 296.506 36.6738C295.896 37.3001 295.16 37.8926 294.297 38.4512C293.434 38.9928 292.426 39.4499 291.275 39.8223C290.124 40.1777 288.812 40.3555 287.34 40.3555C285.867 40.3555 284.428 40.0931 283.023 39.5684C281.635 39.0267 280.4 38.2227 279.316 37.1562C278.233 36.0898 277.361 34.7611 276.701 33.1699C276.058 31.5788 275.736 29.7168 275.736 27.584C275.736 26.0436 275.931 24.6302 276.32 23.3438C276.71 22.0573 277.234 20.8978 277.895 19.8652C278.572 18.8327 279.35 17.9271 280.23 17.1484C281.128 16.3698 282.067 15.7266 283.049 15.2188C284.031 14.694 285.029 14.3047 286.045 14.0508C287.077 13.7799 288.068 13.6445 289.016 13.6445C290.268 13.6445 291.36 13.7799 292.291 14.0508C293.222 14.3216 293.992 14.6855 294.602 15.1426C295.228 15.5996 295.693 16.1328 295.998 16.7422C296.303 17.3346 296.455 17.9609 296.455 18.6211C296.455 19.4167 296.227 20.1361 295.77 20.7793C295.312 21.4056 294.703 21.9557 293.941 22.4297L283.912 28.3457ZM289.016 23.1914C289.236 23.056 289.413 22.929 289.549 22.8105C289.701 22.6751 289.82 22.5228 289.904 22.3535C289.989 22.1673 290.048 21.9473 290.082 21.6934C290.133 21.4225 290.158 21.0924 290.158 20.7031C290.158 20.2799 290.107 19.8145 290.006 19.3066C289.921 18.7819 289.769 18.291 289.549 17.834C289.329 17.377 289.049 16.9961 288.711 16.6914C288.372 16.3867 287.966 16.2344 287.492 16.2344C286.883 16.2344 286.358 16.4206 285.918 16.793C285.495 17.1484 285.139 17.6139 284.852 18.1895C284.581 18.765 284.361 19.4251 284.191 20.1699C284.039 20.8978 283.921 21.6341 283.836 22.3789C283.751 23.1237 283.701 23.8431 283.684 24.5371C283.667 25.2142 283.658 25.7897 283.658 26.2637L289.016 23.1914ZM309.582 15.6758C309.193 15.6758 308.82 15.7266 308.465 15.8281C308.126 15.9297 307.822 16.099 307.551 16.3359C307.28 16.556 307.068 16.8438 306.916 17.1992C306.764 17.5378 306.688 17.944 306.688 18.418C306.688 19.0781 306.924 19.7383 307.398 20.3984C307.889 21.0417 308.49 21.7188 309.201 22.4297C309.929 23.1237 310.708 23.8516 311.537 24.6133C312.383 25.3581 313.162 26.1536 313.873 27C314.601 27.8294 315.202 28.7181 315.676 29.666C316.167 30.6139 316.412 31.6296 316.412 32.7129C316.412 33.9316 316.201 35.015 315.777 35.9629C315.371 36.9108 314.779 37.7148 314 38.375C313.238 39.0352 312.307 39.543 311.207 39.8984C310.124 40.237 308.913 40.4062 307.576 40.4062C306.408 40.4062 305.35 40.2454 304.402 39.9238C303.454 39.5853 302.608 39.179 301.863 38.7051C301.135 38.2142 300.509 37.6979 299.984 37.1562C299.46 36.6146 299.053 36.1237 298.766 35.6836L299.654 35.0488C299.874 35.3027 300.154 35.582 300.492 35.8867C300.831 36.1745 301.203 36.4453 301.609 36.6992C302.033 36.9531 302.481 37.1647 302.955 37.334C303.429 37.4863 303.911 37.5625 304.402 37.5625C305.621 37.5625 306.62 37.2747 307.398 36.6992C308.177 36.1068 308.566 35.235 308.566 34.084C308.566 33.4408 308.355 32.7806 307.932 32.1035C307.508 31.4095 306.975 30.6986 306.332 29.9707C305.689 29.2428 304.995 28.4896 304.25 27.7109C303.505 26.9323 302.811 26.1283 302.168 25.2988C301.525 24.4694 300.992 23.6146 300.568 22.7344C300.145 21.8542 299.934 20.9401 299.934 19.9922C299.934 18.9258 300.145 17.9948 300.568 17.1992C301.008 16.4036 301.584 15.7435 302.295 15.2188C303.023 14.694 303.844 14.3047 304.758 14.0508C305.689 13.7799 306.645 13.6445 307.627 13.6445C308.761 13.6445 309.794 13.7461 310.725 13.9492C311.656 14.1523 312.451 14.4655 313.111 14.8887C313.788 15.2949 314.305 15.8112 314.66 16.4375C315.033 17.0638 315.219 17.7917 315.219 18.6211C315.219 19.2643 315.007 19.8229 314.584 20.2969C314.161 20.7708 313.568 21.0078 312.807 21.0078C312.079 21.0078 311.52 20.8555 311.131 20.5508C310.758 20.2292 310.572 19.7975 310.572 19.2559C310.572 18.9004 310.657 18.6211 310.826 18.418C311.012 18.2148 311.215 18.054 311.436 17.9355C311.656 17.8001 311.85 17.6901 312.02 17.6055C312.206 17.5039 312.299 17.377 312.299 17.2246C312.299 16.7507 312.045 16.3783 311.537 16.1074C311.029 15.8197 310.378 15.6758 309.582 15.6758ZM355.057 35.582C355.057 35.7344 355.065 35.9036 355.082 36.0898C355.099 36.2591 355.141 36.4284 355.209 36.5977C355.277 36.75 355.378 36.877 355.514 36.9785C355.649 37.0801 355.844 37.1309 356.098 37.1309C356.419 37.1309 356.707 37.0208 356.961 36.8008C357.215 36.5638 357.452 36.3268 357.672 36.0898L358.281 36.623C358.027 36.9785 357.706 37.3763 357.316 37.8164C356.944 38.2396 356.487 38.6458 355.945 39.0352C355.404 39.4245 354.786 39.7461 354.092 40C353.398 40.2708 352.611 40.4062 351.73 40.4062C350.986 40.4062 350.334 40.3047 349.775 40.1016C349.234 39.9154 348.768 39.6615 348.379 39.3398C348.007 39.0013 347.727 38.612 347.541 38.1719C347.355 37.7148 347.262 37.2324 347.262 36.7246V35.582C346.415 36.4961 345.527 37.3001 344.596 37.9941C344.189 38.2988 343.758 38.5951 343.301 38.8828C342.844 39.1706 342.37 39.4329 341.879 39.6699C341.388 39.89 340.88 40.0677 340.355 40.2031C339.831 40.3385 339.306 40.4062 338.781 40.4062C337.766 40.4062 336.894 40.2285 336.166 39.873C335.455 39.5007 334.88 39.0182 334.439 38.4258C333.999 37.8333 333.678 37.1647 333.475 36.4199C333.271 35.6751 333.17 34.9303 333.17 34.1855V18.4688C333.17 18.3164 333.161 18.1556 333.145 17.9863C333.128 17.8001 333.085 17.6309 333.018 17.4785C332.95 17.3092 332.848 17.1738 332.713 17.0723C332.577 16.9707 332.383 16.9199 332.129 16.9199C331.824 16.9199 331.536 17.0384 331.266 17.2754C331.012 17.4954 330.783 17.724 330.58 17.9609L329.945 17.4277C330.199 17.0723 330.512 16.6829 330.885 16.2598C331.274 15.8197 331.74 15.4049 332.281 15.0156C332.823 14.6263 333.441 14.3047 334.135 14.0508C334.846 13.7799 335.633 13.6445 336.496 13.6445C337.241 13.6445 337.893 13.7461 338.451 13.9492C339.01 14.1354 339.475 14.3978 339.848 14.7363C340.22 15.0579 340.499 15.4473 340.686 15.9043C340.872 16.3444 340.965 16.8184 340.965 17.3262V34.2871C340.965 34.5241 340.999 34.7695 341.066 35.0234C341.151 35.2604 341.261 35.4805 341.396 35.6836C341.549 35.8867 341.735 36.056 341.955 36.1914C342.175 36.3099 342.438 36.3691 342.742 36.3691C343.233 36.3691 343.724 36.2422 344.215 35.9883C344.706 35.7344 345.154 35.4382 345.561 35.0996C345.967 34.7441 346.314 34.3971 346.602 34.0586C346.906 33.7201 347.126 33.4661 347.262 33.2969V18.4688C347.262 18.3164 347.253 18.1556 347.236 17.9863C347.219 17.8001 347.177 17.6309 347.109 17.4785C347.042 17.3092 346.94 17.1738 346.805 17.0723C346.669 16.9707 346.475 16.9199 346.221 16.9199C345.916 16.9199 345.628 17.0384 345.357 17.2754C345.104 17.4954 344.875 17.724 344.672 17.9609L344.037 17.4277C344.291 17.0723 344.604 16.6829 344.977 16.2598C345.366 15.8197 345.831 15.4049 346.373 15.0156C346.915 14.6263 347.533 14.3047 348.227 14.0508C348.938 13.7799 349.725 13.6445 350.588 13.6445C351.333 13.6445 351.984 13.7461 352.543 13.9492C353.102 14.1354 353.567 14.3978 353.939 14.7363C354.312 15.0579 354.591 15.4473 354.777 15.9043C354.964 16.3444 355.057 16.8184 355.057 17.3262V35.582ZM376.689 27.3555C376.689 25.2227 376.588 23.5215 376.385 22.252C376.199 20.9655 375.945 19.9922 375.623 19.332C375.301 18.6549 374.946 18.2148 374.557 18.0117C374.167 17.7917 373.77 17.6816 373.363 17.6816C372.872 17.6816 372.432 17.8171 372.043 18.0879C371.671 18.3418 371.34 18.638 371.053 18.9766C370.782 19.3151 370.545 19.6536 370.342 19.9922C370.156 20.3307 369.995 20.5846 369.859 20.7539V37.7148C369.859 37.9349 369.826 38.2057 369.758 38.5273C369.69 38.832 369.521 39.1283 369.25 39.416C368.996 39.6868 368.607 39.9154 368.082 40.1016C367.574 40.3047 366.872 40.4062 365.975 40.4062C365.077 40.4062 364.367 40.2962 363.842 40.0762C363.334 39.873 362.945 39.6276 362.674 39.3398C362.403 39.0521 362.234 38.7559 362.166 38.4512C362.098 38.1465 362.064 37.901 362.064 37.7148V18.1133C362.064 17.6224 361.946 17.1992 361.709 16.8438C361.489 16.4714 361.108 16.2852 360.566 16.2852C360.279 16.2852 360.033 16.3359 359.83 16.4375C359.627 16.5391 359.407 16.6829 359.17 16.8691L358.637 16.2344C359.026 15.9128 359.458 15.5996 359.932 15.2949C360.423 14.9733 360.947 14.694 361.506 14.457C362.064 14.2201 362.665 14.0254 363.309 13.873C363.952 13.7207 364.629 13.6445 365.34 13.6445C366.44 13.6445 367.295 13.8307 367.904 14.2031C368.514 14.5586 368.962 14.9902 369.25 15.498C369.538 16.0059 369.707 16.5391 369.758 17.0977C369.826 17.6393 369.859 18.0964 369.859 18.4688C370.486 17.5716 371.197 16.7676 371.992 16.0566C372.314 15.752 372.669 15.4557 373.059 15.168C373.465 14.8802 373.888 14.6263 374.328 14.4062C374.785 14.1693 375.259 13.9831 375.75 13.8477C376.258 13.7122 376.774 13.6445 377.299 13.6445C378.45 13.6445 379.465 13.8646 380.346 14.3047C381.243 14.7448 381.996 15.4811 382.605 16.5137C383.215 17.5462 383.68 18.9173 384.002 20.627C384.324 22.3197 384.484 24.4271 384.484 26.9492C384.484 29.4036 384.264 31.5365 383.824 33.3477C383.384 35.1589 382.809 36.6992 382.098 37.9688C381.387 39.2383 380.583 40.2708 379.686 41.0664C378.788 41.8789 377.883 42.5137 376.969 42.9707C376.055 43.4277 375.174 43.7409 374.328 43.9102C373.499 44.0964 372.779 44.1979 372.17 44.2148L371.891 43.1738C372.398 43.0553 372.864 42.8691 373.287 42.6152C373.727 42.3613 374.125 41.9889 374.48 41.498C374.836 41.0072 375.149 40.3893 375.42 39.6445C375.691 38.8828 375.919 37.9349 376.105 36.8008C376.309 35.6667 376.452 34.3294 376.537 32.7891C376.639 31.2318 376.689 29.4206 376.689 27.3555ZM397.967 15.8281V34.5918C397.967 35.4889 398.136 36.1152 398.475 36.4707C398.813 36.8092 399.279 36.9785 399.871 36.9785C400.328 36.9785 400.734 36.8516 401.09 36.5977C401.445 36.3438 401.75 36.056 402.004 35.7344C402.309 35.3789 402.571 34.9642 402.791 34.4902L403.578 34.8457C403.324 35.3874 403.02 35.9798 402.664 36.623C402.326 37.2663 401.868 37.8672 401.293 38.4258C400.717 38.9674 399.99 39.4245 399.109 39.7969C398.246 40.1693 397.154 40.3555 395.834 40.3555C395.089 40.3555 394.37 40.2454 393.676 40.0254C392.999 39.8053 392.389 39.4583 391.848 38.9844C391.323 38.5104 390.9 37.918 390.578 37.207C390.257 36.4961 390.096 35.6413 390.096 34.6426V15.8281H387.252V14C387.726 14 388.386 13.8815 389.232 13.6445C390.079 13.3906 390.942 12.9759 391.822 12.4004C392.719 11.8249 393.549 11.0547 394.311 10.0898C395.072 9.125 395.614 7.93164 395.936 6.50977H397.967V14H402.105C403.46 14 404.137 13.7715 404.137 13.3145C404.137 13.1452 404.052 13.0352 403.883 12.9844C403.714 12.9167 403.519 12.8405 403.299 12.7559C403.096 12.6543 402.91 12.5189 402.74 12.3496C402.571 12.1803 402.486 11.901 402.486 11.5117C402.486 11.0378 402.63 10.6654 402.918 10.3945C403.223 10.1237 403.612 9.98828 404.086 9.98828C404.391 9.98828 404.653 10.056 404.873 10.1914C405.11 10.3099 405.305 10.4792 405.457 10.6992C405.609 10.9023 405.719 11.1393 405.787 11.4102C405.872 11.681 405.914 11.9518 405.914 12.2227C405.914 13.3229 405.592 14.2031 404.949 14.8633C404.323 15.5065 403.307 15.8281 401.902 15.8281H397.967ZM415.867 37.7148C415.867 37.9349 415.825 38.2057 415.74 38.5273C415.673 38.832 415.495 39.1283 415.207 39.416C414.936 39.6868 414.538 39.9154 414.014 40.1016C413.489 40.3047 412.778 40.4062 411.881 40.4062C410.984 40.4062 410.281 40.2962 409.773 40.0762C409.266 39.873 408.885 39.6276 408.631 39.3398C408.377 39.0521 408.216 38.7559 408.148 38.4512C408.098 38.1465 408.072 37.901 408.072 37.7148V18.1133C408.072 17.6224 407.954 17.1992 407.717 16.8438C407.497 16.4714 407.116 16.2852 406.574 16.2852C406.286 16.2852 406.041 16.3359 405.838 16.4375C405.635 16.5391 405.415 16.6829 405.178 16.8691L404.645 16.2344C405.034 15.9128 405.465 15.5996 405.939 15.2949C406.43 14.9733 406.955 14.694 407.514 14.457C408.072 14.2201 408.673 14.0254 409.316 13.873C409.96 13.7207 410.637 13.6445 411.348 13.6445C412.448 13.6445 413.303 13.7969 413.912 14.1016C414.521 14.3893 414.97 14.7533 415.258 15.1934C415.546 15.6165 415.715 16.0736 415.766 16.5645C415.833 17.0553 415.867 17.487 415.867 17.8594V37.7148ZM407.285 7.85547C407.285 7.38151 407.387 6.93294 407.59 6.50977C407.81 6.06966 408.106 5.6888 408.479 5.36719C408.868 5.04557 409.308 4.79167 409.799 4.60547C410.307 4.41927 410.857 4.32617 411.449 4.32617C412.025 4.32617 412.558 4.41927 413.049 4.60547C413.557 4.79167 413.997 5.04557 414.369 5.36719C414.742 5.6888 415.029 6.06966 415.232 6.50977C415.452 6.93294 415.562 7.38151 415.562 7.85547C415.562 8.34635 415.452 8.80339 415.232 9.22656C415.029 9.64974 414.742 10.0221 414.369 10.3438C413.997 10.6484 413.557 10.8939 413.049 11.0801C412.558 11.2663 412.025 11.3594 411.449 11.3594C410.857 11.3594 410.307 11.2663 409.799 11.0801C409.308 10.8939 408.868 10.6484 408.479 10.3438C408.106 10.0221 407.81 9.64974 407.59 9.22656C407.387 8.80339 407.285 8.34635 407.285 7.85547ZM430.137 37.7656C430.137 37.9857 430.094 38.248 430.01 38.5527C429.942 38.8574 429.764 39.1452 429.477 39.416C429.206 39.6868 428.799 39.9154 428.258 40.1016C427.733 40.3047 427.022 40.4062 426.125 40.4062C425.228 40.4062 424.525 40.2962 424.018 40.0762C423.51 39.873 423.129 39.6276 422.875 39.3398C422.638 39.0521 422.486 38.7559 422.418 38.4512C422.367 38.1465 422.342 37.901 422.342 37.7148V4.96094C422.342 4.47005 422.223 4.04688 421.986 3.69141C421.766 3.31901 421.385 3.13281 420.844 3.13281C420.556 3.13281 420.302 3.18359 420.082 3.28516C419.879 3.36979 419.659 3.50521 419.422 3.69141L418.914 3.08203C419.303 2.76042 419.735 2.44727 420.209 2.14258C420.683 1.82096 421.199 1.54167 421.758 1.30469C422.333 1.06771 422.943 0.873047 423.586 0.720703C424.229 0.568359 424.906 0.492188 425.617 0.492188C426.717 0.492188 427.572 0.644531 428.182 0.949219C428.791 1.23698 429.24 1.60091 429.527 2.04102C429.815 2.46419 429.984 2.92122 430.035 3.41211C430.103 3.88607 430.137 4.30924 430.137 4.68164V37.7656ZM33.2559 74.5312H23.2266V88.6738C23.2266 89.9772 22.8796 90.9251 22.1855 91.5176C21.5085 92.11 20.4674 92.4062 19.0625 92.4062C17.6406 92.4062 16.5911 92.11 15.9141 91.5176C15.237 90.9251 14.8984 89.9772 14.8984 88.6738V74.5312H10.9375V72.2969H14.8984V56.3262C14.3568 56.377 13.7305 56.4785 13.0195 56.6309C12.3255 56.7663 11.6061 56.9694 10.8613 57.2402C10.1335 57.4941 9.41406 57.7988 8.70312 58.1543C7.99219 58.5098 7.35742 58.9245 6.79883 59.3984C6.24023 59.8724 5.7832 60.4056 5.42773 60.998C5.08919 61.5736 4.91992 62.1999 4.91992 62.877C4.91992 63.4186 4.98763 63.8503 5.12305 64.1719C5.27539 64.4935 5.44466 64.7389 5.63086 64.9082C5.81706 65.0605 6.00326 65.1621 6.18945 65.2129C6.39258 65.2467 6.53646 65.2637 6.62109 65.2637C7.04427 65.2637 7.39128 65.196 7.66211 65.0605C7.93294 64.9082 8.17839 64.7559 8.39844 64.6035C8.61849 64.4342 8.82161 64.2819 9.00781 64.1465C9.21094 63.9941 9.43945 63.918 9.69336 63.918C9.89648 63.918 10.1081 63.9688 10.3281 64.0703C10.5651 64.1549 10.7767 64.2988 10.9629 64.502C11.166 64.7051 11.3353 64.9759 11.4707 65.3145C11.6061 65.6361 11.6738 66.0339 11.6738 66.5078C11.6738 67.1849 11.5384 67.7773 11.2676 68.2852C11.0137 68.776 10.6751 69.1823 10.252 69.5039C9.8457 69.8255 9.37174 70.071 8.83008 70.2402C8.30534 70.3926 7.7806 70.4688 7.25586 70.4688C6.44336 70.4688 5.70703 70.3333 5.04688 70.0625C4.40365 69.7747 3.85352 69.3854 3.39648 68.8945C2.93945 68.4036 2.59245 67.8366 2.35547 67.1934C2.11849 66.5332 2 65.8223 2 65.0605C2 63.0801 2.54167 61.3958 3.625 60.0078C4.72526 58.6198 6.22331 57.4857 8.11914 56.6055C10.015 55.7083 12.224 55.0566 14.7461 54.6504C17.2682 54.2441 19.9681 54.041 22.8457 54.041C24.0137 54.041 25.2324 54.0579 26.502 54.0918C27.7715 54.1087 28.9648 54.1426 30.082 54.1934C31.2161 54.2441 32.2148 54.3034 33.0781 54.3711C33.9414 54.4388 34.5508 54.515 34.9062 54.5996C35.2448 54.6842 35.5156 54.7773 35.7188 54.8789C35.9219 54.9805 36.0742 55.099 36.1758 55.2344C36.2773 55.3698 36.3451 55.5306 36.3789 55.7168C36.4128 55.8861 36.4297 56.0892 36.4297 56.3262C36.4297 56.5293 36.4043 56.7578 36.3535 57.0117C36.3027 57.2487 36.2266 57.4772 36.125 57.6973C36.0234 57.9004 35.8965 58.0781 35.7441 58.2305C35.5918 58.3828 35.4056 58.459 35.1855 58.459C35.0501 58.459 34.8978 58.3997 34.7285 58.2812C34.5762 58.1628 34.3477 58.0104 34.043 57.8242C33.7552 57.638 33.3574 57.4434 32.8496 57.2402C32.3587 57.0371 31.6901 56.8424 30.8438 56.6562C30.0143 56.4701 28.9733 56.3177 27.7207 56.1992C26.485 56.0807 24.987 56.0215 23.2266 56.0215V72.2969H33.2559V74.5312ZM44.123 80.3457C44.123 80.8874 44.1992 81.4798 44.3516 82.123C44.5208 82.7493 44.7578 83.3841 45.0625 84.0273C45.3672 84.6706 45.7396 85.2884 46.1797 85.8809C46.6367 86.4564 47.153 86.9727 47.7285 87.4297C48.321 87.8867 48.9727 88.2507 49.6836 88.5215C50.3945 88.7923 51.1732 88.9277 52.0195 88.9277C52.612 88.9277 53.1621 88.86 53.6699 88.7246C54.1777 88.5892 54.6517 88.403 55.0918 88.166C55.5319 87.929 55.9551 87.6582 56.3613 87.3535C56.7676 87.0319 57.1738 86.6934 57.5801 86.3379L58.2148 86.9473C57.8255 87.472 57.3262 88.0475 56.7168 88.6738C56.1074 89.3001 55.3711 89.8926 54.5078 90.4512C53.6445 90.9928 52.6374 91.4499 51.4863 91.8223C50.3353 92.1777 49.0234 92.3555 47.5508 92.3555C46.0781 92.3555 44.6393 92.0931 43.2344 91.5684C41.8464 91.0267 40.6107 90.2227 39.5273 89.1562C38.444 88.0898 37.5723 86.7611 36.9121 85.1699C36.2689 83.5788 35.9473 81.7168 35.9473 79.584C35.9473 78.0436 36.1419 76.6302 36.5312 75.3438C36.9206 74.0573 37.4453 72.8978 38.1055 71.8652C38.7826 70.8327 39.5612 69.9271 40.4414 69.1484C41.3385 68.3698 42.278 67.7266 43.2598 67.2188C44.2415 66.694 45.2402 66.3047 46.2559 66.0508C47.2884 65.7799 48.2786 65.6445 49.2266 65.6445C50.4792 65.6445 51.571 65.7799 52.502 66.0508C53.4329 66.3216 54.2031 66.6855 54.8125 67.1426C55.4388 67.5996 55.9043 68.1328 56.209 68.7422C56.5137 69.3346 56.666 69.9609 56.666 70.6211C56.666 71.4167 56.4375 72.1361 55.9805 72.7793C55.5234 73.4056 54.9141 73.9557 54.1523 74.4297L44.123 80.3457ZM49.2266 75.1914C49.4466 75.056 49.6243 74.929 49.7598 74.8105C49.9121 74.6751 50.0306 74.5228 50.1152 74.3535C50.1999 74.1673 50.2591 73.9473 50.293 73.6934C50.3438 73.4225 50.3691 73.0924 50.3691 72.7031C50.3691 72.2799 50.3184 71.8145 50.2168 71.3066C50.1322 70.7819 49.9798 70.291 49.7598 69.834C49.5397 69.377 49.2604 68.9961 48.9219 68.6914C48.5833 68.3867 48.1771 68.2344 47.7031 68.2344C47.0938 68.2344 46.569 68.4206 46.1289 68.793C45.7057 69.1484 45.3503 69.6139 45.0625 70.1895C44.7917 70.765 44.5716 71.4251 44.4023 72.1699C44.25 72.8978 44.1315 73.6341 44.0469 74.3789C43.9622 75.1237 43.9115 75.8431 43.8945 76.5371C43.8776 77.2142 43.8691 77.7897 43.8691 78.2637L49.2266 75.1914ZM75.9375 79.3555C75.9375 77.8828 75.8613 76.5033 75.709 75.2168C75.5566 73.9134 75.3112 72.7793 74.9727 71.8145C74.6341 70.8327 74.2025 70.0625 73.6777 69.5039C73.153 68.9284 72.5182 68.6406 71.7734 68.6406C71.1979 68.6406 70.707 68.7845 70.3008 69.0723C69.9115 69.3431 69.5898 69.6562 69.3359 70.0117C69.082 70.3672 68.8958 70.7227 68.7773 71.0781C68.6589 71.4167 68.5996 71.6452 68.5996 71.7637V79.3555C68.5996 83.0456 68.9043 85.7285 69.5137 87.4043C70.14 89.0801 71.054 89.918 72.2559 89.918C73.5254 89.918 74.4564 89.0632 75.0488 87.3535C75.6413 85.6439 75.9375 82.9779 75.9375 79.3555ZM60.8047 56.9609C60.8047 56.4701 60.6862 56.0469 60.4492 55.6914C60.2292 55.319 59.8483 55.1328 59.3066 55.1328C59.0189 55.1328 58.765 55.1836 58.5449 55.2852C58.3418 55.3698 58.1217 55.5052 57.8848 55.6914L57.377 55.082C57.7663 54.7604 58.1979 54.4473 58.6719 54.1426C59.1628 53.821 59.6875 53.5417 60.2461 53.3047C60.8047 53.0677 61.4056 52.873 62.0488 52.7207C62.6921 52.5684 63.3691 52.4922 64.0801 52.4922C65.0618 52.4922 65.849 52.6445 66.4414 52.9492C67.0508 53.237 67.5078 53.6009 67.8125 54.041C68.1341 54.4642 68.3457 54.9297 68.4473 55.4375C68.5488 55.9284 68.5996 56.3854 68.5996 56.8086V68.1328C68.8027 67.9466 69.0651 67.7181 69.3867 67.4473C69.7083 67.1595 70.1146 66.8802 70.6055 66.6094C71.0964 66.3385 71.6803 66.11 72.3574 65.9238C73.0514 65.7376 73.8639 65.6445 74.7949 65.6445C75.8783 65.6445 76.9616 65.8984 78.0449 66.4062C79.1283 66.8971 80.1016 67.6758 80.9648 68.7422C81.8281 69.8086 82.5306 71.1797 83.0723 72.8555C83.6139 74.5312 83.8848 76.5456 83.8848 78.8984C83.8848 80.7435 83.6309 82.487 83.123 84.1289C82.6322 85.7708 81.8958 87.2096 80.9141 88.4453C79.9323 89.6641 78.7051 90.6289 77.2324 91.3398C75.7598 92.0508 74.0501 92.4062 72.1035 92.4062C69.9876 92.4062 68.2018 92.0677 66.7461 91.3906C65.3073 90.6966 64.1478 89.7741 63.2676 88.623C62.3874 87.4551 61.7526 86.1009 61.3633 84.5605C60.9909 83.0202 60.8047 81.3952 60.8047 79.6855V56.9609ZM96.9102 71.002C97.5534 70.0202 98.2389 69.1315 98.9668 68.3359C99.2715 67.9974 99.6016 67.6673 99.957 67.3457C100.312 67.0241 100.676 66.7363 101.049 66.4824C101.438 66.2285 101.836 66.0254 102.242 65.873C102.648 65.7207 103.055 65.6445 103.461 65.6445C104.324 65.6445 105.001 65.9069 105.492 66.4316C105.983 66.9395 106.229 67.6589 106.229 68.5898C106.229 69.1654 106.178 69.724 106.076 70.2656C105.992 70.7904 105.814 71.4336 105.543 72.1953H104.832C104.73 71.6706 104.493 71.2389 104.121 70.9004C103.749 70.5449 103.207 70.3672 102.496 70.3672C101.971 70.3672 101.455 70.4688 100.947 70.6719C100.439 70.8581 99.9401 71.0951 99.4492 71.3828C98.9753 71.6706 98.5182 71.9837 98.0781 72.3223C97.6549 72.6608 97.2656 72.9824 96.9102 73.2871V89.7656C96.9102 89.9857 96.8763 90.248 96.8086 90.5527C96.7409 90.8574 96.5716 91.1452 96.3008 91.416C96.0469 91.6868 95.6576 91.9154 95.1328 92.1016C94.625 92.3047 93.9225 92.4062 93.0254 92.4062C92.1283 92.4062 91.4173 92.2962 90.8926 92.0762C90.3848 91.873 89.9954 91.6276 89.7246 91.3398C89.4538 91.0521 89.2845 90.7559 89.2168 90.4512C89.1491 90.1465 89.1152 89.901 89.1152 89.7148V70.1133C89.1152 69.6224 88.9967 69.1992 88.7598 68.8438C88.5397 68.4714 88.1589 68.2852 87.6172 68.2852C87.3294 68.2852 87.084 68.3359 86.8809 68.4375C86.6777 68.5391 86.4577 68.6829 86.2207 68.8691L85.6875 68.2344C86.0768 67.9128 86.5085 67.5996 86.9824 67.2949C87.4733 66.9733 87.998 66.694 88.5566 66.457C89.1152 66.2201 89.7161 66.0254 90.3594 65.873C91.0026 65.7207 91.6797 65.6445 92.3906 65.6445C93.1185 65.6445 93.7363 65.7461 94.2441 65.9492C94.7689 66.1354 95.1921 66.3893 95.5137 66.7109C95.8522 67.0156 96.1146 67.3626 96.3008 67.752C96.487 68.1413 96.6224 68.5391 96.707 68.9453C96.8086 69.3346 96.8678 69.7155 96.8848 70.0879C96.9017 70.4434 96.9102 70.748 96.9102 71.002ZM131.67 87.582C131.67 87.7344 131.678 87.9036 131.695 88.0898C131.712 88.2591 131.755 88.4284 131.822 88.5977C131.89 88.75 131.992 88.877 132.127 88.9785C132.262 89.0801 132.457 89.1309 132.711 89.1309C133.033 89.1309 133.32 89.0208 133.574 88.8008C133.828 88.5638 134.065 88.3268 134.285 88.0898L134.895 88.623C134.641 88.9785 134.319 89.3763 133.93 89.8164C133.557 90.2396 133.1 90.6458 132.559 91.0352C132.017 91.4245 131.399 91.7461 130.705 92C130.011 92.2708 129.224 92.4062 128.344 92.4062C127.599 92.4062 126.947 92.3047 126.389 92.1016C125.847 91.9154 125.382 91.6615 124.992 91.3398C124.62 91.0013 124.34 90.612 124.154 90.1719C123.968 89.7148 123.875 89.2324 123.875 88.7246V87.582C123.029 88.4961 122.14 89.3001 121.209 89.9941C120.803 90.2988 120.371 90.5951 119.914 90.8828C119.457 91.1706 118.983 91.4329 118.492 91.6699C118.001 91.89 117.493 92.0677 116.969 92.2031C116.444 92.3385 115.919 92.4062 115.395 92.4062C114.379 92.4062 113.507 92.2285 112.779 91.873C112.068 91.5007 111.493 91.0182 111.053 90.4258C110.613 89.8333 110.291 89.1647 110.088 88.4199C109.885 87.6751 109.783 86.9303 109.783 86.1855V70.4688C109.783 70.3164 109.775 70.1556 109.758 69.9863C109.741 69.8001 109.699 69.6309 109.631 69.4785C109.563 69.3092 109.462 69.1738 109.326 69.0723C109.191 68.9707 108.996 68.9199 108.742 68.9199C108.438 68.9199 108.15 69.0384 107.879 69.2754C107.625 69.4954 107.396 69.724 107.193 69.9609L106.559 69.4277C106.812 69.0723 107.126 68.6829 107.498 68.2598C107.887 67.8197 108.353 67.4049 108.895 67.0156C109.436 66.6263 110.054 66.3047 110.748 66.0508C111.459 65.7799 112.246 65.6445 113.109 65.6445C113.854 65.6445 114.506 65.7461 115.064 65.9492C115.623 66.1354 116.089 66.3978 116.461 66.7363C116.833 67.0579 117.113 67.4473 117.299 67.9043C117.485 68.3444 117.578 68.8184 117.578 69.3262V86.2871C117.578 86.5241 117.612 86.7695 117.68 87.0234C117.764 87.2604 117.874 87.4805 118.01 87.6836C118.162 87.8867 118.348 88.056 118.568 88.1914C118.788 88.3099 119.051 88.3691 119.355 88.3691C119.846 88.3691 120.337 88.2422 120.828 87.9883C121.319 87.7344 121.768 87.4382 122.174 87.0996C122.58 86.7441 122.927 86.3971 123.215 86.0586C123.52 85.7201 123.74 85.4661 123.875 85.2969V70.4688C123.875 70.3164 123.867 70.1556 123.85 69.9863C123.833 69.8001 123.79 69.6309 123.723 69.4785C123.655 69.3092 123.553 69.1738 123.418 69.0723C123.283 68.9707 123.088 68.9199 122.834 68.9199C122.529 68.9199 122.242 69.0384 121.971 69.2754C121.717 69.4954 121.488 69.724 121.285 69.9609L120.65 69.4277C120.904 69.0723 121.217 68.6829 121.59 68.2598C121.979 67.8197 122.445 67.4049 122.986 67.0156C123.528 66.6263 124.146 66.3047 124.84 66.0508C125.551 65.7799 126.338 65.6445 127.201 65.6445C127.946 65.6445 128.598 65.7461 129.156 65.9492C129.715 66.1354 130.18 66.3978 130.553 66.7363C130.925 67.0579 131.204 67.4473 131.391 67.9043C131.577 68.3444 131.67 68.8184 131.67 69.3262V87.582ZM149.799 78.8477C149.799 78.4245 149.663 78.1029 149.393 77.8828C149.122 77.6628 148.775 77.5527 148.352 77.5527C147.759 77.5527 147.192 77.6882 146.65 77.959C146.126 78.2298 145.66 78.6276 145.254 79.1523C144.848 79.6771 144.526 80.3288 144.289 81.1074C144.052 81.8691 143.934 82.7578 143.934 83.7734C143.934 84.7552 144.001 85.5677 144.137 86.2109C144.289 86.8542 144.484 87.3704 144.721 87.7598C144.975 88.1322 145.262 88.3945 145.584 88.5469C145.906 88.6992 146.244 88.7754 146.6 88.7754C147.04 88.7754 147.454 88.6654 147.844 88.4453C148.233 88.2083 148.572 87.9121 148.859 87.5566C149.147 87.2012 149.376 86.8034 149.545 86.3633C149.714 85.9232 149.799 85.4831 149.799 85.043V78.8477ZM145.762 67.7266C145.186 67.7266 144.653 67.7943 144.162 67.9297C143.671 68.0651 143.248 68.2344 142.893 68.4375C142.537 68.6406 142.258 68.8691 142.055 69.123C141.852 69.36 141.75 69.5885 141.75 69.8086C141.75 70.0625 141.877 70.2487 142.131 70.3672C142.402 70.4688 142.698 70.5957 143.02 70.748C143.341 70.8835 143.629 71.0866 143.883 71.3574C144.154 71.6113 144.289 72.0091 144.289 72.5508C144.289 72.9062 144.213 73.2363 144.061 73.541C143.925 73.8288 143.73 74.0911 143.477 74.3281C143.24 74.5482 142.952 74.7259 142.613 74.8613C142.292 74.9798 141.953 75.0391 141.598 75.0391C140.65 75.0391 139.88 74.7174 139.287 74.0742C138.712 73.431 138.424 72.5762 138.424 71.5098C138.424 70.4772 138.695 69.597 139.236 68.8691C139.778 68.1243 140.48 67.515 141.344 67.041C142.224 66.5671 143.214 66.2201 144.314 66C145.415 65.763 146.515 65.6445 147.615 65.6445C148.936 65.6445 150.197 65.7884 151.398 66.0762C152.6 66.3639 153.658 66.821 154.572 67.4473C155.503 68.0736 156.24 68.8691 156.781 69.834C157.34 70.7988 157.619 71.9668 157.619 73.3379V87.6836C157.619 87.8359 157.628 88.0052 157.645 88.1914C157.661 88.3776 157.704 88.5469 157.771 88.6992C157.839 88.8516 157.941 88.9785 158.076 89.0801C158.212 89.1816 158.406 89.2324 158.66 89.2324C158.965 89.2324 159.244 89.1224 159.498 88.9023C159.769 88.6654 160.006 88.4284 160.209 88.1914L160.844 88.7246C160.59 89.0801 160.285 89.4694 159.93 89.8926C159.574 90.3158 159.143 90.7135 158.635 91.0859C158.127 91.4583 157.535 91.7715 156.857 92.0254C156.18 92.2793 155.41 92.4062 154.547 92.4062C153.48 92.4062 152.533 92.0931 151.703 91.4668C150.874 90.8236 150.332 89.8418 150.078 88.5215C149.536 89.2493 148.969 89.8587 148.377 90.3496C147.801 90.8405 147.209 91.2383 146.6 91.543C145.99 91.8477 145.372 92.0677 144.746 92.2031C144.137 92.3385 143.519 92.4062 142.893 92.4062C142.08 92.4062 141.293 92.2793 140.531 92.0254C139.77 91.7715 139.084 91.3737 138.475 90.832C137.882 90.2734 137.4 89.554 137.027 88.6738C136.672 87.7936 136.494 86.7188 136.494 85.4492C136.494 83.9089 136.799 82.6478 137.408 81.666C138.018 80.6842 138.813 79.8633 139.795 79.2031C140.794 78.526 141.919 77.9505 143.172 77.4766C144.441 77.0026 145.736 76.5033 147.057 75.9785C148.038 75.5892 148.749 75.0137 149.189 74.252C149.646 73.4733 149.875 72.6777 149.875 71.8652C149.875 70.6126 149.503 69.6139 148.758 68.8691C148.03 68.1074 147.031 67.7266 145.762 67.7266ZM172.371 71.002C173.014 70.0202 173.7 69.1315 174.428 68.3359C174.732 67.9974 175.062 67.6673 175.418 67.3457C175.773 67.0241 176.137 66.7363 176.51 66.4824C176.899 66.2285 177.297 66.0254 177.703 65.873C178.109 65.7207 178.516 65.6445 178.922 65.6445C179.785 65.6445 180.462 65.9069 180.953 66.4316C181.444 66.9395 181.689 67.6589 181.689 68.5898C181.689 69.1654 181.639 69.724 181.537 70.2656C181.452 70.7904 181.275 71.4336 181.004 72.1953H180.293C180.191 71.6706 179.954 71.2389 179.582 70.9004C179.21 70.5449 178.668 70.3672 177.957 70.3672C177.432 70.3672 176.916 70.4688 176.408 70.6719C175.9 70.8581 175.401 71.0951 174.91 71.3828C174.436 71.6706 173.979 71.9837 173.539 72.3223C173.116 72.6608 172.727 72.9824 172.371 73.2871V89.7656C172.371 89.9857 172.337 90.248 172.27 90.5527C172.202 90.8574 172.033 91.1452 171.762 91.416C171.508 91.6868 171.118 91.9154 170.594 92.1016C170.086 92.3047 169.383 92.4062 168.486 92.4062C167.589 92.4062 166.878 92.2962 166.354 92.0762C165.846 91.873 165.456 91.6276 165.186 91.3398C164.915 91.0521 164.745 90.7559 164.678 90.4512C164.61 90.1465 164.576 89.901 164.576 89.7148V70.1133C164.576 69.6224 164.458 69.1992 164.221 68.8438C164.001 68.4714 163.62 68.2852 163.078 68.2852C162.79 68.2852 162.545 68.3359 162.342 68.4375C162.139 68.5391 161.919 68.6829 161.682 68.8691L161.148 68.2344C161.538 67.9128 161.969 67.5996 162.443 67.2949C162.934 66.9733 163.459 66.694 164.018 66.457C164.576 66.2201 165.177 66.0254 165.82 65.873C166.464 65.7207 167.141 65.6445 167.852 65.6445C168.579 65.6445 169.197 65.7461 169.705 65.9492C170.23 66.1354 170.653 66.3893 170.975 66.7109C171.313 67.0156 171.576 67.3626 171.762 67.752C171.948 68.1413 172.083 68.5391 172.168 68.9453C172.27 69.3346 172.329 69.7155 172.346 70.0879C172.363 70.4434 172.371 70.748 172.371 71.002ZM205.176 69.6309C205.176 72.7285 204.871 75.7246 204.262 78.6191C203.669 81.4967 202.84 84.2051 201.773 86.7441C200.724 89.2663 199.471 91.5684 198.016 93.6504C196.56 95.7493 194.977 97.5436 193.268 99.0332C191.558 100.523 189.747 101.682 187.834 102.512C185.938 103.341 184.017 103.756 182.07 103.756C180.581 103.756 179.43 103.502 178.617 102.994C177.805 102.503 177.398 101.835 177.398 100.988C177.398 100.667 177.449 100.354 177.551 100.049C177.652 99.7441 177.788 99.4733 177.957 99.2363C178.126 98.9993 178.329 98.8047 178.566 98.6523C178.803 98.5169 179.057 98.4492 179.328 98.4492C179.65 98.4492 179.921 98.61 180.141 98.9316C180.344 99.2533 180.564 99.6003 180.801 99.9727C181.038 100.362 181.326 100.717 181.664 101.039C182.003 101.361 182.468 101.521 183.061 101.521C183.822 101.521 184.618 101.386 185.447 101.115C186.277 100.861 187.106 100.489 187.936 99.998C188.782 99.5072 189.62 98.9062 190.449 98.1953C191.296 97.5013 192.125 96.7227 192.938 95.8594C192.464 94.1497 191.913 92.2878 191.287 90.2734C190.678 88.2422 190.026 86.2025 189.332 84.1543C188.655 82.1061 187.952 80.1341 187.225 78.2383C186.514 76.3255 185.811 74.6328 185.117 73.1602C184.44 71.6875 183.78 70.5111 183.137 69.6309C182.51 68.7337 181.952 68.2852 181.461 68.2852C181.139 68.2852 180.894 68.3359 180.725 68.4375C180.538 68.5391 180.327 68.6829 180.09 68.8691L179.582 68.2344C179.921 67.9466 180.276 67.6504 180.648 67.3457C181.021 67.041 181.461 66.7617 181.969 66.5078C182.477 66.2539 183.069 66.0508 183.746 65.8984C184.423 65.7292 185.236 65.6445 186.184 65.6445C187.216 65.6445 188.173 65.8815 189.053 66.3555C189.95 66.8125 190.762 67.6673 191.49 68.9199C192.015 69.8509 192.557 70.9681 193.115 72.2715C193.691 73.5749 194.266 75.0306 194.842 76.6387C195.417 78.2467 195.993 79.9902 196.568 81.8691C197.161 83.7311 197.753 85.6862 198.346 87.7344C199.395 85.5339 200.242 83.2064 200.885 80.752C201.528 78.2806 201.85 75.7415 201.85 73.1348C201.85 72.2038 201.79 71.4082 201.672 70.748C201.553 70.0879 201.418 69.5293 201.266 69.0723C201.113 68.5983 200.978 68.2005 200.859 67.8789C200.741 67.5404 200.682 67.2441 200.682 66.9902C200.682 66.7363 200.783 66.5247 200.986 66.3555C201.189 66.1693 201.435 66.0254 201.723 65.9238C202.01 65.8223 202.298 65.7546 202.586 65.7207C202.891 65.6699 203.145 65.6445 203.348 65.6445C203.805 65.6445 204.152 65.7376 204.389 65.9238C204.643 66.11 204.829 66.3809 204.947 66.7363C205.066 67.0749 205.133 67.4896 205.15 67.9805C205.167 68.4714 205.176 69.0215 205.176 69.6309ZM231.938 88.6738C231.938 89.9772 231.607 90.9251 230.947 91.5176C230.287 92.11 229.255 92.4062 227.85 92.4062C226.428 92.4062 225.387 92.11 224.727 91.5176C224.066 90.9251 223.736 89.9772 223.736 88.6738V71.7129C223.736 71.4928 223.711 71.2728 223.66 71.0527C223.609 70.8158 223.516 70.6126 223.381 70.4434C223.245 70.2572 223.059 70.1048 222.822 69.9863C222.585 69.8678 222.281 69.8086 221.908 69.8086C221.57 69.8086 221.24 69.8763 220.918 70.0117C220.596 70.1471 220.3 70.2995 220.029 70.4688C219.725 70.6549 219.42 70.8665 219.115 71.1035L218.48 70.2656C220.562 68.6237 222.45 67.4473 224.143 66.7363C225.852 66.0085 227.452 65.6445 228.941 65.6445C229.822 65.6445 230.541 65.9069 231.1 66.4316C231.658 66.9395 231.938 67.752 231.938 68.8691V88.6738ZM250.32 92.4062C248.492 92.4062 246.783 92.1439 245.191 91.6191C243.6 91.0944 242.204 90.2904 241.002 89.207C239.817 88.1068 238.878 86.7188 238.184 85.043C237.507 83.3503 237.168 81.3529 237.168 79.0508C237.168 76.7487 237.507 74.7513 238.184 73.0586C238.878 71.3659 239.817 69.9779 241.002 68.8945C242.204 67.7943 243.6 66.9818 245.191 66.457C246.783 65.9154 248.492 65.6445 250.32 65.6445C252.148 65.6445 253.858 65.9154 255.449 66.457C257.057 66.9818 258.454 67.7943 259.639 68.8945C260.84 69.9779 261.788 71.3659 262.482 73.0586C263.176 74.7513 263.523 76.7487 263.523 79.0508C263.523 81.3529 263.176 83.3503 262.482 85.043C261.788 86.7188 260.84 88.1068 259.639 89.207C258.454 90.2904 257.057 91.0944 255.449 91.6191C253.858 92.1439 252.148 92.4062 250.32 92.4062ZM250.32 67.8789C249.999 67.8789 249.66 67.9212 249.305 68.0059C248.949 68.0905 248.594 68.2682 248.238 68.5391C247.9 68.8099 247.578 69.1992 247.273 69.707C246.969 70.1979 246.698 70.8581 246.461 71.6875C246.224 72.5169 246.029 73.541 245.877 74.7598C245.742 75.9616 245.674 77.4089 245.674 79.1016C245.674 80.7943 245.742 82.25 245.877 83.4688C246.029 84.6706 246.224 85.6777 246.461 86.4902C246.698 87.3027 246.969 87.9544 247.273 88.4453C247.578 88.9193 247.9 89.2832 248.238 89.5371C248.594 89.791 248.949 89.9518 249.305 90.0195C249.66 90.0872 249.999 90.1211 250.32 90.1211C250.642 90.1211 250.98 90.0872 251.336 90.0195C251.708 89.9518 252.064 89.791 252.402 89.5371C252.758 89.2832 253.088 88.9193 253.393 88.4453C253.714 87.9544 253.993 87.3027 254.23 86.4902C254.467 85.6777 254.654 84.6706 254.789 83.4688C254.924 82.2669 254.992 80.8112 254.992 79.1016C254.992 77.4089 254.924 75.9616 254.789 74.7598C254.654 73.541 254.467 72.5169 254.23 71.6875C253.993 70.8581 253.714 70.1979 253.393 69.707C253.088 69.1992 252.758 68.8099 252.402 68.5391C252.064 68.2682 251.708 68.0905 251.336 68.0059C250.98 67.9212 250.642 67.8789 250.32 67.8789ZM268.068 100.531C269.101 99.6172 269.812 98.627 270.201 97.5605C270.607 96.4941 270.811 95.487 270.811 94.5391C270.811 93.4727 270.59 92.5501 270.15 91.7715C269.727 90.9759 269.253 90.2904 268.729 89.7148C268.492 89.4271 268.373 89.0632 268.373 88.623C268.373 88.166 268.5 87.6921 268.754 87.2012C269.008 86.6934 269.338 86.2279 269.744 85.8047C270.167 85.3815 270.65 85.0345 271.191 84.7637C271.733 84.4928 272.3 84.3574 272.893 84.3574C273.553 84.3574 274.103 84.5775 274.543 85.0176C274.983 85.4408 275.339 85.9655 275.609 86.5918C275.88 87.2181 276.075 87.8867 276.193 88.5977C276.312 89.2917 276.371 89.9095 276.371 90.4512C276.371 91.6022 276.168 92.7025 275.762 93.752C275.355 94.8184 274.805 95.8171 274.111 96.748C273.434 97.679 272.639 98.5339 271.725 99.3125C270.811 100.108 269.846 100.811 268.83 101.42L268.068 100.531ZM303.26 65.6445C304.529 65.6445 305.714 65.7969 306.814 66.1016C307.915 66.4062 308.863 66.8717 309.658 67.498C310.471 68.1243 311.105 68.9284 311.562 69.9102C312.02 70.875 312.248 72.0176 312.248 73.3379C312.248 74.252 312.053 75.1237 311.664 75.9531C311.292 76.7826 310.784 77.5697 310.141 78.3145C309.514 79.0592 308.795 79.7617 307.982 80.4219C307.17 81.082 306.332 81.6999 305.469 82.2754C304.605 82.8509 303.751 83.3841 302.904 83.875C302.075 84.3659 301.313 84.8229 300.619 85.2461H309.15C310.166 85.2461 310.894 85.0345 311.334 84.6113C311.774 84.1882 312.045 83.528 312.146 82.6309H313.188C313.188 83.1725 313.179 83.7819 313.162 84.459C313.145 85.1361 313.094 85.8216 313.01 86.5156C312.925 87.2096 312.798 87.8867 312.629 88.5469C312.46 89.207 312.214 89.791 311.893 90.2988C311.571 90.8066 311.165 91.2214 310.674 91.543C310.183 91.8477 309.582 92 308.871 92H291.25V90.5527C291.758 90.2311 292.418 89.7656 293.23 89.1562C294.06 88.5469 294.94 87.8359 295.871 87.0234C296.802 86.2109 297.742 85.3138 298.689 84.332C299.637 83.3503 300.492 82.3431 301.254 81.3105C302.016 80.2611 302.633 79.2031 303.107 78.1367C303.598 77.0534 303.844 76.0039 303.844 74.9883C303.844 74.2604 303.742 73.6003 303.539 73.0078C303.353 72.4154 303.057 71.9076 302.65 71.4844C302.244 71.0443 301.728 70.7057 301.102 70.4688C300.492 70.2318 299.756 70.1133 298.893 70.1133C298.08 70.1133 297.335 70.2233 296.658 70.4434C295.998 70.6465 295.389 70.9173 294.83 71.2559C294.288 71.5944 293.798 71.9922 293.357 72.4492C292.934 72.9062 292.562 73.3717 292.24 73.8457L291.555 73.1855C291.927 72.39 292.46 71.5521 293.154 70.6719C293.865 69.7917 294.72 68.9792 295.719 68.2344C296.717 67.4896 297.852 66.8717 299.121 66.3809C300.391 65.89 301.77 65.6445 303.26 65.6445ZM329.742 92.4062C327.914 92.4062 326.204 92.1439 324.613 91.6191C323.022 91.0944 321.626 90.2904 320.424 89.207C319.239 88.1068 318.299 86.7188 317.605 85.043C316.928 83.3503 316.59 81.3529 316.59 79.0508C316.59 76.7487 316.928 74.7513 317.605 73.0586C318.299 71.3659 319.239 69.9779 320.424 68.8945C321.626 67.7943 323.022 66.9818 324.613 66.457C326.204 65.9154 327.914 65.6445 329.742 65.6445C331.57 65.6445 333.28 65.9154 334.871 66.457C336.479 66.9818 337.876 67.7943 339.061 68.8945C340.262 69.9779 341.21 71.3659 341.904 73.0586C342.598 74.7513 342.945 76.7487 342.945 79.0508C342.945 81.3529 342.598 83.3503 341.904 85.043C341.21 86.7188 340.262 88.1068 339.061 89.207C337.876 90.2904 336.479 91.0944 334.871 91.6191C333.28 92.1439 331.57 92.4062 329.742 92.4062ZM329.742 67.8789C329.421 67.8789 329.082 67.9212 328.727 68.0059C328.371 68.0905 328.016 68.2682 327.66 68.5391C327.322 68.8099 327 69.1992 326.695 69.707C326.391 70.1979 326.12 70.8581 325.883 71.6875C325.646 72.5169 325.451 73.541 325.299 74.7598C325.163 75.9616 325.096 77.4089 325.096 79.1016C325.096 80.7943 325.163 82.25 325.299 83.4688C325.451 84.6706 325.646 85.6777 325.883 86.4902C326.12 87.3027 326.391 87.9544 326.695 88.4453C327 88.9193 327.322 89.2832 327.66 89.5371C328.016 89.791 328.371 89.9518 328.727 90.0195C329.082 90.0872 329.421 90.1211 329.742 90.1211C330.064 90.1211 330.402 90.0872 330.758 90.0195C331.13 89.9518 331.486 89.791 331.824 89.5371C332.18 89.2832 332.51 88.9193 332.814 88.4453C333.136 87.9544 333.415 87.3027 333.652 86.4902C333.889 85.6777 334.076 84.6706 334.211 83.4688C334.346 82.2669 334.414 80.8112 334.414 79.1016C334.414 77.4089 334.346 75.9616 334.211 74.7598C334.076 73.541 333.889 72.5169 333.652 71.6875C333.415 70.8581 333.136 70.1979 332.814 69.707C332.51 69.1992 332.18 68.8099 331.824 68.5391C331.486 68.2682 331.13 68.0905 330.758 68.0059C330.402 67.9212 330.064 67.8789 329.742 67.8789ZM356.631 65.6445C357.9 65.6445 359.085 65.7969 360.186 66.1016C361.286 66.4062 362.234 66.8717 363.029 67.498C363.842 68.1243 364.477 68.9284 364.934 69.9102C365.391 70.875 365.619 72.0176 365.619 73.3379C365.619 74.252 365.424 75.1237 365.035 75.9531C364.663 76.7826 364.155 77.5697 363.512 78.3145C362.885 79.0592 362.166 79.7617 361.354 80.4219C360.541 81.082 359.703 81.6999 358.84 82.2754C357.977 82.8509 357.122 83.3841 356.275 83.875C355.446 84.3659 354.684 84.8229 353.99 85.2461H362.521C363.537 85.2461 364.265 85.0345 364.705 84.6113C365.145 84.1882 365.416 83.528 365.518 82.6309H366.559C366.559 83.1725 366.55 83.7819 366.533 84.459C366.516 85.1361 366.465 85.8216 366.381 86.5156C366.296 87.2096 366.169 87.8867 366 88.5469C365.831 89.207 365.585 89.791 365.264 90.2988C364.942 90.8066 364.536 91.2214 364.045 91.543C363.554 91.8477 362.953 92 362.242 92H344.621V90.5527C345.129 90.2311 345.789 89.7656 346.602 89.1562C347.431 88.5469 348.311 87.8359 349.242 87.0234C350.173 86.2109 351.113 85.3138 352.061 84.332C353.008 83.3503 353.863 82.3431 354.625 81.3105C355.387 80.2611 356.005 79.2031 356.479 78.1367C356.969 77.0534 357.215 76.0039 357.215 74.9883C357.215 74.2604 357.113 73.6003 356.91 73.0078C356.724 72.4154 356.428 71.9076 356.021 71.4844C355.615 71.0443 355.099 70.7057 354.473 70.4688C353.863 70.2318 353.127 70.1133 352.264 70.1133C351.451 70.1133 350.706 70.2233 350.029 70.4434C349.369 70.6465 348.76 70.9173 348.201 71.2559C347.66 71.5944 347.169 71.9922 346.729 72.4492C346.305 72.9062 345.933 73.3717 345.611 73.8457L344.926 73.1855C345.298 72.39 345.831 71.5521 346.525 70.6719C347.236 69.7917 348.091 68.9792 349.09 68.2344C350.089 67.4896 351.223 66.8717 352.492 66.3809C353.762 65.89 355.141 65.6445 356.631 65.6445ZM381.59 90.959H369.58V88.623L381.387 68.6406C381.59 68.319 381.81 67.9805 382.047 67.625C382.284 67.2695 382.572 66.9479 382.91 66.6602C383.249 66.3724 383.655 66.1354 384.129 65.9492C384.603 65.7461 385.178 65.6445 385.855 65.6445C386.583 65.6445 387.201 65.7292 387.709 65.8984C388.217 66.0508 388.623 66.2708 388.928 66.5586C389.249 66.8464 389.478 67.1934 389.613 67.5996C389.749 68.0059 389.816 68.446 389.816 68.9199V88.623H394.869V90.959H389.816V98.7031C389.816 100.023 389.486 100.98 388.826 101.572C388.166 102.165 387.125 102.461 385.703 102.461C384.281 102.461 383.24 102.165 382.58 101.572C381.92 100.98 381.59 100.023 381.59 98.7031V90.959ZM381.59 88.623V73.5918L372.906 88.623H381.59ZM400.607 88.1406C400.607 87.5482 400.717 86.9896 400.938 86.4648C401.158 85.9401 401.454 85.4831 401.826 85.0938C402.215 84.7044 402.673 84.3997 403.197 84.1797C403.722 83.9427 404.281 83.8242 404.873 83.8242C405.465 83.8242 406.024 83.9427 406.549 84.1797C407.074 84.3997 407.531 84.7044 407.92 85.0938C408.309 85.4831 408.614 85.9401 408.834 86.4648C409.071 86.9896 409.189 87.5482 409.189 88.1406C409.189 88.75 409.071 89.3171 408.834 89.8418C408.614 90.3496 408.309 90.7982 407.92 91.1875C407.531 91.5599 407.074 91.8561 406.549 92.0762C406.024 92.2962 405.465 92.4062 404.873 92.4062C404.281 92.4062 403.722 92.2962 403.197 92.0762C402.673 91.8561 402.215 91.5599 401.826 91.1875C401.454 90.7982 401.158 90.3496 400.938 89.8418C400.717 89.3171 400.607 88.75 400.607 88.1406ZM400.811 56.5801C400.811 56.4108 400.844 56.1823 400.912 55.8945C400.98 55.6068 401.141 55.3275 401.395 55.0566C401.648 54.7689 402.029 54.5319 402.537 54.3457C403.062 54.1426 403.773 54.041 404.67 54.041C405.567 54.041 406.278 54.1341 406.803 54.3203C407.344 54.4896 407.759 54.7096 408.047 54.9805C408.335 55.2344 408.521 55.5137 408.605 55.8184C408.69 56.1061 408.724 56.36 408.707 56.5801C408.605 58.0527 408.487 59.5254 408.352 60.998C408.233 62.4707 408.098 63.9095 407.945 65.3145C407.793 66.7194 407.632 68.082 407.463 69.4023C407.294 70.7057 407.133 71.9329 406.98 73.084C406.608 75.7754 406.219 78.3568 405.812 80.8281H403.934C403.493 78.3568 403.07 75.7754 402.664 73.084C402.495 71.9329 402.317 70.7057 402.131 69.4023C401.962 68.082 401.792 66.7194 401.623 65.3145C401.454 63.8926 401.301 62.4453 401.166 60.9727C401.031 59.5 400.912 58.0358 400.811 56.5801Z" fill="white"/>
</svg>
