<svg width="140" height="140" viewBox="0 0 140 140" fill="none" xmlns="http://www.w3.org/2000/svg">
<path fill-rule="evenodd" clip-rule="evenodd" d="M18.9926 43.3315C14.9615 43.5899 12.4395 44.6842 11.3344 46.4076C10.2293 48.1311 10.4377 50.6448 12.2048 53.9172C13.9524 57.1536 17.1232 60.9315 21.5027 65.0097C30.2533 73.1582 43.6969 82.3839 59.7622 90.7353C75.8276 99.0866 91.423 104.956 103.636 107.706C109.748 109.081 114.967 109.665 118.954 109.409C122.985 109.151 125.507 108.057 126.612 106.333C127.717 104.61 127.509 102.096 125.742 98.8237C123.994 95.5873 120.824 91.8094 116.444 87.7312C107.693 79.5827 94.2498 70.357 78.1845 62.0056C62.1191 53.6543 46.5237 47.7844 34.3108 45.0354C28.1985 43.6595 22.9793 43.076 18.9926 43.3315ZM34.7632 43.5716C47.1504 46.3599 62.8791 52.2888 79.0311 60.6853C95.1832 69.0817 108.75 78.3817 117.626 86.6465C122.059 90.775 125.355 94.6756 127.206 98.1033C129.038 101.495 129.559 104.631 128.004 107.057C126.449 109.482 123.171 110.644 118.993 110.911C114.771 111.182 109.371 110.562 103.183 109.169C90.7964 106.381 75.0677 100.452 58.9156 92.0556C42.7635 83.6592 29.1965 74.3591 20.321 66.0944C15.8875 61.9659 12.5914 58.0653 10.7405 54.6376C8.90906 51.2458 8.38737 48.1098 9.94273 45.6842C11.4981 43.2586 14.7753 42.0974 18.9534 41.8296C23.1757 41.559 28.5755 42.1788 34.7632 43.5716Z" fill="url(#paint0_linear_7197_199376)"/>
<path fill-rule="evenodd" clip-rule="evenodd" d="M126.562 48.4106C127.964 44.8731 127.861 42.3415 126.531 40.8024C125.201 39.2634 122.5 38.5515 118.347 38.9069C114.246 39.2578 108.993 40.6325 102.928 42.9314C90.8109 47.5248 75.6305 55.7404 60.2781 66.4984C44.9256 77.2563 32.3526 88.4884 24.4315 97.9366C20.4672 102.665 17.6971 106.913 16.3122 110.406C14.9097 113.944 15.013 116.475 16.3433 118.014C17.6736 119.553 20.3739 120.265 24.5269 119.91C28.6279 119.559 33.8814 118.184 39.9459 115.885C52.0633 111.292 67.2436 103.076 82.5961 92.3184C97.9485 81.5605 110.522 70.3284 118.443 60.8802C122.407 56.1516 125.177 51.9039 126.562 48.4106ZM119.761 61.7997C111.734 71.3742 99.0514 82.693 83.6218 93.5051C68.1921 104.317 52.8916 112.607 40.6121 117.262C34.4782 119.587 29.0543 121.022 24.7217 121.393C20.4411 121.759 16.9516 121.104 15.0588 118.914C13.166 116.725 13.318 113.518 14.7636 109.872C16.2267 106.182 19.1038 101.8 23.1135 97.0171C31.1405 87.4426 43.8227 76.1238 59.2524 65.3117C74.682 54.4997 89.9825 46.2101 102.262 41.5553C108.396 39.23 113.82 37.7948 118.152 37.4241C122.433 37.0578 125.922 37.7125 127.815 39.9024C129.708 42.0922 129.556 45.2986 128.111 48.9448C126.647 52.6353 123.77 57.0169 119.761 61.7997Z" fill="url(#paint1_linear_7197_199376)"/>
<circle opacity="0.9" cx="67.7575" cy="70.7566" r="45.7575" fill="url(#paint2_linear_7197_199376)"/>
<path d="M91.8176 77.3114C89.9677 91.0649 77.3327 100.717 63.5965 98.869C49.8602 97.0214 40.2244 84.3743 42.0743 70.6208C43.9242 56.8674 58.1354 35.4968 71.8717 37.3443C85.6079 39.1919 93.6675 63.558 91.8176 77.3114Z" fill="url(#paint3_linear_7197_199376)"/>
<path fill-rule="evenodd" clip-rule="evenodd" d="M85.0276 14.9596C83.2085 11.8021 81.1048 10.1783 78.8568 10.0036C76.9887 9.85833 74.9487 10.7039 72.7846 12.6211C70.6234 14.5357 68.4284 17.4444 66.2979 21.2113C62.0406 28.7389 58.1321 39.5299 55.2658 52.154C55.1694 52.5787 54.7326 52.8656 54.2902 52.7949C53.8479 52.7241 53.5674 52.3225 53.6639 51.8979C56.5504 39.1848 60.5028 28.235 64.8624 20.5266C67.0405 16.6755 69.3429 13.5926 71.6992 11.5051C74.0526 9.42035 76.5501 8.25376 79.0704 8.44969C82.1014 8.68532 84.5613 10.8383 86.4746 14.1595C88.3997 17.501 89.8695 22.1832 90.8539 27.8336C92.8243 39.1445 92.8796 54.5157 90.5751 71.2767C88.2707 88.0378 84.0347 103.075 79.0286 113.844C76.5278 119.223 73.8152 123.58 71.0217 126.555C68.2453 129.512 65.2517 131.241 62.2207 131.005C59.9847 130.831 58.0556 129.608 56.4393 127.66C54.8251 125.713 53.4728 122.987 52.3818 119.657C50.1984 112.993 49.0087 103.747 48.9733 93.0132C48.9719 92.5833 49.3378 92.2164 49.7905 92.1937C50.2432 92.1711 50.6114 92.5012 50.6128 92.9311C50.6479 103.581 51.8305 112.66 53.9493 119.127C55.0094 122.362 56.2907 124.903 57.7459 126.657C59.1992 128.41 60.7755 129.322 62.4344 129.451C64.6823 129.626 67.1833 128.36 69.823 125.549C72.4455 122.757 75.0704 118.574 77.5343 113.274C82.4576 102.683 86.6601 87.803 88.9496 71.1503C91.2391 54.4977 91.1739 39.2859 89.236 28.1619C88.2662 22.5949 86.8348 18.0967 85.0276 14.9596Z" fill="url(#paint4_linear_7197_199376)"/>
<path fill-rule="evenodd" clip-rule="evenodd" d="M136.553 82.4824C137.309 81.6603 137.598 80.9015 137.557 80.2058C137.489 79.062 136.489 77.7453 134.14 76.3539C131.841 74.9917 128.478 73.6997 124.213 72.5356C115.693 70.2107 105.152 68.4439 91.363 67.5746C91.363 67.5746 91.5531 66.515 91.56 66.012C105.409 66.8851 115.879 68.6624 124.543 71.027C128.87 72.2077 132.396 73.5468 134.883 75.0201C137.321 76.4642 139.006 78.1874 139.125 80.2058C139.199 81.4446 138.661 82.5745 137.739 83.5767C136.82 84.5761 135.472 85.5025 133.785 86.3612C130.409 88.0801 125.517 89.6061 119.5 90.8795C107.453 93.4291 90.7311 95 72.1834 95C53.6357 95 36.7283 93.4291 24.3801 90.8795C18.2125 89.6061 13.14 88.0801 9.56017 86.3612C7.77177 85.5025 6.31425 84.5761 5.27675 83.5767C4.23641 82.5745 3.56549 81.4446 3.49225 80.2058C3.37953 78.2989 4.69793 76.6574 6.73641 75.2733C8.81003 73.8654 11.8321 72.58 15.5969 71.4347C23.1376 69.1405 33.838 67.3553 46.3772 66.3428C46.8069 66.3081 47.204 66.6294 47.2642 67.0603C47.3245 67.4913 47.025 67.8688 46.5953 67.9035C34.1133 68.9114 23.5325 70.6842 16.1354 72.9346C12.4313 74.0615 9.57038 75.295 7.67229 76.5838C5.73908 77.8964 4.9971 79.1293 5.06073 80.2058C5.10186 80.9015 5.48046 81.6603 6.3338 82.4824C7.19001 83.3071 8.47036 84.1404 10.1731 84.958C13.5755 86.5917 18.4982 88.0849 24.6109 89.347C36.8234 91.8686 53.6176 93.4342 72.0908 93.4343C90.5641 93.4343 107.173 91.8686 119.088 89.347C125.051 88.0849 129.797 86.5917 133.006 84.958C134.613 84.1404 135.794 83.3072 136.553 82.4824Z" fill="url(#paint5_linear_7197_199376)"/>
<path d="M52.4215 67.1295C52.4215 84.3827 60.118 89.0882 60.118 89.0882L63.5965 91.0276C63.5965 91.0276 53.99 90.2637 50.0696 92.5726C44.1775 87.2059 40.9305 79.1253 42.0743 70.6218C43.9242 56.8684 58.1354 35.4977 71.8717 37.3453C68.4984 38.5048 52.4215 49.8763 52.4215 67.1295Z" fill="url(#paint6_linear_7197_199376)"/>
<path fill-rule="evenodd" clip-rule="evenodd" d="M65.1015 85.9757C73.1361 87.0564 80.5256 81.419 81.6063 73.3844C82.6869 65.3497 77.0496 57.9603 69.015 56.8796C60.9803 55.7989 53.5909 61.4363 52.5102 69.4709C51.4295 77.5056 57.0668 84.895 65.1015 85.9757ZM64.8735 87.6706C73.8443 88.8772 82.0946 82.5831 83.3012 73.6124C84.5078 64.6416 78.2137 56.3913 69.2429 55.1847C60.2722 53.9781 52.0219 60.2722 50.8153 69.2429C49.6087 78.2137 55.9028 86.464 64.8735 87.6706Z" fill="#FAAD14"/>
<path d="M73.7661 68.1415C73.8496 65.9531 72.0824 64.9771 69.755 64.4531L69.9412 63.0692L68.1175 62.8239L67.942 64.1289C67.4629 64.0645 66.9716 64.0077 66.4831 63.9514L66.6613 62.627L64.8387 62.3818L64.6527 63.7652C64.2569 63.7197 61.8316 63.3913 61.8316 63.3913L61.6099 64.9984L63.1306 65.2117L61.7133 75.7495L60.192 75.5449L59.9652 77.1282C60.4071 77.1876 62.3723 77.4607 62.7981 77.5208L62.6144 78.8869L64.4369 79.132L64.6163 77.7983C65.1145 77.8764 65.5985 77.9459 66.0713 78.0089L65.8938 79.3285L67.718 79.5739L67.9009 78.2137C70.9914 78.4515 73.2427 77.9686 73.8966 75.1252C74.4249 72.8353 73.4737 71.6546 71.7894 70.9997C72.9199 70.6012 73.7087 69.7432 73.7673 68.1411L73.7661 68.1415ZM70.3391 74.2784C70.0344 76.5438 66.1911 75.7632 64.9536 75.5973L65.4938 71.5812C66.7306 71.7476 70.6547 71.9158 70.3375 74.2782L70.3391 74.2784ZM70.2549 68.4979C69.9777 70.5589 66.774 69.8819 65.7438 69.7433L66.2337 66.1004C67.2655 66.2398 70.5452 66.3483 70.2549 68.4979Z" fill="#FAAD14"/>
<defs>
<linearGradient id="paint0_linear_7197_199376" x1="22.6971" y1="33.0492" x2="18.7668" y2="113.52" gradientUnits="userSpaceOnUse">
<stop stop-color="#BD30FF"/>
<stop offset="1" stop-color="#7D00FF"/>
</linearGradient>
<linearGradient id="paint1_linear_7197_199376" x1="135.707" y1="55.2232" x2="59.4422" y2="12.8207" gradientUnits="userSpaceOnUse">
<stop stop-color="#BD30FF"/>
<stop offset="1" stop-color="#7D00FF"/>
</linearGradient>
<linearGradient id="paint2_linear_7197_199376" x1="24.7047" y1="28.6056" x2="123.884" y2="86.3096" gradientUnits="userSpaceOnUse">
<stop offset="0.234375" stop-color="#BC2DFF"/>
<stop offset="1" stop-color="#5700B1"/>
</linearGradient>
<linearGradient id="paint3_linear_7197_199376" x1="71.8717" y1="37.3443" x2="63.5965" y2="98.8689" gradientUnits="userSpaceOnUse">
<stop offset="0.416667" stop-color="white"/>
<stop offset="1" stop-color="#E2E8F0"/>
</linearGradient>
<linearGradient id="paint4_linear_7197_199376" x1="96.9587" y1="13.5012" x2="15.0853" y2="45.8286" gradientUnits="userSpaceOnUse">
<stop stop-color="#BD30FF"/>
<stop offset="1" stop-color="#7D00FF"/>
</linearGradient>
<linearGradient id="paint5_linear_7197_199376" x1="135.924" y1="93.8576" x2="111.611" y2="29.1089" gradientUnits="userSpaceOnUse">
<stop stop-color="#BD30FF"/>
<stop offset="1" stop-color="#7D00FF"/>
</linearGradient>
<linearGradient id="paint6_linear_7197_199376" x1="71.8717" y1="37.3453" x2="55.1663" y2="89.0882" gradientUnits="userSpaceOnUse">
<stop stop-color="#F6F7FA"/>
<stop offset="0.796875" stop-color="#E2E8F0"/>
<stop offset="0.984375" stop-color="#E2E8F0" stop-opacity="0"/>
</linearGradient>
</defs>
</svg>
