<svg width="196" height="172" viewBox="0 0 196 172" fill="none" xmlns="http://www.w3.org/2000/svg">
<path fill-rule="evenodd" clip-rule="evenodd" d="M114.575 135.689C114.575 134.281 115.722 133.14 117.136 133.14H132.284V144.624H117.136C115.722 144.624 114.575 143.482 114.575 142.075V135.689Z" fill="#E2E8F0"/>
<path d="M116.537 131.088H131.685V119.308C131.685 118.953 131.643 118.607 131.568 118.273H74.0865C72.5494 118.273 71.3034 117.774 71.3034 117.159C71.3034 116.545 72.5494 116.046 74.0865 116.046H75.319L74.9647 114.56H73.6032C70.9686 114.56 68.8325 116.686 68.8325 119.308V154.193C68.8325 156.816 70.9686 158.942 73.6032 158.942H126.915C129.549 158.942 131.685 156.817 131.685 154.193V146.677H116.537C113.988 146.677 111.915 144.614 111.915 142.077V135.691C111.915 133.153 113.988 131.09 116.537 131.09V131.088Z" fill="#E2E8F0"/>
<rect x="14.7837" y="18" width="67.2614" height="22.4905" rx="11.2452" fill="#E2E8F0"/>
<rect x="116.798" y="18" width="62.0429" height="21.9342" rx="10.9671" fill="#E2E8F0"/>
<line x1="195.5" y1="170.625" x2="195.5" y2="0.487549" stroke="black" stroke-opacity="0.04"/>
<line x1="171.125" y1="170.625" x2="171.125" y2="0.487549" stroke="black" stroke-opacity="0.04"/>
<line x1="183.312" y1="170.625" x2="183.313" y2="0.487549" stroke="black" stroke-opacity="0.04"/>
<line x1="146.75" y1="170.625" x2="146.75" y2="0.487549" stroke="black" stroke-opacity="0.04"/>
<line x1="158.938" y1="170.625" x2="158.938" y2="0.487549" stroke="black" stroke-opacity="0.04"/>
<line x1="122.375" y1="170.625" x2="122.375" y2="0.487549" stroke="black" stroke-opacity="0.04"/>
<line x1="134.562" y1="170.625" x2="134.563" y2="0.487549" stroke="black" stroke-opacity="0.04"/>
<line x1="98" y1="170.625" x2="98.0001" y2="0.487549" stroke="black" stroke-opacity="0.04"/>
<line x1="110.188" y1="170.625" x2="110.188" y2="0.487549" stroke="black" stroke-opacity="0.04"/>
<line x1="73.625" y1="170.625" x2="73.6251" y2="0.487549" stroke="black" stroke-opacity="0.04"/>
<line x1="85.8125" y1="170.625" x2="85.8126" y2="0.487549" stroke="black" stroke-opacity="0.04"/>
<line x1="196" y1="0.5" x2="1.00005" y2="0.499982" stroke="black" stroke-opacity="0.04"/>
<line x1="196" y1="24.875" x2="1.00005" y2="24.875" stroke="black" stroke-opacity="0.04"/>
<line x1="196" y1="49.25" x2="1.00005" y2="49.25" stroke="black" stroke-opacity="0.04"/>
<line x1="196" y1="73.625" x2="1.00005" y2="73.625" stroke="black" stroke-opacity="0.04"/>
<line x1="196" y1="98" x2="1.00005" y2="98" stroke="black" stroke-opacity="0.04"/>
<line x1="196" y1="122.375" x2="1.00005" y2="122.375" stroke="black" stroke-opacity="0.04"/>
<line x1="196" y1="110.188" x2="1.00005" y2="110.187" stroke="black" stroke-opacity="0.04"/>
<line x1="196" y1="85.8125" x2="1.00005" y2="85.8125" stroke="black" stroke-opacity="0.04"/>
<line x1="196" y1="61.4375" x2="1.00005" y2="61.4375" stroke="black" stroke-opacity="0.04"/>
<line x1="196" y1="37.0625" x2="1.00005" y2="37.0625" stroke="black" stroke-opacity="0.04"/>
<line x1="196" y1="12.6875" x2="1.00005" y2="12.6875" stroke="black" stroke-opacity="0.04"/>
<line x1="196" y1="134.562" x2="1.00005" y2="134.562" stroke="black" stroke-opacity="0.04"/>
<line x1="196" y1="158.938" x2="1.00005" y2="158.937" stroke="black" stroke-opacity="0.04"/>
<line x1="196" y1="146.75" x2="1.00005" y2="146.75" stroke="black" stroke-opacity="0.04"/>
<line x1="196" y1="171.125" x2="1.00005" y2="171.125" stroke="black" stroke-opacity="0.04"/>
<line x1="49.25" y1="170.625" x2="49.25" y2="0.487549" stroke="black" stroke-opacity="0.04"/>
<line x1="61.4375" y1="170.625" x2="61.4375" y2="0.487549" stroke="black" stroke-opacity="0.04"/>
<line x1="24.875" y1="170.625" x2="24.875" y2="0.487549" stroke="black" stroke-opacity="0.04"/>
<line x1="37.0625" y1="170.625" x2="37.0625" y2="0.487549" stroke="black" stroke-opacity="0.04"/>
<line x1="12.6875" y1="170.625" x2="12.6875" y2="0.487549" stroke="black" stroke-opacity="0.04"/>
<line x1="0.5" y1="171.641" x2="0.500008" y2="0.487534" stroke="black" stroke-opacity="0.04"/>
<path d="M91 66.5L91 60.5545C91 57.2408 88.3137 54.5545 85 54.5545L30.5 54.5545C27.1863 54.5545 24.5 51.8683 24.5 48.5545L24.5 37" stroke="#718096" stroke-linecap="round"/>
<path d="M90.0912 66.7985C90.4817 67.189 91.1149 67.189 91.5054 66.7985L96.1016 62.2023C96.2969 62.0071 96.2969 61.6905 96.1016 61.4952C95.9063 61.3 95.5898 61.3 95.3945 61.4952L91.5055 65.3842C91.115 65.7747 90.4818 65.7747 90.0913 65.3842L86.0607 61.3536C85.8654 61.1583 85.5488 61.1583 85.3536 61.3536C85.1583 61.5488 85.1583 61.8654 85.3535 62.0607L90.0912 66.7985Z" fill="#718096"/>
<path d="M105 66.5L105 60.5545C105 57.2408 107.686 54.5545 111 54.5545L153.5 54.5545C156.814 54.5545 159.5 51.8683 159.5 48.5545L159.5 34.5" stroke="#718096" stroke-linecap="round"/>
<path d="M105.909 66.7985C105.518 67.189 104.885 67.189 104.495 66.7985L99.8984 62.2023C99.7031 62.0071 99.7031 61.6905 99.8984 61.4952C100.094 61.3 100.41 61.3 100.606 61.4952L104.494 65.3842C104.885 65.7747 105.518 65.7747 105.909 65.3842L109.939 61.3536C110.135 61.1583 110.451 61.1583 110.646 61.3536C110.842 61.5488 110.842 61.8654 110.646 62.0607L105.909 66.7985Z" fill="#718096"/>
<rect x="10.5" y="12.5" width="68.2614" height="23.4905" rx="11.7452" fill="#F6F7FA" stroke="url(#paint0_linear_7150_197996)"/>
<path d="M22.7097 27.1019C22.2633 27.1002 21.8792 26.9903 21.5574 26.7723C21.2374 26.5544 20.9908 26.2386 20.8178 25.8251C20.6465 25.4116 20.5618 24.9142 20.5635 24.3329C20.5635 23.7534 20.6491 23.2594 20.8204 22.8511C20.9934 22.4428 21.24 22.1323 21.56 21.9195C21.8818 21.7049 22.265 21.5977 22.7097 21.5977C23.1543 21.5977 23.5366 21.7049 23.8567 21.9195C24.1785 22.134 24.4259 22.4454 24.5989 22.8537C24.7719 23.2603 24.8576 23.7534 24.8558 24.3329C24.8558 24.916 24.7693 25.4142 24.5963 25.8277C24.425 26.2412 24.1794 26.557 23.8593 26.7749C23.5392 26.9929 23.156 27.1019 22.7097 27.1019ZM22.7097 26.1703C23.0142 26.1703 23.2572 26.0172 23.4389 25.7109C23.6206 25.4047 23.7105 24.9454 23.7088 24.3329C23.7088 23.9298 23.6673 23.5942 23.5842 23.326C23.5029 23.0579 23.387 22.8563 23.2365 22.7214C23.0877 22.5864 22.9121 22.519 22.7097 22.519C22.4069 22.519 22.1647 22.6703 21.983 22.9731C21.8014 23.2759 21.7097 23.7291 21.7079 24.3329C21.7079 24.7412 21.7486 25.0821 21.8299 25.3554C21.913 25.627 22.0297 25.8312 22.1803 25.9679C22.3308 26.1028 22.5072 26.1703 22.7097 26.1703Z" fill="#4A5568"/>
<path d="M26.5913 22.999L27.3231 24.3926L28.0731 22.999H29.2072L28.0524 24.9921L29.2383 26.9851H28.1095L27.3231 25.6071L26.5498 26.9851H25.4079L26.5913 24.9921L25.4495 22.999H26.5913Z" fill="#4A5568"/>
<path d="M30.8006 26.9851H29.5965L31.4312 21.6703H32.8793L34.7114 26.9851H33.5073L32.176 22.8849H32.1345L30.8006 26.9851ZM30.7253 24.8961H33.5696V25.7732H30.7253V24.8961Z" fill="#4A5568"/>
<path d="M35.3511 26.9851V21.6703H36.4566V23.6686H36.4904C36.5388 23.5613 36.6089 23.4523 36.7006 23.3416C36.794 23.2291 36.9151 23.1357 37.0639 23.0613C37.2144 22.9852 37.4013 22.9471 37.6245 22.9471C37.9151 22.9471 38.1833 23.0233 38.4289 23.1755C38.6746 23.326 38.871 23.5535 39.018 23.858C39.1651 24.1608 39.2386 24.5405 39.2386 24.9973C39.2386 25.4419 39.1668 25.8173 39.0232 26.1236C38.8814 26.4281 38.6876 26.659 38.4419 26.8165C38.198 26.9722 37.9246 27.05 37.6219 27.05C37.4073 27.05 37.2248 27.0146 37.0743 26.9436C36.9255 26.8727 36.8035 26.7836 36.7084 26.6763C36.6132 26.5673 36.5406 26.4575 36.4904 26.3467H36.4411V26.9851H35.3511ZM36.4333 24.9921C36.4333 25.2291 36.4662 25.4359 36.5319 25.6123C36.5977 25.7888 36.6928 25.9263 36.8174 26.025C36.9419 26.1218 37.0933 26.1703 37.2715 26.1703C37.4514 26.1703 37.6037 26.121 37.7283 26.0224C37.8528 25.922 37.9471 25.7836 38.0111 25.6071C38.0769 25.4289 38.1097 25.2239 38.1097 24.9921C38.1097 24.762 38.0777 24.5596 38.0137 24.3848C37.9497 24.2101 37.8554 24.0734 37.7309 23.9748C37.6063 23.8762 37.4532 23.8269 37.2715 23.8269C37.0916 23.8269 36.9393 23.8745 36.8148 23.9696C36.6919 24.0648 36.5977 24.1997 36.5319 24.3745C36.4662 24.5492 36.4333 24.7551 36.4333 24.9921Z" fill="#4A5568"/>
<path d="M39.8854 26.0509V25.166L42.1043 21.6703H42.8672V22.8952H42.4157L41.0169 25.1089V25.1504H44.17V26.0509H39.8854ZM42.4364 26.9851V25.781L42.4572 25.3892V21.6703H43.5108V26.9851H42.4364Z" fill="#4A5568"/>
<path d="M45.4753 27.0526C45.3041 27.0526 45.157 26.9921 45.0342 26.871C44.9131 26.7481 44.8525 26.6011 44.8525 26.4298C44.8525 26.2602 44.9131 26.1149 45.0342 25.9938C45.157 25.8727 45.3041 25.8122 45.4753 25.8122C45.6414 25.8122 45.7867 25.8727 45.9113 25.9938C46.0359 26.1149 46.0982 26.2602 46.0982 26.4298C46.0982 26.544 46.0687 26.6486 46.0099 26.7438C45.9528 26.8372 45.8776 26.9125 45.7842 26.9696C45.6907 27.0249 45.5878 27.0526 45.4753 27.0526Z" fill="#4A5568"/>
<path d="M47.652 27.0526C47.4807 27.0526 47.3337 26.9921 47.2108 26.871C47.0897 26.7481 47.0292 26.6011 47.0292 26.4298C47.0292 26.2602 47.0897 26.1149 47.2108 25.9938C47.3337 25.8727 47.4807 25.8122 47.652 25.8122C47.8181 25.8122 47.9634 25.8727 48.088 25.9938C48.2125 26.1149 48.2748 26.2602 48.2748 26.4298C48.2748 26.544 48.2454 26.6486 48.1866 26.7438C48.1295 26.8372 48.0542 26.9125 47.9608 26.9696C47.8674 27.0249 47.7644 27.0526 47.652 27.0526Z" fill="#4A5568"/>
<path d="M49.8286 27.0526C49.6574 27.0526 49.5103 26.9921 49.3875 26.871C49.2664 26.7481 49.2058 26.6011 49.2058 26.4298C49.2058 26.2602 49.2664 26.1149 49.3875 25.9938C49.5103 25.8727 49.6574 25.8122 49.8286 25.8122C49.9947 25.8122 50.1401 25.8727 50.2646 25.9938C50.3892 26.1149 50.4515 26.2602 50.4515 26.4298C50.4515 26.544 50.4221 26.6486 50.3632 26.7438C50.3061 26.8372 50.2309 26.9125 50.1375 26.9696C50.044 27.0249 49.9411 27.0526 49.8286 27.0526Z" fill="#4A5568"/>
<path d="M51.3591 26.9851L53.5624 22.6254V22.589H50.9958V21.6703H54.725V22.602L52.5191 26.9851H51.3591Z" fill="#4A5568"/>
<path d="M55.848 26.9851L58.0513 22.6254V22.589H55.4847V21.6703H59.2139V22.602L57.008 26.9851H55.848Z" fill="#4A5568"/>
<path d="M61.8356 21.5977C62.109 21.5977 62.3719 21.6435 62.6245 21.7352C62.8788 21.8269 63.1055 21.9731 63.3044 22.1738C63.5051 22.3745 63.6634 22.6409 63.7793 22.9731C63.897 23.3035 63.9567 23.7092 63.9584 24.1902C63.9584 24.6418 63.9074 25.0449 63.8053 25.3995C63.7049 25.7525 63.5605 26.0526 63.3719 26.3C63.1833 26.5474 62.9558 26.736 62.6894 26.8658C62.423 26.9938 62.1254 27.0578 61.7967 27.0578C61.442 27.0578 61.1289 26.9895 60.8572 26.8528C60.5856 26.7144 60.3668 26.5267 60.2007 26.2897C60.0363 26.0509 59.9368 25.7827 59.9022 25.4852H61.0103C61.0536 25.6789 61.1444 25.8295 61.2828 25.9367C61.4212 26.0423 61.5925 26.095 61.7967 26.095C62.1427 26.095 62.4057 25.9445 62.5856 25.6435C62.7655 25.3407 62.8563 24.9264 62.8581 24.4004H62.8217C62.7422 24.5561 62.6349 24.6902 62.5 24.8027C62.365 24.9134 62.2102 24.999 62.0354 25.0596C61.8624 25.1201 61.6782 25.1504 61.4827 25.1504C61.1695 25.1504 60.8901 25.0769 60.6444 24.9298C60.3988 24.7828 60.205 24.5803 60.0631 24.3226C59.9213 24.0648 59.8503 23.7707 59.8503 23.4402C59.8486 23.0838 59.9308 22.7664 60.0969 22.4878C60.263 22.2093 60.4948 21.9913 60.7924 21.8338C61.0917 21.6747 61.4394 21.596 61.8356 21.5977ZM61.8434 22.48C61.6686 22.48 61.5129 22.5215 61.3763 22.6046C61.2413 22.6876 61.1341 22.7992 61.0545 22.9394C60.9766 23.0795 60.9386 23.2361 60.9403 23.4091C60.9403 23.5838 60.9783 23.7413 61.0545 23.8814C61.1323 24.0198 61.2379 24.1305 61.3711 24.2136C61.506 24.2949 61.66 24.3355 61.833 24.3355C61.9628 24.3355 62.083 24.3113 62.1937 24.2629C62.3045 24.2144 62.4005 24.1478 62.4818 24.063C62.5648 23.9765 62.6297 23.8771 62.6764 23.7646C62.7231 23.6522 62.7465 23.5328 62.7465 23.4065C62.7448 23.2387 62.705 23.0847 62.6271 22.9446C62.5493 22.8044 62.442 22.692 62.3053 22.6072C62.1686 22.5224 62.0147 22.48 61.8434 22.48Z" fill="#4A5568"/>
<path d="M64.7369 26.9851V26.1755L66.6288 24.4238C66.7897 24.2681 66.9246 24.1279 67.0336 24.0034C67.1443 23.8788 67.2283 23.7568 67.2853 23.6374C67.3424 23.5163 67.371 23.3857 67.371 23.2456C67.371 23.0899 67.3355 22.9558 67.2646 22.8433C67.1936 22.7292 67.0968 22.6418 66.9739 22.5812C66.8511 22.519 66.7118 22.4878 66.5561 22.4878C66.3935 22.4878 66.2516 22.5207 66.1305 22.5864C66.0094 22.6522 65.916 22.7465 65.8502 22.8693C65.7845 22.9921 65.7516 23.1383 65.7516 23.3079H64.685C64.685 22.9601 64.7638 22.6582 64.9212 22.4022C65.0786 22.1461 65.2992 21.948 65.583 21.8079C65.8667 21.6678 66.1937 21.5977 66.5639 21.5977C66.9445 21.5977 67.2758 21.6652 67.5578 21.8001C67.8416 21.9333 68.0622 22.1184 68.2196 22.3555C68.377 22.5925 68.4557 22.8641 68.4557 23.1703C68.4557 23.371 68.416 23.5691 68.3364 23.7646C68.2585 23.9601 68.1192 24.1772 67.9186 24.416C67.7179 24.653 67.435 24.9376 67.07 25.2698L66.294 26.0301V26.0665H68.5258V26.9851H64.7369Z" fill="#4A5568"/>
<path d="M81.9072 39C81.9072 44.5228 77.4301 49 71.9072 49C66.3844 49 61.9072 44.5228 61.9072 39C61.9072 33.4772 66.3844 29 71.9072 29C77.4301 29 81.9072 33.4772 81.9072 39Z" fill="url(#paint1_linear_7150_197996)" stroke="white" stroke-width="2"/>
<path d="M68.4568 38.9486L71.9025 40.9443V37.4138V33.3467L68.4568 38.9486Z" fill="white"/>
<path d="M71.9031 33.3467V37.4138V40.9443L75.3488 38.9486L71.9031 33.3467Z" fill="white"/>
<path d="M68.4563 39.5889L71.902 44.3465V41.5833L68.4563 39.5889Z" fill="white"/>
<path d="M71.9019 41.5833V44.3465L75.3501 39.5889L71.9019 41.5833Z" fill="white"/>
<path d="M68.4688 38.9509L71.8992 37.4229V40.9378L68.4688 38.9509Z" fill="white"/>
<path d="M75.3296 38.9506L71.8992 40.9371V37.4229L75.3296 38.9506Z" fill="white"/>
<rect x="112.025" y="12.5" width="63.0429" height="22.9342" rx="11.4671" fill="#F6F7FA" stroke="url(#paint2_linear_7150_197996)"/>
<path d="M121.944 26.64V21.4566H123.022V23.4054H123.055C123.102 23.3008 123.17 23.1945 123.26 23.0865C123.351 22.9769 123.469 22.8857 123.614 22.8132C123.761 22.7389 123.943 22.7018 124.161 22.7018C124.444 22.7018 124.706 22.7761 124.945 22.9246C125.185 23.0713 125.376 23.2932 125.52 23.5902C125.663 23.8855 125.735 24.2558 125.735 24.7013C125.735 25.1349 125.665 25.501 125.525 25.7997C125.387 26.0967 125.198 26.3219 124.958 26.4755C124.72 26.6273 124.453 26.7032 124.158 26.7032C123.949 26.7032 123.771 26.6686 123.624 26.5995C123.479 26.5303 123.36 26.4434 123.267 26.3388C123.174 26.2325 123.104 26.1253 123.055 26.0174H123.007V26.64H121.944ZM122.999 24.6962C122.999 24.9274 123.031 25.129 123.095 25.3011C123.159 25.4732 123.252 25.6073 123.374 25.7035C123.495 25.798 123.643 25.8453 123.816 25.8453C123.992 25.8453 124.14 25.7972 124.262 25.701C124.383 25.6031 124.475 25.4681 124.538 25.296C124.602 25.1222 124.634 24.9223 124.634 24.6962C124.634 24.4718 124.603 24.2744 124.54 24.104C124.478 23.9336 124.386 23.8003 124.264 23.7041C124.143 23.6079 123.994 23.5598 123.816 23.5598C123.641 23.5598 123.493 23.6062 123.371 23.699C123.251 23.7918 123.159 23.9234 123.095 24.0938C123.031 24.2643 122.999 24.465 122.999 24.6962Z" fill="#4A5568"/>
<path d="M128.211 26.7159C127.813 26.7159 127.47 26.6315 127.183 26.4628C126.898 26.2924 126.679 26.0562 126.525 25.7541C126.373 25.4521 126.297 25.1045 126.297 24.7114C126.297 24.3132 126.374 23.9639 126.528 23.6636C126.683 23.3616 126.903 23.1262 127.188 22.9575C127.473 22.787 127.813 22.7018 128.206 22.7018C128.545 22.7018 128.842 22.7634 129.097 22.8866C129.351 23.0098 129.553 23.1827 129.702 23.4054C129.85 23.6282 129.932 23.8897 129.947 24.19H128.93C128.901 23.996 128.825 23.8399 128.702 23.7218C128.58 23.602 128.421 23.5421 128.223 23.5421C128.056 23.5421 127.91 23.5877 127.786 23.6788C127.662 23.7682 127.566 23.899 127.497 24.0711C127.428 24.2432 127.393 24.4515 127.393 24.6962C127.393 24.9442 127.427 25.1551 127.495 25.3289C127.564 25.5027 127.661 25.6352 127.786 25.7263C127.91 25.8174 128.056 25.863 128.223 25.863C128.347 25.863 128.457 25.8377 128.555 25.787C128.655 25.7364 128.736 25.663 128.801 25.5668C128.866 25.469 128.909 25.3517 128.93 25.215H129.947C129.93 25.512 129.849 25.7735 129.704 25.9996C129.561 26.224 129.362 26.3995 129.109 26.5261C128.856 26.6526 128.557 26.7159 128.211 26.7159Z" fill="#4A5568"/>
<path d="M132.882 21.4566V26.64H131.786V22.4968H131.756L130.569 23.2409V22.269L131.852 21.4566H132.882Z" fill="#4A5568"/>
<path d="M136.693 28.0978V26.0174H136.66C136.61 26.1253 136.538 26.2325 136.445 26.3388C136.354 26.4434 136.235 26.5303 136.088 26.5995C135.943 26.6686 135.766 26.7032 135.557 26.7032C135.262 26.7032 134.994 26.6273 134.755 26.4755C134.517 26.3219 134.328 26.0967 134.188 25.7997C134.049 25.501 133.98 25.1349 133.98 24.7013C133.98 24.2558 134.052 23.8855 134.195 23.5902C134.339 23.2932 134.529 23.0713 134.767 22.9246C135.007 22.7761 135.269 22.7018 135.554 22.7018C135.772 22.7018 135.953 22.7389 136.098 22.8132C136.245 22.8857 136.363 22.9769 136.453 23.0865C136.544 23.1945 136.613 23.3008 136.66 23.4054H136.706V22.7524H137.769V28.0978H136.693ZM135.899 25.8453C136.072 25.8453 136.219 25.798 136.339 25.7035C136.46 25.6073 136.553 25.4732 136.617 25.3011C136.683 25.129 136.716 24.9274 136.716 24.6962C136.716 24.465 136.684 24.2643 136.62 24.0938C136.556 23.9234 136.463 23.7918 136.341 23.699C136.22 23.6062 136.072 23.5598 135.899 23.5598C135.721 23.5598 135.572 23.6079 135.451 23.7041C135.329 23.8003 135.237 23.9336 135.175 24.104C135.112 24.2744 135.081 24.4718 135.081 24.6962C135.081 24.9223 135.112 25.1222 135.175 25.296C135.239 25.4681 135.331 25.6031 135.451 25.701C135.572 25.7972 135.721 25.8453 135.899 25.8453Z" fill="#4A5568"/>
<path d="M139.536 22.7524L140.249 24.1116L140.981 22.7524H142.087L140.96 24.6962L142.117 26.64H141.016L140.249 25.296L139.495 26.64H138.381L139.536 24.6962L138.422 22.7524H139.536Z" fill="#4A5568"/>
<path d="M143.357 26.7058C143.19 26.7058 143.047 26.6467 142.927 26.5286C142.809 26.4088 142.75 26.2654 142.75 26.0983C142.75 25.933 142.809 25.7913 142.927 25.6731C143.047 25.555 143.19 25.496 143.357 25.496C143.519 25.496 143.661 25.555 143.782 25.6731C143.904 25.7913 143.965 25.933 143.965 26.0983C143.965 26.2097 143.936 26.3118 143.879 26.4046C143.823 26.4957 143.75 26.5691 143.658 26.6248C143.567 26.6788 143.467 26.7058 143.357 26.7058Z" fill="#4A5568"/>
<path d="M145.48 26.7058C145.313 26.7058 145.17 26.6467 145.05 26.5286C144.932 26.4088 144.873 26.2654 144.873 26.0983C144.873 25.933 144.932 25.7913 145.05 25.6731C145.17 25.555 145.313 25.496 145.48 25.496C145.642 25.496 145.784 25.555 145.905 25.6731C146.027 25.7913 146.087 25.933 146.087 26.0983C146.087 26.2097 146.059 26.3118 146.001 26.4046C145.946 26.4957 145.872 26.5691 145.781 26.6248C145.69 26.6788 145.59 26.7058 145.48 26.7058Z" fill="#4A5568"/>
<path d="M147.603 26.7058C147.436 26.7058 147.292 26.6467 147.173 26.5286C147.054 26.4088 146.995 26.2654 146.995 26.0983C146.995 25.933 147.054 25.7913 147.173 25.6731C147.292 25.555 147.436 25.496 147.603 25.496C147.765 25.496 147.907 25.555 148.028 25.6731C148.15 25.7913 148.21 25.933 148.21 26.0983C148.21 26.2097 148.182 26.3118 148.124 26.4046C148.069 26.4957 147.995 26.5691 147.904 26.6248C147.813 26.6788 147.713 26.7058 147.603 26.7058Z" fill="#4A5568"/>
<path d="M150.909 26.7539C150.474 26.7522 150.099 26.645 149.785 26.4324C149.473 26.2198 149.233 25.9119 149.064 25.5086C148.897 25.1054 148.814 24.6203 148.816 24.0533C148.816 23.4881 148.899 23.0064 149.066 22.6082C149.235 22.21 149.476 21.9071 149.788 21.6996C150.102 21.4904 150.475 21.3857 150.909 21.3857C151.343 21.3857 151.715 21.4904 152.028 21.6996C152.341 21.9088 152.583 22.2125 152.751 22.6107C152.92 23.0072 153.004 23.4881 153.002 24.0533C153.002 24.622 152.918 25.1079 152.749 25.5112C152.582 25.9144 152.342 26.2224 152.03 26.435C151.718 26.6476 151.344 26.7539 150.909 26.7539ZM150.909 25.8453C151.206 25.8453 151.443 25.6959 151.62 25.3973C151.797 25.0986 151.885 24.6506 151.883 24.0533C151.883 23.6602 151.843 23.3329 151.762 23.0713C151.683 22.8098 151.569 22.6132 151.423 22.4816C151.278 22.35 151.106 22.2842 150.909 22.2842C150.614 22.2842 150.377 22.4319 150.2 22.7271C150.023 23.0224 149.934 23.4645 149.932 24.0533C149.932 24.4515 149.972 24.7839 150.051 25.0505C150.132 25.3154 150.246 25.5145 150.393 25.6478C150.539 25.7794 150.711 25.8453 150.909 25.8453Z" fill="#4A5568"/>
<path d="M154.56 26.64L153.502 22.7524H154.593L155.196 25.3644H155.231L155.859 22.7524H156.929L157.567 25.3492H157.6L158.192 22.7524H159.281L158.225 26.64H157.084L156.416 24.1951H156.367L155.699 26.64H154.56Z" fill="#4A5568"/>
<path d="M160.934 21.4566V26.64H159.856V21.4566H160.934Z" fill="#4A5568"/>
<path d="M162.876 24.3925V26.64H161.798V21.4566H162.845V23.4383H162.891C162.979 23.2089 163.12 23.0292 163.316 22.8992C163.512 22.7676 163.757 22.7018 164.053 22.7018C164.323 22.7018 164.558 22.7609 164.759 22.879C164.961 22.9954 165.118 23.1633 165.23 23.3827C165.343 23.6003 165.398 23.861 165.397 24.1647V26.64H164.318V24.3571C164.32 24.1175 164.259 23.931 164.136 23.7977C164.015 23.6644 163.844 23.5978 163.625 23.5978C163.478 23.5978 163.348 23.629 163.235 23.6914C163.124 23.7539 163.036 23.845 162.972 23.9648C162.91 24.0829 162.877 24.2255 162.876 24.3925Z" fill="#4A5568"/>
<path d="M183.327 39.2063C183.327 44.8431 178.85 49.4127 173.327 49.4127C167.804 49.4127 163.327 44.8431 163.327 39.2063C163.327 33.5695 167.804 29 173.327 29C178.85 29 183.327 33.5695 183.327 39.2063Z" fill="url(#paint3_linear_7150_197996)" stroke="white" stroke-width="2"/>
<path d="M176.604 37.0422C176.491 35.8641 175.475 35.4687 174.19 35.3558V34.6012H173.196V35.3127C172.935 35.3127 172.668 35.3177 172.402 35.3227V34.6006H171.408V35.3549C171.193 35.359 169.87 35.3578 169.87 35.3578L169.867 36.2345L170.697 36.2392V41.9849H169.868L169.86 42.8492C170.101 42.8492 171.173 42.854 171.406 42.8554V43.6003H172.4V42.8731C172.672 42.879 172.936 42.8814 173.194 42.8811V43.6006H174.189V42.859C175.861 42.7637 177.032 42.3429 177.177 40.773C177.295 39.5086 176.701 38.9447 175.751 38.7153C176.328 38.4204 176.689 37.9041 176.605 37.0419L176.604 37.0422ZM175.211 40.5757C175.211 41.811 173.096 41.6697 172.422 41.67V39.4802C173.096 39.4802 175.21 39.2877 175.21 40.5757H175.211ZM174.749 37.486C174.749 38.6098 172.985 38.4779 172.423 38.4779V36.4916C172.986 36.4919 174.75 36.3138 174.749 37.486Z" fill="white"/>
<path d="M110.644 131.993C110.644 130.864 111.564 129.944 112.705 129.944H127.353V140.429H112.705C111.564 140.429 110.644 139.509 110.644 138.38V131.993ZM111.478 134.867C111.478 137.003 113.217 138.729 115.356 138.729C117.494 138.729 119.233 137.003 119.233 134.867C119.233 132.731 117.494 131.005 115.356 131.005C113.217 131.005 111.478 132.731 111.478 134.867Z" fill="url(#paint4_linear_7150_197996)" stroke="url(#paint5_linear_7150_197996)"/>
<path d="M112.705 126.892H112.205V126.918C109.615 127.169 107.583 129.347 107.583 131.994V138.381C107.583 141.196 109.882 143.481 112.705 143.481H127.353V150.497C127.353 152.843 125.443 154.746 123.082 154.746H69.7706C67.4101 154.746 65.5 152.841 65.5 150.497V115.612C65.5 113.268 67.4101 111.363 69.7706 111.363V111.364L69.7779 111.363L127.236 110.534V110.918L70.2498 111.85C69.4354 111.851 68.6754 111.982 68.1002 112.212C67.8136 112.327 67.5481 112.476 67.3461 112.667C67.1431 112.859 66.9709 113.128 66.9709 113.463C66.9709 113.799 67.1431 114.068 67.3461 114.26C67.5481 114.451 67.8136 114.6 68.1002 114.714C68.6764 114.945 69.438 115.077 70.254 115.077H127.318C127.341 115.253 127.353 115.431 127.353 115.612V126.892H112.705Z" fill="url(#paint6_linear_7150_197996)" stroke="url(#paint7_linear_7150_197996)"/>
<circle cx="115.483" cy="134.853" r="3.51516" fill="#FCF9FF"/>
<path d="M101.732 128.48C101.481 125.862 99.2214 124.983 96.3673 124.732V123.055H94.1573V124.636C93.5767 124.636 92.9829 124.648 92.3924 124.659V123.054H90.1837V124.73C89.7053 124.739 86.7659 124.737 86.7659 124.737L86.7594 126.685L88.6036 126.696V139.466H86.76L86.7437 141.387C87.2791 141.387 89.6621 141.397 90.1785 141.4V143.056H92.3871V141.44C92.9927 141.453 93.5799 141.458 94.1527 141.457V143.057H96.3633V141.408C100.08 141.197 102.683 140.261 103.006 136.772C103.268 133.962 101.947 132.709 99.8368 132.199C101.119 131.543 101.92 130.396 101.734 128.48L101.732 128.48ZM98.6355 136.334C98.6355 139.079 93.9358 138.765 92.4363 138.766V133.899C93.9351 133.899 98.6329 133.471 98.6336 136.334H98.6355ZM97.6099 129.467C97.6099 131.964 93.6881 131.671 92.4396 131.671V127.257C93.69 127.257 97.6112 126.861 97.6099 129.467Z" fill="#FCF9FF"/>
<rect x="157.013" y="101" width="14.6231" height="1.82789" rx="0.913945" fill="#718096"/>
<rect x="154.271" y="105.57" width="17.365" height="1.82789" rx="0.913945" fill="#718096"/>
<rect x="156.099" y="110.14" width="15.5371" height="1.82789" rx="0.913945" fill="#718096"/>
<rect x="156.099" y="114.709" width="15.5371" height="1.82789" rx="0.913945" fill="#718096"/>
<path fill-rule="evenodd" clip-rule="evenodd" d="M169.808 119.279C170.06 119.279 170.265 119.484 170.265 119.736V133.445C170.265 134.203 169.651 134.816 168.894 134.816H144.202L146.33 136.944C146.508 137.123 146.508 137.412 146.33 137.591C146.151 137.769 145.862 137.769 145.684 137.591L142.775 134.683C142.597 134.504 142.597 134.215 142.775 134.036L145.684 131.128C145.862 130.95 146.151 130.95 146.33 131.128C146.508 131.307 146.508 131.596 146.33 131.774L144.202 133.902H168.894C169.146 133.902 169.351 133.698 169.351 133.445V119.736C169.351 119.484 169.555 119.279 169.808 119.279Z" fill="#718096"/>
<rect width="14.6231" height="1.82789" rx="0.913945" transform="matrix(-1 0 0 1 51.623 76)" fill="#718096"/>
<rect width="17.365" height="1.82789" rx="0.913945" transform="matrix(-1 0 0 1 54.365 80.5703)" fill="#718096"/>
<rect width="15.5371" height="1.82789" rx="0.913945" transform="matrix(-1 0 0 1 52.5369 85.1396)" fill="#718096"/>
<rect width="15.5371" height="1.82789" rx="0.913945" transform="matrix(-1 0 0 1 52.5369 89.709)" fill="#718096"/>
<path fill-rule="evenodd" clip-rule="evenodd" d="M58 79.3651C58 79.6175 58.2046 79.8221 58.457 79.8221H72.7514L70.6233 81.9502C70.4448 82.1286 70.4448 82.418 70.6233 82.5964C70.8018 82.7749 71.0911 82.7749 71.2696 82.5964L74.1777 79.6883C74.3562 79.5098 74.3562 79.2205 74.1777 79.042L71.2696 76.1338C71.0911 75.9554 70.8018 75.9554 70.6233 76.1338C70.4448 76.3123 70.4448 76.6016 70.6233 76.7801L72.7514 78.9082H58.457C58.2046 78.9082 58 79.1127 58 79.3651Z" fill="#718096"/>
<mask id="path-68-outside-1_7150_197996" maskUnits="userSpaceOnUse" x="81" y="69.1152" width="36" height="38" fill="black">
<rect fill="white" x="81" y="69.1152" width="36" height="38"/>
<path fill-rule="evenodd" clip-rule="evenodd" d="M83.8484 70.1152C82.8275 70.1152 82 70.9428 82 71.9636C82 72.9844 82.8275 73.812 83.8484 73.812C85.668 73.812 86.8715 76.5434 86.4964 78.324C86.2301 79.5882 86.2678 80.9444 86.6802 82.2969L86.9887 83.3085C86.9887 83.3086 86.9888 83.3086 86.9889 83.3086C86.989 83.3086 86.989 83.3086 86.9891 83.3087L95.5375 93.711C96.4197 94.7845 96.902 96.1309 96.902 97.5204V104.051C96.902 105.03 97.6958 105.824 98.6749 105.824C99.6541 105.824 100.448 105.03 100.448 104.051V97.6777C100.448 96.1832 101.006 94.7425 102.012 93.6376L111.419 83.3088C111.419 83.3087 111.419 83.3086 111.42 83.3086C111.42 83.3086 111.42 83.3085 111.42 83.3083L111.777 81.6197C112.039 80.3852 112.001 79.1688 111.72 78.0375C111.305 76.3694 112.421 73.812 114.14 73.812C115.161 73.812 115.988 72.9844 115.988 71.9636C115.988 70.9428 115.161 70.1152 114.14 70.1152H83.8484Z"/>
</mask>
<path fill-rule="evenodd" clip-rule="evenodd" d="M83.8484 70.1152C82.8275 70.1152 82 70.9428 82 71.9636C82 72.9844 82.8275 73.812 83.8484 73.812C85.668 73.812 86.8715 76.5434 86.4964 78.324C86.2301 79.5882 86.2678 80.9444 86.6802 82.2969L86.9887 83.3085C86.9887 83.3086 86.9888 83.3086 86.9889 83.3086C86.989 83.3086 86.989 83.3086 86.9891 83.3087L95.5375 93.711C96.4197 94.7845 96.902 96.1309 96.902 97.5204V104.051C96.902 105.03 97.6958 105.824 98.6749 105.824C99.6541 105.824 100.448 105.03 100.448 104.051V97.6777C100.448 96.1832 101.006 94.7425 102.012 93.6376L111.419 83.3088C111.419 83.3087 111.419 83.3086 111.42 83.3086C111.42 83.3086 111.42 83.3085 111.42 83.3083L111.777 81.6197C112.039 80.3852 112.001 79.1688 111.72 78.0375C111.305 76.3694 112.421 73.812 114.14 73.812C115.161 73.812 115.988 72.9844 115.988 71.9636C115.988 70.9428 115.161 70.1152 114.14 70.1152H83.8484Z" fill="white"/>
<path d="M86.6802 82.2969L85.7237 82.5885L86.6802 82.2969ZM111.777 81.6197L110.799 81.4126V81.4126L111.777 81.6197ZM111.42 83.3083L110.442 83.1013L111.42 83.3083ZM111.419 83.3088L110.68 82.6354L111.419 83.3088ZM95.5375 93.711L94.7649 94.3459L95.5375 93.711ZM86.9891 83.3087L87.7616 82.6738L86.9891 83.3087ZM86.9887 83.3085L87.9452 83.0168L86.9887 83.3085ZM83 71.9636C83 71.4951 83.3798 71.1152 83.8484 71.1152V69.1152C82.2753 69.1152 81 70.3905 81 71.9636H83ZM83.8484 72.812C83.3798 72.812 83 72.4322 83 71.9636H81C81 73.5367 82.2753 74.812 83.8484 74.812V72.812ZM87.6368 82.0052C87.2746 80.8176 87.2427 79.6328 87.4749 78.5301L85.5179 78.1179C85.2176 79.5437 85.261 81.0712 85.7237 82.5885L87.6368 82.0052ZM87.9452 83.0168L87.6368 82.0052L85.7237 82.5885L86.0322 83.6002L87.9452 83.0168ZM96.3101 93.0761L87.7616 82.6738L86.2165 83.9436L94.7649 94.3459L96.3101 93.0761ZM97.902 104.051V97.5204H95.902V104.051H97.902ZM99.4479 97.6777V104.051H101.448V97.6777H99.4479ZM110.68 82.6354L101.273 92.9642L102.751 94.3109L112.159 83.9821L110.68 82.6354ZM110.799 81.4126L110.442 83.1013L112.398 83.5153L112.756 81.8267L110.799 81.4126ZM110.749 78.2789C110.995 79.266 111.028 80.3291 110.799 81.4126L112.756 81.8267C113.049 80.4413 113.008 79.0715 112.69 77.7961L110.749 78.2789ZM114.988 71.9636C114.988 72.4322 114.608 72.812 114.14 72.812V74.812C115.713 74.812 116.988 73.5367 116.988 71.9636H114.988ZM114.14 71.1152C114.608 71.1152 114.988 71.4951 114.988 71.9636H116.988C116.988 70.3905 115.713 69.1152 114.14 69.1152V71.1152ZM83.8484 71.1152H114.14V69.1152H83.8484V71.1152ZM111.42 84.3086C111.892 84.3086 112.3 83.9778 112.398 83.5153L110.442 83.1013C110.539 82.6392 110.947 82.3086 111.42 82.3086V84.3086ZM112.159 83.9821C111.969 84.1901 111.701 84.3086 111.42 84.3086V82.3086C111.138 82.3086 110.87 82.4273 110.68 82.6354L112.159 83.9821ZM101.448 97.6777C101.448 96.4323 101.913 95.2317 102.751 94.3109L101.273 92.9642C100.099 94.2533 99.4479 95.9341 99.4479 97.6777H101.448ZM98.6749 106.824C100.206 106.824 101.448 105.583 101.448 104.051H99.4479C99.4479 104.478 99.1018 104.824 98.6749 104.824V106.824ZM94.7649 94.3459C95.5001 95.2405 95.902 96.3625 95.902 97.5204H97.902C97.902 95.8993 97.3393 94.3285 96.3101 93.0761L94.7649 94.3459ZM86.9889 84.3086C86.6941 84.3086 86.4091 84.178 86.2165 83.9436L87.7616 82.6738C87.569 82.4393 87.2839 82.3086 86.9889 82.3086V84.3086ZM86.0322 83.6002C86.1605 84.0211 86.5489 84.3086 86.9889 84.3086V82.3086C87.4288 82.3086 87.8169 82.5961 87.9452 83.0168L86.0322 83.6002ZM95.902 104.051C95.902 105.583 97.1435 106.824 98.6749 106.824V104.824C98.248 104.824 97.902 104.478 97.902 104.051H95.902ZM112.69 77.7961C112.553 77.2446 112.663 76.4386 113.016 75.7615C113.38 75.0644 113.82 74.812 114.14 74.812V72.812C112.741 72.812 111.764 73.8383 111.243 74.8369C110.712 75.8555 110.472 77.1622 110.749 78.2789L112.69 77.7961ZM83.8484 74.812C84.2173 74.812 84.706 75.1052 85.1125 75.8698C85.5064 76.6106 85.648 77.5001 85.5179 78.1179L87.4749 78.5301C87.7199 77.3673 87.4473 76.0008 86.8783 74.9308C86.322 73.8844 85.2991 72.812 83.8484 72.812V74.812Z" fill="#718096" mask="url(#path-68-outside-1_7150_197996)"/>
<path d="M100.871 89.7645C99.8527 89.7645 99.0771 88.8514 99.242 87.8464L101.511 74.0174C101.642 73.2195 102.331 72.6338 103.14 72.6338C104.158 72.6338 104.934 73.5469 104.769 74.5519L102.5 88.3809C102.369 89.1788 101.68 89.7645 100.871 89.7645ZM93.3136 85.8499C92.2776 85.8499 91.4907 84.9179 91.6643 83.8966C91.801 83.0924 92.4979 82.504 93.3136 82.504H103.705C104.741 82.504 105.528 83.436 105.354 84.4573C105.217 85.2615 104.52 85.8499 103.705 85.8499H93.3136ZM94.8486 89.7645C93.8302 89.7645 93.0546 88.8514 93.2195 87.8464L95.4883 74.0174C95.6192 73.2195 96.3088 72.6338 97.1174 72.6338C98.1358 72.6338 98.9114 73.5469 98.7465 74.5519L96.4777 88.3809C96.3468 89.1788 95.6572 89.7645 94.8486 89.7645ZM94.2839 79.8943C93.2479 79.8943 92.461 78.9623 92.6346 77.941C92.7713 77.1368 93.4682 76.5484 94.2839 76.5484H104.675C105.711 76.5484 106.498 77.4804 106.324 78.5017C106.187 79.3059 105.491 79.8943 104.675 79.8943H94.2839Z" fill="url(#paint8_linear_7150_197996)"/>
<defs>
<linearGradient id="paint0_linear_7150_197996" x1="12.9879" y1="13.8863" x2="37.2127" y2="56.038" gradientUnits="userSpaceOnUse">
<stop stop-color="#BD30FF"/>
<stop offset="1" stop-color="#7D00FF"/>
</linearGradient>
<linearGradient id="paint1_linear_7150_197996" x1="62.4983" y1="29.7882" x2="84.1732" y2="42.399" gradientUnits="userSpaceOnUse">
<stop stop-color="#BD30FF"/>
<stop offset="1" stop-color="#7D00FF"/>
</linearGradient>
<linearGradient id="paint2_linear_7150_197996" x1="114.359" y1="13.8644" x2="138.628" y2="53.8047" gradientUnits="userSpaceOnUse">
<stop stop-color="#BD30FF"/>
<stop offset="1" stop-color="#7D00FF"/>
</linearGradient>
<linearGradient id="paint3_linear_7150_197996" x1="163.918" y1="29.8044" x2="185.815" y2="42.2867" gradientUnits="userSpaceOnUse">
<stop stop-color="#BD30FF"/>
<stop offset="1" stop-color="#7D00FF"/>
</linearGradient>
<linearGradient id="paint4_linear_7150_197996" x1="110.667" y1="129.897" x2="124.9" y2="142.666" gradientUnits="userSpaceOnUse">
<stop stop-color="#BD30FF"/>
<stop offset="1" stop-color="#7D00FF"/>
</linearGradient>
<linearGradient id="paint5_linear_7150_197996" x1="110.667" y1="129.897" x2="124.9" y2="142.666" gradientUnits="userSpaceOnUse">
<stop stop-color="#BD30FF"/>
<stop offset="1" stop-color="#7D00FF"/>
</linearGradient>
<linearGradient id="paint6_linear_7150_197996" x1="66.8576" y1="111.808" x2="121.981" y2="156.387" gradientUnits="userSpaceOnUse">
<stop stop-color="#BD30FF"/>
<stop offset="1" stop-color="#7D00FF"/>
</linearGradient>
<linearGradient id="paint7_linear_7150_197996" x1="66.8576" y1="111.808" x2="121.981" y2="156.387" gradientUnits="userSpaceOnUse">
<stop stop-color="#BD30FF"/>
<stop offset="1" stop-color="#7D00FF"/>
</linearGradient>
<linearGradient id="paint8_linear_7150_197996" x1="91.7852" y1="73.3089" x2="109.276" y2="82.4122" gradientUnits="userSpaceOnUse">
<stop stop-color="#BD30FF"/>
<stop offset="1" stop-color="#7D00FF"/>
</linearGradient>
</defs>
</svg>
