<svg width="65" height="63" viewBox="0 0 65 63" fill="none" xmlns="http://www.w3.org/2000/svg">
<path d="M64.1543 33.1147C64.1543 49.3454 51.0626 62.5029 34.9131 62.5029C18.7636 62.5029 5.67188 49.3454 5.67188 33.1147C5.67188 16.8841 18.7636 3.72656 34.9131 3.72656C51.0626 3.72656 64.1543 16.8841 64.1543 33.1147Z" fill="#E2E8F0"/>
<path d="M57.0892 29.3707C57.0892 44.8894 44.5717 57.4698 29.1306 57.4698C13.6894 57.4698 1.17188 44.8894 1.17188 29.3707C1.17188 13.8519 13.6894 1.27148 29.1306 1.27148C44.5717 1.27148 57.0892 13.8519 57.0892 29.3707Z" fill="white"/>
<path fill-rule="evenodd" clip-rule="evenodd" d="M29.3193 55.8797C43.7837 55.8797 55.5093 44.0951 55.5093 29.5581C55.5093 15.0211 43.7837 3.23651 29.3193 3.23651C14.855 3.23651 3.12938 15.0211 3.12938 29.5581C3.12938 44.0951 14.855 55.8797 29.3193 55.8797ZM29.3193 58.9463C45.4688 58.9463 58.5606 45.7887 58.5606 29.5581C58.5606 13.3275 45.4688 0.169922 29.3193 0.169922C13.1699 0.169922 0.078125 13.3275 0.078125 29.5581C0.078125 45.7887 13.1699 58.9463 29.3193 58.9463Z" fill="url(#paint0_linear_8099_273212)"/>
<path d="M23.3268 27.1115H18.9679V31.4924H23.3268V27.1115Z" fill="url(#paint1_linear_8099_273212)"/>
<path d="M18.9679 22.7312H14.609V27.1121L18.9679 27.1115L18.9679 22.7312Z" fill="url(#paint2_linear_8099_273212)"/>
<path d="M14.609 27.1121L10.25 27.1115V31.4924H14.6089L14.609 27.1121Z" fill="url(#paint3_linear_8099_273212)"/>
<path d="M18.9679 31.4924H14.6089L14.609 35.8731H18.9679L18.9679 31.4924Z" fill="url(#paint4_linear_8099_273212)"/>
<path d="M43.5488 23.6906C43.2466 20.4794 40.5264 19.4015 37.0907 19.0937V17.0368H34.4304V18.9763C33.7314 18.9763 33.0167 18.99 32.3059 19.0037V17.0352H29.6472V19.0913C29.0713 19.1025 25.533 19.0993 25.533 19.0993L25.5251 21.489L27.7451 21.5019V37.1639H25.5259L25.5061 39.5198C26.1507 39.5198 29.0192 39.5327 29.6409 39.5367V41.5671H32.2995V39.5849C33.0285 39.601 33.7354 39.6074 34.4249 39.6066V41.5679H37.0859V39.5463C41.5599 39.2867 44.6927 38.1397 45.0816 33.8603C45.3972 30.4136 43.8067 28.8767 41.2672 28.2514C42.8103 27.4476 43.7752 26.0401 43.5503 23.6898L43.5488 23.6906ZM39.8211 33.3225C39.8211 36.6896 34.1638 36.3046 32.3587 36.3054V30.3364C34.163 30.3364 39.818 29.8115 39.8187 33.3225H39.8211ZM38.5864 24.9003C38.5864 27.9636 33.8655 27.6043 32.3627 27.6043V22.1899C33.8679 22.1907 38.588 21.7052 38.5864 24.9003Z" fill="url(#paint5_linear_8099_273212)"/>
<defs>
<linearGradient id="paint0_linear_8099_273212" x1="1.80659" y1="2.48625" x2="65.3468" y2="39.2703" gradientUnits="userSpaceOnUse">
<stop stop-color="#BD30FF"/>
<stop offset="1" stop-color="#7D00FF"/>
</linearGradient>
<linearGradient id="paint1_linear_8099_273212" x1="11.2806" y1="18.002" x2="41.3199" y2="42.8448" gradientUnits="userSpaceOnUse">
<stop stop-color="#BD30FF"/>
<stop offset="1" stop-color="#7D00FF"/>
</linearGradient>
<linearGradient id="paint2_linear_8099_273212" x1="11.2806" y1="18.002" x2="41.3199" y2="42.8448" gradientUnits="userSpaceOnUse">
<stop stop-color="#BD30FF"/>
<stop offset="1" stop-color="#7D00FF"/>
</linearGradient>
<linearGradient id="paint3_linear_8099_273212" x1="11.2806" y1="18.002" x2="41.3199" y2="42.8448" gradientUnits="userSpaceOnUse">
<stop stop-color="#BD30FF"/>
<stop offset="1" stop-color="#7D00FF"/>
</linearGradient>
<linearGradient id="paint4_linear_8099_273212" x1="11.2806" y1="18.002" x2="41.3199" y2="42.8448" gradientUnits="userSpaceOnUse">
<stop stop-color="#BD30FF"/>
<stop offset="1" stop-color="#7D00FF"/>
</linearGradient>
<linearGradient id="paint5_linear_8099_273212" x1="11.2806" y1="18.002" x2="41.3199" y2="42.8448" gradientUnits="userSpaceOnUse">
<stop stop-color="#BD30FF"/>
<stop offset="1" stop-color="#7D00FF"/>
</linearGradient>
</defs>
</svg>
