<svg width="339" height="201" viewBox="0 0 339 201" fill="none" xmlns="http://www.w3.org/2000/svg">
<line x1="101.072" y1="0.5" x2="0.999786" y2="0.499992" stroke="black" stroke-opacity="0.04"/>
<line x1="101.072" y1="12.9814" x2="0.999786" y2="12.9814" stroke="black" stroke-opacity="0.04"/>
<line x1="101.072" y1="25.4629" x2="0.999786" y2="25.4629" stroke="black" stroke-opacity="0.04"/>
<line x1="100.572" y1="99.8682" x2="100.572" y2="0.0047378" stroke="black" stroke-opacity="0.04"/>
<line x1="101.072" y1="37.9463" x2="0.999786" y2="37.9463" stroke="black" stroke-opacity="0.04"/>
<line x1="88.0635" y1="99.8682" x2="88.0635" y2="0.0047378" stroke="black" stroke-opacity="0.04"/>
<line x1="101.072" y1="50.4287" x2="0.999786" y2="50.4287" stroke="black" stroke-opacity="0.04"/>
<line x1="75.5542" y1="99.8682" x2="75.5542" y2="0.0047378" stroke="black" stroke-opacity="0.04"/>
<line x1="101.072" y1="62.9092" x2="0.999786" y2="62.9092" stroke="black" stroke-opacity="0.04"/>
<line x1="63.0454" y1="99.8682" x2="63.0454" y2="0.0047378" stroke="black" stroke-opacity="0.04"/>
<line x1="101.072" y1="75.3994" x2="0.999786" y2="75.3994" stroke="black" stroke-opacity="0.04"/>
<line x1="50.5361" y1="99.8682" x2="50.5362" y2="0.0047378" stroke="black" stroke-opacity="0.04"/>
<line x1="101.072" y1="87.8857" x2="0.999786" y2="87.8857" stroke="black" stroke-opacity="0.04"/>
<line x1="38.0273" y1="99.8682" x2="38.0274" y2="0.0047378" stroke="black" stroke-opacity="0.04"/>
<line x1="101.072" y1="100.368" x2="0.999786" y2="100.368" stroke="black" stroke-opacity="0.04"/>
<line x1="25.5181" y1="99.8682" x2="25.5181" y2="0.0047378" stroke="black" stroke-opacity="0.04"/>
<line x1="13.0093" y1="99.8682" x2="13.0093" y2="0.0047378" stroke="black" stroke-opacity="0.04"/>
<line x1="0.5" y1="99.8682" x2="0.500024" y2="0.0047378" stroke="black" stroke-opacity="0.04"/>
<line x1="201.145" y1="0.5" x2="101.073" y2="0.499992" stroke="black" stroke-opacity="0.04"/>
<line x1="201.145" y1="12.9814" x2="101.073" y2="12.9814" stroke="black" stroke-opacity="0.04"/>
<line x1="201.145" y1="25.4629" x2="101.073" y2="25.4629" stroke="black" stroke-opacity="0.04"/>
<line x1="200.645" y1="99.8682" x2="200.645" y2="0.0047378" stroke="black" stroke-opacity="0.04"/>
<line x1="201.145" y1="37.9463" x2="101.073" y2="37.9463" stroke="black" stroke-opacity="0.04"/>
<line x1="188.136" y1="99.8682" x2="188.136" y2="0.0047378" stroke="black" stroke-opacity="0.04"/>
<line x1="201.145" y1="50.4287" x2="101.073" y2="50.4287" stroke="black" stroke-opacity="0.04"/>
<line x1="175.627" y1="99.8682" x2="175.627" y2="0.0047378" stroke="black" stroke-opacity="0.04"/>
<line x1="201.145" y1="62.9102" x2="101.073" y2="62.9101" stroke="black" stroke-opacity="0.04"/>
<line x1="163.118" y1="99.8682" x2="163.118" y2="0.0047378" stroke="black" stroke-opacity="0.04"/>
<line x1="201.145" y1="75.3994" x2="101.073" y2="75.3994" stroke="black" stroke-opacity="0.04"/>
<line x1="150.609" y1="99.8682" x2="150.609" y2="0.0047378" stroke="black" stroke-opacity="0.04"/>
<line x1="201.145" y1="87.8857" x2="101.073" y2="87.8857" stroke="black" stroke-opacity="0.04"/>
<line x1="138.1" y1="99.8682" x2="138.1" y2="0.0047378" stroke="black" stroke-opacity="0.04"/>
<line x1="201.145" y1="100.368" x2="101.073" y2="100.368" stroke="black" stroke-opacity="0.04"/>
<line x1="125.591" y1="99.8682" x2="125.591" y2="0.0047378" stroke="black" stroke-opacity="0.04"/>
<line x1="113.082" y1="99.8682" x2="113.082" y2="0.0047378" stroke="black" stroke-opacity="0.04"/>
<line x1="101.072" y1="113.112" x2="0.999786" y2="113.112" stroke="black" stroke-opacity="0.04"/>
<line x1="101.072" y1="125.597" x2="0.999786" y2="125.597" stroke="black" stroke-opacity="0.04"/>
<line x1="100.572" y1="199.999" x2="100.572" y2="100.136" stroke="black" stroke-opacity="0.04"/>
<line x1="101.072" y1="138.079" x2="0.999786" y2="138.079" stroke="black" stroke-opacity="0.04"/>
<line x1="88.0635" y1="199.999" x2="88.0635" y2="100.136" stroke="black" stroke-opacity="0.04"/>
<line x1="101.072" y1="150.56" x2="0.999786" y2="150.56" stroke="black" stroke-opacity="0.04"/>
<line x1="75.5542" y1="199.999" x2="75.5542" y2="100.136" stroke="black" stroke-opacity="0.04"/>
<line x1="101.072" y1="163.041" x2="0.999786" y2="163.041" stroke="black" stroke-opacity="0.04"/>
<line x1="63.0454" y1="199.999" x2="63.0454" y2="100.136" stroke="black" stroke-opacity="0.04"/>
<line x1="101.072" y1="175.533" x2="0.999786" y2="175.533" stroke="black" stroke-opacity="0.04"/>
<line x1="50.5361" y1="199.999" x2="50.5362" y2="100.136" stroke="black" stroke-opacity="0.04"/>
<line x1="101.072" y1="188.016" x2="0.999786" y2="188.016" stroke="black" stroke-opacity="0.04"/>
<line x1="38.0273" y1="199.999" x2="38.0274" y2="100.136" stroke="black" stroke-opacity="0.04"/>
<line x1="101.072" y1="200.499" x2="0.999786" y2="200.499" stroke="black" stroke-opacity="0.04"/>
<line x1="25.5181" y1="199.999" x2="25.5181" y2="100.136" stroke="black" stroke-opacity="0.04"/>
<line x1="13.0093" y1="199.999" x2="13.0093" y2="100.136" stroke="black" stroke-opacity="0.04"/>
<line x1="0.5" y1="199.999" x2="0.500024" y2="100.136" stroke="black" stroke-opacity="0.04"/>
<line x1="201.145" y1="113.112" x2="101.073" y2="113.112" stroke="black" stroke-opacity="0.04"/>
<line x1="201.145" y1="125.596" x2="101.073" y2="125.596" stroke="black" stroke-opacity="0.04"/>
<line x1="200.645" y1="199.993" x2="200.645" y2="100.13" stroke="black" stroke-opacity="0.04"/>
<line x1="201.145" y1="138.081" x2="101.073" y2="138.081" stroke="black" stroke-opacity="0.04"/>
<line x1="188.136" y1="199.993" x2="188.136" y2="100.13" stroke="black" stroke-opacity="0.04"/>
<line x1="201.145" y1="150.565" x2="101.073" y2="150.565" stroke="black" stroke-opacity="0.04"/>
<line x1="175.627" y1="199.993" x2="175.627" y2="100.13" stroke="black" stroke-opacity="0.04"/>
<line x1="201.145" y1="163.047" x2="101.073" y2="163.047" stroke="black" stroke-opacity="0.04"/>
<line x1="163.118" y1="199.993" x2="163.118" y2="100.13" stroke="black" stroke-opacity="0.04"/>
<line x1="201.145" y1="175.527" x2="101.073" y2="175.527" stroke="black" stroke-opacity="0.04"/>
<line x1="150.609" y1="199.993" x2="150.609" y2="100.13" stroke="black" stroke-opacity="0.04"/>
<line x1="201.145" y1="188.014" x2="101.073" y2="188.014" stroke="black" stroke-opacity="0.04"/>
<line x1="138.1" y1="199.993" x2="138.1" y2="100.13" stroke="black" stroke-opacity="0.04"/>
<line x1="201.145" y1="200.493" x2="101.073" y2="200.493" stroke="black" stroke-opacity="0.04"/>
<line x1="125.591" y1="199.993" x2="125.591" y2="100.13" stroke="black" stroke-opacity="0.04"/>
<line x1="113.082" y1="199.993" x2="113.082" y2="100.13" stroke="black" stroke-opacity="0.04"/>
<line x1="238.928" y1="0.5" x2="201.145" y2="0.499997" stroke="black" stroke-opacity="0.04"/>
<line x1="238.928" y1="12.9805" x2="201.145" y2="12.9805" stroke="black" stroke-opacity="0.04"/>
<line x1="238.928" y1="25.3975" x2="201.145" y2="25.3975" stroke="black" stroke-opacity="0.04"/>
<line x1="238.428" y1="99.8682" x2="238.428" y2="0.0047378" stroke="black" stroke-opacity="0.04"/>
<line x1="238.928" y1="38.2549" x2="201.145" y2="38.2549" stroke="black" stroke-opacity="0.04"/>
<line x1="225.918" y1="99.8682" x2="225.918" y2="0.0047378" stroke="black" stroke-opacity="0.04"/>
<line x1="238.928" y1="50.499" x2="201.145" y2="50.499" stroke="black" stroke-opacity="0.04"/>
<line x1="213.409" y1="99.8682" x2="213.409" y2="0.0047378" stroke="black" stroke-opacity="0.04"/>
<line x1="238.928" y1="62.9072" x2="201.145" y2="62.9072" stroke="black" stroke-opacity="0.04"/>
<line x1="238.928" y1="75.3984" x2="201.145" y2="75.3984" stroke="black" stroke-opacity="0.04"/>
<line x1="238.928" y1="87.8867" x2="201.145" y2="87.8867" stroke="black" stroke-opacity="0.04"/>
<line x1="238.928" y1="100.368" x2="138.855" y2="100.368" stroke="black" stroke-opacity="0.04"/>
<line x1="339" y1="0.5" x2="238.928" y2="0.499992" stroke="black" stroke-opacity="0.04"/>
<line x1="339" y1="12.9814" x2="238.928" y2="12.9814" stroke="black" stroke-opacity="0.04"/>
<line x1="339" y1="25.4629" x2="238.928" y2="25.4629" stroke="black" stroke-opacity="0.04"/>
<line x1="338.5" y1="99.8682" x2="338.5" y2="0.0047378" stroke="black" stroke-opacity="0.04"/>
<line x1="339" y1="37.9463" x2="238.928" y2="37.9463" stroke="black" stroke-opacity="0.04"/>
<line x1="325.991" y1="99.8682" x2="325.991" y2="0.0047378" stroke="black" stroke-opacity="0.04"/>
<line x1="339" y1="50.4287" x2="238.928" y2="50.4287" stroke="black" stroke-opacity="0.04"/>
<line x1="313.482" y1="99.8682" x2="313.482" y2="0.0047378" stroke="black" stroke-opacity="0.04"/>
<line x1="339" y1="62.9092" x2="238.928" y2="62.9092" stroke="black" stroke-opacity="0.04"/>
<line x1="300.973" y1="99.8682" x2="300.973" y2="0.0047378" stroke="black" stroke-opacity="0.04"/>
<line x1="339" y1="75.3994" x2="238.928" y2="75.3994" stroke="black" stroke-opacity="0.04"/>
<line x1="288.464" y1="99.8682" x2="288.464" y2="0.0047378" stroke="black" stroke-opacity="0.04"/>
<line x1="339" y1="87.8857" x2="238.928" y2="87.8857" stroke="black" stroke-opacity="0.04"/>
<line x1="275.955" y1="99.8682" x2="275.955" y2="0.0047378" stroke="black" stroke-opacity="0.04"/>
<line x1="339" y1="100.368" x2="238.928" y2="100.368" stroke="black" stroke-opacity="0.04"/>
<line x1="263.446" y1="99.8682" x2="263.446" y2="0.0047378" stroke="black" stroke-opacity="0.04"/>
<line x1="250.937" y1="99.8682" x2="250.937" y2="0.0047378" stroke="black" stroke-opacity="0.04"/>
<line x1="238.928" y1="100.499" x2="224.632" y2="100.499" stroke="black" stroke-opacity="0.04"/>
<line x1="238.928" y1="112.744" x2="201.145" y2="112.744" stroke="black" stroke-opacity="0.04"/>
<line x1="238.928" y1="126.01" x2="201.145" y2="126.01" stroke="black" stroke-opacity="0.04"/>
<line x1="238.428" y1="199.999" x2="238.428" y2="100.136" stroke="black" stroke-opacity="0.04"/>
<line x1="238.928" y1="138.254" x2="201.145" y2="138.254" stroke="black" stroke-opacity="0.04"/>
<line x1="225.918" y1="199.999" x2="225.918" y2="100.136" stroke="black" stroke-opacity="0.04"/>
<line x1="238.928" y1="150.498" x2="201.145" y2="150.498" stroke="black" stroke-opacity="0.04"/>
<line x1="213.409" y1="199.999" x2="213.409" y2="100.136" stroke="black" stroke-opacity="0.04"/>
<line x1="238.928" y1="163.05" x2="201.145" y2="163.05" stroke="black" stroke-opacity="0.04"/>
<line x1="238.928" y1="175.527" x2="201.145" y2="175.527" stroke="black" stroke-opacity="0.04"/>
<line x1="238.928" y1="188.017" x2="201.145" y2="188.017" stroke="black" stroke-opacity="0.04"/>
<line x1="238.928" y1="200.497" x2="201.145" y2="200.497" stroke="black" stroke-opacity="0.04"/>
<line x1="339" y1="113.112" x2="238.928" y2="113.112" stroke="black" stroke-opacity="0.04"/>
<line x1="339" y1="125.596" x2="238.928" y2="125.596" stroke="black" stroke-opacity="0.04"/>
<line x1="338.5" y1="199.993" x2="338.5" y2="100.13" stroke="black" stroke-opacity="0.04"/>
<line x1="339" y1="138.081" x2="238.928" y2="138.081" stroke="black" stroke-opacity="0.04"/>
<line x1="325.991" y1="199.993" x2="325.991" y2="100.13" stroke="black" stroke-opacity="0.04"/>
<line x1="339" y1="150.565" x2="238.928" y2="150.565" stroke="black" stroke-opacity="0.04"/>
<line x1="313.482" y1="199.993" x2="313.482" y2="100.13" stroke="black" stroke-opacity="0.04"/>
<line x1="339" y1="163.047" x2="238.928" y2="163.047" stroke="black" stroke-opacity="0.04"/>
<line x1="300.973" y1="199.993" x2="300.973" y2="100.13" stroke="black" stroke-opacity="0.04"/>
<line x1="339" y1="175.528" x2="238.928" y2="175.528" stroke="black" stroke-opacity="0.04"/>
<line x1="288.464" y1="199.993" x2="288.464" y2="100.13" stroke="black" stroke-opacity="0.04"/>
<line x1="339" y1="188.015" x2="238.928" y2="188.015" stroke="black" stroke-opacity="0.04"/>
<line x1="275.955" y1="199.993" x2="275.955" y2="100.13" stroke="black" stroke-opacity="0.04"/>
<line x1="339" y1="200.493" x2="238.928" y2="200.493" stroke="black" stroke-opacity="0.04"/>
<line x1="263.446" y1="199.993" x2="263.446" y2="100.13" stroke="black" stroke-opacity="0.04"/>
<line x1="250.937" y1="199.993" x2="250.937" y2="100.13" stroke="black" stroke-opacity="0.04"/>
<path fill-rule="evenodd" clip-rule="evenodd" d="M102.07 64.8161C96.6891 65.1607 93.3228 66.6203 91.8477 68.9191C90.3726 71.2178 90.6508 74.5705 93.0094 78.9353C95.3421 83.2521 99.5745 88.2911 105.42 93.7306C117.1 104.599 135.045 116.904 156.488 128.043C177.932 139.182 198.749 147.012 215.05 150.678C223.209 152.514 230.175 153.292 235.497 152.951C240.877 152.606 244.244 151.147 245.719 148.848C247.194 146.549 246.916 143.197 244.557 138.832C242.224 134.515 237.992 129.476 232.146 124.037C220.466 113.168 202.522 100.863 181.078 89.7237C159.634 78.5847 138.818 70.7554 122.516 67.0887C114.358 65.2536 107.391 64.4753 102.07 64.8161ZM123.12 65.1364C139.654 68.8554 160.649 76.7635 182.208 87.9626C203.768 99.1618 221.877 111.566 233.724 122.59C239.641 128.096 244.041 133.299 246.511 137.871C248.956 142.395 249.652 146.578 247.576 149.813C245.5 153.048 241.126 154.597 235.549 154.954C229.913 155.315 222.706 154.489 214.446 152.631C197.912 148.912 176.918 141.004 155.358 129.804C133.799 118.605 115.69 106.201 103.843 95.1773C97.925 89.6707 93.5255 84.468 91.055 79.8962C88.6104 75.3723 87.914 71.1894 89.9901 67.9541C92.0662 64.7189 96.4406 63.17 102.017 62.8129C107.653 62.4519 114.861 63.2786 123.12 65.1364Z" fill="url(#paint0_linear_7205_200257)"/>
<path fill-rule="evenodd" clip-rule="evenodd" d="M244.95 71.2679C246.822 66.5495 246.684 63.1728 244.908 61.12C243.133 59.0673 239.528 58.1178 233.985 58.5918C228.511 59.0598 221.499 60.8934 213.404 63.9596C197.23 70.0863 176.967 81.0443 156.475 95.3933C135.983 109.742 119.201 124.724 108.628 137.326C103.336 143.633 99.6388 149.298 97.7902 153.958C95.9183 158.676 96.0562 162.053 97.8318 164.106C99.6074 166.158 103.212 167.108 108.755 166.634C114.229 166.166 121.241 164.332 129.336 161.266C145.51 155.139 165.773 144.181 186.265 129.832C206.757 115.483 223.539 100.502 234.112 87.8998C239.404 81.5928 243.101 75.9272 244.95 71.2679ZM235.871 89.1262C225.157 101.897 208.229 116.994 187.634 131.415C167.039 145.836 146.616 156.893 130.225 163.101C122.038 166.203 114.798 168.117 109.015 168.612C103.301 169.1 98.6438 168.227 96.1173 165.306C93.5908 162.385 93.7937 158.109 95.7232 153.245C97.6761 148.323 101.516 142.479 106.869 136.099C117.583 123.329 134.511 108.232 155.106 93.8106C175.701 79.3894 196.124 68.3328 212.515 62.1241C220.702 59.0227 227.942 57.1084 233.725 56.614C239.439 56.1254 244.096 56.9987 246.623 59.9195C249.149 62.8403 248.946 67.117 247.017 71.9804C245.064 76.9027 241.224 82.747 235.871 89.1262Z" fill="url(#paint1_linear_7205_200257)"/>
<ellipse opacity="0.9" cx="166.407" cy="101.506" rx="61.0764" ry="61.0316" fill="url(#paint2_linear_7205_200257)"/>
<path d="M198.654 110.552C196.185 128.897 179.32 141.77 160.985 139.306C142.65 136.842 129.789 119.973 132.258 101.629C134.727 83.2841 153.696 54.7799 172.031 57.2442C190.366 59.7085 201.124 92.208 198.654 110.552Z" fill="url(#paint3_linear_7205_200257)"/>
<path fill-rule="evenodd" clip-rule="evenodd" d="M190.433 27.0042C188.005 22.7927 185.197 20.6268 182.197 20.3937C179.703 20.2 176.98 21.3279 174.092 23.885C171.207 26.4387 168.277 30.3184 165.433 35.3427C159.751 45.383 154.534 59.7761 150.708 76.6142C150.579 77.1806 149.996 77.5633 149.406 77.4689C148.815 77.3746 148.441 76.8389 148.57 76.2725C152.422 59.3158 157.698 44.7109 163.517 34.4294C166.424 29.2929 169.498 25.1808 172.643 22.3966C175.784 19.6159 179.118 18.0599 182.482 18.3212C186.528 18.6355 189.811 21.5072 192.365 25.9369C194.934 30.3939 196.896 36.639 198.21 44.1755C200.84 59.262 200.914 79.7642 197.838 102.12C194.762 124.476 189.108 144.533 182.426 158.896C179.088 166.072 175.467 171.883 171.738 175.851C168.033 179.794 164.037 182.1 159.991 181.786C157.007 181.554 154.432 179.923 152.274 177.324C150.119 174.728 148.315 171.092 146.858 166.65C143.944 157.762 142.356 145.429 142.309 131.112C142.307 130.539 142.795 130.05 143.399 130.019C144.004 129.989 144.495 130.429 144.497 131.003C144.544 145.208 146.122 157.318 148.951 165.943C150.366 170.258 152.076 173.647 154.018 175.987C155.958 178.324 158.062 179.541 160.276 179.713C163.277 179.947 166.615 178.258 170.138 174.509C173.639 170.784 177.143 165.205 180.431 158.136C187.003 144.01 192.612 124.163 195.668 101.952C198.724 79.7402 198.637 59.4506 196.051 44.6134C194.756 37.1881 192.846 31.1884 190.433 27.0042Z" fill="url(#paint4_linear_7205_200257)"/>
<path fill-rule="evenodd" clip-rule="evenodd" d="M258.834 116.39C259.843 115.293 260.229 114.281 260.174 113.353C260.084 111.828 258.749 110.072 255.614 108.216C252.544 106.399 248.056 104.676 242.362 103.123C230.991 100.022 216.921 97.6653 198.515 96.5059C198.515 96.5059 198.769 95.0926 198.778 94.4217C217.264 95.5862 231.238 97.9567 242.804 101.111C248.579 102.685 253.285 104.472 256.605 106.437C259.859 108.363 262.108 110.661 262.268 113.353C262.365 115.006 261.648 116.513 260.418 117.85C259.191 119.183 257.391 120.418 255.14 121.564C250.633 123.856 244.103 125.892 236.071 127.59C219.992 130.991 197.672 133.086 172.915 133.086C148.157 133.086 125.59 130.991 109.107 127.59C100.875 125.892 94.1044 123.856 89.3261 121.563C86.939 120.418 84.9935 119.183 83.6087 117.85C82.22 116.513 81.3245 115.006 81.2267 113.353C81.0763 110.81 82.8361 108.621 85.557 106.774C88.3248 104.897 92.3586 103.182 97.3838 101.654C107.449 98.5945 121.732 96.2134 138.469 94.8629C139.042 94.8166 139.572 95.2451 139.653 95.8199C139.733 96.3947 139.334 96.8982 138.76 96.9445C122.099 98.2889 107.976 100.653 98.1026 103.655C93.1585 105.158 89.3397 106.803 86.8062 108.522C84.2258 110.273 83.2354 111.918 83.3203 113.353C83.3752 114.281 83.8806 115.293 85.0196 116.39C86.1625 117.49 87.8714 118.601 90.1442 119.692C94.6857 121.871 101.256 123.863 109.416 125.546C125.717 128.909 148.133 130.998 172.791 130.998C197.449 130.998 219.618 128.909 235.521 125.546C243.481 123.863 249.817 121.871 254.1 119.692C256.244 118.601 257.821 117.49 258.834 116.39Z" fill="url(#paint5_linear_7205_200257)"/>
<path d="M146.069 96.9705C146.069 119.983 156.342 126.259 156.342 126.259L160.985 128.846C160.985 128.846 148.163 127.827 142.93 130.907C135.065 123.749 130.731 112.971 132.258 101.629C134.727 83.2841 153.696 54.7799 172.031 57.2442C167.528 58.7907 146.069 73.958 146.069 96.9705Z" fill="url(#paint6_linear_7205_200257)"/>
<path fill-rule="evenodd" clip-rule="evenodd" d="M163.672 121.52C174.396 122.962 184.26 115.443 185.702 104.726C187.145 94.0092 179.62 84.1532 168.896 82.7118C158.171 81.2704 148.308 88.7894 146.865 99.5061C145.423 110.223 152.947 120.079 163.672 121.52ZM163.368 123.781C175.342 125.39 186.354 116.995 187.965 105.03C189.575 93.0648 181.174 82.0604 169.2 80.4511C157.226 78.8417 146.213 87.2368 144.603 99.202C142.992 111.167 151.394 122.172 163.368 123.781Z" fill="#FAAD14"/>
<path d="M175.077 98.2765C175.189 95.3576 172.83 94.0558 169.723 93.357L169.972 91.5111L167.538 91.1839L167.303 92.9245C166.664 92.8385 166.008 92.7629 165.356 92.6878L165.594 90.9212L163.161 90.5942L162.913 92.4394C162.384 92.3787 159.147 91.9407 159.147 91.9407L158.851 94.0842L160.881 94.3688L158.989 108.424L156.959 108.151L156.656 110.263C157.246 110.342 159.869 110.707 160.437 110.787L160.192 112.609L162.625 112.936L162.864 111.157C163.529 111.261 164.175 111.354 164.806 111.438L164.569 113.198L167.004 113.525L167.249 111.711C171.374 112.028 174.379 111.384 175.251 107.591C175.957 104.537 174.687 102.962 172.439 102.089C173.948 101.557 175.001 100.413 175.079 98.276L175.077 98.2765ZM170.503 106.462C170.096 109.484 164.966 108.442 163.315 108.221L164.036 102.864C165.686 103.086 170.924 103.311 170.501 106.462L170.503 106.462ZM170.391 98.7519C170.021 101.501 165.744 100.598 164.369 100.413L165.023 95.5541C166.4 95.74 170.778 95.8848 170.391 98.7519Z" fill="#FAAD14"/>
<defs>
<linearGradient id="paint0_linear_7205_200257" x1="107.014" y1="51.1015" x2="101.776" y2="158.434" gradientUnits="userSpaceOnUse">
<stop stop-color="#BD30FF"/>
<stop offset="1" stop-color="#7D00FF"/>
</linearGradient>
<linearGradient id="paint1_linear_7205_200257" x1="257.157" y1="80.3544" x2="155.395" y2="23.7344" gradientUnits="userSpaceOnUse">
<stop stop-color="#BD30FF"/>
<stop offset="1" stop-color="#7D00FF"/>
</linearGradient>
<linearGradient id="paint2_linear_7205_200257" x1="108.941" y1="45.285" x2="241.274" y2="122.335" gradientUnits="userSpaceOnUse">
<stop offset="0.234375" stop-color="#BC2DFF"/>
<stop offset="1" stop-color="#5700B1"/>
</linearGradient>
<linearGradient id="paint3_linear_7205_200257" x1="172.031" y1="57.2442" x2="161.001" y2="139.308" gradientUnits="userSpaceOnUse">
<stop offset="0.416667" stop-color="white"/>
<stop offset="1" stop-color="#E2E8F0"/>
</linearGradient>
<linearGradient id="paint4_linear_7205_200257" x1="206.359" y1="25.0589" x2="97.0972" y2="68.2322" gradientUnits="userSpaceOnUse">
<stop stop-color="#BD30FF"/>
<stop offset="1" stop-color="#7D00FF"/>
</linearGradient>
<linearGradient id="paint5_linear_7205_200257" x1="257.994" y1="131.562" x2="225.584" y2="45.1846" gradientUnits="userSpaceOnUse">
<stop stop-color="#BD30FF"/>
<stop offset="1" stop-color="#7D00FF"/>
</linearGradient>
<linearGradient id="paint6_linear_7205_200257" x1="172.031" y1="57.2442" x2="149.762" y2="126.269" gradientUnits="userSpaceOnUse">
<stop stop-color="#F6F7FA"/>
<stop offset="0.796875" stop-color="#E2E8F0"/>
<stop offset="0.984375" stop-color="#E2E8F0" stop-opacity="0"/>
</linearGradient>
</defs>
</svg>
