<svg width="59" height="25" viewBox="0 0 59 25" fill="none" xmlns="http://www.w3.org/2000/svg">
<g clip-path="url(#clip0_8221_274117)">
<circle cx="47" cy="12.4453" r="12" fill="#F09242"/>
<path d="M51.1586 10.2464C51.0268 8.87131 49.8406 8.41002 48.3403 8.26944V6.37598H47.1805V8.2343C46.8752 8.2343 46.5633 8.2343 46.2536 8.2343V6.37598H45.1026V8.28262H42.75V9.5237C42.75 9.5237 43.6067 9.50832 43.5935 9.5237C43.748 9.50671 43.903 9.55034 44.0259 9.6454C44.1488 9.74046 44.2301 9.87954 44.2525 10.0333V15.2524C44.2492 15.3067 44.235 15.3597 44.2109 15.4083C44.1867 15.457 44.1531 15.5003 44.1119 15.5358C44.0715 15.5719 44.0242 15.5995 43.9728 15.6168C43.9215 15.6342 43.8672 15.641 43.8132 15.6368C43.8285 15.65 42.9697 15.6368 42.9697 15.6368L42.75 17.0229H45.0806V18.9603H46.2404V17.0514H47.1674V18.9515H48.3294V17.0361C50.2887 16.9174 51.655 16.4342 51.8263 14.6C51.9647 13.1239 51.2706 12.4649 50.1613 12.1992C50.8357 11.8675 51.253 11.2524 51.1586 10.2464ZM49.5331 14.3716C49.5331 15.8125 47.0641 15.6478 46.2777 15.6478V13.091C47.0641 13.0932 49.5331 12.8669 49.5331 14.3716ZM48.9949 10.7692C48.9949 12.0871 46.9345 11.9268 46.2799 11.9268V9.60277C46.9345 9.60277 48.9949 9.3963 48.9949 10.7692Z" fill="white"/>
<path d="M46.9978 24.4453C44.6246 24.4449 42.3048 23.7408 40.3318 22.422C38.3587 21.1033 36.821 19.2291 35.913 17.0365C35.0051 14.8439 34.7676 12.4313 35.2307 10.1037C35.6938 7.77613 36.8366 5.63813 38.5147 3.96004C40.1928 2.28194 42.3308 1.13909 44.6584 0.676002C46.986 0.212909 49.3986 0.450364 51.5912 1.35834C53.7838 2.26632 55.658 3.80405 56.9767 5.77711C58.2955 7.75016 58.9996 10.0699 59 12.4431C59.0003 14.0194 58.69 15.5802 58.087 17.0365C57.4839 18.4928 56.5999 19.816 55.4853 20.9306C54.3707 22.0452 53.0475 22.9292 51.5912 23.5323C50.1349 24.1354 48.574 24.4456 46.9978 24.4453ZM46.9978 1.38107C44.8114 1.3828 42.6745 2.03269 40.8574 3.24858C39.0402 4.46448 37.6243 6.19179 36.7885 8.21221C35.9528 10.2326 35.7349 12.4555 36.1622 14.5997C36.5895 16.744 37.6428 18.7135 39.1892 20.2592C40.7356 21.805 42.7054 22.8576 44.8499 23.284C46.9943 23.7105 49.2171 23.4916 51.2372 22.6551C53.2572 21.8186 54.984 20.402 56.1992 18.5843C57.4143 16.7667 58.0634 14.6296 58.0643 12.4431C58.0648 10.9899 57.779 9.55081 57.223 8.20816C56.667 6.8655 55.8518 5.6456 54.824 4.61823C53.7962 3.59085 52.576 2.77614 51.2331 2.22068C49.8902 1.66522 48.451 1.37991 46.9978 1.38107Z" fill="#282138"/>
</g>
<g clip-path="url(#clip1_8221_274117)">
<circle cx="29" cy="12.4453" r="12" fill="white"/>
<path d="M36.5691 5.48217L35.9102 6.14115C37.4826 7.86072 38.3546 10.1065 38.3546 12.4366C38.3546 14.7667 37.4826 17.0125 35.9102 18.732L36.5691 19.391C38.3178 17.4942 39.2887 15.0088 39.2887 12.4289C39.2887 9.84901 38.3178 7.3636 36.5691 5.4668V5.48217Z" fill="#5A5564"/>
<path d="M22.7095 5.53969C24.4291 3.96726 26.6748 3.09526 29.005 3.09526C31.3351 3.09526 33.5808 3.96726 35.3004 5.53969L35.9594 4.88071C34.0626 3.132 31.5772 2.16113 28.9973 2.16113C26.4174 2.16113 23.932 3.132 22.0352 4.88071L22.7095 5.53969Z" fill="#5A5564"/>
<path d="M22.0934 18.7384C20.5228 17.0192 19.652 14.7748 19.652 12.4462C19.652 10.1177 20.5228 7.87328 22.0934 6.1541L21.4344 5.49512C19.6857 7.39192 18.7148 9.87733 18.7148 12.4572C18.7148 15.0371 19.6857 17.5225 21.4344 19.4193L22.0934 18.7384Z" fill="#5A5564"/>
<path d="M35.2928 19.3467C33.5733 20.9191 31.3275 21.7911 28.9974 21.7911C26.6673 21.7911 24.4215 20.9191 22.7019 19.3467L22.043 20.0057C23.9398 21.7544 26.4252 22.7252 29.0051 22.7252C31.585 22.7252 34.0704 21.7544 35.9672 20.0057L35.2928 19.3467Z" fill="#5A5564"/>
<path d="M33.1586 10.2464C33.0268 8.87131 31.8406 8.41002 30.3403 8.26944V6.37598H29.1805V8.2343C28.8752 8.2343 28.5633 8.2343 28.2536 8.2343V6.37598H27.1026V8.28262H24.75V9.5237C24.75 9.5237 25.6067 9.50832 25.5935 9.5237C25.748 9.50671 25.903 9.55034 26.0259 9.6454C26.1488 9.74046 26.2301 9.87954 26.2525 10.0333V15.2524C26.2492 15.3067 26.235 15.3597 26.2109 15.4083C26.1867 15.457 26.1531 15.5003 26.1119 15.5358C26.0715 15.5719 26.0242 15.5995 25.9728 15.6168C25.9215 15.6342 25.8672 15.641 25.8132 15.6368C25.8285 15.65 24.9697 15.6368 24.9697 15.6368L24.75 17.0229H27.0806V18.9603H28.2404V17.0514H29.1674V18.9515H30.3294V17.0361C32.2887 16.9174 33.655 16.4342 33.8263 14.6C33.9647 13.1239 33.2706 12.4649 32.1613 12.1992C32.8357 11.8675 33.253 11.2524 33.1586 10.2464ZM31.5331 14.3716C31.5331 15.8125 29.0641 15.6478 28.2777 15.6478V13.091C29.0641 13.0932 31.5331 12.8669 31.5331 14.3716ZM30.9949 10.7692C30.9949 12.0871 28.9345 11.9268 28.2799 11.9268V9.60277C28.9345 9.60277 30.9949 9.3963 30.9949 10.7692Z" fill="#F09242"/>
<path d="M28.9978 24.4453C26.6246 24.4449 24.3048 23.7408 22.3318 22.422C20.3587 21.1033 18.821 19.2291 17.913 17.0365C17.0051 14.8439 16.7676 12.4313 17.2307 10.1037C17.6938 7.77613 18.8366 5.63813 20.5147 3.96004C22.1928 2.28194 24.3308 1.13909 26.6584 0.676002C28.986 0.212909 31.3986 0.450364 33.5912 1.35834C35.7838 2.26632 37.658 3.80405 38.9767 5.77711C40.2955 7.75016 40.9996 10.0699 41 12.4431C41.0003 14.0194 40.69 15.5802 40.087 17.0365C39.4839 18.4928 38.5999 19.816 37.4853 20.9306C36.3707 22.0452 35.0475 22.9292 33.5912 23.5323C32.1349 24.1354 30.574 24.4456 28.9978 24.4453ZM28.9978 1.38107C26.8114 1.3828 24.6745 2.03269 22.8574 3.24858C21.0402 4.46448 19.6243 6.19179 18.7885 8.21221C17.9528 10.2326 17.7349 12.4555 18.1622 14.5997C18.5895 16.744 19.6428 18.7135 21.1892 20.2592C22.7356 21.805 24.7054 22.8576 26.8499 23.284C28.9943 23.7105 31.2171 23.4916 33.2372 22.6551C35.2572 21.8186 36.984 20.402 38.1992 18.5843C39.4143 16.7667 40.0634 14.6296 40.0643 12.4431C40.0648 10.9899 39.779 9.55081 39.223 8.20816C38.667 6.8655 37.8518 5.6456 36.824 4.61823C35.7962 3.59085 34.576 2.77614 33.2331 2.22068C31.8902 1.66522 30.451 1.37991 28.9978 1.38107Z" fill="#282138"/>
</g>
<path d="M12 23.2266C18.2003 23.2266 23.2266 18.2003 23.2266 12C23.2266 5.79974 18.2003 0.773438 12 0.773438C5.79974 0.773438 0.773438 5.79974 0.773438 12C0.773438 18.2003 5.79974 23.2266 12 23.2266Z" fill="#1D2229"/>
<path d="M10.1377 11.0596H8.25781V12.9394H10.1377V11.0596Z" fill="white"/>
<path d="M8.25877 9.17969H6.37891V11.0595H8.25877V9.17969Z" fill="white"/>
<path d="M6.37986 11.0596H4.5V12.9394H6.37986V11.0596Z" fill="white"/>
<path d="M8.25877 12.9395H6.37891V14.8193H8.25877V12.9395Z" fill="white"/>
<path d="M18.9459 9.58422C18.8134 8.20167 17.6201 7.73758 16.113 7.60504V6.71944H14.946V7.55451C14.6394 7.55451 14.3259 7.56039 14.014 7.56628V6.71875H12.8478V7.604C12.5951 7.60885 11.043 7.60746 11.043 7.60746L11.0396 8.63633L12.0134 8.64187V15.3851H11.0399L11.0312 16.3994C11.314 16.3994 12.5723 16.4049 12.845 16.4067V17.2808H14.0113V16.4274C14.331 16.4344 14.6411 16.4371 14.9436 16.4368V17.2812H16.1109V16.4108C18.0735 16.299 19.4477 15.8052 19.6183 13.9627C19.7568 12.4788 19.0591 11.8171 17.9451 11.5478C18.622 11.2018 19.0452 10.5958 18.9466 9.58387L18.9459 9.58422ZM17.3107 13.7312C17.3107 15.1809 14.829 15.0151 14.0372 15.0155V12.4455C14.8287 12.4455 17.3093 12.2196 17.3097 13.7312H17.3107ZM16.7691 10.1051C16.7691 11.4239 14.6982 11.2692 14.039 11.2692V8.9381C14.6993 8.93845 16.7698 8.72942 16.7691 10.1051Z" fill="white"/>
<defs>
<clipPath id="clip0_8221_274117">
<rect width="24" height="24" fill="white" transform="translate(35 0.445312)"/>
</clipPath>
<clipPath id="clip1_8221_274117">
<rect width="24" height="24" fill="white" transform="translate(17 0.445312)"/>
</clipPath>
</defs>
</svg>
