<svg width="120" height="112" viewBox="0 0 120 112" fill="none" xmlns="http://www.w3.org/2000/svg">
<path fill-rule="evenodd" clip-rule="evenodd" d="M73.326 66.7755C72.1193 67.477 70.5764 67.0607 69.8797 65.8455L68.2826 63.06L57.182 69.514L67.2958 102.453C67.972 104.655 66.4744 106.919 63.9509 107.509L57.8111 108.945C57.1382 109.102 56.4465 108.754 56.2662 108.166L53.1253 97.9369H39.5346L36.3446 108.326C36.1643 108.913 35.4726 109.262 34.7997 109.105L28.66 107.669C26.1364 107.079 24.6389 104.815 25.3151 102.613L31.9672 80.9481L31.3249 81.3215L22.4365 86.4892C21.2298 87.1908 19.6868 86.7745 18.9902 85.5593L12.5874 74.3916C11.8908 73.1765 12.3042 71.6227 13.5109 70.9211L22.3993 65.7533L30.9135 60.8032C31.1402 60.6714 31.3788 60.579 31.6213 60.524L31.4388 60.2056C30.7421 58.9904 31.1555 57.4366 32.3622 56.735L56.5828 42.6531L54.9858 39.8675C54.2891 38.6524 54.7026 37.0986 55.9093 36.397L66.5374 30.2178C67.7441 29.5162 69.2871 29.9325 69.9837 31.1477L84.8776 57.1257C85.5743 58.3408 85.1608 59.8947 83.9542 60.5962L73.326 66.7755ZM46.3233 75.8272L41.9652 90.0209H50.6947L46.3346 75.8207L46.3233 75.8272Z" fill="#1D2229"/>
<path d="M71.9282 55.46L71.9278 55.459C71.7299 54.9895 71.7333 54.6491 71.8293 54.3935C71.9269 54.1338 72.133 53.927 72.4073 53.7527C72.6821 53.578 73.0077 53.4469 73.3212 53.3304C73.3713 53.3117 73.4219 53.2932 73.4721 53.2749C73.7222 53.1834 73.9662 53.0942 74.132 52.9967L74.132 52.9967L74.1345 52.9952C74.6367 52.6901 75.193 52.6541 75.798 52.6151C75.811 52.6142 75.8241 52.6134 75.8372 52.6125C76.4408 52.5734 77.0968 52.525 77.6646 52.1065L77.6647 52.1066L77.6676 52.1043C78.0557 51.8071 78.5909 51.759 79.1305 51.9743C79.2472 52.0415 79.3583 52.109 79.4432 52.2154C79.5616 52.3739 79.6049 52.5895 79.5851 52.8065C79.5652 53.0244 79.485 53.209 79.3981 53.3043C79.2967 53.3989 79.1712 53.4605 79.0141 53.5277C78.9946 53.5361 78.9745 53.5445 78.9539 53.5532C78.8146 53.6119 78.6517 53.6806 78.5041 53.7834L78.5041 53.7833L78.5028 53.7842C78.2473 53.9651 78.0595 54.2434 77.9061 54.5357C77.7851 54.7662 77.6771 55.0228 77.5737 55.2684C77.5459 55.3345 77.5184 55.3998 77.4911 55.4636C77.3589 55.7722 77.2299 56.0476 77.078 56.2556C76.9276 56.4617 76.771 56.5791 76.5893 56.6103L76.5893 56.6103L76.5846 56.6112C76.3299 56.6612 76.039 56.5392 75.6763 56.344C75.6291 56.3186 75.5806 56.2919 75.5312 56.2648C75.4029 56.1943 75.2689 56.1207 75.1381 56.058C74.9552 55.9703 74.7594 55.8939 74.5591 55.8666L74.5587 55.8665C74.2642 55.827 73.9984 55.8952 73.7627 55.9722C73.6978 55.9934 73.6363 56.0147 73.5769 56.0354C73.4097 56.0934 73.2589 56.1457 73.0957 56.1729L73.0956 56.1727L73.0859 56.1748C72.7078 56.2574 72.1836 56.0756 71.9282 55.46Z" stroke="url(#paint0_linear_7207_200313)" stroke-width="0.4" stroke-miterlimit="10"/>
<path d="M80.3195 53.3152C80.1869 53.4035 80.0695 53.491 79.9576 53.6073C79.6763 53.8908 79.4724 54.2511 79.306 54.6258C79.1751 54.9206 79.0628 55.2356 78.9551 55.5375C78.9263 55.6183 78.8979 55.6981 78.8695 55.7764L78.8687 55.7785C78.8077 55.9524 78.7496 56.1344 78.6903 56.3203C78.5903 56.6332 78.4869 56.9572 78.3601 57.2729C78.1596 57.7724 77.9237 58.1855 77.6147 58.4112C77.3376 58.6104 77.0287 58.6387 76.6624 58.5754C76.3644 58.5202 76.0562 58.3781 75.7198 58.1901C75.5667 58.1046 75.4114 58.0118 75.2502 57.9154C75.235 57.9062 75.2197 57.8971 75.2043 57.8879C75.0282 57.7827 74.8457 57.6742 74.6577 57.5714C74.3245 57.3806 73.9842 57.225 73.6342 57.1782C73.2373 57.1055 72.867 57.1607 72.5113 57.2508C72.3495 57.2917 72.187 57.341 72.0264 57.3896C72.0104 57.3945 71.9945 57.3993 71.9785 57.4041C71.8007 57.4579 71.6237 57.5105 71.4408 57.554L71.4389 57.5545C70.4816 57.7922 69.5176 57.1861 69.0565 56.0169C68.9003 55.6208 68.7966 55.2378 68.744 54.8676C68.6784 54.308 68.6759 53.6911 68.7924 53.1514C68.9095 52.6086 69.1403 52.1719 69.5171 51.9293L69.4089 51.7611L69.5169 51.9294C69.5765 51.8911 69.6641 51.8678 69.7892 51.8624C69.9136 51.857 70.0548 51.8697 70.2108 51.8873C70.2364 51.8902 70.2625 51.8932 70.2889 51.8962C70.4177 51.9111 70.5548 51.927 70.6829 51.9319C70.8362 51.9378 71.002 51.9298 71.1488 51.8728L71.1488 51.8728L71.1518 51.8717C71.4248 51.7608 71.6812 51.6489 71.926 51.5422C72.3718 51.3477 72.779 51.1701 73.1778 51.0458L73.1778 51.0459L73.1817 51.0446C73.7378 50.8586 74.2488 50.5854 74.7369 50.3244C74.793 50.2944 74.8488 50.2646 74.9044 50.235C75.4496 49.9452 75.9717 49.6838 76.536 49.5545C76.7698 49.5014 77.045 49.5528 77.3747 49.6248C77.3933 49.6289 77.4122 49.6331 77.4312 49.6373C77.7232 49.7016 78.058 49.7753 78.3691 49.7342C78.4963 49.7301 78.5961 49.702 78.7087 49.6391L78.7087 49.6392L78.7144 49.6357C79.3979 49.2228 80.219 49.2666 80.9959 49.6745L80.9959 49.6745L81.0012 49.6771C81.2063 49.7772 81.4019 49.9235 81.5815 50.1688L81.6066 50.203L81.617 50.209C81.846 50.5715 81.9371 51.0447 81.9179 51.4932C81.8984 51.9511 81.7661 52.3411 81.5962 52.5399L81.5961 52.5398L81.5915 52.5456C81.4417 52.7345 81.2517 52.8483 81.0295 52.954C80.9782 52.9784 80.9234 53.003 80.8666 53.0285C80.6898 53.1079 80.4932 53.1961 80.3195 53.3152ZM80.3195 53.3152C80.3191 53.3155 80.3187 53.3157 80.3183 53.316L80.4315 53.4809L80.3208 53.3144C80.3204 53.3146 80.32 53.3149 80.3195 53.3152Z" stroke="url(#paint1_linear_7207_200313)" stroke-width="0.4" stroke-miterlimit="10"/>
<path d="M78.2225 60.4817L78.2225 60.4817L78.2199 60.4832C77.752 60.7625 77.2486 60.7107 76.7165 60.5395C76.2996 60.4032 75.8847 60.1668 75.4494 59.8878C75.2969 59.7901 75.1402 59.6859 74.9805 59.5797C74.6938 59.3891 74.3972 59.1919 74.097 59.0134C73.654 58.739 73.2119 58.5685 72.7889 58.4717L72.7889 58.4716L72.7837 58.4706C72.264 58.366 71.7745 58.4272 71.2964 58.5407C71.058 58.5974 70.8188 58.668 70.5802 58.7387L70.5676 58.7424C70.3318 58.8122 70.0957 58.8822 69.8517 58.9424C68.2383 59.3338 66.8731 58.2923 66.215 56.5906C65.9972 55.9726 65.8092 55.3648 65.7466 54.7782L65.7466 54.7782L65.7463 54.7757C65.6477 53.9514 65.5825 52.9561 65.6995 52.0662C65.8174 51.1697 66.1134 50.4306 66.6897 50.0504C66.7705 50 66.9055 49.9795 67.1127 50.0021C67.3158 50.0243 67.5494 50.0829 67.8005 50.1496C67.8269 50.1565 67.8535 50.1636 67.8802 50.1707C68.1015 50.2298 68.3335 50.2916 68.5466 50.3272C68.7803 50.3663 69.0299 50.3813 69.237 50.2996L69.237 50.2996L69.2391 50.2988C69.6046 50.1498 69.9579 49.99 70.2989 49.8358C70.4786 49.7545 70.6548 49.6748 70.8276 49.599C71.3337 49.3771 71.8214 49.1839 72.3238 49.0596C73.1973 48.8489 73.9333 48.3098 74.6275 47.7896C74.6517 47.7715 74.6758 47.7535 74.6999 47.7354C75.3801 47.2253 76.0236 46.7427 76.7601 46.5197L76.7612 46.5194C76.8777 46.4834 77.0266 46.4909 77.2148 46.5424C77.4019 46.5937 77.6064 46.6823 77.8256 46.7858C77.8892 46.8158 77.9545 46.8473 78.0207 46.8792C78.1762 46.9543 78.3364 47.0316 78.4901 47.097C78.7093 47.1904 78.9376 47.2699 79.1557 47.2916C79.3065 47.3089 79.473 47.3019 79.6309 47.2231L79.6377 47.2197L79.6442 47.2159C80.6476 46.6169 81.8216 46.7577 82.8786 47.3441C83.1871 47.521 83.4789 47.7436 83.7493 48.1374L83.8296 48.2544L83.8312 48.254C84.1431 48.7916 84.2746 49.4773 84.26 50.1237C84.2444 50.8096 84.0656 51.4055 83.8127 51.713L83.8126 51.7129L83.8094 51.7171C83.576 52.0165 83.2883 52.1881 82.9634 52.3468C82.898 52.3788 82.8301 52.4106 82.7605 52.4432C82.4933 52.5683 82.2017 52.7048 81.9367 52.9044L81.9367 52.9044L81.9329 52.9074C81.7819 53.027 81.6078 53.1817 81.4629 53.3587C80.8017 54.1552 80.4506 55.2897 80.1445 56.2785C80.1109 56.3869 80.0779 56.4937 80.0451 56.598L80.0446 56.5994C79.976 56.8233 79.9097 57.0648 79.8407 57.3157C79.7082 57.7981 79.5661 58.3154 79.3796 58.8103C79.0964 59.5617 78.7353 60.1858 78.2225 60.4817Z" stroke="url(#paint2_linear_7207_200313)" stroke-width="0.4" stroke-miterlimit="10"/>
<path d="M62.5621 54.7535C62.6613 55.5833 62.8906 56.4283 63.2137 57.2477C64.0852 59.531 65.9533 61.2161 68.3105 60.5258C68.4785 60.4769 68.6432 60.4272 68.8053 60.3782C69.8825 60.053 70.8434 59.7628 71.8681 59.9884C72.3776 60.1021 72.8891 60.316 73.4389 60.6707M62.5621 54.7535L62.7607 54.7299C62.7607 54.7298 62.7607 54.7298 62.7607 54.7297M62.5621 54.7535L62.7607 54.7297M62.5621 54.7535C62.3067 52.6053 62.0379 49.2009 63.7729 48.0747M62.7607 54.7297C62.8575 55.5398 63.0818 56.368 63.3998 57.1743L63.4006 57.1763L63.4006 57.1763C63.8263 58.2916 64.4906 59.2472 65.3211 59.839C66.1458 60.4267 67.1392 60.6604 68.2543 60.3339L68.2546 60.3338C68.419 60.2859 68.5816 60.2367 68.7429 60.1878C69.8155 59.8631 70.8315 59.5554 71.9111 59.7931L71.9117 59.7932C72.4458 59.9124 72.978 60.1358 73.544 60.5005M62.7607 54.7297C62.6331 53.6568 62.5046 52.287 62.6202 51.0494C62.7369 49.8004 63.0963 48.7523 63.8818 48.2424L63.8822 48.2422C63.9973 48.1671 64.1905 48.1474 64.48 48.1965C64.7615 48.2442 65.0862 48.3478 65.4292 48.4622C65.4647 48.474 65.5003 48.486 65.5361 48.4979C65.8398 48.5997 66.1539 48.7048 66.4397 48.7702C66.7515 48.8416 67.0768 48.8781 67.3371 48.7745L67.3383 48.774C67.8465 48.5677 68.3308 48.3412 68.7984 48.1224C69.0237 48.017 69.2452 47.9135 69.4636 47.8148C70.1411 47.5088 70.8016 47.244 71.5061 47.0894C72.6241 46.8521 73.5353 46.0928 74.3905 45.3438C74.4489 45.2926 74.5071 45.2415 74.5651 45.1906C75.3716 44.4818 76.1385 43.8078 77.0301 43.4981C77.1672 43.4528 77.3488 43.4716 77.5856 43.5619C77.8201 43.6514 78.0787 43.7993 78.3541 43.9707C78.4494 44.03 78.5477 44.0928 78.6471 44.1563C78.8272 44.2714 79.0108 44.3887 79.1866 44.4917C79.4605 44.6521 79.742 44.7944 80.008 44.8573L80.017 44.8594L80.0261 44.8607L80.0331 44.8617C80.1199 44.8739 80.2243 44.8887 80.3244 44.8875C80.4269 44.8864 80.5469 44.8688 80.655 44.7987C81.9573 44.0213 83.4545 44.2459 84.8184 45.0277C85.2139 45.2544 85.6243 45.5634 85.9596 46.1008C85.9681 46.119 85.9774 46.1332 85.9845 46.143C85.9917 46.153 85.9992 46.1619 86.0044 46.1679L86.0086 46.1751C86.4521 46.9278 86.6405 47.9011 86.6265 48.8089C86.6123 49.723 86.3938 50.5269 86.069 50.9543L86.0679 50.9558C85.7551 51.3752 85.3658 51.6055 84.9353 51.8149C84.8547 51.8541 84.7718 51.8929 84.6874 51.9324C84.3295 52.0998 83.9447 52.2797 83.5997 52.5565L83.5995 52.5563L83.5916 52.5633L83.5852 52.5691C83.3874 52.7456 83.1733 52.9368 82.9952 53.1728C82.512 53.765 82.1784 54.4942 81.9133 55.2407C81.733 55.7488 81.5805 56.277 81.4352 56.7802C81.3677 57.0141 81.3017 57.2427 81.2353 57.4613L81.2352 57.4613C81.1472 57.751 81.0618 58.0693 80.9722 58.4034C80.8034 59.0323 80.6197 59.717 80.3755 60.3708C80.0021 61.3705 79.5141 62.2135 78.8026 62.5905C78.177 62.9163 77.45 62.7834 76.7576 62.503C76.2255 62.2837 75.7071 61.9539 75.1749 61.5896C75.0479 61.5027 74.9199 61.4136 74.7908 61.3237C74.3855 61.0417 73.9699 60.7525 73.544 60.5005M73.544 60.5005C73.5429 60.4999 73.5418 60.4992 73.5406 60.4985L73.4389 60.6707M73.544 60.5005C73.5451 60.5012 73.5462 60.502 73.5473 60.5027L73.4389 60.6707M73.4389 60.6707L76.9658 43.3087C76.0348 43.6317 75.2388 44.3317 74.4406 45.0337C73.5212 45.8422 72.5988 46.6532 71.464 46.8939C70.5011 47.1051 69.6254 47.5147 68.7073 47.9442C68.2424 48.1617 67.7666 48.3842 67.2631 48.5887C66.8859 48.7389 66.2457 48.5246 65.5991 48.3081C64.8814 48.0678 64.1557 47.825 63.7729 48.0747M63.7729 48.0747L63.7729 48.0747L63.7729 48.0747Z" stroke="url(#paint3_linear_7207_200313)" stroke-width="0.4" stroke-miterlimit="10"/>
<path d="M79.3977 64.6706L79.3984 64.6703C80.3124 64.2244 80.9264 63.1567 81.3851 61.8998C81.688 61.0697 81.9109 60.1964 82.1122 59.4081C82.2156 59.0033 82.3132 58.6208 82.413 58.2781M79.3977 64.6706L82.4132 58.2776C82.4132 58.2777 82.4131 58.2779 82.413 58.2781M79.3977 64.6706C78.5714 65.0777 77.6436 64.854 76.794 64.4647C76.1485 64.162 75.5278 63.7392 74.8913 63.2828C74.7785 63.2019 74.6651 63.1199 74.551 63.0373C74.0264 62.658 73.4875 62.2682 72.9242 61.9287C72.2417 61.4973 71.6196 61.2213 70.9758 61.0801L70.9754 61.08C69.6274 60.7872 68.3524 61.1784 66.9463 61.6099C66.8355 61.6439 66.7238 61.6782 66.6113 61.7124L66.611 61.7125C65.1867 62.1473 63.931 61.847 62.8958 61.0972C61.8543 60.3428 61.031 59.1284 60.5049 57.7372C60.1272 56.7137 59.8235 55.682 59.7164 54.6522L59.7162 54.6509C59.5682 53.3144 59.3746 51.5651 59.4847 49.9778C59.5957 48.3771 60.0109 47.019 61.0066 46.3776C61.1609 46.2801 61.4175 46.2673 61.7889 46.3463C62.1508 46.4233 62.5677 46.5748 63.003 46.7383C63.043 46.7534 63.0832 46.7685 63.1235 46.7837C63.5145 46.9311 63.9157 47.0823 64.2786 47.1789C64.6687 47.2827 65.0668 47.339 65.3769 47.2153C66.0238 46.9601 66.6375 46.667 67.2343 46.3819C67.4939 46.2579 67.7503 46.1355 68.0048 46.0183C68.8509 45.6289 69.6905 45.2909 70.6123 45.1142C71.9754 44.8632 73.0542 43.8869 74.0664 42.9072C74.1526 42.8238 74.2382 42.7403 74.3236 42.6572C75.26 41.7456 76.1574 40.872 77.2235 40.4717L77.2241 40.4715C77.3824 40.4115 77.5993 40.4395 77.8896 40.5705C78.1749 40.6993 78.4916 40.9094 78.8273 41.1512C78.9505 41.2399 79.0774 41.3338 79.2053 41.4285C79.4178 41.5858 79.6331 41.7451 79.8392 41.8865C80.1704 42.1137 80.5066 42.3157 80.8192 42.4125L80.8191 42.4128L80.8304 42.4156C81.0726 42.4754 81.3276 42.5236 81.5774 42.3839L81.5774 42.3839L81.582 42.3812C83.2106 41.4122 85.0579 41.7169 86.7037 42.699L86.7037 42.699L86.7067 42.7008C87.1894 42.9774 87.695 43.3599 88.1215 44.0461C88.1372 44.0866 88.1572 44.1153 88.1707 44.1331L88.1709 44.1334L88.18 44.1489C88.7433 45.1098 88.9865 46.3336 88.9768 47.4667C88.967 48.6065 88.7021 49.6112 88.2943 50.1487L88.2935 50.1499M79.3977 64.6706L88.2935 50.1499M82.413 58.2781C82.4826 58.034 82.552 57.7801 82.6231 57.52C82.7998 56.8734 82.9868 56.1894 83.2116 55.527C83.5274 54.5968 83.9244 53.6873 84.4916 52.9465M82.413 58.2781L84.4916 52.9465M88.2935 50.1499C87.8979 50.6794 87.4046 50.9635 86.8667 51.2244C86.7821 51.2655 86.6958 51.3062 86.6084 51.3473C86.1491 51.5639 85.6602 51.7943 85.2274 52.1675C84.9523 52.3982 84.7038 52.6499 84.4916 52.9465M88.2935 50.1499L84.4916 52.9465" stroke="url(#paint4_linear_7207_200313)" stroke-width="0.4" stroke-miterlimit="10"/>
<path d="M83.5731 59.1247L83.5734 59.1237C83.6726 58.7724 83.7703 58.402 83.8707 58.0214C84.0588 57.308 84.2565 56.5585 84.4917 55.8313C84.854 54.7111 85.3141 53.6127 85.9916 52.715L85.992 52.7145C86.2397 52.3886 86.5202 52.0773 86.8406 51.8063C87.3507 51.3577 87.9308 51.0853 88.4823 50.8262C88.5854 50.7778 88.6875 50.7298 88.7879 50.6812C89.4342 50.3689 90.0368 50.0237 90.5242 49.3687C91.0041 48.7237 91.314 47.5113 91.3214 46.1415C91.3289 44.7786 91.0363 43.3035 90.3571 42.1474L90.3435 42.1244L90.3418 42.1181C90.3409 42.1167 90.3398 42.115 90.3385 42.1131L90.3376 42.1117C90.3328 42.1046 90.3248 42.0925 90.3176 42.0802C90.3135 42.0732 90.3084 42.0642 90.3035 42.0538C90.3027 42.0522 90.3019 42.0504 90.3011 42.0485C89.7825 41.208 89.1792 40.7488 88.5966 40.3957L83.5731 59.1247ZM83.5731 59.1247C83.4664 59.5099 83.3613 59.9407 83.2498 60.398C83.0154 61.3591 82.7524 62.4373 82.3857 63.4563C81.8439 64.9615 81.1024 66.2511 79.9744 66.7816C78.9856 67.2349 77.8613 66.9408 76.8267 66.4261C76.0685 66.0399 75.3473 65.5298 74.6149 64.9863C74.4785 64.885 74.3415 64.7825 74.2039 64.6795C73.6069 64.2327 72.9973 63.7764 72.36 63.3704C71.5792 62.8623 70.8441 62.5418 70.119 62.3728L70.1168 62.3723C68.452 62.0033 66.8964 62.49 65.1171 63.0467C65.083 63.0573 65.0488 63.068 65.0146 63.0787L65.0144 63.0788C63.2806 63.6223 61.7681 63.2537 60.5289 62.3429C59.2827 61.427 58.3077 59.9575 57.6845 58.3015C57.2264 57.0743 56.8648 55.8303 56.7239 54.5814L56.7238 54.5801C56.7191 54.541 56.7144 54.5016 56.7096 54.4619C56.5227 52.8972 56.2768 50.8388 56.3799 48.9567C56.4864 47.0129 56.9617 45.3396 58.1674 44.5535C58.3625 44.4332 58.6839 44.4287 59.1362 44.5377C59.5782 44.6442 60.0872 44.8438 60.6146 45.0565C60.6594 45.0746 60.7044 45.0928 60.7494 45.111C61.2277 45.3043 61.7157 45.5016 62.1552 45.6293C62.6249 45.7657 63.0951 45.8408 63.4538 45.6966L63.4547 45.6962C64.1977 45.3935 64.9024 45.0497 65.5882 44.7151C65.9331 44.5468 66.2732 44.3809 66.6111 44.2236C67.6285 43.7501 68.6441 43.3456 69.7733 43.1499L69.7746 43.1497C71.3604 42.8644 72.5988 41.676 73.7659 40.4691C73.8723 40.3591 73.9781 40.2489 74.0836 40.1391C75.1551 39.0234 76.1913 37.9444 77.4383 37.4398L77.4396 37.4393C77.6225 37.3636 77.8768 37.4014 78.219 37.5715C78.5544 37.7384 78.9281 38.0092 79.3219 38.3202C79.4837 38.448 79.6515 38.5847 79.8201 38.7221C80.0513 38.9105 80.2841 39.1002 80.5052 39.2698C80.8894 39.5647 81.274 39.8281 81.6257 39.9658C81.9403 40.1018 82.2377 40.1334 82.5092 39.9907L82.5093 39.991M83.5731 59.1247L82.5093 39.991M82.5093 39.991L82.5186 39.9855M82.5093 39.991L82.5186 39.9855M82.5186 39.9855C84.4483 38.8346 86.674 39.2355 88.5963 40.3955L82.5186 39.9855Z" stroke="url(#paint5_linear_7207_200313)" stroke-width="0.4" stroke-miterlimit="10"/>
<path d="M92.7847 48.6052L92.7856 48.604C93.3484 47.8488 93.7031 46.4297 93.7082 44.8299C93.7133 43.2374 93.3714 41.5104 92.5873 40.1553L92.5742 40.1327L92.5695 40.1155C92.5687 40.1141 92.5676 40.1124 92.5662 40.1103L92.5646 40.108C92.5555 40.0943 92.5375 40.0674 92.523 40.0298C91.9136 39.0406 91.2153 38.507 90.5359 38.079C88.3083 36.7246 85.7582 36.238 83.5275 37.5697C83.2215 37.759 82.8466 37.6728 82.5215 37.5274C82.5213 37.5273 82.5211 37.5272 82.5209 37.5271L82.6026 37.3445C82.0159 37.0864 81.3047 36.4703 80.5858 35.8476C79.4819 34.8912 78.3601 33.9194 77.6442 34.2053L92.7847 48.6052ZM92.7847 48.6052C92.2259 49.3672 91.5261 49.7701 90.7744 50.1363C90.6586 50.1927 90.5411 50.2484 90.4225 50.3047C89.7795 50.6095 89.1049 50.9292 88.5083 51.455C88.1471 51.7626 87.8083 52.1407 87.5254 52.5279M92.7847 48.6052L53.779 54.4982C53.9538 55.9658 54.3793 57.4452 54.8887 58.8608C55.6089 60.7805 56.7352 62.5048 58.1867 63.5851C59.6311 64.6601 61.4025 65.1028 63.4493 64.4618C65.5481 63.7918 67.3426 63.2215 69.2598 63.6648C70.0915 63.8552 70.9402 64.2207 71.8184 64.8048C72.5489 65.2816 73.2454 65.825 73.9296 66.3588C74.0707 66.4688 74.2113 66.5785 74.3515 66.687C75.1762 67.3256 75.9921 67.9293 76.8577 68.3866C78.0519 69.012 79.3833 69.4209 80.5735 68.8869C81.9071 68.2873 82.7765 66.7761 83.4048 65.02C83.8343 63.8197 84.1385 62.5462 84.4069 61.4229C84.5306 60.9052 84.6466 60.4195 84.7638 59.9874C84.8548 59.6453 84.9453 59.2896 85.0379 58.9254C85.2662 58.0275 85.5077 57.0779 85.8037 56.1534C86.2206 54.8514 86.7519 53.5772 87.5254 52.5279M87.5254 52.5279C87.5254 52.5279 87.5254 52.528 87.5254 52.528L87.6869 52.646L87.5259 52.5273C87.5258 52.5275 87.5256 52.5277 87.5254 52.5279ZM75.5491 35.8973C76.2343 35.254 76.9431 34.7166 77.7198 34.3904L53.7342 54.1235C53.5203 52.3415 53.2425 50.0272 53.3375 47.8976C53.3884 46.7572 53.546 45.6808 53.872 44.774C54.1977 43.8681 54.687 43.1433 55.3947 42.6856L55.3947 42.6856L55.3959 42.6848C55.6287 42.5317 56.012 42.5288 56.5446 42.6637C57.0647 42.7954 57.6649 43.0414 58.2843 43.3032C58.3433 43.3281 58.4025 43.3532 58.4618 43.3783C59.0179 43.614 59.5826 43.8533 60.0901 44.0107C60.3718 44.0981 60.6434 44.1627 60.8925 44.1868C61.1402 44.2108 61.3792 44.1961 61.5873 44.1124C62.4653 43.7621 63.2984 43.3527 64.1133 42.9523C64.4966 42.7639 64.8759 42.5775 65.2539 42.4002C66.4435 41.8422 67.6393 41.3639 68.9758 41.1492L68.9764 41.1491C70.803 40.8506 72.2129 39.4472 73.54 38.0086C73.6744 37.8628 73.808 37.7166 73.9413 37.5709C74.4733 36.9888 74.9996 36.413 75.5491 35.8973Z" stroke="url(#paint6_linear_7207_200313)" stroke-width="0.4" stroke-miterlimit="10"/>
<path d="M81.1411 70.9748L81.1431 70.9739C82.694 70.3018 83.6855 68.5704 84.3936 66.5628C84.8702 65.2116 85.2056 63.7779 85.5026 62.5087C85.6465 61.8935 85.7814 61.3169 85.919 60.8071M81.1411 70.9748L86.1121 60.8592M81.1411 70.9748C79.795 71.5761 78.239 71.0799 76.8885 70.3453C75.9111 69.8046 74.9941 69.1083 74.0661 68.3807C73.9541 68.2929 73.842 68.2046 73.7296 68.1162C72.9141 67.4743 72.084 66.821 71.2038 66.2549C70.2088 65.6042 69.271 65.1868 68.3312 64.9746C66.1945 64.4649 64.1883 65.0925 61.8086 65.8389L61.8068 65.8394C59.4536 66.6008 57.4191 66.0914 55.7637 64.8536C54.1007 63.61 52.8155 61.6259 51.9985 59.4419L51.9982 59.4412C51.3791 57.8056 50.8964 56.1158 50.7111 54.4251L50.7111 54.4244C50.6829 54.1752 50.6526 53.9146 50.6211 53.6444C50.3907 51.6663 50.1005 49.174 50.1862 46.8642C50.2349 45.5525 50.4047 44.3113 50.77 43.2644C51.1351 42.2184 51.6908 41.3788 52.5042 40.8487L52.5049 40.8482C52.6323 40.7644 52.805 40.7208 53.0303 40.7218C53.2556 40.7228 53.5203 40.7684 53.8177 40.8496C54.4138 41.0123 55.1048 41.3069 55.8165 41.6179C55.873 41.6426 55.9296 41.6674 55.9863 41.6922C56.6371 41.9771 57.2982 42.2664 57.8904 42.4567C58.213 42.5603 58.5228 42.6371 58.8056 42.667C59.0867 42.6968 59.3554 42.6818 59.5873 42.5883C60.6006 42.1836 61.557 41.7078 62.4922 41.2425C62.927 41.0262 63.3573 40.8121 63.7867 40.6085C65.1475 39.9632 66.5178 39.4125 68.062 39.1789L68.0631 39.1787C70.1253 38.8549 71.7 37.2397 73.185 35.5729C73.3386 35.4006 73.4912 35.2276 73.6435 35.055C74.2354 34.3841 74.8219 33.7194 75.4355 33.1235C76.2054 32.3757 77.0051 31.7498 77.8866 31.3705L81.1411 70.9748ZM85.919 60.8071L86.1121 60.8592M85.919 60.8071C85.9189 60.8073 85.9189 60.8075 85.9188 60.8077L86.1121 60.8592M85.919 60.8071C86.0309 60.387 86.1416 59.9485 86.2551 59.499C86.5057 58.5067 86.7698 57.4607 87.0909 56.4404C87.5585 54.9547 88.1538 53.4995 89.0241 52.2979M86.1121 60.8592C86.2254 60.4338 86.3369 59.9922 86.4508 59.541C87.0644 57.1106 87.749 54.3987 89.1867 52.4144M89.0241 52.2979C89.0239 52.2982 89.0237 52.2985 89.0235 52.2988L89.1867 52.4144M89.0241 52.2979C89.0243 52.2976 89.0245 52.2974 89.0247 52.2971L89.1867 52.4144M89.0241 52.2979L89.1867 52.4144M94.7673 38.1433C94.7722 38.1494 94.7773 38.1556 94.7827 38.1617L94.932 38.0285L94.759 38.1289C94.7618 38.1337 94.7646 38.1385 94.7673 38.1433ZM92.401 35.7578C92.4012 35.7579 92.4014 35.7581 92.4016 35.7582L92.5061 35.5876L92.4003 35.7573C92.4005 35.7575 92.4007 35.7576 92.401 35.7578ZM83.3161 35.0888C83.3175 35.0895 83.319 35.0902 83.3205 35.0909L83.4035 34.9089L83.3117 35.0866C83.3131 35.0873 83.3146 35.0881 83.3161 35.0888Z" stroke="url(#paint7_linear_7207_200313)" stroke-width="0.4" stroke-miterlimit="10"/>
<path d="M76.912 72.2808L76.9132 72.2814C78.4222 73.1464 80.1769 73.7166 81.7352 73.0555C83.49 72.3022 84.6093 70.3477 85.4037 68.0903C85.9493 66.5399 86.3287 64.8892 86.6614 63.4415C86.8126 62.7837 86.9542 62.1678 87.0973 61.6223M76.912 72.2808L87.2907 61.673M76.912 72.2808C75.8263 71.6683 74.8113 70.891 73.7882 70.0791C73.6445 69.9652 73.5007 69.8505 73.3565 69.7355C72.4775 69.0347 71.5849 68.3229 70.6403 67.6956C69.5405 66.9446 68.4889 66.4824 67.4669 66.2425L67.4661 66.2423C65.0938 65.6964 62.849 66.3631 60.2135 67.2042L60.2129 67.2044C57.5463 68.0635 55.2524 67.4799 53.3917 66.0776C51.5232 64.6694 50.0867 62.4302 49.1729 59.9823L49.1724 59.9811C48.4727 58.1411 47.9324 56.2397 47.7134 54.3306C47.6778 54.0189 47.6389 53.6908 47.5984 53.3494C47.3361 51.1381 47.0069 48.3622 47.0885 45.7857C47.1356 44.2995 47.3193 42.8916 47.726 41.7049C48.1323 40.5191 48.7564 39.5672 49.6766 38.9706C49.8251 38.8745 50.0251 38.8271 50.283 38.8313C50.5407 38.8356 50.8423 38.8914 51.1798 38.9875C51.8559 39.1799 52.6389 39.5228 53.4427 39.8829C53.504 39.9104 53.5655 39.9379 53.627 39.9656C54.3649 40.2967 55.1127 40.6322 55.7813 40.8535C56.1442 40.9736 56.4914 41.0628 56.8073 41.0986C57.1215 41.1343 57.4196 41.119 57.675 41.0158C58.7866 40.5695 59.8407 40.0434 60.8754 39.5269C61.3801 39.275 61.8801 39.0254 62.38 38.7885C63.9135 38.0617 65.4664 37.4426 67.2191 37.1899L67.2194 37.1898C69.5088 36.8561 71.25 35.0351 72.893 33.1401C73.0734 32.932 73.2526 32.723 73.4315 32.5144C74.0755 31.7633 74.7143 31.0181 75.3825 30.3481C76.2349 29.4931 77.1215 28.7749 78.1006 28.3383L78.1008 28.3382C78.3626 28.2213 78.7324 28.3021 79.2274 28.5998C79.7105 28.8905 80.2518 29.3507 80.8195 29.8716C81.0513 30.0843 81.2891 30.3087 81.5279 30.5341C81.8651 30.8523 82.2042 31.1722 82.5303 31.463C83.0894 31.9614 83.6412 32.4031 84.14 32.6471L84.142 32.6481C84.5477 32.8409 84.9894 32.9718 85.3663 32.7354M76.912 72.2808L94.2878 33.4297M87.0973 61.6223L87.2907 61.673M87.0973 61.6223C87.0973 61.6225 87.0972 61.6226 87.0972 61.6228L87.2907 61.673M87.0973 61.6223C87.2206 61.1475 87.3424 60.6508 87.4674 60.1408C87.7393 59.0321 88.0265 57.8606 88.3778 56.7158C88.8918 55.041 89.5496 53.3981 90.5174 52.0438L90.5186 52.0421C90.8905 51.5331 91.2798 51.0651 91.7402 50.6541M87.2907 61.673C87.4154 61.1928 87.538 60.693 87.6634 60.1813C88.3312 57.4577 89.0815 54.3972 90.6801 52.1601C91.0475 51.6571 91.4277 51.2012 91.8738 50.8029M91.7402 50.6541C91.7401 50.6541 91.74 50.6542 91.74 50.6543L91.8738 50.8029M91.7402 50.6541C91.7404 50.6539 91.7405 50.6538 91.7407 50.6537L91.8738 50.8029M91.7402 50.6541C92.4971 49.9721 93.3595 49.5634 94.1902 49.1698C94.3331 49.1021 94.475 49.0348 94.6153 48.9667C95.5791 48.4988 96.487 47.9825 97.2122 46.9994M91.8738 50.8029C92.6072 50.142 93.4401 49.747 94.2715 49.3527C95.3907 48.822 96.5071 48.2926 97.3736 47.1175M97.3736 47.1175L97.2118 47C97.2119 46.9998 97.2121 46.9996 97.2122 46.9994M97.3736 47.1175C98.8774 45.0461 99.1634 39.6011 97.1036 36.0025M97.3736 47.1175L97.2127 46.9988C97.2125 46.999 97.2124 46.9992 97.2122 46.9994M97.2122 46.9994C97.9277 46.0134 98.373 44.1847 98.3749 42.1325C98.3769 40.0929 97.9405 37.8756 96.9385 36.1168M97.1036 36.0025L96.9543 36.1357C96.9487 36.1294 96.9435 36.1231 96.9385 36.1168M97.1036 36.0025L96.93 36.1019C96.9328 36.1068 96.9357 36.1118 96.9385 36.1168M97.1036 36.0025L94.2878 33.4297M96.9385 36.1168C96.9143 36.0861 96.8979 36.0566 96.8883 36.0393L96.8864 36.0361C96.873 36.0121 96.8706 36.0091 96.8692 36.0076L96.8564 35.9932L96.8466 35.9767C96.0818 34.6913 95.1585 33.9875 94.2878 33.4297M94.2878 33.4297C94.2881 33.4299 94.2884 33.4301 94.2887 33.4303L94.3944 33.2605M94.2878 33.4297L97.0184 35.8744C96.231 34.551 95.2787 33.8268 94.3944 33.2605M94.2878 33.4297C91.504 31.6974 88.249 31.0256 85.3663 32.7354M94.2878 33.4297C94.2874 33.4295 94.287 33.4292 94.2866 33.4289L94.3944 33.2605M94.2878 33.4297L94.3944 33.2605M85.3663 32.7354C85.3672 32.7348 85.368 32.7343 85.3689 32.7338L85.262 32.5647L85.3641 32.7367C85.3648 32.7362 85.3656 32.7358 85.3663 32.7354Z" stroke="url(#paint8_linear_7207_200313)" stroke-width="0.4" stroke-miterlimit="10"/>
<path d="M76.9408 74.2402L76.9412 74.2404C78.6067 75.2147 80.5862 75.8729 82.301 75.1444L82.302 75.1439C84.2755 74.3183 85.523 72.1409 86.4009 69.6339C87.0042 67.911 87.42 66.0758 87.7832 64.4725C87.9478 63.7455 88.1017 63.0662 88.2574 62.4668L88.2574 62.4666C88.4012 61.9149 88.5427 61.3362 88.6881 60.7417C88.9825 59.5375 89.2929 58.2684 89.6702 57.0267C90.235 55.1681 90.9569 53.3442 92.0216 51.8375L92.0222 51.8367C92.432 51.2627 92.8847 50.7547 93.3731 50.289L93.3766 50.2857L93.3766 50.2857C94.2095 49.5294 95.1614 49.0791 96.0819 48.6438C96.2413 48.5684 96.3997 48.4935 96.5565 48.4174C97.626 47.8987 98.6373 47.323 99.4425 46.2176C100.241 45.1212 100.731 43.0854 100.729 40.807C100.726 38.5414 100.236 36.08 99.1213 34.1376C99.1075 34.1198 99.0968 34.1025 99.0887 34.0884C99.0782 34.0701 99.0689 34.0515 99.0625 34.0387L99.0618 34.0371C99.0543 34.0222 99.0501 34.0138 99.0462 34.007C99.0451 34.0051 99.0443 34.0038 99.0438 34.0031L99.033 33.991L99.0232 33.9745C98.1661 32.5361 97.1393 31.7342 96.1814 31.1265C93.0913 29.1987 89.4863 28.4465 86.3244 30.3336C85.9276 30.573 85.445 30.4619 84.988 30.2206M76.9408 74.2402L85.0808 30.0434M76.9408 74.2402C75.7436 73.5442 74.6275 72.6743 73.5087 71.7778C73.3856 71.6791 73.2624 71.5801 73.139 71.481C72.1456 70.6826 71.1427 69.8766 70.0842 69.1809L76.9408 74.2402ZM84.988 30.2206C84.9878 30.2205 84.9876 30.2204 84.9873 30.2203L85.0808 30.0434M84.988 30.2206C84.9884 30.2208 84.9887 30.221 84.9891 30.2212L85.0808 30.0434M84.988 30.2206C84.4424 29.9388 83.8376 29.4381 83.2231 28.873C82.8679 28.5464 82.4991 28.1883 82.132 27.8318C81.8659 27.5734 81.6006 27.3158 81.3421 27.0717C80.718 26.4825 80.122 25.9609 79.5899 25.6298C79.0451 25.291 78.6338 25.1935 78.3407 25.3246M85.0808 30.0434C84.2603 29.6201 83.2703 28.6585 82.2756 27.6924C80.7487 26.2094 79.2108 24.7158 78.2587 25.1422M78.3407 25.3246C78.3408 25.3245 78.3409 25.3245 78.341 25.3244L78.2587 25.1422M78.3407 25.3246C78.3406 25.3246 78.3405 25.3247 78.3404 25.3247L78.2587 25.1422M78.3407 25.3246L78.2587 25.1422M55.6759 39.3114L55.7504 39.497C55.7506 39.4969 55.7508 39.4968 55.751 39.4967L55.6759 39.3114ZM44.727 54.284C44.727 54.2838 44.727 54.2837 44.727 54.2835L44.5284 54.3071L44.7271 54.2844C44.727 54.2843 44.727 54.2841 44.727 54.284ZM46.3352 60.5765C46.3352 60.5764 46.3352 60.5763 46.3351 60.5762L46.1477 60.646L46.3353 60.5768C46.3353 60.5767 46.3352 60.5766 46.3352 60.5765ZM58.6303 68.6165C58.6302 68.6165 58.6301 68.6166 58.6299 68.6166L58.6914 68.8069L58.6303 68.6165ZM66.5963 67.5873C66.5961 67.5873 66.596 67.5872 66.5959 67.5872L66.5507 67.7821L66.5968 67.5874C66.5966 67.5874 66.5964 67.5873 66.5963 67.5873Z" stroke="url(#paint9_linear_7207_200313)" stroke-width="0.4" stroke-miterlimit="10"/>
<path d="M76.9705 76.1992L76.9717 76.2C78.7965 77.3049 80.9738 78.0369 82.9006 77.2491C85.0806 76.3543 86.4545 73.9486 87.4203 71.1842C88.0769 69.3048 88.5317 67.304 88.9291 65.5553C89.1157 64.7343 89.2896 63.969 89.4659 63.2978M76.9705 76.1992L89.6595 63.3481M76.9705 76.1992C75.6623 75.42 74.4513 74.4562 73.2345 73.4662C73.1306 73.3817 73.0266 73.297 72.9226 73.2122C71.8115 72.3067 70.6883 71.3913 69.4875 70.6025M76.9705 76.1992L69.3773 70.7694M89.4659 63.2978C89.4659 63.2976 89.466 63.2975 89.466 63.2973L89.6595 63.3481M89.4659 63.2978C89.4658 63.2981 89.4658 63.2983 89.4657 63.2986L89.6595 63.3481M89.4659 63.2978C89.6182 62.7016 89.768 62.0759 89.9221 61.4327C90.2406 60.1024 90.5772 58.6968 90.9909 57.3207C91.6056 55.2755 92.3975 53.2685 93.5746 51.6176C94.0169 50.9861 94.5052 50.4155 95.07 49.9258M89.6595 63.3481C89.8133 62.7458 89.964 62.1167 90.1184 61.4715C90.9085 58.1721 91.7995 54.4512 93.7381 51.7329C94.1738 51.1106 94.6522 50.5523 95.2029 50.0752M95.07 49.9258C95.0694 49.9264 95.0687 49.927 95.068 49.9276L95.2029 50.0752M95.07 49.9258C95.0707 49.9252 95.0713 49.9247 95.072 49.9241L95.2029 50.0752M95.07 49.9258C95.9811 49.0939 97.0239 48.5978 98.0358 48.1165C98.2082 48.0345 98.3797 47.9529 98.5495 47.8702C99.7243 47.2976 100.839 46.6623 101.728 45.4458C102.609 44.239 103.144 41.9961 103.139 39.4882C103.135 36.9898 102.594 34.2729 101.371 32.1303M95.2029 50.0752C96.0906 49.2641 97.1043 48.7816 98.1174 48.2993C99.4774 47.6519 100.837 47.0048 101.889 45.5637C103.726 43.0491 104.035 36.3884 101.541 32.0257M101.541 32.0257L101.375 32.1364C101.373 32.1344 101.372 32.1323 101.371 32.1303M101.541 32.0257C101.52 31.9936 101.506 31.9659 101.492 31.9381C101.478 31.9104 101.465 31.8827 101.443 31.8506C100.473 30.2242 99.3225 29.3269 98.2593 28.658M101.541 32.0257L101.368 32.1249C101.369 32.1267 101.37 32.1285 101.371 32.1303M101.371 32.1303C101.345 32.0904 101.327 32.0555 101.314 32.0293L101.313 32.0274C101.299 31.9996 101.29 31.9819 101.277 31.9614L101.271 31.9532L101.272 31.9531C100.323 30.3628 99.1999 29.4861 98.1532 28.8276M98.1532 28.8276L98.2593 28.658M98.1532 28.8276C94.7874 26.7218 90.8261 25.8651 87.3379 27.9419L87.3333 27.9447L87.3332 27.9446C86.8893 28.193 86.379 28.0639 85.8643 27.7893M98.1532 28.8276C98.153 28.8275 98.1529 28.8274 98.1527 28.8273L98.2593 28.658M98.2593 28.658C94.8606 26.5316 90.8143 25.6394 87.2356 27.7701C86.8856 27.9659 86.4593 27.8801 85.9585 27.6128M43.8911 35.1526C39.5382 37.9796 40.6309 46.9782 41.3353 52.7783C41.3969 53.2855 41.4555 53.7682 41.5072 54.2202C41.7794 56.6158 42.4632 58.95 43.2985 61.1927C45.5366 67.2125 50.3582 72.3544 57.0674 70.155C60.261 69.1117 62.8826 68.3747 65.639 69.0627M43.8911 35.1526L43.9995 35.3206C43.9996 35.3206 43.9997 35.3205 43.9998 35.3205M43.8911 35.1526L44 35.3203C43.9999 35.3204 43.9998 35.3204 43.9998 35.3205M43.8911 35.1526C44.8705 34.5204 46.9324 35.4755 48.9779 36.4231C50.8725 37.3007 52.7531 38.1718 53.7462 37.7689M43.9998 35.3205C42.8666 36.0565 42.1075 37.2361 41.6209 38.7014C41.134 40.1676 40.9248 41.906 40.8827 43.7359C40.812 46.8081 41.212 50.1033 41.5334 52.7503C41.5951 53.2586 41.6539 53.743 41.7059 54.1974L41.7059 54.1976C41.9756 56.571 42.6537 58.8885 43.4859 61.1229L43.486 61.123C44.5966 64.1103 46.343 66.8638 48.6272 68.5967C50.9032 70.3234 53.7181 71.0425 57.0051 69.965L57.0053 69.9649C60.1936 68.9233 62.8674 68.1651 65.6864 68.8684M43.9998 35.3205C44.1902 35.1976 44.4443 35.1408 44.7659 35.1497C45.0876 35.1586 45.4624 35.2329 45.8793 35.3572C46.7141 35.606 47.6802 36.0432 48.6677 36.4998C48.7437 36.535 48.8198 36.5703 48.896 36.6056C49.8029 37.0257 50.7185 37.4498 51.5351 37.7314C51.9785 37.8843 52.4004 37.998 52.7824 38.0456C53.1625 38.0929 53.5186 38.0768 53.8206 37.9546M65.6864 68.8684C65.6861 68.8683 65.6858 68.8683 65.6855 68.8682L65.639 69.0627M65.6864 68.8684C65.6867 68.8685 65.6871 68.8686 65.6875 68.8687L65.639 69.0627M65.6864 68.8684C66.8981 69.1578 68.1511 69.7162 69.4875 70.6025M65.639 69.0627C66.8243 69.3457 68.0562 69.8933 69.3773 70.7694M69.3773 70.7694L69.4871 70.6022C69.4872 70.6023 69.4874 70.6024 69.4875 70.6025M69.3773 70.7694L69.4878 70.6027C69.4877 70.6026 69.4876 70.6026 69.4875 70.6025M53.8206 37.9546C53.8203 37.9547 53.82 37.9548 53.8198 37.9549L53.7462 37.7689M53.8206 37.9546C55.2097 37.4045 56.5172 36.7455 57.8023 36.0979C58.3972 35.7981 58.9873 35.5007 59.5785 35.2176C61.4556 34.3189 63.3643 33.5531 65.5454 33.2592L65.5187 33.061M53.8206 37.9546C53.8208 37.9545 53.8211 37.9544 53.8213 37.9542L53.7462 37.7689M53.7462 37.7689C55.1273 37.2221 56.4212 36.5699 57.7022 35.9243C60.1771 34.6769 62.604 33.4538 65.5187 33.061M65.5187 33.061C68.4876 32.6607 70.6552 30.0231 72.8324 27.3737C74.5763 25.2516 76.3264 23.1219 78.4995 22.1285C79.5298 21.6503 81.2184 23.3248 82.8931 24.9856C83.9824 26.0658 85.0657 27.1402 85.9585 27.6128M65.5187 33.061L65.5454 33.2592C68.3073 32.8869 70.3774 30.6444 72.3357 28.2899C72.5547 28.0266 72.7725 27.7616 72.9898 27.4971C73.7527 26.5689 74.511 25.6461 75.3062 24.816C76.3268 23.7507 77.3942 22.8537 78.5826 22.3104L78.5836 22.31C78.906 22.1603 79.3589 22.272 79.9563 22.6525C80.5399 23.0242 81.1942 23.6094 81.8783 24.269C82.1633 24.5437 82.4553 24.8333 82.7482 25.1236C83.1492 25.5212 83.5517 25.9203 83.9395 26.2847C84.6124 26.917 85.2722 27.4757 85.8643 27.7893M85.8643 27.7893C85.8645 27.7894 85.8647 27.7895 85.8649 27.7896L85.9585 27.6128M85.8643 27.7893L85.9585 27.6128" stroke="url(#paint10_linear_7207_200313)" stroke-width="0.4" stroke-miterlimit="10"/>
<path d="M76.9986 78.1587L76.9992 78.1591C78.9819 79.3742 81.39 80.2168 83.4727 79.362L83.4729 79.3619C85.8577 78.3863 87.3598 75.7568 88.412 72.7422C89.1377 70.6631 89.6361 68.445 90.0689 66.5186C90.2629 65.6552 90.4438 64.8503 90.626 64.1428C90.7994 63.4671 90.9694 62.7565 91.1444 62.0255C91.485 60.602 91.8441 59.101 92.2825 57.6291C92.9474 55.3968 93.8019 53.2028 95.0728 51.388L95.0745 51.3855C95.5556 50.7205 96.0774 50.0906 96.6999 49.5347C97.6955 48.6271 98.8274 48.0892 99.9262 47.5671C100.116 47.4767 100.306 47.3868 100.493 47.2955C101.77 46.6732 102.983 45.98 103.952 44.6413L103.952 44.6411C104.905 43.3267 105.485 40.8763 105.477 38.1388C105.47 35.4111 104.88 32.4434 103.541 30.1057L103.539 30.1027C103.504 30.0501 103.453 29.9735 103.423 29.8839C102.386 28.1549 101.172 27.2078 100.032 26.4769C96.3866 24.1713 92.0765 23.2332 88.2622 25.4987C87.7967 25.7838 87.2275 25.6381 86.6774 25.3231C86.0382 24.9718 85.3248 24.3526 84.5957 23.6514C84.1767 23.2485 83.7424 22.8082 83.3095 22.3693C82.9907 22.0461 82.6727 21.7237 82.3621 21.4176C81.6208 20.6869 80.911 20.0372 80.2778 19.6228C79.6301 19.199 79.1348 19.0688 78.7809 19.2327C77.4949 19.8337 76.3404 20.8218 75.2372 21.9922C74.3838 22.8976 73.5695 23.9024 72.751 24.9125C72.5102 25.2097 72.269 25.5074 72.0263 25.8031C69.909 28.3831 67.6731 30.8295 64.6893 31.2239L64.689 31.2239C62.2992 31.5369 60.2136 32.3696 58.1676 33.3519C57.4962 33.6742 56.8266 34.0141 56.1513 34.3568C54.7782 35.0537 53.382 35.7623 51.9007 36.3593L51.8993 36.3599C51.5735 36.4884 51.188 36.5026 50.7746 36.4477C50.3594 36.3926 49.9 36.2657 49.4163 36.0958C48.5284 35.784 47.5328 35.3179 46.5448 34.8554C46.458 34.8148 46.3713 34.7742 46.2847 34.7337C45.2057 34.2295 44.1482 33.7462 43.234 33.4693C42.7775 33.3311 42.3659 33.2473 42.012 33.2355C41.6581 33.2238 41.3765 33.2845 41.1644 33.4196C39.9242 34.2225 39.0968 35.5146 38.569 37.1196C38.0409 38.7257 37.8178 40.6308 37.7773 42.6352C37.7097 45.977 38.1494 49.5596 38.5031 52.4414C38.574 53.0185 38.6414 53.5675 38.7005 54.0809M76.9986 78.1587L38.5019 54.1039M76.9986 78.1587C75.5793 77.2961 74.2673 76.2397 72.9522 75.1539C72.8177 75.0429 72.6832 74.9315 72.5485 74.82C71.3695 73.8441 70.1789 72.8586 68.9092 71.9965L68.9083 71.9959C67.4759 71.0347 66.1327 70.4243 64.813 70.1132M76.9986 78.1587L68.7968 72.162C67.3799 71.2111 66.0585 70.6122 64.7666 70.3078M38.7005 54.0809C38.7005 54.0809 38.7005 54.081 38.7005 54.081L38.5019 54.1039M38.7005 54.0809C38.7005 54.0808 38.7005 54.0807 38.7005 54.0807L38.5019 54.1039M38.7005 54.0809C39.0042 56.6735 39.7167 59.2091 40.6289 61.6465L40.6291 61.6469C41.8366 64.8979 43.7342 67.9065 46.2266 69.8033C48.7107 71.6938 51.791 72.4858 55.4036 71.3072L55.4043 71.3069C58.8748 70.1886 61.7351 69.3804 64.813 70.1132M38.5019 54.1039C38.8079 56.7171 39.5255 59.269 40.4416 61.7166C42.8732 68.2634 48.1057 73.8985 55.4656 71.4973C58.9407 70.3775 61.7501 69.5896 64.7666 70.3078M64.813 70.1132C64.8128 70.1132 64.8127 70.1132 64.8125 70.1131L64.7666 70.3078M64.813 70.1132L64.7666 70.3078" stroke="url(#paint11_linear_7207_200313)" stroke-width="0.4" stroke-miterlimit="10"/>
<path d="M38.1946 31.4315L38.3034 31.5993C38.533 31.4505 38.8389 31.3844 39.2231 31.3979C39.6071 31.4113 40.0538 31.5037 40.5493 31.6554C41.5413 31.9592 42.6908 32.4883 43.8629 33.0397C43.9556 33.0833 44.0484 33.1271 44.1413 33.1708C45.2163 33.6774 46.2993 34.1878 47.2642 34.5295C47.7889 34.7154 48.2865 34.8542 48.7352 34.9149C49.1822 34.9754 49.597 34.9606 49.9458 34.8225L49.9462 34.8224C51.5696 34.176 53.0985 33.4003 54.6041 32.6364C55.3198 32.2733 56.0302 31.9129 56.7429 31.5703C58.9642 30.5026 61.2308 29.5956 63.8292 29.2637C65.4438 29.0593 66.849 28.2909 68.132 27.2273C69.4135 26.165 70.5831 24.7996 71.7251 23.3881C71.9877 23.0634 72.2488 22.7365 72.5095 22.4101C73.3866 21.3118 74.2597 20.2185 75.1757 19.2334C76.3627 17.9569 77.6073 16.8786 78.9979 16.2242C79.1862 16.1366 79.4118 16.1273 79.6841 16.2016C79.9585 16.2766 80.2682 16.4335 80.6087 16.6611C81.29 17.1164 82.0553 17.8275 82.8544 18.6261C83.19 18.9615 83.5335 19.3144 83.8778 19.668C84.3441 20.1471 84.812 20.6277 85.2638 21.0685C86.0513 21.8368 86.8201 22.5152 87.507 22.9038L87.5069 22.9038L87.5104 22.9057C88.1078 23.228 88.6828 23.3985 89.1956 23.1032L89.1978 23.1019C93.3381 20.6465 97.981 21.6947 101.927 24.1724C103.184 24.971 104.501 26.0161 105.624 27.8743C105.654 27.9638 105.705 28.0403 105.74 28.0929L105.742 28.0955C107.189 30.6437 107.826 33.8571 107.834 36.8079C107.842 39.7686 107.217 42.421 106.183 43.8583C105.142 45.3042 103.827 46.0569 102.441 46.7339C102.24 46.8323 102.036 46.9293 101.832 47.0268C100.638 47.5959 99.4108 48.1811 98.3368 49.1653L98.3351 49.1669C97.6814 49.7802 97.1197 50.4448 96.6027 51.172L96.6024 51.1725C95.2189 53.1316 94.2943 55.5089 93.5793 57.9281C93.1044 59.5351 92.7188 61.1731 92.3539 62.7232C92.1704 63.5027 91.9921 64.2599 91.8104 64.9798C91.6157 65.7409 91.4226 66.6086 91.2152 67.5407C90.7519 69.6228 90.2171 72.026 89.4336 74.2781C88.2979 77.542 86.6677 80.3946 84.0641 81.4427L84.0631 81.4432C81.7762 82.3786 79.1658 81.4406 77.0274 80.1164L77.0273 80.1163C75.4965 79.1701 74.0852 78.0269 72.6685 76.8581C72.5609 76.7692 72.4532 76.6802 72.3454 76.5912C71.0381 75.5111 69.7184 74.4206 68.3007 73.4698L68.2999 73.4693C66.7476 72.4394 65.3223 71.8023 63.892 71.4465L63.8908 71.4463C60.5934 70.6468 57.5159 71.4885 53.7685 72.7073L53.7674 72.7077C49.8482 74.007 46.5104 73.1466 43.8212 71.0916C41.1234 69.0301 39.073 65.7607 37.7687 62.2458L37.7685 62.2452C36.7686 59.5783 35.9758 56.8385 35.6619 54.0235L35.6619 54.0234C35.5926 53.403 35.5114 52.7338 35.4257 52.0274C35.0523 48.9478 34.593 45.1609 34.6552 41.6194C34.6934 39.4439 34.9286 37.374 35.4959 35.6278C36.063 33.8824 36.957 32.4747 38.3036 31.5992L38.1946 31.4315ZM38.1946 31.4315C33.1257 34.7272 34.3952 45.1933 35.2278 52.0572C35.3133 52.7619 35.3942 53.4286 35.4631 54.0457M38.1946 31.4315C39.3414 30.688 41.7926 31.843 44.2244 32.9889C46.472 34.048 48.703 35.0992 49.8722 34.6366C51.4873 33.9935 53.0021 33.2249 54.5031 32.4633C57.4395 30.9733 60.3235 29.5099 63.8039 29.0653C67.2912 28.624 69.8142 25.4646 72.3501 22.2892C74.366 19.7648 76.3901 17.2302 78.9132 16.043L35.4631 54.0457M35.4631 54.0457C35.7795 56.8828 36.578 59.6395 37.5812 62.3154C40.2061 69.3893 45.856 75.5411 53.8303 72.8975C57.5806 71.6778 60.6076 70.856 63.8437 71.6406M35.4631 54.0457L63.8437 71.6406M63.8437 71.6406C65.2485 71.99 66.6531 72.6167 68.1893 73.6359L63.8437 71.6406Z" stroke="url(#paint12_linear_7207_200313)" stroke-width="0.4" stroke-miterlimit="10"/>
<path d="M77.0571 82.0762L77.0564 82.0758C75.4144 81.0461 73.9023 79.8105 72.3795 78.5534C72.3168 78.5017 72.2542 78.4499 72.1915 78.3982C70.7338 77.1943 69.2611 75.9781 67.6639 74.9286C66.0074 73.7991 64.4456 73.1241 62.9344 72.7411L62.9331 72.7407C59.4155 71.8745 56.1264 72.7739 52.1036 74.0926L52.1032 74.0928C47.8823 75.4866 44.285 74.5521 41.3873 72.3331C38.4812 70.1076 36.2739 66.5848 34.8729 62.8066C33.8154 59.9278 32.9651 56.9763 32.6174 53.9431L32.6173 53.9429C32.5423 53.2959 32.4553 52.5991 32.3634 51.8638C31.9473 48.5329 31.4326 44.4123 31.4901 40.5608C31.5252 38.2113 31.7735 35.975 32.3817 34.089C32.9896 32.2039 33.9519 30.6837 35.4057 29.7412C35.6568 29.5802 35.9903 29.5106 36.4068 29.5275C36.8232 29.5444 37.3069 29.6471 37.8423 29.8138C38.9142 30.1474 40.1556 30.7248 41.4198 31.3253C41.5174 31.3717 41.6152 31.4182 41.713 31.4647C42.8751 32.0176 44.0448 32.574 45.0859 32.9468C45.651 33.1491 46.1859 33.3003 46.6677 33.3668C47.1476 33.4331 47.5913 33.4177 47.9631 33.2702L47.9635 33.2701C49.7099 32.5733 51.3501 31.7357 52.9661 30.9106C53.7343 30.5182 54.4971 30.1287 55.2633 29.7585C57.6499 28.605 60.0918 27.6253 62.9106 27.2713C64.6419 27.0543 66.1483 26.2283 67.5236 25.082C68.8973 23.937 70.1502 22.4638 71.3733 20.9389C71.6617 20.5793 71.9484 20.217 72.2346 19.8552C73.1665 18.6774 74.0943 17.5046 75.0668 16.4465C76.3369 15.0646 77.6687 13.8951 79.1572 13.1829C79.3641 13.0846 79.6103 13.074 79.905 13.1546C80.2021 13.2359 80.5364 13.407 80.903 13.6547C81.6365 14.1504 82.4593 14.9252 83.3169 15.7944C83.6804 16.1629 84.0523 16.5505 84.4247 16.9388C84.9218 17.4569 85.4199 17.9762 85.901 18.4527C86.7449 19.2887 87.5673 20.0253 88.3007 20.4457C88.9438 20.8143 89.5616 20.9666 90.0947 20.6683L90.0947 20.6684L90.0994 20.6657C94.5193 18.0338 99.5353 19.1573 103.762 21.8357L103.763 21.836C105.144 22.7058 106.56 23.8299 107.754 25.8578L107.754 25.8579L107.76 25.867C107.778 25.8947 107.799 25.9286 107.822 25.9675L107.824 25.9701C107.845 26.0043 107.868 26.0426 107.89 26.0767C109.453 28.8201 110.14 32.2848 110.15 35.4652C110.16 38.6553 109.491 41.5152 108.385 43.0602L108.385 43.0603C107.264 44.6284 105.845 45.4406 104.354 46.1683C104.136 46.2746 103.916 46.3793 103.695 46.4844C102.412 47.0952 101.095 47.722 99.9454 48.7802L99.9442 48.7813C99.2498 49.4309 98.6301 50.1619 98.0784 50.9497L98.0777 50.9507C96.6126 53.0703 95.6315 55.6326 94.8694 58.2377C94.3735 59.9333 93.9671 61.6597 93.5816 63.2974C93.376 64.171 93.1763 65.0194 92.9722 65.8243L92.9721 65.8246C92.7712 66.622 92.5711 67.5291 92.3562 68.5034C91.8577 70.7629 91.2796 73.3839 90.4267 75.8364C89.2048 79.3503 87.4465 82.4266 84.6383 83.5557C82.1866 84.5368 79.3558 83.5317 77.0571 82.0762Z" stroke="url(#paint13_linear_7207_200313)" stroke-width="0.4" stroke-miterlimit="10"/>
<path d="M45.9764 31.5122C47.8259 30.7728 49.5591 29.8883 51.2778 29.0113C54.6702 27.2802 58.0058 25.578 62.0671 25.0776C66.0719 24.5818 68.9537 20.9045 71.8517 17.2065C74.1393 14.2875 76.4369 11.3555 79.305 9.96549L45.9764 31.5122ZM45.9764 31.5122C44.6329 32.0463 42.0524 30.8061 39.4505 29.5555M45.9764 31.5122L39.4505 29.5555M39.4505 29.5555C36.6354 28.2025 33.7952 26.8374 32.4698 27.6948L39.4505 29.5555ZM77.0851 84.0346L77.0848 84.0344C75.3321 82.9216 73.7251 81.5921 72.113 80.2368C72.0066 80.1474 71.9001 80.0578 71.7936 79.9681C70.2897 78.7025 68.7726 77.4258 67.1325 76.3089L67.1318 76.3084C65.3567 75.1109 63.7051 74.384 62.0856 73.9791L62.0849 73.9789C58.3247 73.0528 54.7954 73.9919 50.5193 75.4047L50.5191 75.4048C45.9757 76.9113 42.1164 75.9153 39.0124 73.5385C35.8998 71.1551 33.5412 67.3772 32.0403 63.3234C30.9086 60.2637 29.9945 57.0774 29.6128 53.8261C29.5308 53.1191 29.435 52.3555 29.3337 51.5484C28.8877 47.9927 28.3359 43.5943 28.3911 39.4804C28.425 36.958 28.6873 34.5556 29.3368 32.5301C29.986 30.5053 31.017 28.8722 32.5784 27.8628L32.5785 27.8628C32.8504 27.6868 33.2109 27.6118 33.6593 27.6306C34.1074 27.6494 34.6276 27.7614 35.2027 27.9424C36.354 28.3048 37.6874 28.9312 39.044 29.5821C39.1512 29.6336 39.2585 29.6852 39.3659 29.7368C40.6109 30.3352 41.8627 30.9368 42.9764 31.3409C43.5819 31.5605 44.1545 31.7248 44.6695 31.7978C45.1826 31.8705 45.6553 31.8551 46.0502 31.698L46.0506 31.6979C47.9084 30.9552 49.6561 30.0634 51.3796 29.184C52.2144 28.758 53.0434 28.335 53.8765 27.9332C56.4391 26.6974 59.0639 25.6492 62.0915 25.2761L62.0916 25.2761C63.9338 25.048 65.5356 24.1659 66.998 22.9384C68.4588 21.7122 69.7907 20.1323 71.0919 18.4949C71.4 18.1071 71.7063 17.7162 72.0123 17.3258C73.0025 16.0622 73.9893 14.8031 75.0244 13.6659C76.378 12.1789 77.7997 10.9174 79.3915 10.1458C79.6112 10.0412 79.8734 10.0316 80.1877 10.1205C80.5043 10.2101 80.8608 10.3964 81.2514 10.6646C82.033 11.2013 82.9112 12.0376 83.8266 12.9747C84.2151 13.3723 84.6123 13.7903 85.0101 14.209C85.5407 14.7674 86.0725 15.3271 86.5865 15.8415C87.4883 16.7441 88.3656 17.5395 89.1464 17.9972L89.1481 17.9982C89.8126 18.3791 90.4975 18.5749 91.0538 18.2393C95.8002 15.4183 101.166 16.6235 105.673 19.5021L105.674 19.5031C107.144 20.4236 108.656 21.622 109.942 23.8005C109.967 23.8463 109.991 23.886 110.013 23.9228L110.014 23.9236C110.037 23.9617 110.058 23.9969 110.081 24.0374L110.081 24.0384C111.751 26.9816 112.494 30.6989 112.512 34.1094C112.531 37.5274 111.822 40.5926 110.633 42.2479L110.633 42.2481C109.43 43.927 107.906 44.7929 106.308 45.5716C106.086 45.6801 105.861 45.787 105.636 45.8944C104.252 46.5539 102.833 47.2296 101.6 48.3822L101.598 48.3835C100.848 49.0977 100.188 49.8645 99.6005 50.7137C98.0264 52.9889 96.9752 55.734 96.1623 58.5231C95.6263 60.3621 95.1908 62.2328 94.7784 64.0039C94.5664 64.9145 94.3605 65.7988 94.1502 66.639L94.1501 66.6393C93.9402 67.4838 93.7311 68.4441 93.5064 69.4759C92.9774 71.9051 92.3622 74.7301 91.4475 77.3706C90.1429 81.1369 88.2564 84.4365 85.229 85.6379L85.2286 85.6381C82.5726 86.6999 79.5396 85.5992 77.0851 84.0346Z" stroke="url(#paint14_linear_7207_200313)" stroke-width="0.4" stroke-miterlimit="10"/>
<path d="M85.876 87.936C91.5413 85.6887 93.4768 76.7894 94.8412 70.5162C95.0763 69.4353 95.2944 68.4324 95.5117 67.5549C95.7459 66.6236 95.9735 65.645 96.2075 64.6387C97.3056 59.9173 98.546 54.5839 101.277 50.6436C101.89 49.7464 102.576 48.9303 103.364 48.2125M85.876 87.936L85.8029 87.7499C85.8027 87.7499 85.8025 87.75 85.8022 87.7501M85.876 87.936C82.9617 89.08 79.6579 87.8602 77.005 86.1613M85.876 87.936L85.8022 87.7501M85.8022 87.7501C89.0345 86.4679 91.0491 82.9445 92.441 78.9309C93.421 76.1046 94.0788 73.0802 94.6425 70.4881C94.8784 69.4032 95.0979 68.3941 95.3176 67.5068L95.3178 67.5061C95.5502 66.5819 95.777 65.6067 96.0107 64.6019C96.4437 62.7405 96.9003 60.7776 97.4597 58.8483C98.3226 55.8726 99.438 52.9461 101.113 50.53C101.733 49.6227 102.428 48.7948 103.228 48.0654M85.8022 87.7501C82.982 88.8568 79.7526 87.6834 77.1129 85.9929M103.228 48.0654C103.228 48.0656 103.227 48.0659 103.227 48.0661L103.364 48.2125M103.228 48.0654C103.228 48.0651 103.229 48.0649 103.229 48.0646L103.364 48.2125M103.228 48.0654C104.546 46.8382 106.052 46.1212 107.523 45.4213C107.766 45.3055 108.008 45.1902 108.248 45.0732C109.949 44.2446 111.57 43.3208 112.854 41.5196L112.854 41.5188C114.126 39.7528 114.88 36.4806 114.858 32.833C114.837 29.1932 114.045 25.2245 112.271 22.0827L112.271 22.082C112.221 21.9921 112.176 21.9122 112.139 21.856L112.133 21.8471L112.133 21.847C110.756 19.5157 109.147 18.2419 107.58 17.2458M103.364 48.2125C104.657 47.0075 106.133 46.3046 107.605 45.6038C109.565 44.6706 111.516 43.7413 113.017 41.6356C115.633 38.0022 116.035 28.3427 112.446 21.9843C112.397 21.8968 112.348 21.8093 112.305 21.7453C110.907 19.3781 109.271 18.0836 107.688 17.0771M107.58 17.2458C107.58 17.2459 107.58 17.2459 107.581 17.2459L107.688 17.0771M107.58 17.2458L107.688 17.0771M107.58 17.2458C102.773 14.1953 97.0753 12.8797 92.0028 15.8903L92.0002 15.8919C91.3995 16.236 90.6959 16.0514 89.9799 15.601M107.688 17.0771C102.849 14.0061 97.065 12.6532 91.9007 15.7183C91.3993 16.0057 90.7831 15.8705 90.0842 15.4303M89.9799 15.601C89.9807 15.6015 89.9816 15.6019 89.9824 15.6024L90.0842 15.4303M89.9799 15.601C89.9791 15.6005 89.9784 15.6 89.9776 15.5995L90.0842 15.4303M89.9799 15.601C89.1459 15.107 88.2123 14.2522 87.2538 13.2819C86.7 12.7213 86.1285 12.112 85.5587 11.5047C85.1433 11.0619 84.7288 10.6201 84.323 10.199C83.3522 9.1918 82.4215 8.29277 81.5933 7.71617C81.1793 7.42795 80.8011 7.22767 80.4648 7.13164C80.1309 7.0363 79.8511 7.04693 79.6158 7.16154L79.6157 7.16161C77.9189 7.98674 76.4067 9.3387 74.9691 10.9321C73.8711 12.1492 72.8252 13.4969 71.7761 14.8489C71.4505 15.2684 71.1247 15.6883 70.7968 16.1048C69.4169 17.8582 68.0045 19.5482 66.4535 20.8573C64.9008 22.1679 63.1987 23.1058 61.2381 23.3405M90.0842 15.4303C88.8062 14.6743 87.2581 13.024 85.7084 11.3719C83.3278 8.83417 80.9434 6.2923 79.5283 6.98174C76.4762 8.46589 74.0398 11.6055 71.6149 14.7304C68.5403 18.6923 65.4841 22.6308 61.2143 23.1419M61.2381 23.3405C61.2382 23.3404 61.2383 23.3404 61.2384 23.3404L61.2143 23.1419M61.2381 23.3405L61.2143 23.1419M61.2381 23.3405C58.0019 23.7325 55.202 24.8534 52.471 26.1759C51.5837 26.6056 50.7011 27.058 49.8126 27.5134C47.9759 28.4549 46.1142 29.4092 44.1333 30.2024L44.133 30.2025C43.7151 30.369 43.2136 30.385 42.6676 30.3065C42.1197 30.2278 41.5098 30.0513 40.8642 29.8153C39.6753 29.3807 38.3384 28.7338 37.0087 28.0904C36.8958 28.0357 36.783 27.9812 36.6703 27.9267C35.2235 27.2277 33.801 26.5547 32.5742 26.1648C31.9612 25.9701 31.4067 25.8492 30.9293 25.8285C30.4515 25.8078 30.0671 25.888 29.7774 26.0777L29.7767 26.0781C28.1091 27.1602 27.0118 28.9089 26.3235 31.0742C25.6349 33.2402 25.3607 35.808 25.3296 38.5031C25.2796 42.8271 25.8544 47.4442 26.3231 51.2088C26.439 52.1395 26.5484 53.0181 26.6402 53.8272L26.6403 53.8274C27.0323 57.3022 28.0036 60.6995 29.216 63.9638L29.2161 63.964C30.8138 68.2815 33.3236 72.3145 36.6416 74.8626C39.9509 77.4041 44.0698 78.4745 48.9267 76.8701M61.2143 23.1419C56.8767 23.6673 53.3233 25.4889 49.7104 27.341C47.8786 28.28 46.0314 29.2269 44.059 30.0167C42.6276 30.5869 39.8707 29.253 37.0937 27.9093C34.0925 26.4571 31.0679 24.9936 29.6678 25.9103C23.4719 29.9311 25.0721 42.7814 26.1254 51.2401C26.2411 52.1687 26.3501 53.0445 26.4415 53.8498C26.836 57.3462 27.8128 60.76 29.0286 64.0334C32.2401 72.7119 39.14 80.3136 48.9894 77.0601M48.9267 76.8701C48.9266 76.8702 48.9265 76.8702 48.9264 76.8703L48.9894 77.0601M48.9267 76.8701L48.9894 77.0601M48.9267 76.8701C53.479 75.3571 57.2251 74.3846 61.1979 75.3534L61.1984 75.3535C62.9251 75.78 64.6661 76.5583 66.5363 77.83M48.9894 77.0601C53.5419 75.547 57.2386 74.5938 61.1505 75.5477C62.8516 75.9678 64.5716 76.7357 66.4253 77.9963M66.5363 77.83C66.5359 77.8297 66.5356 77.8295 66.5353 77.8293L66.4253 77.9963M66.5363 77.83C66.5368 77.8303 66.5373 77.8306 66.5377 77.831L66.4253 77.9963M66.5363 77.83C68.355 79.0279 70.0302 80.432 71.6962 81.8283L71.8284 81.9391C73.5415 83.3747 75.2491 84.7966 77.1129 85.9929M66.4253 77.9963C68.2347 79.188 69.9024 80.5859 71.5714 81.9846C73.326 83.4553 75.0819 84.927 77.005 86.1613M77.005 86.1613L77.1129 85.9929M77.005 86.1613L77.1131 85.993C77.113 85.9929 77.113 85.9929 77.1129 85.9929" stroke="url(#paint15_linear_7207_200313)" stroke-width="0.4" stroke-miterlimit="10"/>
<path d="M26.1727 64.5569L26.3601 64.487C25.0672 61.0184 24.032 57.3862 23.5997 53.67C23.5009 52.7976 23.3823 51.8473 23.2564 50.8388C22.7597 46.8588 22.1498 41.9722 22.1969 37.3911C22.2265 34.5216 22.5141 31.7856 23.2435 29.4782C23.9726 27.1714 25.138 25.3086 26.913 24.1595L26.9136 24.1591C27.2217 23.9582 27.6314 23.8751 28.1401 23.8997C28.6485 23.9243 29.2389 24.0557 29.8913 24.2656C31.197 24.6857 32.7122 25.4068 34.2525 26.1545C34.3663 26.2097 34.4802 26.2651 34.5942 26.3205C36.0164 27.0118 37.4464 27.7068 38.7168 28.1733C39.4036 28.4255 40.0517 28.6139 40.6331 28.6983C41.2126 28.7824 41.7432 28.7658 42.184 28.5898L42.1843 28.5897C44.2769 27.7506 46.2462 26.742 48.1904 25.7463C49.1453 25.2573 50.094 24.7714 51.0483 24.3102C53.9553 22.9053 56.9381 21.7158 60.3834 21.3047C62.4605 21.0574 64.2634 20.0605 65.9078 18.6655C67.5505 17.2719 69.0456 15.4719 70.5062 13.6038C70.8553 13.1573 71.2023 12.707 71.5489 12.2573C72.657 10.8196 73.7616 9.38638 74.9208 8.09242C76.4416 6.39489 78.0416 4.95474 79.8375 4.07764L79.8377 4.07754C80.1421 3.92844 80.5193 3.94546 80.9818 4.13208C81.4447 4.31885 81.9661 4.66539 82.5321 5.12982C83.6537 6.05005 84.9056 7.39467 86.1683 8.75093L86.2028 8.78802C87.4707 10.1499 88.749 11.5202 89.8931 12.4424C90.4649 12.9032 91.0157 13.2627 91.5258 13.4508C92.0381 13.6398 92.535 13.6643 92.9667 13.4117L92.9672 13.4114C98.3493 10.2406 104.397 11.6379 109.485 14.889L109.486 14.8895C111.141 15.9362 112.853 17.3081 114.321 19.7916L114.322 19.7919C116.295 23.1172 117.18 27.3805 117.221 31.3044C117.263 35.236 116.457 38.7806 115.096 40.6839C113.729 42.5962 112.004 43.5797 110.199 44.462C109.945 44.5858 109.69 44.7077 109.434 44.83C107.871 45.5764 106.273 46.3397 104.876 47.6438C102.185 50.1498 100.508 53.6633 99.2947 57.3679C98.4389 59.9818 97.8094 62.7093 97.2214 65.2568C96.9769 66.3163 96.7396 67.3446 96.4961 68.3207L96.496 68.3212C96.2643 69.2599 96.0326 70.3298 95.7833 71.4814C95.1875 74.2335 94.4908 77.4517 93.4508 80.4588C91.9741 84.7288 89.8328 88.4812 86.3934 89.8324C83.3686 91.0202 79.9367 89.751 77.1409 87.9513L77.1409 87.9512C75.1695 86.6834 73.3628 85.175 71.5522 83.6465C71.4692 83.5764 71.3862 83.5063 71.3032 83.4362C69.5781 81.979 67.8425 80.513 65.9641 79.2462L65.964 79.2462C62.6821 77.0351 59.7604 76.1906 56.7798 76.1973C53.8082 76.2039 50.7915 77.057 47.3254 78.2122C42.1585 79.9257 37.7804 78.7811 34.262 76.0728C30.7348 73.3577 28.0664 69.0652 26.3602 64.487L26.1727 64.5569Z" stroke="url(#paint16_linear_7207_200313)" stroke-width="0.4" stroke-miterlimit="10"/>
<path d="M8.41113 77.2979L5.21617 71.7239C4.52087 70.5109 4.93349 68.9598 6.13777 68.2595L23.5057 58.1595C24.71 57.4591 26.2499 57.8747 26.9452 59.0877L30.1402 64.6617L8.41113 77.2979Z" fill="#718096"/>
<path d="M8.41113 77.2979L11.6061 82.8718C12.3014 84.0848 13.8413 84.5004 15.0456 83.8001L32.4135 73.7C33.6178 72.9997 34.0304 71.4486 33.3351 70.2356L30.1402 64.6617L8.41113 77.2979Z" fill="#718096"/>
<path d="M8.41113 77.2979L5.21617 71.7239C4.52087 70.5109 4.93349 68.9598 6.13777 68.2595L15.0085 63.1009L19.4624 70.8712L8.41113 77.2979Z" fill="#4A5568"/>
<path d="M8.41113 77.2979L11.6061 82.8718C12.3014 84.0848 13.8413 84.5004 15.0456 83.8001L23.9163 78.6415L19.4624 70.8712L8.41113 77.2979Z" fill="#4A5568"/>
<path d="M28.6084 65.5527L24.0291 57.5637C23.3338 56.3507 23.7464 54.7996 24.9507 54.0993L50.4678 39.2602C51.6721 38.5599 53.212 38.9755 53.9073 40.1885L58.4866 48.1775L28.6084 65.5527Z" fill="#4A5568"/>
<path d="M28.6084 65.5527L33.1877 73.5418C33.883 74.7548 35.4229 75.1704 36.6272 74.4701L62.1443 59.631C63.3486 58.9307 63.7612 57.3796 63.0659 56.1666L58.4866 48.1775L28.6084 65.5527Z" fill="#4A5568"/>
<path d="M54.9619 50.2275L47.5298 37.2615C46.8345 36.0485 47.2472 34.4975 48.4514 33.7971L59.0584 27.6288C60.2627 26.9285 61.8026 27.3441 62.4979 28.5571L69.9299 41.5231L54.9619 50.2275Z" fill="#718096"/>
<path d="M54.9619 50.2275L62.394 63.1935C63.0893 64.4066 64.6292 64.8222 65.8335 64.1218L76.4404 57.9535C77.6447 57.2532 78.0573 55.7021 77.362 54.4891L69.9299 41.5231L54.9619 50.2275Z" fill="#718096"/>
<path opacity="0.2" fill-rule="evenodd" clip-rule="evenodd" d="M15.0456 83.8001C13.8413 84.5004 12.3014 84.0848 11.6061 82.8718L8.41113 77.2979L19.4624 70.8712L28.6092 65.552L30.1402 64.6617L54.9621 50.2269L69.9301 41.5225L77.3622 54.4885C78.0575 55.7015 77.6449 57.2526 76.4406 57.9529L65.8336 64.1212C64.6294 64.8215 63.0894 64.4059 62.3942 63.1929L60.8003 60.4123L36.628 74.4693C35.4237 75.1696 33.8838 74.754 33.1885 73.541L33.0063 73.2232C32.838 73.4069 32.6397 73.5685 32.4135 73.7L23.9163 78.6415L15.0456 83.8001Z" fill="#1D2229"/>
<path fill-rule="evenodd" clip-rule="evenodd" d="M66.4627 65.215C64.6563 66.2655 62.3464 65.6421 61.3035 63.8226L60.3391 62.1401L37.2571 75.5632C35.753 76.4378 33.8999 76.152 32.7197 74.9816L15.6747 84.8939C13.8682 85.9444 11.5584 85.321 10.5155 83.5015L4.12551 72.3536C3.08258 70.5341 3.7015 68.2075 5.50792 67.157L22.553 57.2447C22.1368 55.63 22.8176 53.8707 24.3217 52.996L47.4037 39.573L46.4393 37.8905C45.3964 36.071 46.0153 33.7444 47.8218 32.694L58.4287 26.5256C60.2351 25.4752 62.545 26.0986 63.5879 27.9181L78.4521 53.8501C79.495 55.6696 78.8761 57.9962 77.0697 59.0467L66.4627 65.215ZM23.7236 56.6939C23.7709 56.9903 23.8716 57.2831 24.0295 57.5586L24.2117 57.8764C23.9696 57.9314 23.7316 58.0235 23.5053 58.1551L6.13738 68.2551C4.93311 68.9555 4.52049 70.5065 5.21578 71.7195L11.6057 82.8674C12.301 84.0804 13.8409 84.4961 15.0452 83.7957L32.4131 73.6957C32.6394 73.5641 32.8377 73.4025 33.0059 73.2188L33.1881 73.5367C33.346 73.8121 33.5474 74.0464 33.7786 74.2359C34.5654 74.8809 35.6968 75.0063 36.6276 74.465L60.7999 60.4079L62.3938 63.1886C63.0891 64.4016 64.629 64.8172 65.8333 64.1168L76.4402 57.9485C77.6445 57.2482 78.0571 55.6972 77.3618 54.4841L62.4976 28.5521C61.8024 27.3391 60.2624 26.9235 59.0582 27.6238L48.4512 33.7921C47.2469 34.4925 46.8343 36.0435 47.5296 37.2565L49.1235 40.0371L24.9511 54.0942C24.0203 54.6355 23.5624 55.685 23.7236 56.6939Z" fill="url(#paint17_linear_7207_200313)"/>
<path d="M29.2236 89.7588H54.9613V95.1532H29.2236V89.7588Z" fill="#718096"/>
<path fill-rule="evenodd" clip-rule="evenodd" d="M54.048 89.762H30.8283V95.4662H54.048V89.762ZM29.5693 88.6631V96.5651H55.307V88.6631H29.5693Z" fill="url(#paint18_linear_7207_200313)"/>
<path d="M33.5199 60.8251C33.6998 60.2389 34.3901 59.891 35.0617 60.0481L44.5333 62.2633C45.2049 62.4204 45.6035 63.023 45.4235 63.6092L32.1234 106.935C31.9435 107.521 31.2532 107.869 30.5816 107.712L24.4541 106.279C21.9356 105.69 20.441 103.431 21.1158 101.232L33.5199 60.8251Z" fill="#718096"/>
<path fill-rule="evenodd" clip-rule="evenodd" d="M44.2075 63.3248L34.7359 61.1095L22.3319 101.517C21.837 103.129 22.933 104.786 24.7799 105.218L30.9074 106.651L44.2075 63.3248ZM35.0617 60.0481C34.3901 59.891 33.6998 60.2389 33.5199 60.8251L21.1158 101.232C20.441 103.431 21.9356 105.69 24.4541 106.279L30.5816 107.712C31.2532 107.869 31.9435 107.521 32.1234 106.935L45.4235 63.6092C45.6035 63.023 45.2049 62.4204 44.5333 62.2633L35.0617 60.0481Z" fill="url(#paint19_linear_7207_200313)"/>
<path d="M38.2731 62.0419C38.0931 61.4557 38.4917 60.8531 39.1633 60.6961L48.6349 58.4808C49.3065 58.3237 49.9968 58.6716 50.1768 59.2578L63.013 101.073C63.6878 103.271 62.1932 105.531 59.6747 106.12L53.5473 107.553C52.8757 107.71 52.1853 107.362 52.0054 106.776L38.2731 62.0419Z" fill="#718096"/>
<path fill-rule="evenodd" clip-rule="evenodd" d="M48.9607 59.5422L39.4891 61.7575L53.2214 106.492L59.3489 105.058C61.1958 104.626 62.2918 102.969 61.797 101.357L48.9607 59.5422ZM39.1633 60.6961C38.4917 60.8531 38.0931 61.4557 38.2731 62.0419L52.0054 106.776C52.1853 107.362 52.8757 107.71 53.5473 107.553L59.6747 106.12C62.1932 105.531 63.6878 103.271 63.013 101.073L50.1768 59.2578C49.9968 58.6716 49.3065 58.3237 48.6349 58.4808L39.1633 60.6961Z" fill="url(#paint20_linear_7207_200313)"/>
<path d="M51.091 60.9C51.091 65.6966 47.2305 69.5851 42.4683 69.5851C37.7062 69.5851 33.8457 65.6966 33.8457 60.9C33.8457 56.1033 37.7062 52.2148 42.4683 52.2148C47.2305 52.2148 51.091 56.1033 51.091 60.9Z" fill="url(#paint21_linear_7207_200313)"/>
<path d="M45.3959 60.9008C45.3959 62.5293 44.0852 63.8495 42.4685 63.8495C40.8517 63.8495 39.541 62.5293 39.541 60.9008C39.541 59.2723 40.8517 57.9521 42.4685 57.9521C44.0852 57.9521 45.3959 59.2723 45.3959 60.9008Z" fill="#718096"/>
<defs>
<linearGradient id="paint0_linear_7207_200313" x1="71.4601" y1="53.618" x2="78.6206" y2="58.0976" gradientUnits="userSpaceOnUse">
<stop stop-color="#BD30FF"/>
<stop offset="1" stop-color="#7D00FF"/>
</linearGradient>
<linearGradient id="paint1_linear_7207_200313" x1="68.156" y1="51.9989" x2="81.9297" y2="58.8211" gradientUnits="userSpaceOnUse">
<stop stop-color="#BD30FF"/>
<stop offset="1" stop-color="#7D00FF"/>
</linearGradient>
<linearGradient id="paint2_linear_7207_200313" x1="64.8176" y1="50.1386" x2="85.2789" y2="59.052" gradientUnits="userSpaceOnUse">
<stop stop-color="#BD30FF"/>
<stop offset="1" stop-color="#7D00FF"/>
</linearGradient>
<linearGradient id="paint3_linear_7207_200313" x1="61.4878" y1="48.2989" x2="88.5409" y2="59.2934" gradientUnits="userSpaceOnUse">
<stop stop-color="#BD30FF"/>
<stop offset="1" stop-color="#7D00FF"/>
</linearGradient>
<linearGradient id="paint4_linear_7207_200313" x1="58.1032" y1="46.4479" x2="91.73" y2="59.5314" gradientUnits="userSpaceOnUse">
<stop stop-color="#BD30FF"/>
<stop offset="1" stop-color="#7D00FF"/>
</linearGradient>
<linearGradient id="paint5_linear_7207_200313" x1="54.7746" y1="44.5825" x2="94.9327" y2="59.6939" gradientUnits="userSpaceOnUse">
<stop stop-color="#BD30FF"/>
<stop offset="1" stop-color="#7D00FF"/>
</linearGradient>
<linearGradient id="paint6_linear_7207_200313" x1="51.4908" y1="42.7085" x2="98.1635" y2="59.8403" gradientUnits="userSpaceOnUse">
<stop stop-color="#BD30FF"/>
<stop offset="1" stop-color="#7D00FF"/>
</linearGradient>
<linearGradient id="paint7_linear_7207_200313" x1="48.0778" y1="40.8643" x2="101.297" y2="60.1051" gradientUnits="userSpaceOnUse">
<stop stop-color="#BD30FF"/>
<stop offset="1" stop-color="#7D00FF"/>
</linearGradient>
<linearGradient id="paint8_linear_7207_200313" x1="44.7497" y1="38.9972" x2="104.447" y2="60.2654" gradientUnits="userSpaceOnUse">
<stop stop-color="#BD30FF"/>
<stop offset="1" stop-color="#7D00FF"/>
</linearGradient>
<linearGradient id="paint9_linear_7207_200313" x1="41.4238" y1="37.1556" x2="107.593" y2="60.4754" gradientUnits="userSpaceOnUse">
<stop stop-color="#BD30FF"/>
<stop offset="1" stop-color="#7D00FF"/>
</linearGradient>
<linearGradient id="paint10_linear_7207_200313" x1="38.0733" y1="35.3199" x2="110.776" y2="60.753" gradientUnits="userSpaceOnUse">
<stop stop-color="#BD30FF"/>
<stop offset="1" stop-color="#7D00FF"/>
</linearGradient>
<linearGradient id="paint11_linear_7207_200313" x1="34.7203" y1="33.4145" x2="113.956" y2="60.8593" gradientUnits="userSpaceOnUse">
<stop stop-color="#BD30FF"/>
<stop offset="1" stop-color="#7D00FF"/>
</linearGradient>
<linearGradient id="paint12_linear_7207_200313" x1="31.3455" y1="31.5851" x2="117.085" y2="61.1335" gradientUnits="userSpaceOnUse">
<stop stop-color="#BD30FF"/>
<stop offset="1" stop-color="#7D00FF"/>
</linearGradient>
<linearGradient id="paint13_linear_7207_200313" x1="27.9623" y1="29.7108" x2="120.222" y2="61.2954" gradientUnits="userSpaceOnUse">
<stop stop-color="#BD30FF"/>
<stop offset="1" stop-color="#7D00FF"/>
</linearGradient>
<linearGradient id="paint14_linear_7207_200313" x1="24.6351" y1="27.8456" x2="123.378" y2="61.4794" gradientUnits="userSpaceOnUse">
<stop stop-color="#BD30FF"/>
<stop offset="1" stop-color="#7D00FF"/>
</linearGradient>
<linearGradient id="paint15_linear_7207_200313" x1="21.2986" y1="26.0301" x2="126.505" y2="61.7218" gradientUnits="userSpaceOnUse">
<stop stop-color="#BD30FF"/>
<stop offset="1" stop-color="#7D00FF"/>
</linearGradient>
<linearGradient id="paint16_linear_7207_200313" x1="17.9368" y1="24.1255" x2="129.68" y2="61.8752" gradientUnits="userSpaceOnUse">
<stop stop-color="#BD30FF"/>
<stop offset="1" stop-color="#7D00FF"/>
</linearGradient>
<linearGradient id="paint17_linear_7207_200313" x1="0.61728" y1="61.8538" x2="67.01" y2="84.471" gradientUnits="userSpaceOnUse">
<stop stop-color="#BD30FF"/>
<stop offset="1" stop-color="#7D00FF"/>
</linearGradient>
<linearGradient id="paint18_linear_7207_200313" x1="30.33" y1="88.9745" x2="38.4619" y2="104.385" gradientUnits="userSpaceOnUse">
<stop stop-color="#BD30FF"/>
<stop offset="1" stop-color="#7D00FF"/>
</linearGradient>
<linearGradient id="paint19_linear_7207_200313" x1="33.6477" y1="61.6371" x2="49.2897" y2="69.088" gradientUnits="userSpaceOnUse">
<stop stop-color="#BD30FF"/>
<stop offset="1" stop-color="#7D00FF"/>
</linearGradient>
<linearGradient id="paint20_linear_7207_200313" x1="38.8659" y1="62.7448" x2="56.3411" y2="60.0562" gradientUnits="userSpaceOnUse">
<stop stop-color="#BD30FF"/>
<stop offset="1" stop-color="#7D00FF"/>
</linearGradient>
<linearGradient id="paint21_linear_7207_200313" x1="34.3554" y1="52.8994" x2="53.1129" y2="63.7343" gradientUnits="userSpaceOnUse">
<stop stop-color="#BD30FF"/>
<stop offset="1" stop-color="#7D00FF"/>
</linearGradient>
</defs>
</svg>
