<svg width="151" height="14" viewBox="0 0 151 14" fill="none" xmlns="http://www.w3.org/2000/svg">
<g clip-path="url(#clip0_1991_14553)">
<path d="M144.363 10.8003H141.957V3.76232H144.368C146.884 3.76232 148.028 3.99027 148.028 7.29885C148.028 10.3431 146.901 10.8057 144.368 10.8057L144.363 10.8003ZM144.702 13.4453C148.943 13.4453 150.879 12.1086 150.879 7.30424C150.879 2.13028 148.749 1.12813 144.702 1.12813H139.229V13.4453H144.702ZM137.03 10.718H130.074V1.12813H127.347V13.4453H137.024L137.03 10.718ZM118.677 11.0701C116.072 11.0701 115.069 10.5427 115.069 7.30424C115.069 3.94305 116.072 3.50335 118.677 3.50335C121.281 3.50335 122.301 3.96059 122.301 7.30424C122.301 10.5413 121.281 11.0701 118.677 11.0701ZM118.677 13.7096C123.093 13.7096 125.151 12.284 125.151 7.30424C125.151 2.13028 122.898 0.86377 118.677 0.86377C114.455 0.86377 112.219 2.13028 112.219 7.30424C112.219 12.284 114.259 13.7096 118.677 13.7096ZM110.019 13.4399V1.12274H107.293V5.93252H101.133V1.12274H98.4056V13.4399H101.133V8.63685H107.293V13.4399H110.019ZM90.2751 13.7096C94.7625 13.7096 96.0115 12.2664 96.0115 9.78602C96.0115 7.516 94.7976 6.72426 92.386 6.26567L89.014 5.61556C87.9241 5.4038 87.5182 5.08683 87.5182 4.4529C87.5182 3.85539 87.9768 3.32801 90.2818 3.32801C92.1297 3.32801 92.9794 3.69623 93.0792 5.33366H95.8955C95.7714 2.00754 94.0301 0.86377 90.2468 0.86377C86.0763 0.86377 84.6857 2.44725 84.6857 4.5055C84.6857 6.56376 85.6892 7.60772 87.8702 8.04203L91.4958 8.78117C92.4278 8.97405 93.1494 9.09813 93.1494 9.94248C93.1494 10.7868 92.6099 11.2441 90.2643 11.2441C88.3288 11.2441 87.4318 10.7868 87.3604 9.11567H84.3863C84.4213 12.4593 86.164 13.7016 90.2818 13.7016L90.2751 13.7096ZM82.3982 10.7099H74.2029V8.63685H82.2053V5.93252H74.2029V3.84999H82.2956V1.12274H71.4756V13.4399H82.386L82.3982 10.7099ZM54.8464 13.4399V1.12274H52.1191V5.93252H45.9606V1.12274H43.2333V13.4399H45.9606V8.63685H52.1191V13.4399H54.8464ZM41.2964 1.12274H30.3159V3.84999H34.4338V13.4399H37.1556V3.84999H41.2964V1.12274ZM60.5653 6.4545V3.84999H64.671C65.6745 3.84999 66.272 4.4475 66.272 5.16911C66.272 5.89071 65.6745 6.4545 64.671 6.4545H60.5653ZM60.5653 9.18176H64.0492L66.3192 13.4399H69.4525L66.8655 8.68945C68.2911 7.98538 68.9952 6.59478 68.9952 5.13404C68.9952 3.04071 67.5115 1.12274 64.613 1.12274H57.838V13.4399H60.5653V9.18176Z" fill="#FCF9FF"/>
<path d="M19.3355 1.1228H13.1769V3.17566H19.3355V1.1228ZM9.07119 3.17566H7.01833V5.22852H9.07119V3.17566ZM7.01833 13.44H9.07119V7.28138H7.01833V13.44ZM11.124 3.17566V5.22852H13.1769V3.17566H11.124ZM11.124 13.44H13.1769V7.28138H11.124V13.44ZM11.124 1.1228H9.07119V3.17566H11.124V1.1228ZM0.858398 1.1228V3.17566H7.01833V1.1228H0.858398ZM19.3368 7.28138V5.22852H13.1769V7.28138H19.3368ZM9.07254 5.22852V7.28138H11.124V5.22852H9.07254ZM0.859744 5.22852V7.28138H7.01968V5.22852H0.859744Z" fill="#FCF9FF"/>
</g>
<defs>
<clipPath id="clip0_1991_14553">
<rect width="150.015" height="12.8459" fill="white" transform="translate(0.858398 0.858398)"/>
</clipPath>
</defs>
</svg>
