<svg width="149" height="17" viewBox="0 0 149 17" fill="none" xmlns="http://www.w3.org/2000/svg">
    <path d="M140.019 12.6994H137.064V4.05863H140.025C143.114 4.05863 144.518 4.33848 144.518 8.40052C144.518 12.138 143.135 12.706 140.025 12.706L140.019 12.6994ZM140.434 15.9467C145.642 15.9467 148.018 14.3056 148.018 8.40714C148.018 2.05493 145.404 0.824564 140.434 0.824564H133.716V15.9467H140.434ZM131.015 12.5983H122.476V0.824564H119.127V15.9467H131.009L131.015 12.5983ZM108.483 13.0306C105.285 13.0306 104.053 12.3831 104.053 8.40714C104.053 4.28052 105.285 3.74068 108.483 3.74068C111.68 3.74068 112.932 4.30205 112.932 8.40714C112.932 12.3814 111.68 13.0306 108.483 13.0306ZM108.483 16.2712C113.904 16.2712 116.431 14.5209 116.431 8.40714C116.431 2.05493 113.666 0.5 108.483 0.5C103.3 0.5 100.554 2.05493 100.554 8.40714C100.554 14.5209 103.06 16.2712 108.483 16.2712ZM97.8532 15.94V0.817939H94.5066V6.72305H86.9438V0.817939H83.5955V15.94H86.9438V10.0432H94.5066V15.94H97.8532ZM73.6135 16.2712C79.1228 16.2712 80.6562 14.4994 80.6562 11.4541C80.6562 8.66713 79.1659 7.69509 76.205 7.13207L72.0652 6.3339C70.7272 6.07391 70.2287 5.68477 70.2287 4.90647C70.2287 4.17289 70.7917 3.52541 73.6218 3.52541C75.8904 3.52541 76.9337 3.97749 77.0562 5.98781H80.5138C80.3615 1.90424 78.2236 0.5 73.5787 0.5C68.4585 0.5 66.7512 2.44408 66.7512 4.97106C66.7512 7.49803 67.9833 8.77974 70.6609 9.31295L75.1121 10.2204C76.2564 10.4572 77.1423 10.6096 77.1423 11.6462C77.1423 12.6828 76.4799 13.2442 73.6002 13.2442C71.2239 13.2442 70.1227 12.6828 70.035 10.6311H66.3836C66.4267 14.7362 68.5662 16.2613 73.6218 16.2613L73.6135 16.2712ZM63.9427 12.5884H53.8812V10.0432H63.7059V6.72305H53.8812V4.16626H63.8169V0.817939H50.5329V15.94H63.9278L63.9427 12.5884ZM30.1167 15.94V0.817939H26.7684V6.72305H19.2073V0.817939H15.859V15.94H19.2073V10.0432H26.7684V15.94H30.1167ZM13.4811 0.817939H0V4.16626H5.05561V15.94H8.39731V4.16626H13.4811V0.817939ZM37.1379 7.3639V4.16626H42.1786C43.4107 4.16626 44.1442 4.89985 44.1442 5.78578C44.1442 6.67171 43.4107 7.3639 42.1786 7.3639H37.1379ZM37.1379 10.7122H41.4152L44.2022 15.94H48.049L44.8729 10.1078C46.6232 9.2434 47.4876 7.53611 47.4876 5.74272C47.4876 3.17269 45.6661 0.817939 42.1074 0.817939H33.7896V15.94H37.1379V10.7122Z" fill="#718096"/>
</svg>